M48
;Layer_Color=9474304
;FILE_FORMAT=4:4
METRIC,LZ
;TYPE=PLATED
T1F00S00C0.5080
T2F00S00C0.7112
T3F00S00C1.0200
T4F00S00C1.1000
%
T01
X012192Y004191
X012573
X012954
X013335
X013716
X014097
X014478
X014859
X01524
X0154305Y004572
X0150495
X0146685
X0142875
X014478Y004953
X0142875Y005334
X0139065
X0135255
X013716Y004953
X012573
X012192
X0123825Y004572
X0127635Y005334
X012192Y005715
Y006477
X012573
X012954
X013335
X013716
X014097
X0142875Y006858
X0146685
X0150495
X0154305
X01524Y007239
X014859
X014478
X014097
X013716
X013335
X012954
X012573
X012192
X0123825Y006858
X0127635
X0131445
X0135255
X0139065
Y006096
X0142875
X0150495
X0154305
X01524Y006477
Y005715
X0154305Y005334
X0150495
X01524Y004953
X0135255Y006096
T02
X0133096Y0048641
T03
X0129286Y0045593
X0131826
X0134366
X0136906
X0139446
T04
X0145415Y0055626
Y0058166
Y0060706
Y0063246
Y0065786
X0147955
Y0063246
Y0060706
Y0058166
Y0055626
M30
