M48
;Layer_Color=9474304
;FILE_FORMAT=4:4
METRIC,LZ
;TYPE=PLATED
T1F00S00C0.2540
T2F00S00C0.3300
T3F00S00C0.5080
T4F00S00C1.0000
T5F00S00C1.1000
;TYPE=NON_PLATED
T6F00S00C0.5000
%
T01
X0082296Y0070993
X00819506Y00721716
X0083566Y0076073
X0082296Y0078613
X00879785Y0077698
X0094361Y0073406
X0107315Y0054864
X0109855Y0054991
X0073152Y005969
X007115Y00597056
X0064262Y0059817
Y0057912
X00656962Y00634978
X00656189Y00651832
X0068707Y0067056
X00710261Y00677849
X0071755Y0066802
X00722979Y0070231
X007493Y0067945
X0076708Y0067818
X0076454Y0066294
X0061976Y0073152
X00550538Y00698499
X0053975Y0075438
X00516893Y00770902
X00568814Y0079347
X0046482Y0073533
X00442598Y00697868
X004318Y0070612
X0041275Y0069723
X0042418Y006731
X0040767Y0079121
X0032258Y0078486
X00318693Y00808125
X00402424Y00888934
X0041529Y0093345
X00413272Y00951647
X0054483Y0094488
Y0091948
X0052959Y0092583
X0052451Y0084201
X0051308Y0083947
X0054229
X0055372Y0082296
X0059055Y0084709
X00596301Y00866042
X0060579Y0088011
X0057404
X0057277Y0086741
X006477Y0091059
X0064832Y00928865
X0068072Y0091313
X0069215
X006985Y0088392
X0068072
X0075565Y00885571
X0073279Y0085852
X0075692Y0079629
X0082423Y008001
X0085725Y00824312
X0088138Y0081026
X0089408
X0090043Y0090297
X00901983Y0093345
T02
X0057601Y009278
X0058801
X0060001
Y009398
X0058801
X0057601
T03
X012192Y005334
X0123825Y005715
X0120015
X012192Y006096
X0123825Y006477
Y007239
X012192Y00762
X011811
X01143
X011049
X010668
X0104775Y007239
X0100965
X010287Y006858
X010668
X0108585Y006477
X0112395
X0116205
X011811Y006096
X01143
X011049
X010668
X010287
X009906
X009525
X009144
X008763
X008382
X008001
X0081915Y005715
X0085725
X0089535
X0093345
X0097155
X0100965
X010287Y005334
X010668
X011049
X01143
X011811
X0116205Y005715
X01143Y006858
X0116205Y007239
X0112395
X0104775Y006477
X0100965
X009906Y006858
Y00762
X009144
X008763
Y006858
X008382
X008001
Y005334
X008382
X008763
X009144
X009525
X009906
X0093345Y006477
X0078105Y005715
X0070485
X0066675
X0062865
X0059055
X0055245
X005334Y006096
X004953
X004572
X004191
X0043815Y006477
X0047625
X0051435
X0055245
X005334Y006858
X004953
Y00762
X004572
X0055245Y007239
X0059055
X0066675
X006858Y00762
X007239
X006096Y006096
X005334Y005334
X004953
X004572
X004191
X0043815Y005715
X0040005
X0036195
X0032385
X0028575
X003048Y006096
X003429
X00381
Y006858
X003429
X003048
X002667
X0028575Y006477
X0032385
Y007239
X0036195
X002667Y00762
Y006096
Y005334
X003048
X003429
X00381
Y008382
X003429
X003048
X002667
X0028575Y008763
X0032385
X0036195
X00381Y009144
X003429
X003048
X002667
X0028575Y009525
X0032385
X0036195
X0028575Y008001
X0040005
X004191Y008382
X004572
X004953
X0051435Y008763
X0047625
X0043815
X0040005
X004191Y009144
X004572
X005334
X0055245Y009525
X0062865
X0066675
X0070485
X0074295
X0078105
X007239Y009144
X0066675Y008763
X0070485Y008001
X0074295
X005715Y008382
X0047625Y008001
X0040005Y009525
X0081915
X0085725
X0089535
X0093345
X0097155
X0100965
X0104775
X0108585
X0112395
Y008763
X0116205
X011811Y008382
X01143
X011049
X0108585Y008763
X0104775
X0100965
X0097155
X0093345
X0089535
X0085725
X008763Y009144
X009144
X009525
X009906
X010287
X008382
X008001
X0116205Y008001
X0120015
X012192Y008382
X0120015Y008763
X0123825Y009525
T04
X0040894Y0063754
X0038354
X0035814
X0112141Y0091186
X0114681
X0117221
T05
X0057404Y0053467
X0059944
X0062484
X0065024
X0067564
X0070104
X0072644
X0075184
T06
X00293521Y0072962
Y0076962
M30
