G04*
G04 #@! TF.GenerationSoftware,Altium Limited,Altium Designer,23.5.1 (21)*
G04*
G04 Layer_Physical_Order=3*
G04 Layer_Color=16440176*
%FSLAX44Y44*%
%MOMM*%
G71*
G04*
G04 #@! TF.SameCoordinates,14FB7749-BF70-4BA2-BDF3-10CF23B172C4*
G04*
G04*
G04 #@! TF.FilePolarity,Positive*
G04*
G01*
G75*
%ADD73C,1.5500*%
%ADD74R,1.5500X1.5500*%
%ADD81C,0.5000*%
%ADD82C,1.6000*%
%ADD83R,1.6000X1.6000*%
%ADD84C,0.7620*%
%ADD85C,0.6350*%
%ADD86C,0.6600*%
G36*
X1256030Y500380D02*
X254000D01*
Y1009650D01*
X1256030D01*
Y500380D01*
D02*
G37*
%LPC*%
G36*
X544830Y950707D02*
X542600Y950263D01*
X540710Y949000D01*
X539447Y947110D01*
X539003Y944880D01*
X539447Y942650D01*
X540710Y940760D01*
X542600Y939497D01*
X544830Y939053D01*
X547060Y939497D01*
X548950Y940760D01*
X550213Y942650D01*
X550657Y944880D01*
X550213Y947110D01*
X548950Y949000D01*
X547060Y950263D01*
X544830Y950707D01*
D02*
G37*
G36*
X901983Y939277D02*
X899754Y938833D01*
X897863Y937570D01*
X896600Y935680D01*
X896156Y933450D01*
X896600Y931220D01*
X897863Y929330D01*
X899754Y928067D01*
X901983Y927623D01*
X904213Y928067D01*
X906104Y929330D01*
X907367Y931220D01*
X907810Y933450D01*
X907367Y935680D01*
X906104Y937570D01*
X904213Y938833D01*
X901983Y939277D01*
D02*
G37*
G36*
X415290D02*
X413060Y938833D01*
X411170Y937570D01*
X409907Y935680D01*
X409463Y933450D01*
X409907Y931220D01*
X411170Y929330D01*
X413060Y928067D01*
X415290Y927623D01*
X417520Y928067D01*
X419410Y929330D01*
X420673Y931220D01*
X421117Y933450D01*
X420673Y935680D01*
X419410Y937570D01*
X417520Y938833D01*
X415290Y939277D01*
D02*
G37*
G36*
X529590Y931657D02*
X527360Y931213D01*
X525470Y929950D01*
X524207Y928060D01*
X523763Y925830D01*
X524207Y923600D01*
X525470Y921710D01*
X527360Y920447D01*
X529590Y920003D01*
X531820Y920447D01*
X533710Y921710D01*
X534973Y923600D01*
X535417Y925830D01*
X534973Y928060D01*
X533710Y929950D01*
X531820Y931213D01*
X529590Y931657D01*
D02*
G37*
G36*
X544830Y925307D02*
X542600Y924863D01*
X540710Y923600D01*
X539447Y921710D01*
X539003Y919480D01*
X539447Y917250D01*
X540710Y915360D01*
X542600Y914097D01*
X544830Y913653D01*
X547060Y914097D01*
X548950Y915360D01*
X550213Y917250D01*
X550657Y919480D01*
X550213Y921710D01*
X548950Y923600D01*
X547060Y924863D01*
X544830Y925307D01*
D02*
G37*
G36*
X1173480Y922072D02*
Y913130D01*
X1182422D01*
X1182235Y914546D01*
X1181198Y917049D01*
X1179549Y919199D01*
X1177399Y920848D01*
X1174896Y921885D01*
X1173480Y922072D01*
D02*
G37*
G36*
X1170940D02*
X1169524Y921885D01*
X1167021Y920848D01*
X1164871Y919199D01*
X1163222Y917049D01*
X1162185Y914546D01*
X1161998Y913130D01*
X1170940D01*
Y922072D01*
D02*
G37*
G36*
X680720Y918957D02*
X678490Y918513D01*
X676600Y917250D01*
X675337Y915360D01*
X674893Y913130D01*
X675337Y910900D01*
X676600Y909010D01*
X678490Y907747D01*
X680720Y907303D01*
X682950Y907747D01*
X684840Y909010D01*
X686103Y910900D01*
X686547Y913130D01*
X686103Y915360D01*
X684840Y917250D01*
X682950Y918513D01*
X680720Y918957D01*
D02*
G37*
G36*
X647700Y916417D02*
X645470Y915973D01*
X643580Y914710D01*
X642317Y912820D01*
X641873Y910590D01*
X642317Y908360D01*
X643580Y906470D01*
X645470Y905207D01*
X647700Y904763D01*
X649930Y905207D01*
X651820Y906470D01*
X653083Y908360D01*
X653527Y910590D01*
X653083Y912820D01*
X651820Y914710D01*
X649930Y915973D01*
X647700Y916417D01*
D02*
G37*
G36*
X1182422Y910590D02*
X1173480D01*
Y901648D01*
X1174896Y901835D01*
X1177399Y902872D01*
X1179549Y904521D01*
X1181198Y906671D01*
X1182235Y909174D01*
X1182422Y910590D01*
D02*
G37*
G36*
X1170940D02*
X1161998D01*
X1162185Y909174D01*
X1163222Y906671D01*
X1164871Y904521D01*
X1167021Y902872D01*
X1169524Y901835D01*
X1170940Y901648D01*
Y910590D01*
D02*
G37*
G36*
X1131700Y922150D02*
X1111120D01*
Y901570D01*
X1131700D01*
Y922150D01*
D02*
G37*
G36*
X1146810Y922239D02*
X1144124Y921885D01*
X1141621Y920848D01*
X1139471Y919199D01*
X1137822Y917049D01*
X1136785Y914546D01*
X1136431Y911860D01*
X1136785Y909174D01*
X1137822Y906671D01*
X1139471Y904521D01*
X1141621Y902872D01*
X1144124Y901835D01*
X1146810Y901481D01*
X1149496Y901835D01*
X1151999Y902872D01*
X1154149Y904521D01*
X1155798Y906671D01*
X1156835Y909174D01*
X1157189Y911860D01*
X1156835Y914546D01*
X1155798Y917049D01*
X1154149Y919199D01*
X1151999Y920848D01*
X1149496Y921885D01*
X1146810Y922239D01*
D02*
G37*
G36*
X900430Y908797D02*
X898200Y908353D01*
X896310Y907090D01*
X895047Y905200D01*
X894603Y902970D01*
X895047Y900740D01*
X896310Y898850D01*
X898200Y897587D01*
X900430Y897143D01*
X902660Y897587D01*
X904550Y898850D01*
X905813Y900740D01*
X906257Y902970D01*
X905813Y905200D01*
X904550Y907090D01*
X902660Y908353D01*
X900430Y908797D01*
D02*
G37*
G36*
X402424Y894761D02*
X400194Y894318D01*
X398304Y893055D01*
X397041Y891164D01*
X396597Y888934D01*
X397041Y886705D01*
X398304Y884814D01*
X400194Y883551D01*
X402424Y883108D01*
X404654Y883551D01*
X406544Y884814D01*
X407808Y886705D01*
X408251Y888934D01*
X407808Y891164D01*
X406544Y893055D01*
X404654Y894318D01*
X402424Y894761D01*
D02*
G37*
G36*
X755650Y891398D02*
X753420Y890954D01*
X751530Y889691D01*
X750267Y887801D01*
X749823Y885571D01*
X750267Y883341D01*
X751530Y881451D01*
X753420Y880188D01*
X755650Y879744D01*
X757880Y880188D01*
X759770Y881451D01*
X761033Y883341D01*
X761477Y885571D01*
X761033Y887801D01*
X759770Y889691D01*
X757880Y890954D01*
X755650Y891398D01*
D02*
G37*
G36*
X680720Y889747D02*
X678490Y889303D01*
X676600Y888040D01*
X675337Y886150D01*
X674893Y883920D01*
X675337Y881690D01*
X676600Y879800D01*
X678490Y878537D01*
X680720Y878093D01*
X682950Y878537D01*
X684840Y879800D01*
X686103Y881690D01*
X686547Y883920D01*
X686103Y886150D01*
X684840Y888040D01*
X682950Y889303D01*
X680720Y889747D01*
D02*
G37*
G36*
X605790Y885937D02*
X603560Y885493D01*
X601670Y884230D01*
X600407Y882340D01*
X599963Y880110D01*
X600407Y877880D01*
X601670Y875990D01*
X603560Y874727D01*
X605790Y874283D01*
X608020Y874727D01*
X609910Y875990D01*
X611173Y877880D01*
X611617Y880110D01*
X611173Y882340D01*
X609910Y884230D01*
X608020Y885493D01*
X605790Y885937D01*
D02*
G37*
G36*
X574040D02*
X571810Y885493D01*
X569920Y884230D01*
X568657Y882340D01*
X568213Y880110D01*
X568657Y877880D01*
X569920Y875990D01*
X571810Y874727D01*
X574040Y874283D01*
X576270Y874727D01*
X578160Y875990D01*
X579423Y877880D01*
X579867Y880110D01*
X579423Y882340D01*
X578160Y884230D01*
X576270Y885493D01*
X574040Y885937D01*
D02*
G37*
G36*
X572770Y873237D02*
X570540Y872793D01*
X568650Y871530D01*
X567387Y869640D01*
X566943Y867410D01*
X567387Y865180D01*
X568650Y863290D01*
X570540Y862027D01*
X572770Y861583D01*
X575000Y862027D01*
X576890Y863290D01*
X578153Y865180D01*
X578597Y867410D01*
X578153Y869640D01*
X576890Y871530D01*
X575000Y872793D01*
X572770Y873237D01*
D02*
G37*
G36*
X596301Y871869D02*
X594071Y871425D01*
X592181Y870162D01*
X590918Y868271D01*
X590474Y866042D01*
X590918Y863812D01*
X592181Y861921D01*
X594071Y860658D01*
X596301Y860215D01*
X598531Y860658D01*
X600421Y861921D01*
X601684Y863812D01*
X602128Y866042D01*
X601684Y868271D01*
X600421Y870162D01*
X598531Y871425D01*
X596301Y871869D01*
D02*
G37*
G36*
X732790Y864347D02*
X730560Y863903D01*
X728670Y862640D01*
X727407Y860750D01*
X726963Y858520D01*
X727407Y856290D01*
X728670Y854400D01*
X730560Y853137D01*
X732790Y852693D01*
X735020Y853137D01*
X736910Y854400D01*
X738173Y856290D01*
X738617Y858520D01*
X738173Y860750D01*
X736910Y862640D01*
X735020Y863903D01*
X732790Y864347D01*
D02*
G37*
G36*
X524510Y847837D02*
X522280Y847393D01*
X520390Y846130D01*
X519127Y844240D01*
X518936Y843279D01*
X517587Y843011D01*
X517200Y843590D01*
X515310Y844853D01*
X513080Y845297D01*
X510850Y844853D01*
X508960Y843590D01*
X507697Y841700D01*
X507253Y839470D01*
X507697Y837240D01*
X508960Y835350D01*
X510850Y834087D01*
X513080Y833643D01*
X515310Y834087D01*
X517200Y835350D01*
X518463Y837240D01*
X518655Y838201D01*
X520003Y838469D01*
X520390Y837890D01*
X522280Y836627D01*
X524510Y836183D01*
X526740Y836627D01*
X528630Y837890D01*
X529893Y839780D01*
X530337Y842010D01*
X529893Y844240D01*
X528630Y846130D01*
X526740Y847393D01*
X524510Y847837D01*
D02*
G37*
G36*
X590550Y852917D02*
X588320Y852473D01*
X586430Y851210D01*
X585167Y849320D01*
X584723Y847090D01*
X585167Y844860D01*
X586430Y842970D01*
X588320Y841707D01*
X590550Y841263D01*
X592780Y841707D01*
X594670Y842970D01*
X595933Y844860D01*
X596377Y847090D01*
X595933Y849320D01*
X594670Y851210D01*
X592780Y852473D01*
X590550Y852917D01*
D02*
G37*
G36*
X857250Y830139D02*
X855020Y829696D01*
X853130Y828433D01*
X851867Y826542D01*
X851423Y824312D01*
X851867Y822082D01*
X853130Y820192D01*
X855020Y818929D01*
X857250Y818485D01*
X859480Y818929D01*
X861370Y820192D01*
X862633Y822082D01*
X863077Y824312D01*
X862633Y826542D01*
X861370Y828433D01*
X859480Y829696D01*
X857250Y830139D01*
D02*
G37*
G36*
X894080Y816087D02*
X891850Y815643D01*
X889960Y814380D01*
X888697Y812490D01*
X888377Y810885D01*
X887083D01*
X886763Y812490D01*
X885500Y814380D01*
X883610Y815643D01*
X881380Y816087D01*
X879150Y815643D01*
X877260Y814380D01*
X875997Y812490D01*
X875553Y810260D01*
X875997Y808030D01*
X877260Y806140D01*
X879150Y804877D01*
X881380Y804433D01*
X883610Y804877D01*
X885500Y806140D01*
X886763Y808030D01*
X887083Y809634D01*
X888377D01*
X888697Y808030D01*
X889960Y806140D01*
X891850Y804877D01*
X894080Y804433D01*
X896310Y804877D01*
X898200Y806140D01*
X899463Y808030D01*
X899907Y810260D01*
X899463Y812490D01*
X898200Y814380D01*
X896310Y815643D01*
X894080Y816087D01*
D02*
G37*
G36*
X824230Y805927D02*
X822000Y805483D01*
X820110Y804220D01*
X818847Y802330D01*
X818403Y800100D01*
X818847Y797870D01*
X820110Y795980D01*
X822000Y794717D01*
X824230Y794273D01*
X826460Y794717D01*
X828350Y795980D01*
X829613Y797870D01*
X830057Y800100D01*
X829613Y802330D01*
X828350Y804220D01*
X826460Y805483D01*
X824230Y805927D01*
D02*
G37*
G36*
X516893Y776729D02*
X514663Y776286D01*
X512773Y775023D01*
X511510Y773132D01*
X511066Y770902D01*
X511510Y768672D01*
X512773Y766782D01*
X514663Y765519D01*
X516893Y765075D01*
X519123Y765519D01*
X521013Y766782D01*
X522276Y768672D01*
X522720Y770902D01*
X522276Y773132D01*
X521013Y775023D01*
X519123Y776286D01*
X516893Y776729D01*
D02*
G37*
G36*
X293521Y774759D02*
X291555Y774368D01*
X289888Y773254D01*
X288774Y771587D01*
X288383Y769620D01*
X288774Y767654D01*
X289888Y765986D01*
X291555Y764872D01*
X293521Y764481D01*
X295488Y764872D01*
X297155Y765986D01*
X298269Y767654D01*
X298660Y769620D01*
X298269Y771587D01*
X297155Y773254D01*
X295488Y774368D01*
X293521Y774759D01*
D02*
G37*
G36*
X539750Y760207D02*
X537520Y759763D01*
X535630Y758500D01*
X534367Y756610D01*
X533923Y754380D01*
X534367Y752150D01*
X535630Y750260D01*
X537520Y748997D01*
X539750Y748553D01*
X541980Y748997D01*
X543870Y750260D01*
X545133Y752150D01*
X545577Y754380D01*
X545133Y756610D01*
X543870Y758500D01*
X541980Y759763D01*
X539750Y760207D01*
D02*
G37*
G36*
X464820Y741157D02*
X462590Y740713D01*
X460700Y739450D01*
X459437Y737560D01*
X458993Y735330D01*
X459437Y733100D01*
X460700Y731210D01*
X462590Y729947D01*
X464820Y729503D01*
X467050Y729947D01*
X468940Y731210D01*
X470203Y733100D01*
X470647Y735330D01*
X470203Y737560D01*
X468940Y739450D01*
X467050Y740713D01*
X464820Y741157D01*
D02*
G37*
G36*
X943610Y739887D02*
X941380Y739443D01*
X939490Y738180D01*
X938227Y736290D01*
X937783Y734060D01*
X938227Y731830D01*
X939490Y729940D01*
X941380Y728677D01*
X943610Y728233D01*
X945840Y728677D01*
X947730Y729940D01*
X948993Y731830D01*
X949437Y734060D01*
X948993Y736290D01*
X947730Y738180D01*
X945840Y739443D01*
X943610Y739887D01*
D02*
G37*
G36*
X619760Y737347D02*
X617530Y736903D01*
X615640Y735640D01*
X614377Y733750D01*
X613933Y731520D01*
X614377Y729290D01*
X615640Y727400D01*
X617530Y726137D01*
X619760Y725693D01*
X621990Y726137D01*
X623880Y727400D01*
X625143Y729290D01*
X625587Y731520D01*
X625143Y733750D01*
X623880Y735640D01*
X621990Y736903D01*
X619760Y737347D01*
D02*
G37*
G36*
X293521Y734759D02*
X291555Y734368D01*
X289888Y733254D01*
X288774Y731587D01*
X288383Y729620D01*
X288774Y727654D01*
X289888Y725986D01*
X291555Y724873D01*
X293521Y724481D01*
X295488Y724873D01*
X297155Y725986D01*
X298269Y727654D01*
X298660Y729620D01*
X298269Y731587D01*
X297155Y733254D01*
X295488Y734368D01*
X293521Y734759D01*
D02*
G37*
G36*
X819506Y727543D02*
X817276Y727099D01*
X815386Y725836D01*
X814123Y723946D01*
X813679Y721716D01*
X814123Y719486D01*
X815386Y717596D01*
X817276Y716333D01*
X819506Y715889D01*
X821736Y716333D01*
X823626Y717596D01*
X824889Y719486D01*
X825333Y721716D01*
X824889Y723946D01*
X823626Y725836D01*
X821736Y727099D01*
X819506Y727543D01*
D02*
G37*
G36*
X722979Y708137D02*
X720749Y707693D01*
X718858Y706430D01*
X717595Y704540D01*
X717151Y702310D01*
X717595Y700080D01*
X718858Y698190D01*
X720749Y696927D01*
X722979Y696483D01*
X725208Y696927D01*
X727099Y698190D01*
X728362Y700080D01*
X728805Y702310D01*
X728362Y704540D01*
X727099Y706430D01*
X725208Y707693D01*
X722979Y708137D01*
D02*
G37*
G36*
X550538Y704326D02*
X548308Y703882D01*
X546418Y702619D01*
X545154Y700729D01*
X544711Y698499D01*
X545154Y696269D01*
X546418Y694379D01*
X548308Y693116D01*
X550538Y692672D01*
X552768Y693116D01*
X554658Y694379D01*
X555921Y696269D01*
X556365Y698499D01*
X555921Y700729D01*
X554658Y702619D01*
X552768Y703882D01*
X550538Y704326D01*
D02*
G37*
G36*
X442598Y703695D02*
X440368Y703251D01*
X438478Y701988D01*
X437215Y700098D01*
X436771Y697868D01*
X437215Y695638D01*
X438478Y693748D01*
X440368Y692485D01*
X442598Y692041D01*
X444828Y692485D01*
X446718Y693748D01*
X447981Y695638D01*
X448425Y697868D01*
X447981Y700098D01*
X446718Y701988D01*
X444828Y703251D01*
X442598Y703695D01*
D02*
G37*
G36*
X412750Y703057D02*
X410520Y702613D01*
X408630Y701350D01*
X407367Y699460D01*
X406923Y697230D01*
X407367Y695000D01*
X408630Y693110D01*
X410520Y691847D01*
X412750Y691403D01*
X414980Y691847D01*
X416870Y693110D01*
X418133Y695000D01*
X418577Y697230D01*
X418133Y699460D01*
X416870Y701350D01*
X414980Y702613D01*
X412750Y703057D01*
D02*
G37*
G36*
X767080Y684007D02*
X764850Y683563D01*
X762960Y682300D01*
X761697Y680410D01*
X761253Y678180D01*
X761697Y675950D01*
X762960Y674060D01*
X764850Y672797D01*
X767080Y672353D01*
X769310Y672797D01*
X771200Y674060D01*
X772463Y675950D01*
X772907Y678180D01*
X772463Y680410D01*
X771200Y682300D01*
X769310Y683563D01*
X767080Y684007D01*
D02*
G37*
G36*
X424180Y678927D02*
X421950Y678483D01*
X420060Y677220D01*
X418797Y675330D01*
X418353Y673100D01*
X418797Y670870D01*
X420060Y668980D01*
X421950Y667717D01*
X424180Y667273D01*
X426410Y667717D01*
X428300Y668980D01*
X429563Y670870D01*
X430007Y673100D01*
X429563Y675330D01*
X428300Y677220D01*
X426410Y678483D01*
X424180Y678927D01*
D02*
G37*
G36*
X710261Y683676D02*
X708031Y683232D01*
X706141Y681969D01*
X704878Y680079D01*
X704434Y677849D01*
X704878Y675619D01*
X706141Y673728D01*
X708031Y672465D01*
X710261Y672022D01*
X712063Y672380D01*
X712876Y671311D01*
X712167Y670250D01*
X711723Y668020D01*
X712167Y665790D01*
X713430Y663900D01*
X715320Y662637D01*
X717550Y662193D01*
X719780Y662637D01*
X721670Y663900D01*
X722933Y665790D01*
X723377Y668020D01*
X722933Y670250D01*
X721670Y672140D01*
X719780Y673403D01*
X717550Y673847D01*
X715749Y673489D01*
X714936Y674557D01*
X715645Y675619D01*
X716088Y677849D01*
X715645Y680079D01*
X714381Y681969D01*
X712491Y683232D01*
X710261Y683676D01*
D02*
G37*
G36*
X359410Y647752D02*
Y638810D01*
X368352D01*
X368165Y640226D01*
X367128Y642729D01*
X365479Y644879D01*
X363329Y646528D01*
X360826Y647565D01*
X359410Y647752D01*
D02*
G37*
G36*
X356870D02*
X355454Y647565D01*
X352951Y646528D01*
X350801Y644879D01*
X349152Y642729D01*
X348115Y640226D01*
X347928Y638810D01*
X356870D01*
Y647752D01*
D02*
G37*
G36*
X656962Y640805D02*
X654732Y640361D01*
X652841Y639098D01*
X651578Y637208D01*
X651135Y634978D01*
X651578Y632748D01*
X652841Y630858D01*
X654732Y629594D01*
X656962Y629151D01*
X659192Y629594D01*
X661082Y630858D01*
X662345Y632748D01*
X662789Y634978D01*
X662345Y637208D01*
X661082Y639098D01*
X659192Y640361D01*
X656962Y640805D01*
D02*
G37*
G36*
X368352Y636270D02*
X359410D01*
Y627328D01*
X360826Y627515D01*
X363329Y628552D01*
X365479Y630201D01*
X367128Y632351D01*
X368165Y634854D01*
X368352Y636270D01*
D02*
G37*
G36*
X356870D02*
X347928D01*
X348115Y634854D01*
X349152Y632351D01*
X350801Y630201D01*
X352951Y628552D01*
X355454Y627515D01*
X356870Y627328D01*
Y636270D01*
D02*
G37*
G36*
X419230Y647830D02*
X398650D01*
Y627250D01*
X419230D01*
Y647830D01*
D02*
G37*
G36*
X383540Y647919D02*
X380854Y647565D01*
X378351Y646528D01*
X376201Y644879D01*
X374552Y642729D01*
X373515Y640226D01*
X373161Y637540D01*
X373515Y634854D01*
X374552Y632351D01*
X376201Y630201D01*
X378351Y628552D01*
X380854Y627515D01*
X383540Y627161D01*
X386226Y627515D01*
X388729Y628552D01*
X390879Y630201D01*
X392528Y632351D01*
X393565Y634854D01*
X393919Y637540D01*
X393565Y640226D01*
X392528Y642729D01*
X390879Y644879D01*
X388729Y646528D01*
X386226Y647565D01*
X383540Y647919D01*
D02*
G37*
G36*
X642620Y603997D02*
X640390Y603553D01*
X638500Y602290D01*
X637237Y600400D01*
X636793Y598170D01*
X637237Y595940D01*
X638500Y594050D01*
X640390Y592787D01*
X642620Y592343D01*
X644850Y592787D01*
X646740Y594050D01*
X648003Y595940D01*
X648447Y598170D01*
X648003Y600400D01*
X646740Y602290D01*
X644850Y603553D01*
X642620Y603997D01*
D02*
G37*
G36*
X711500Y602883D02*
X709270Y602439D01*
X707380Y601176D01*
X706116Y599286D01*
X705673Y597056D01*
X706116Y594826D01*
X707380Y592936D01*
X709270Y591673D01*
X711500Y591229D01*
X713730Y591673D01*
X715620Y592936D01*
X716883Y594826D01*
X717327Y597056D01*
X716883Y599286D01*
X715620Y601176D01*
X713730Y602439D01*
X711500Y602883D01*
D02*
G37*
G36*
X731520Y602727D02*
X729290Y602283D01*
X727400Y601020D01*
X726137Y599130D01*
X725693Y596900D01*
X726137Y594670D01*
X727400Y592780D01*
X729290Y591517D01*
X731520Y591073D01*
X733750Y591517D01*
X735640Y592780D01*
X736903Y594670D01*
X737347Y596900D01*
X736903Y599130D01*
X735640Y601020D01*
X733750Y602283D01*
X731520Y602727D01*
D02*
G37*
G36*
X642620Y584947D02*
X640390Y584503D01*
X638500Y583240D01*
X637237Y581350D01*
X636793Y579120D01*
X637237Y576890D01*
X638500Y575000D01*
X640390Y573737D01*
X642620Y573293D01*
X644850Y573737D01*
X646740Y575000D01*
X648003Y576890D01*
X648447Y579120D01*
X648003Y581350D01*
X646740Y583240D01*
X644850Y584503D01*
X642620Y584947D01*
D02*
G37*
G36*
X1098550Y555737D02*
X1096320Y555293D01*
X1094430Y554030D01*
X1093167Y552140D01*
X1092723Y549910D01*
X1093167Y547680D01*
X1094430Y545790D01*
X1096320Y544527D01*
X1098550Y544083D01*
X1100780Y544527D01*
X1102670Y545790D01*
X1103933Y547680D01*
X1104377Y549910D01*
X1103933Y552140D01*
X1102670Y554030D01*
X1100780Y555293D01*
X1098550Y555737D01*
D02*
G37*
G36*
X1073150Y554467D02*
X1070920Y554023D01*
X1069030Y552760D01*
X1067767Y550870D01*
X1067323Y548640D01*
X1067767Y546410D01*
X1069030Y544520D01*
X1070920Y543257D01*
X1073150Y542813D01*
X1075380Y543257D01*
X1077270Y544520D01*
X1078533Y546410D01*
X1078977Y548640D01*
X1078533Y550870D01*
X1077270Y552760D01*
X1075380Y554023D01*
X1073150Y554467D01*
D02*
G37*
G36*
X575310Y545134D02*
Y535940D01*
X584504D01*
X584309Y537421D01*
X583247Y539986D01*
X581557Y542187D01*
X579356Y543877D01*
X576791Y544939D01*
X575310Y545134D01*
D02*
G37*
G36*
X600710D02*
Y535940D01*
X609904D01*
X609709Y537421D01*
X608647Y539986D01*
X606957Y542187D01*
X604756Y543877D01*
X602192Y544939D01*
X600710Y545134D01*
D02*
G37*
G36*
X626110D02*
Y535940D01*
X635304D01*
X635109Y537421D01*
X634047Y539986D01*
X632357Y542187D01*
X630155Y543877D01*
X627592Y544939D01*
X626110Y545134D01*
D02*
G37*
G36*
X572770D02*
X571288Y544939D01*
X568725Y543877D01*
X566523Y542187D01*
X564833Y539986D01*
X563771Y537421D01*
X563576Y535940D01*
X572770D01*
Y545134D01*
D02*
G37*
G36*
X598170D02*
X596688Y544939D01*
X594124Y543877D01*
X591923Y542187D01*
X590233Y539986D01*
X589171Y537421D01*
X588976Y535940D01*
X598170D01*
Y545134D01*
D02*
G37*
G36*
X623570D02*
X622089Y544939D01*
X619524Y543877D01*
X617323Y542187D01*
X615633Y539986D01*
X614571Y537421D01*
X614376Y535940D01*
X623570D01*
Y545134D01*
D02*
G37*
G36*
X635304Y533400D02*
X626110D01*
Y524206D01*
X627592Y524401D01*
X630155Y525463D01*
X632357Y527153D01*
X634047Y529355D01*
X635109Y531918D01*
X635304Y533400D01*
D02*
G37*
G36*
X609904D02*
X600710D01*
Y524206D01*
X602192Y524401D01*
X604756Y525463D01*
X606957Y527153D01*
X608647Y529355D01*
X609709Y531918D01*
X609904Y533400D01*
D02*
G37*
G36*
X584504D02*
X575310D01*
Y524206D01*
X576791Y524401D01*
X579356Y525463D01*
X581557Y527153D01*
X583247Y529355D01*
X584309Y531918D01*
X584504Y533400D01*
D02*
G37*
G36*
X623570D02*
X614376D01*
X614571Y531918D01*
X615633Y529355D01*
X617323Y527153D01*
X619524Y525463D01*
X622089Y524401D01*
X623570Y524206D01*
Y533400D01*
D02*
G37*
G36*
X598170D02*
X588976D01*
X589171Y531918D01*
X590233Y529355D01*
X591923Y527153D01*
X594124Y525463D01*
X596688Y524401D01*
X598170Y524206D01*
Y533400D01*
D02*
G37*
G36*
X572770D02*
X563576D01*
X563771Y531918D01*
X564833Y529355D01*
X566523Y527153D01*
X568725Y525463D01*
X571288Y524401D01*
X572770Y524206D01*
Y533400D01*
D02*
G37*
G36*
X762380Y545210D02*
X741300D01*
Y524130D01*
X762380D01*
Y545210D01*
D02*
G37*
G36*
X726440Y545301D02*
X723689Y544939D01*
X721124Y543877D01*
X718923Y542187D01*
X717233Y539986D01*
X716171Y537421D01*
X715809Y534670D01*
X716171Y531918D01*
X717233Y529355D01*
X718923Y527153D01*
X721124Y525463D01*
X723689Y524401D01*
X726440Y524039D01*
X729192Y524401D01*
X731756Y525463D01*
X733957Y527153D01*
X735647Y529355D01*
X736709Y531918D01*
X737071Y534670D01*
X736709Y537421D01*
X735647Y539986D01*
X733957Y542187D01*
X731756Y543877D01*
X729192Y544939D01*
X726440Y545301D01*
D02*
G37*
G36*
X701040D02*
X698288Y544939D01*
X695724Y543877D01*
X693523Y542187D01*
X691833Y539986D01*
X690771Y537421D01*
X690409Y534670D01*
X690771Y531918D01*
X691833Y529355D01*
X693523Y527153D01*
X695724Y525463D01*
X698288Y524401D01*
X701040Y524039D01*
X703792Y524401D01*
X706356Y525463D01*
X708557Y527153D01*
X710247Y529355D01*
X711309Y531918D01*
X711671Y534670D01*
X711309Y537421D01*
X710247Y539986D01*
X708557Y542187D01*
X706356Y543877D01*
X703792Y544939D01*
X701040Y545301D01*
D02*
G37*
G36*
X675640D02*
X672888Y544939D01*
X670324Y543877D01*
X668123Y542187D01*
X666433Y539986D01*
X665371Y537421D01*
X665009Y534670D01*
X665371Y531918D01*
X666433Y529355D01*
X668123Y527153D01*
X670324Y525463D01*
X672888Y524401D01*
X675640Y524039D01*
X678391Y524401D01*
X680956Y525463D01*
X683157Y527153D01*
X684847Y529355D01*
X685909Y531918D01*
X686271Y534670D01*
X685909Y537421D01*
X684847Y539986D01*
X683157Y542187D01*
X680956Y543877D01*
X678391Y544939D01*
X675640Y545301D01*
D02*
G37*
G36*
X650240D02*
X647488Y544939D01*
X644924Y543877D01*
X642723Y542187D01*
X641033Y539986D01*
X639971Y537421D01*
X639609Y534670D01*
X639971Y531918D01*
X641033Y529355D01*
X642723Y527153D01*
X644924Y525463D01*
X647488Y524401D01*
X650240Y524039D01*
X652991Y524401D01*
X655555Y525463D01*
X657757Y527153D01*
X659447Y529355D01*
X660509Y531918D01*
X660871Y534670D01*
X660509Y537421D01*
X659447Y539986D01*
X657757Y542187D01*
X655555Y543877D01*
X652991Y544939D01*
X650240Y545301D01*
D02*
G37*
%LPD*%
D73*
X1172210Y911860D02*
D03*
X1146810D02*
D03*
X358140Y637540D02*
D03*
X383540D02*
D03*
D74*
X1121410Y911860D02*
D03*
X408940Y637540D02*
D03*
D81*
X293521Y729620D02*
D03*
Y769620D02*
D03*
D82*
X574040Y534670D02*
D03*
X599440D02*
D03*
X650240D02*
D03*
X701040D02*
D03*
X726440D02*
D03*
X675640D02*
D03*
X624840D02*
D03*
D83*
X751840D02*
D03*
D84*
X1238250Y952500D02*
D03*
X1219200Y838200D02*
D03*
Y762000D02*
D03*
X1238250Y723900D02*
D03*
Y647700D02*
D03*
X1219200Y609600D02*
D03*
X1238250Y571500D02*
D03*
X1219200Y533400D02*
D03*
X1200150Y876300D02*
D03*
X1181100Y838200D02*
D03*
X1200150Y800100D02*
D03*
X1181100Y762000D02*
D03*
Y609600D02*
D03*
X1200150Y571500D02*
D03*
X1181100Y533400D02*
D03*
X1162050Y876300D02*
D03*
X1143000Y838200D02*
D03*
X1162050Y800100D02*
D03*
X1143000Y762000D02*
D03*
X1162050Y723900D02*
D03*
X1143000Y685800D02*
D03*
X1162050Y647700D02*
D03*
X1143000Y609600D02*
D03*
X1162050Y571500D02*
D03*
X1143000Y533400D02*
D03*
X1123950Y952500D02*
D03*
Y876300D02*
D03*
X1104900Y838200D02*
D03*
Y762000D02*
D03*
X1123950Y723900D02*
D03*
Y647700D02*
D03*
X1104900Y609600D02*
D03*
Y533400D02*
D03*
X1085850Y952500D02*
D03*
Y876300D02*
D03*
X1066800Y762000D02*
D03*
Y685800D02*
D03*
X1085850Y647700D02*
D03*
X1066800Y609600D02*
D03*
Y533400D02*
D03*
X1047750Y952500D02*
D03*
X1028700Y914400D02*
D03*
X1047750Y876300D02*
D03*
Y723900D02*
D03*
X1028700Y685800D02*
D03*
X1047750Y647700D02*
D03*
X1028700Y609600D02*
D03*
Y533400D02*
D03*
X1009650Y952500D02*
D03*
X990600Y914400D02*
D03*
X1009650Y876300D02*
D03*
X990600Y762000D02*
D03*
X1009650Y723900D02*
D03*
X990600Y685800D02*
D03*
X1009650Y647700D02*
D03*
X990600Y609600D02*
D03*
X1009650Y571500D02*
D03*
X990600Y533400D02*
D03*
X971550Y952500D02*
D03*
X952500Y914400D02*
D03*
X971550Y876300D02*
D03*
X952500Y609600D02*
D03*
X971550Y571500D02*
D03*
X952500Y533400D02*
D03*
X933450Y952500D02*
D03*
X914400Y914400D02*
D03*
X933450Y876300D02*
D03*
X914400Y762000D02*
D03*
X933450Y647700D02*
D03*
X914400Y609600D02*
D03*
X933450Y571500D02*
D03*
X914400Y533400D02*
D03*
X895350Y952500D02*
D03*
X876300Y914400D02*
D03*
X895350Y876300D02*
D03*
X876300Y762000D02*
D03*
Y685800D02*
D03*
Y609600D02*
D03*
X895350Y571500D02*
D03*
X876300Y533400D02*
D03*
X857250Y952500D02*
D03*
X838200Y914400D02*
D03*
X857250Y876300D02*
D03*
X838200Y685800D02*
D03*
Y609600D02*
D03*
X857250Y571500D02*
D03*
X838200Y533400D02*
D03*
X819150Y952500D02*
D03*
X800100Y914400D02*
D03*
Y685800D02*
D03*
Y609600D02*
D03*
X819150Y571500D02*
D03*
X800100Y533400D02*
D03*
X781050Y952500D02*
D03*
Y571500D02*
D03*
X742950Y952500D02*
D03*
X723900Y914400D02*
D03*
X742950Y800100D02*
D03*
X723900Y762000D02*
D03*
X704850Y952500D02*
D03*
Y800100D02*
D03*
X685800Y762000D02*
D03*
X704850Y571500D02*
D03*
X666750Y952500D02*
D03*
Y876300D02*
D03*
Y723900D02*
D03*
Y571500D02*
D03*
X628650Y952500D02*
D03*
X609600Y609600D02*
D03*
X628650Y571500D02*
D03*
X571500Y838200D02*
D03*
X590550Y723900D02*
D03*
Y571500D02*
D03*
X552450Y952500D02*
D03*
X533400Y914400D02*
D03*
X552450Y723900D02*
D03*
X533400Y685800D02*
D03*
X552450Y647700D02*
D03*
X533400Y609600D02*
D03*
X552450Y571500D02*
D03*
X533400Y533400D02*
D03*
X514350Y876300D02*
D03*
X495300Y838200D02*
D03*
Y762000D02*
D03*
Y685800D02*
D03*
X514350Y647700D02*
D03*
X495300Y609600D02*
D03*
Y533400D02*
D03*
X457200Y914400D02*
D03*
X476250Y876300D02*
D03*
X457200Y838200D02*
D03*
X476250Y800100D02*
D03*
X457200Y762000D02*
D03*
X476250Y647700D02*
D03*
X457200Y609600D02*
D03*
Y533400D02*
D03*
X419100Y914400D02*
D03*
X438150Y876300D02*
D03*
X419100Y838200D02*
D03*
X438150Y647700D02*
D03*
X419100Y609600D02*
D03*
X438150Y571500D02*
D03*
X419100Y533400D02*
D03*
X400050Y952500D02*
D03*
X381000Y914400D02*
D03*
X400050Y876300D02*
D03*
X381000Y838200D02*
D03*
X400050Y800100D02*
D03*
X381000Y685800D02*
D03*
Y609600D02*
D03*
X400050Y571500D02*
D03*
X381000Y533400D02*
D03*
X361950Y952500D02*
D03*
X342900Y914400D02*
D03*
X361950Y876300D02*
D03*
X342900Y838200D02*
D03*
X361950Y723900D02*
D03*
X342900Y685800D02*
D03*
Y609600D02*
D03*
X361950Y571500D02*
D03*
X342900Y533400D02*
D03*
X323850Y952500D02*
D03*
X304800Y914400D02*
D03*
X323850Y876300D02*
D03*
X304800Y838200D02*
D03*
X323850Y723900D02*
D03*
X304800Y685800D02*
D03*
X323850Y647700D02*
D03*
X304800Y609600D02*
D03*
X323850Y571500D02*
D03*
X304800Y533400D02*
D03*
X285750Y952500D02*
D03*
X266700Y914400D02*
D03*
X285750Y876300D02*
D03*
X266700Y838200D02*
D03*
X285750Y800100D02*
D03*
X266700Y762000D02*
D03*
Y685800D02*
D03*
X285750Y647700D02*
D03*
X266700Y609600D02*
D03*
X285750Y571500D02*
D03*
X266700Y533400D02*
D03*
D85*
X722979Y702310D02*
D03*
X513080Y839470D02*
D03*
X756920Y796290D02*
D03*
X819506Y721716D02*
D03*
X822960Y709930D02*
D03*
X731520Y596900D02*
D03*
X413272Y951647D02*
D03*
X415290Y933450D02*
D03*
X402424Y888934D02*
D03*
X542290Y839470D02*
D03*
X524510Y842010D02*
D03*
X619760Y731520D02*
D03*
X943610Y734060D02*
D03*
X764540Y662940D02*
D03*
X767080Y678180D02*
D03*
X749300Y679450D02*
D03*
X412750Y697230D02*
D03*
X824230Y800100D02*
D03*
X698500Y883920D02*
D03*
X680720D02*
D03*
X901983Y933450D02*
D03*
X900430Y902970D02*
D03*
X881380Y810260D02*
D03*
X894080D02*
D03*
X732790Y858520D02*
D03*
X755650Y885571D02*
D03*
X687070Y670560D02*
D03*
X710261Y677849D02*
D03*
X656189Y651832D02*
D03*
X656962Y634978D02*
D03*
X711500Y597056D02*
D03*
X529590Y925830D02*
D03*
X464820Y735330D02*
D03*
X442598Y697868D02*
D03*
X431800Y706120D02*
D03*
X553720Y822960D02*
D03*
X568814Y793470D02*
D03*
X822960Y786130D02*
D03*
X835660Y760730D02*
D03*
X1073150Y548640D02*
D03*
X1098550Y549910D02*
D03*
X648320Y928865D02*
D03*
X692150Y913130D02*
D03*
X680720D02*
D03*
X647700Y910590D02*
D03*
X550538Y698499D02*
D03*
X590550Y847090D02*
D03*
X596301Y866042D02*
D03*
X642620Y579120D02*
D03*
Y598170D02*
D03*
X516893Y770902D02*
D03*
X539750Y754380D02*
D03*
X424180Y673100D02*
D03*
X407670Y791210D02*
D03*
X879785Y776980D02*
D03*
X322580Y784860D02*
D03*
X318693Y808125D02*
D03*
X544830Y919480D02*
D03*
Y944880D02*
D03*
X857250Y824312D02*
D03*
X574040Y880110D02*
D03*
X605790D02*
D03*
X572770Y867410D02*
D03*
X717550Y668020D02*
D03*
D86*
X600010Y939800D02*
D03*
Y927800D02*
D03*
X588010Y939800D02*
D03*
Y927800D02*
D03*
X576010Y939800D02*
D03*
Y927800D02*
D03*
M02*
