G04*
G04 #@! TF.GenerationSoftware,Altium Limited,Altium Designer,23.5.1 (21)*
G04*
G04 Layer_Color=65535*
%FSLAX44Y44*%
%MOMM*%
G71*
G04*
G04 #@! TF.SameCoordinates,14FB7749-BF70-4BA2-BDF3-10CF23B172C4*
G04*
G04*
G04 #@! TF.FilePolarity,Positive*
G04*
G01*
G75*
%ADD10C,0.2000*%
%ADD11C,0.2500*%
%ADD12C,0.6000*%
%ADD13C,0.1270*%
%ADD14C,0.2540*%
%ADD15C,0.1524*%
%ADD16R,0.7620X0.7620*%
D10*
X316621Y762620D02*
G03*
X316621Y762620I-1000J0D01*
G01*
X832611Y608780D02*
Y633280D01*
X834362Y591030D02*
X890861D01*
X892611Y608780D02*
Y633280D01*
X834362Y651030D02*
X890861D01*
X489400Y653570D02*
X513900D01*
X471650Y595320D02*
Y651820D01*
X489400Y593570D02*
X513900D01*
X531650Y595320D02*
Y651820D01*
X559840Y521220D02*
Y548120D01*
Y521220D02*
X766040D01*
Y548120D01*
X559840D02*
X766040D01*
X839165Y789769D02*
X867286D01*
X839165Y807891D02*
X867286D01*
X678638Y821327D02*
X761637D01*
X678638Y738328D02*
X761637D01*
X678638D02*
Y821327D01*
X761637Y738328D02*
Y821327D01*
X594763Y641349D02*
X601577D01*
X594763Y704849D02*
X601577D01*
X1108710Y899160D02*
Y924560D01*
Y899160D02*
X1184910D01*
Y924560D01*
X1108710D02*
X1184910D01*
X421640Y624840D02*
Y650240D01*
X345440D02*
X421640D01*
X345440Y624840D02*
Y650240D01*
Y624840D02*
X421640D01*
X841044Y755727D02*
Y781727D01*
X872354Y755727D02*
Y781727D01*
X854620Y722459D02*
X882740D01*
X854620Y740581D02*
X882740D01*
X872633Y911518D02*
X892754D01*
X872633Y894517D02*
X892754D01*
X845163Y911470D02*
X862162D01*
X845163Y894470D02*
X862162D01*
X847600Y924950D02*
X864600D01*
X847600Y941950D02*
X864600D01*
X613310Y965800D02*
X615010D01*
Y949800D02*
Y965800D01*
Y901800D02*
Y917800D01*
X613310Y901800D02*
X615010D01*
X561010D02*
X562710D01*
X561010D02*
Y917800D01*
Y949800D02*
Y965800D01*
X562710D01*
X512393Y948295D02*
X532514D01*
X512393Y931295D02*
X532514D01*
X498600Y927565D02*
Y954565D01*
X471600D02*
X498600D01*
X471600Y927565D02*
Y954565D01*
Y927565D02*
X498600D01*
X396929Y739287D02*
Y757788D01*
X446967Y739287D02*
Y757788D01*
X562103Y743131D02*
Y778181D01*
X497053Y743131D02*
X562103D01*
X497053D02*
Y778181D01*
X562103D01*
X531900Y827210D02*
X534900D01*
X531900Y818710D02*
X534900D01*
X354450Y769730D02*
X369450D01*
X354450Y751230D02*
X369450D01*
X354450Y745600D02*
X369450D01*
X354450Y727100D02*
X369450D01*
X414410Y800240D02*
Y817740D01*
X431410Y800240D02*
Y817740D01*
X322970Y758933D02*
Y776433D01*
X340000Y758986D02*
Y776486D01*
X338700Y730390D02*
Y747890D01*
X321670Y730337D02*
Y747837D01*
X735430Y655710D02*
X755550D01*
X735430Y672710D02*
X755550D01*
X591987Y788246D02*
X606214Y802473D01*
X579966Y800267D02*
X594193Y814494D01*
X590650Y823350D02*
X610770D01*
X590650Y840350D02*
X610770D01*
X372627Y880500D02*
X392747D01*
X372627Y897500D02*
X392747D01*
X373770Y858957D02*
X390770D01*
X373770Y875958D02*
X390770D01*
X496389Y818920D02*
Y821920D01*
X504888Y818920D02*
Y821920D01*
X874143Y924950D02*
X894264D01*
X874143Y941950D02*
X894264D01*
X348430Y793890D02*
Y811390D01*
X365430Y793890D02*
Y811390D01*
X326244Y793223D02*
Y810723D01*
X343244Y793223D02*
Y810723D01*
X375599Y803509D02*
X404181D01*
X375599Y822091D02*
X404181D01*
X677050Y906390D02*
X694550D01*
X677050Y889390D02*
X694550D01*
X723093Y631752D02*
Y652752D01*
X691593Y631752D02*
Y652752D01*
D11*
X809862Y643530D02*
G03*
X809862Y643530I-1250J0D01*
G01*
X525400Y677570D02*
G03*
X525400Y677570I-1250J0D01*
G01*
X777387Y735328D02*
G03*
X777387Y735328I-1250J0D01*
G01*
X559620Y698499D02*
G03*
X559620Y698499I-1250J0D01*
G01*
X1105060Y911860D02*
G03*
X1105060Y911860I-1250J0D01*
G01*
X427790Y637540D02*
G03*
X427790Y637540I-1250J0D01*
G01*
X864544Y748477D02*
G03*
X864544Y748477I-1250J0D01*
G01*
X836913Y902970D02*
G03*
X836913Y902970I-1250J0D01*
G01*
X839350Y933450D02*
G03*
X839350Y933450I-1250J0D01*
G01*
X616060Y972300D02*
G03*
X616060Y972300I-1250J0D01*
G01*
X506600Y933565D02*
G03*
X506600Y933565I-1250J0D01*
G01*
X400998Y705599D02*
G03*
X400998Y705599I-1250J0D01*
G01*
X565827Y793606D02*
G03*
X565827Y793606I-1250J0D01*
G01*
X401520Y867457D02*
G03*
X401520Y867457I-1250J0D01*
G01*
X698843Y658502D02*
G03*
X698843Y658502I-1250J0D01*
G01*
D12*
X754638Y748327D02*
G03*
X754638Y748327I-3000J0D01*
G01*
D13*
X255021Y711620D02*
Y787620D01*
X262321D01*
X255021Y711620D02*
X262321D01*
D14*
X270510Y811529D02*
X267971D01*
X269240D01*
Y805181D01*
X267971Y803911D01*
X266701D01*
X265432Y805181D01*
X273049Y803911D02*
X275588D01*
X274319D01*
Y811529D01*
X273049Y810259D01*
X849632Y955039D02*
Y947421D01*
X853441D01*
X854710Y948691D01*
Y953769D01*
X853441Y955039D01*
X849632D01*
X857250Y953769D02*
X858519Y955039D01*
X861058D01*
X862328Y953769D01*
Y952500D01*
X861058Y951230D01*
X859789D01*
X861058D01*
X862328Y949960D01*
Y948691D01*
X861058Y947421D01*
X858519D01*
X857250Y948691D01*
X911860Y938527D02*
Y928370D01*
X918631D01*
X928788Y938527D02*
X922017D01*
Y928370D01*
X928788D01*
X922017Y933448D02*
X925402D01*
X932173Y938527D02*
Y928370D01*
X937252D01*
X938945Y930063D01*
Y936834D01*
X937252Y938527D01*
X932173D01*
X949101Y928370D02*
X942330D01*
X949101Y935141D01*
Y936834D01*
X947409Y938527D01*
X944023D01*
X942330Y936834D01*
X911860Y910587D02*
Y900430D01*
X918631D01*
X928788Y910587D02*
X922017D01*
Y900430D01*
X928788D01*
X922017Y905508D02*
X925402D01*
X932173Y910587D02*
Y900430D01*
X937252D01*
X938945Y902123D01*
Y908894D01*
X937252Y910587D01*
X932173D01*
X942330Y900430D02*
X945716D01*
X944023D01*
Y910587D01*
X942330Y908894D01*
X813814Y667002D02*
X812545Y668271D01*
X810006D01*
X808736Y667002D01*
Y665732D01*
X810006Y664463D01*
X812545D01*
X813814Y663193D01*
Y661924D01*
X812545Y660654D01*
X810006D01*
X808736Y661924D01*
X816354Y668271D02*
Y660654D01*
X818893Y663193D01*
X821432Y660654D01*
Y668271D01*
X823971Y660654D02*
X826510D01*
X825241D01*
Y668271D01*
X823971Y667002D01*
X485307Y689692D02*
X483614Y691385D01*
X480229D01*
X478536Y689692D01*
Y687999D01*
X480229Y686306D01*
X483614D01*
X485307Y684614D01*
Y682921D01*
X483614Y681228D01*
X480229D01*
X478536Y682921D01*
X488693Y691385D02*
Y681228D01*
X492078Y684614D01*
X495464Y681228D01*
Y691385D01*
X505621Y681228D02*
X498849D01*
X505621Y687999D01*
Y689692D01*
X503928Y691385D01*
X500542D01*
X498849Y689692D01*
X756918Y574040D02*
X758187Y572770D01*
Y570231D01*
X756918Y568962D01*
X755648D01*
X754379Y570231D01*
Y571501D01*
Y570231D01*
X753109Y568962D01*
X751840D01*
X750570Y570231D01*
Y572770D01*
X751840Y574040D01*
X755648Y566423D02*
X750570Y563883D01*
X755648Y561344D01*
X756918Y558805D02*
X758187Y557535D01*
Y554996D01*
X756918Y553727D01*
X755648D01*
X754379Y554996D01*
Y556266D01*
Y554996D01*
X753109Y553727D01*
X751840D01*
X750570Y554996D01*
Y557535D01*
X751840Y558805D01*
X731518Y568962D02*
X732787Y570231D01*
Y572770D01*
X731518Y574040D01*
X730248D01*
X728979Y572770D01*
Y570231D01*
X727709Y568962D01*
X726440D01*
X725170Y570231D01*
Y572770D01*
X726440Y574040D01*
X731518Y561344D02*
X732787Y562614D01*
Y565153D01*
X731518Y566423D01*
X726440D01*
X725170Y565153D01*
Y562614D01*
X726440Y561344D01*
X732787Y558805D02*
X725170D01*
X727709D01*
X732787Y553727D01*
X728979Y557535D01*
X725170Y553727D01*
X698500Y580390D02*
X706117D01*
X703578Y577851D01*
X706117Y575312D01*
X698500D01*
X706117Y572772D02*
Y570233D01*
Y571503D01*
X698500D01*
Y572772D01*
Y570233D01*
X704848Y561346D02*
X706117Y562616D01*
Y565155D01*
X704848Y566424D01*
X703578D01*
X702309Y565155D01*
Y562616D01*
X701039Y561346D01*
X699770D01*
X698500Y562616D01*
Y565155D01*
X699770Y566424D01*
X706117Y554998D02*
Y557537D01*
X704848Y558807D01*
X699770D01*
X698500Y557537D01*
Y554998D01*
X699770Y553729D01*
X704848D01*
X706117Y554998D01*
X671830Y580390D02*
X679447D01*
X676908Y577851D01*
X679447Y575312D01*
X671830D01*
X679447Y568964D02*
Y571503D01*
X678178Y572772D01*
X673100D01*
X671830Y571503D01*
Y568964D01*
X673100Y567694D01*
X678178D01*
X679447Y568964D01*
X678178Y560077D02*
X679447Y561346D01*
Y563885D01*
X678178Y565155D01*
X676908D01*
X675639Y563885D01*
Y561346D01*
X674369Y560077D01*
X673100D01*
X671830Y561346D01*
Y563885D01*
X673100Y565155D01*
X679447Y557537D02*
Y554998D01*
Y556268D01*
X671830D01*
Y557537D01*
Y554998D01*
X659127Y596900D02*
X651510D01*
Y593091D01*
X652779Y591822D01*
X654049D01*
X655318Y593091D01*
Y596900D01*
Y593091D01*
X656588Y591822D01*
X657858D01*
X659127Y593091D01*
Y596900D01*
X651510Y589282D02*
X659127D01*
X656588Y586743D01*
X659127Y584204D01*
X651510D01*
Y581665D02*
X659127D01*
Y577856D01*
X657858Y576587D01*
X655318D01*
X654049Y577856D01*
Y581665D01*
X650240Y574047D02*
Y568969D01*
X657858Y561352D02*
X659127Y562621D01*
Y565160D01*
X657858Y566430D01*
X652779D01*
X651510Y565160D01*
Y562621D01*
X652779Y561352D01*
X657858Y553734D02*
X659127Y555004D01*
Y557543D01*
X657858Y558812D01*
X656588D01*
X655318Y557543D01*
Y555004D01*
X654049Y553734D01*
X652779D01*
X651510Y555004D01*
Y557543D01*
X652779Y558812D01*
X628648Y570232D02*
X629917Y571501D01*
Y574040D01*
X628648Y575310D01*
X623570D01*
X622300Y574040D01*
Y571501D01*
X623570Y570232D01*
X626109D01*
Y572771D01*
X622300Y567692D02*
X629917D01*
X622300Y562614D01*
X629917D01*
Y560075D02*
X622300D01*
Y556266D01*
X623570Y554997D01*
X628648D01*
X629917Y556266D01*
Y560075D01*
X600708Y571502D02*
X601978Y572771D01*
Y575310D01*
X600708Y576580D01*
X595630D01*
X594360Y575310D01*
Y572771D01*
X595630Y571502D01*
X598169D01*
Y574041D01*
X594360Y568963D02*
X601978D01*
X594360Y563884D01*
X601978D01*
Y561345D02*
X594360D01*
Y557536D01*
X595630Y556267D01*
X600708D01*
X601978Y557536D01*
Y561345D01*
X576578Y570232D02*
X577848Y571501D01*
Y574040D01*
X576578Y575310D01*
X571500D01*
X570230Y574040D01*
Y571501D01*
X571500Y570232D01*
X574039D01*
Y572771D01*
X570230Y567692D02*
X577848D01*
X570230Y562614D01*
X577848D01*
Y560075D02*
X570230D01*
Y556266D01*
X571500Y554997D01*
X576578D01*
X577848Y556266D01*
Y560075D01*
X779784Y523242D02*
Y538478D01*
X787402D01*
X789941Y535938D01*
Y530860D01*
X787402Y528321D01*
X779784D01*
X805176Y523242D02*
X795019D01*
X805176Y533399D01*
Y535938D01*
X802637Y538478D01*
X797558D01*
X795019Y535938D01*
X458470Y559220D02*
Y550756D01*
X460163Y549063D01*
X463548D01*
X465241Y550756D01*
Y559220D01*
X475398Y557527D02*
X473705Y559220D01*
X470320D01*
X468627Y557527D01*
Y555834D01*
X470320Y554141D01*
X473705D01*
X475398Y552448D01*
Y550756D01*
X473705Y549063D01*
X470320D01*
X468627Y550756D01*
X478783Y549063D02*
Y559220D01*
X483862D01*
X485555Y557527D01*
Y554141D01*
X483862Y552448D01*
X478783D01*
X482169D02*
X485555Y549063D01*
X488940Y547370D02*
X495711D01*
X499097Y559220D02*
Y549063D01*
X504175D01*
X505868Y550756D01*
Y552448D01*
X504175Y554141D01*
X499097D01*
X504175D01*
X505868Y555834D01*
Y557527D01*
X504175Y559220D01*
X499097D01*
X509254D02*
X516025D01*
X512639D01*
Y549063D01*
X519410D02*
Y559220D01*
X526181Y549063D01*
Y559220D01*
X843280Y565150D02*
Y575307D01*
X848358D01*
X850051Y573614D01*
Y570228D01*
X848358Y568536D01*
X843280D01*
X846666D02*
X850051Y565150D01*
X860208Y573614D02*
X858515Y575307D01*
X855129D01*
X853437Y573614D01*
Y571921D01*
X855129Y570228D01*
X858515D01*
X860208Y568536D01*
Y566843D01*
X858515Y565150D01*
X855129D01*
X853437Y566843D01*
X863593Y575307D02*
X870365D01*
X866979D01*
Y565150D01*
X410207Y609600D02*
Y602829D01*
Y606214D01*
X400050D01*
X410207Y599443D02*
X400050Y592672D01*
X410207D02*
X400050Y599443D01*
X375920Y609600D02*
X386077D01*
Y604522D01*
X384384Y602829D01*
X380998D01*
X379306Y604522D01*
Y609600D01*
Y606214D02*
X375920Y602829D01*
X386077Y599443D02*
X375920Y592672D01*
X386077D02*
X375920Y599443D01*
X360254Y609179D02*
X361947Y610872D01*
Y614257D01*
X360254Y615950D01*
X353483D01*
X351790Y614257D01*
Y610872D01*
X353483Y609179D01*
X356868D01*
Y612564D01*
X351790Y605793D02*
X361947D01*
X351790Y599022D01*
X361947D01*
Y595637D02*
X351790D01*
Y590558D01*
X353483Y588865D01*
X360254D01*
X361947Y590558D01*
Y595637D01*
X1178556Y878843D02*
X1181095Y881383D01*
Y886461D01*
X1178556Y889000D01*
X1168399D01*
X1165860Y886461D01*
Y881383D01*
X1168399Y878843D01*
X1173477D01*
Y883922D01*
X1165860Y873765D02*
X1181095D01*
X1165860Y863608D01*
X1181095D01*
Y858530D02*
X1165860D01*
Y850912D01*
X1168399Y848373D01*
X1178556D01*
X1181095Y850912D01*
Y858530D01*
X1151886Y880113D02*
X1154425Y882653D01*
Y887731D01*
X1151886Y890270D01*
X1149347D01*
X1146807Y887731D01*
Y882653D01*
X1144268Y880113D01*
X1141729D01*
X1139190Y882653D01*
Y887731D01*
X1141729Y890270D01*
X1154425Y875035D02*
X1139190D01*
Y867417D01*
X1141729Y864878D01*
X1151886D01*
X1154425Y867417D01*
Y875035D01*
X1139190Y859800D02*
X1149347D01*
X1154425Y854722D01*
X1149347Y849643D01*
X1139190D01*
X1146807D01*
Y859800D01*
X1125216Y881383D02*
X1127755Y883923D01*
Y889001D01*
X1125216Y891540D01*
X1122677D01*
X1120137Y889001D01*
Y883923D01*
X1117598Y881383D01*
X1115059D01*
X1112520Y883923D01*
Y889001D01*
X1115059Y891540D01*
X1125216Y866148D02*
X1127755Y868687D01*
Y873766D01*
X1125216Y876305D01*
X1115059D01*
X1112520Y873766D01*
Y868687D01*
X1115059Y866148D01*
X1127755Y861070D02*
X1112520D01*
Y850913D01*
X886460Y798829D02*
X885191Y800099D01*
X882652D01*
X881382Y798829D01*
Y793751D01*
X882652Y792481D01*
X885191D01*
X886460Y793751D01*
X889000Y798829D02*
X890269Y800099D01*
X892808D01*
X894078Y798829D01*
Y797560D01*
X892808Y796290D01*
X894078Y795020D01*
Y793751D01*
X892808Y792481D01*
X890269D01*
X889000Y793751D01*
Y795020D01*
X890269Y796290D01*
X889000Y797560D01*
Y798829D01*
X890269Y796290D02*
X892808D01*
X786130Y867409D02*
X784861Y868679D01*
X782322D01*
X781052Y867409D01*
Y862331D01*
X782322Y861061D01*
X784861D01*
X786130Y862331D01*
X788670Y867409D02*
X789939Y868679D01*
X792478D01*
X793748Y867409D01*
Y866140D01*
X792478Y864870D01*
X791209D01*
X792478D01*
X793748Y863600D01*
Y862331D01*
X792478Y861061D01*
X789939D01*
X788670Y862331D01*
X847092Y887729D02*
Y880111D01*
X850901D01*
X852170Y881381D01*
Y886459D01*
X850901Y887729D01*
X847092D01*
X859788Y880111D02*
X854710D01*
X859788Y885190D01*
Y886459D01*
X858518Y887729D01*
X855979D01*
X854710Y886459D01*
X631192Y843279D02*
Y836931D01*
X632461Y835661D01*
X635000D01*
X636270Y836931D01*
Y843279D01*
X638809Y835661D02*
X641348D01*
X640079D01*
Y843279D01*
X638809Y842009D01*
X632555Y717549D02*
X631286Y718819D01*
X628747D01*
X627477Y717549D01*
Y712471D01*
X628747Y711201D01*
X631286D01*
X632555Y712471D01*
X640173Y718819D02*
X637634Y717549D01*
X635094Y715010D01*
Y712471D01*
X636364Y711201D01*
X638903D01*
X640173Y712471D01*
Y713740D01*
X638903Y715010D01*
X635094D01*
X537212Y642621D02*
Y650239D01*
X541021D01*
X542290Y648969D01*
Y646430D01*
X541021Y645160D01*
X537212D01*
X549908Y650239D02*
X544830D01*
Y646430D01*
X547369Y647700D01*
X548638D01*
X549908Y646430D01*
Y643891D01*
X548638Y642621D01*
X546099D01*
X544830Y643891D01*
X805940Y826260D02*
X804671Y827530D01*
X802132D01*
X800862Y826260D01*
Y821182D01*
X802132Y819912D01*
X804671D01*
X805940Y821182D01*
X813558Y819912D02*
X808480D01*
X813558Y824990D01*
Y826260D01*
X812288Y827530D01*
X809749D01*
X808480Y826260D01*
X821175Y827530D02*
X816097D01*
Y823721D01*
X818636Y824990D01*
X819906D01*
X821175Y823721D01*
Y821182D01*
X819906Y819912D01*
X817367D01*
X816097Y821182D01*
X1186184Y822958D02*
Y810262D01*
X1188723Y807722D01*
X1193802D01*
X1196341Y810262D01*
Y822958D01*
X1201419D02*
X1211576D01*
Y820418D01*
X1201419Y810262D01*
Y807722D01*
X1114041Y949447D02*
X1108962D01*
X1111501D01*
Y936751D01*
X1108962Y934212D01*
X1106423D01*
X1103884Y936751D01*
X1129276Y934212D02*
X1119119D01*
X1129276Y944369D01*
Y946908D01*
X1126737Y949447D01*
X1121658D01*
X1119119Y946908D01*
X356105Y675127D02*
X351026D01*
X353565D01*
Y662431D01*
X351026Y659892D01*
X348487D01*
X345948Y662431D01*
X361183Y672588D02*
X363722Y675127D01*
X368801D01*
X371340Y672588D01*
Y670049D01*
X368801Y667510D01*
X366261D01*
X368801D01*
X371340Y664970D01*
Y662431D01*
X368801Y659892D01*
X363722D01*
X361183Y662431D01*
X877571Y758192D02*
X878841D01*
X881380Y760731D01*
X878841Y763270D01*
X877571D01*
X881380Y760731D02*
X885189D01*
Y765809D02*
Y768348D01*
Y767079D01*
X877571D01*
X878841Y765809D01*
X899160Y734476D02*
X897891Y735745D01*
X895352D01*
X894082Y734476D01*
Y729397D01*
X895352Y728128D01*
X897891D01*
X899160Y729397D01*
X901700Y735745D02*
X906778D01*
Y734476D01*
X901700Y729397D01*
Y728128D01*
X877572Y880111D02*
Y887729D01*
X881380D01*
X882650Y886459D01*
Y883920D01*
X881380Y882650D01*
X877572D01*
X880111D02*
X882650Y880111D01*
X885189D02*
X887728D01*
X886459D01*
Y887729D01*
X885189Y886459D01*
X550591Y938938D02*
X544243D01*
X542974Y937668D01*
Y935129D01*
X544243Y933860D01*
X550591D01*
Y926242D02*
X549322Y928781D01*
X546783Y931320D01*
X544243D01*
X542974Y930051D01*
Y927512D01*
X544243Y926242D01*
X545513D01*
X546783Y927512D01*
Y931320D01*
X628648Y953514D02*
X627379Y954783D01*
X624840D01*
X623570Y953514D01*
Y948436D01*
X624840Y947166D01*
X627379D01*
X628648Y948436D01*
X636266Y947166D02*
X631188D01*
X636266Y952244D01*
Y953514D01*
X634996Y954783D01*
X632457D01*
X631188Y953514D01*
X642614Y947166D02*
Y954783D01*
X638805Y950975D01*
X643883D01*
X531975Y962654D02*
Y955036D01*
X528166D01*
X526897Y956306D01*
Y958845D01*
X528166Y960115D01*
X531975D01*
X529436D02*
X526897Y962654D01*
X524357D02*
X521818D01*
X523088D01*
Y955036D01*
X524357Y956306D01*
X518010D02*
X516740Y955036D01*
X514201D01*
X512931Y956306D01*
Y961384D01*
X514201Y962654D01*
X516740D01*
X518010Y961384D01*
Y956306D01*
X490546Y912541D02*
X484198D01*
X482928Y911271D01*
Y908732D01*
X484198Y907462D01*
X490546D01*
Y899845D02*
Y904923D01*
X486737D01*
X488007Y902384D01*
Y901114D01*
X486737Y899845D01*
X484198D01*
X482928Y901114D01*
Y903653D01*
X484198Y904923D01*
X458535Y981703D02*
X459805Y982973D01*
Y985512D01*
X458535Y986782D01*
X453457D01*
X452187Y985512D01*
Y982973D01*
X453457Y981703D01*
X452187Y974086D02*
Y979164D01*
X457266Y974086D01*
X458535D01*
X459805Y975355D01*
Y977895D01*
X458535Y979164D01*
X452187Y966468D02*
Y971547D01*
X457266Y966468D01*
X458535D01*
X459805Y967738D01*
Y970277D01*
X458535Y971547D01*
X433048Y982973D02*
X434317Y984243D01*
Y986782D01*
X433048Y988052D01*
X427970D01*
X426700Y986782D01*
Y984243D01*
X427970Y982973D01*
X426700Y975356D02*
Y980434D01*
X431778Y975356D01*
X433048D01*
X434317Y976625D01*
Y979165D01*
X433048Y980434D01*
Y972817D02*
X434317Y971547D01*
Y969008D01*
X433048Y967738D01*
X431778D01*
X430509Y969008D01*
Y970277D01*
Y969008D01*
X429239Y967738D01*
X427970D01*
X426700Y969008D01*
Y971547D01*
X427970Y972817D01*
X483556Y732789D02*
X482287Y734059D01*
X479748D01*
X478478Y732789D01*
Y727711D01*
X479748Y726441D01*
X482287D01*
X483556Y727711D01*
X486096Y726441D02*
X488635D01*
X487365D01*
Y734059D01*
X486096Y732789D01*
X492444D02*
X493713Y734059D01*
X496252D01*
X497522Y732789D01*
Y731520D01*
X496252Y730250D01*
X494983D01*
X496252D01*
X497522Y728980D01*
Y727711D01*
X496252Y726441D01*
X493713D01*
X492444Y727711D01*
X452430Y710436D02*
Y704088D01*
X453700Y702819D01*
X456239D01*
X457509Y704088D01*
Y710436D01*
X460048Y709167D02*
X461317Y710436D01*
X463857D01*
X465126Y709167D01*
Y707897D01*
X463857Y706628D01*
X462587D01*
X463857D01*
X465126Y705358D01*
Y704088D01*
X463857Y702819D01*
X461317D01*
X460048Y704088D01*
X572760Y730249D02*
Y723901D01*
X574029Y722631D01*
X576568D01*
X577838Y723901D01*
Y730249D01*
X585455Y722631D02*
X580377D01*
X585455Y727710D01*
Y728979D01*
X584186Y730249D01*
X581647D01*
X580377Y728979D01*
X542926Y843279D02*
X541657Y844549D01*
X539118D01*
X537848Y843279D01*
Y838201D01*
X539118Y836931D01*
X541657D01*
X542926Y838201D01*
X545466Y836931D02*
X548005D01*
X546735D01*
Y844549D01*
X545466Y843279D01*
X551814D02*
X553083Y844549D01*
X555622D01*
X556892Y843279D01*
Y838201D01*
X555622Y836931D01*
X553083D01*
X551814Y838201D01*
Y843279D01*
X382271Y768348D02*
X389889D01*
Y764539D01*
X388619Y763270D01*
X386080D01*
X384810Y764539D01*
Y768348D01*
Y765809D02*
X382271Y763270D01*
X389889Y755652D02*
X388619Y758191D01*
X386080Y760730D01*
X383541D01*
X382271Y759461D01*
Y756922D01*
X383541Y755652D01*
X384810D01*
X386080Y756922D01*
Y760730D01*
X379731Y742948D02*
X387349D01*
Y739139D01*
X386079Y737870D01*
X383540D01*
X382270Y739139D01*
Y742948D01*
Y740409D02*
X379731Y737870D01*
X387349Y730252D02*
Y735330D01*
X383540D01*
X384810Y732791D01*
Y731522D01*
X383540Y730252D01*
X381001D01*
X379731Y731522D01*
Y734061D01*
X381001Y735330D01*
X417196Y847089D02*
X415927Y848359D01*
X413388D01*
X412118Y847089D01*
Y842011D01*
X413388Y840741D01*
X415927D01*
X417196Y842011D01*
X419736Y840741D02*
X422275D01*
X421005D01*
Y848359D01*
X419736Y847089D01*
X426084Y842011D02*
X427353Y840741D01*
X429892D01*
X431162Y842011D01*
Y847089D01*
X429892Y848359D01*
X427353D01*
X426084Y847089D01*
Y845820D01*
X427353Y844550D01*
X431162D01*
X351156Y784192D02*
X349887Y785461D01*
X347348D01*
X346078Y784192D01*
Y779113D01*
X347348Y777844D01*
X349887D01*
X351156Y779113D01*
X353696Y777844D02*
X356235D01*
X354965D01*
Y785461D01*
X353696Y784192D01*
X365122Y785461D02*
X360044D01*
Y781653D01*
X362583Y782922D01*
X363852D01*
X365122Y781653D01*
Y779113D01*
X363852Y777844D01*
X361313D01*
X360044Y779113D01*
X327026Y712469D02*
X325757Y713739D01*
X323218D01*
X321948Y712469D01*
Y707391D01*
X323218Y706121D01*
X325757D01*
X327026Y707391D01*
X329566Y706121D02*
X332105D01*
X330835D01*
Y713739D01*
X329566Y712469D01*
X339722Y706121D02*
Y713739D01*
X335914Y709930D01*
X340992D01*
X746762Y641351D02*
Y648969D01*
X750571D01*
X751840Y647699D01*
Y645160D01*
X750571Y643890D01*
X746762D01*
X749301D02*
X751840Y641351D01*
X758188D02*
Y648969D01*
X754380Y645160D01*
X759458D01*
X795358Y673734D02*
X796628Y675004D01*
Y677543D01*
X795358Y678812D01*
X790280D01*
X789010Y677543D01*
Y675004D01*
X790280Y673734D01*
X789010Y671195D02*
Y668656D01*
Y669925D01*
X796628D01*
X795358Y671195D01*
X789010Y664847D02*
Y662308D01*
Y663577D01*
X796628D01*
X795358Y664847D01*
X571540Y788797D02*
X576926Y794184D01*
X579619Y791490D01*
X579619Y789695D01*
X577824Y787899D01*
X576028Y787899D01*
X573335Y790593D01*
X575131Y788797D02*
X575131Y785206D01*
X577824Y784308D02*
Y782513D01*
X579619Y780717D01*
X581415Y780717D01*
X585006Y784308D01*
X585006Y786104D01*
X583210Y787899D01*
X581415D01*
X580517Y787002D01*
X580517Y785206D01*
X583210Y782513D01*
X577851Y839468D02*
X585469D01*
Y835659D01*
X584199Y834390D01*
X581660D01*
X580390Y835659D01*
Y839468D01*
Y836929D02*
X577851Y834390D01*
X584199Y831850D02*
X585469Y830581D01*
Y828042D01*
X584199Y826772D01*
X582930D01*
X581660Y828042D01*
X580390Y826772D01*
X579121D01*
X577851Y828042D01*
Y830581D01*
X579121Y831850D01*
X580390D01*
X581660Y830581D01*
X582930Y831850D01*
X584199D01*
X581660Y830581D02*
Y828042D01*
X363219Y883922D02*
X355601D01*
Y887731D01*
X356871Y889000D01*
X359410D01*
X360680Y887731D01*
Y883922D01*
Y886461D02*
X363219Y889000D01*
Y896618D02*
Y891540D01*
X358140Y896618D01*
X356871D01*
X355601Y895348D01*
Y892809D01*
X356871Y891540D01*
X355601Y861062D02*
X363219D01*
Y864871D01*
X361949Y866140D01*
X356871D01*
X355601Y864871D01*
Y861062D01*
X363219Y868679D02*
Y871218D01*
Y869949D01*
X355601D01*
X356871Y868679D01*
X499110Y847089D02*
X497841Y848359D01*
X495302D01*
X494032Y847089D01*
Y842011D01*
X495302Y840741D01*
X497841D01*
X499110Y842011D01*
X501650D02*
X502919Y840741D01*
X505458D01*
X506728Y842011D01*
Y847089D01*
X505458Y848359D01*
X502919D01*
X501650Y847089D01*
Y845820D01*
X502919Y844550D01*
X506728D01*
X878842Y947421D02*
Y955039D01*
X882651D01*
X883920Y953769D01*
Y951230D01*
X882651Y949960D01*
X878842D01*
X881381D02*
X883920Y947421D01*
X886460Y955039D02*
X891538D01*
Y953769D01*
X886460Y948691D01*
Y947421D01*
X653461Y640961D02*
X652191Y639691D01*
Y637152D01*
X653461Y635882D01*
X658539D01*
X659809Y637152D01*
Y639691D01*
X658539Y640961D01*
X659809Y648578D02*
Y643500D01*
X654731Y648578D01*
X653461D01*
X652191Y647309D01*
Y644770D01*
X653461Y643500D01*
X659809Y651117D02*
Y653657D01*
Y652387D01*
X652191D01*
X653461Y651117D01*
X662942Y613409D02*
X661672Y614679D01*
X659133D01*
X657863Y613409D01*
Y608331D01*
X659133Y607061D01*
X661672D01*
X662942Y608331D01*
X670559Y607061D02*
X665481D01*
X670559Y612140D01*
Y613409D01*
X669290Y614679D01*
X666750D01*
X665481Y613409D01*
X673098D02*
X674368Y614679D01*
X676907D01*
X678177Y613409D01*
Y608331D01*
X676907Y607061D01*
X674368D01*
X673098Y608331D01*
Y613409D01*
X473546Y865652D02*
X472277Y866922D01*
X469738D01*
X468468Y865652D01*
Y860574D01*
X469738Y859305D01*
X472277D01*
X473546Y860574D01*
X476086Y859305D02*
X478625D01*
X477355D01*
Y866922D01*
X476086Y865652D01*
X482434D02*
X483703Y866922D01*
X486242D01*
X487512Y865652D01*
Y864383D01*
X486242Y863113D01*
X487512Y861844D01*
Y860574D01*
X486242Y859305D01*
X483703D01*
X482434Y860574D01*
Y861844D01*
X483703Y863113D01*
X482434Y864383D01*
Y865652D01*
X483703Y863113D02*
X486242D01*
X354391Y827406D02*
X353121Y826137D01*
Y823598D01*
X354391Y822328D01*
X359469D01*
X360739Y823598D01*
Y826137D01*
X359469Y827406D01*
X360739Y829946D02*
Y832485D01*
Y831215D01*
X353121D01*
X354391Y829946D01*
X353121Y836294D02*
Y841372D01*
X354391D01*
X359469Y836294D01*
X360739D01*
X331471Y824866D02*
X330201Y823597D01*
Y821058D01*
X331471Y819788D01*
X336549D01*
X337819Y821058D01*
Y823597D01*
X336549Y824866D01*
X337819Y827406D02*
Y829945D01*
Y828675D01*
X330201D01*
X331471Y827406D01*
X330201Y838832D02*
X331471Y836293D01*
X334010Y833754D01*
X336549D01*
X337819Y835023D01*
Y837562D01*
X336549Y838832D01*
X335280D01*
X334010Y837562D01*
Y833754D01*
X392429Y830548D02*
X397507D01*
Y834356D01*
X394968D01*
X397507D01*
Y838165D01*
X389889Y830548D02*
Y838165D01*
X386081D01*
X384811Y836896D01*
Y835626D01*
X386081Y834356D01*
X389889D01*
X386081D01*
X384811Y833087D01*
Y831817D01*
X386081Y830548D01*
X389889D01*
X382272Y838165D02*
X379733D01*
X381002D01*
Y830548D01*
X382272Y831817D01*
X825499Y711200D02*
X826769Y712469D01*
Y715008D01*
X825499Y716278D01*
X820421D01*
X819151Y715008D01*
Y712469D01*
X820421Y711200D01*
X819151Y704852D02*
X826769D01*
X822960Y708660D01*
Y703582D01*
X782320Y697229D02*
X781051Y698499D01*
X778512D01*
X777242Y697229D01*
Y692151D01*
X778512Y690881D01*
X781051D01*
X782320Y692151D01*
X789938Y698499D02*
X784860D01*
Y694690D01*
X787399Y695960D01*
X788668D01*
X789938Y694690D01*
Y692151D01*
X788668Y690881D01*
X786129D01*
X784860Y692151D01*
X709166Y921256D02*
X707897Y922525D01*
X705358D01*
X704088Y921256D01*
Y916178D01*
X705358Y914908D01*
X707897D01*
X709166Y916178D01*
X711705Y914908D02*
X714245D01*
X712975D01*
Y922525D01*
X711705Y921256D01*
X723132Y914908D02*
X718054D01*
X723132Y919986D01*
Y921256D01*
X721862Y922525D01*
X719323D01*
X718054Y921256D01*
X652780Y896621D02*
X654050Y895351D01*
X656589D01*
X657858Y896621D01*
Y901699D01*
X656589Y902969D01*
X654050D01*
X652780Y901699D01*
X650241Y902969D02*
X647702D01*
X648971D01*
Y895351D01*
X650241Y896621D01*
X659130Y869949D02*
X657861Y871219D01*
X655322D01*
X654052Y869949D01*
Y864871D01*
X655322Y863601D01*
X657861D01*
X659130Y864871D01*
X666748Y863601D02*
X661670D01*
X666748Y868680D01*
Y869949D01*
X665478Y871219D01*
X662939D01*
X661670Y869949D01*
X728982Y631189D02*
Y624841D01*
X730252Y623571D01*
X732791D01*
X734060Y624841D01*
Y631189D01*
X740408Y623571D02*
Y631189D01*
X736600Y627380D01*
X741678D01*
D15*
X577850Y508426D02*
X576157Y506733D01*
X572772D01*
X571079Y508426D01*
Y510119D01*
X572772Y511812D01*
X571079Y513504D01*
Y515197D01*
X572772Y516890D01*
X576157D01*
X577850Y515197D01*
Y513504D01*
X576157Y511812D01*
X577850Y510119D01*
Y508426D01*
X576157Y511812D02*
X572772D01*
X753110Y516890D02*
X749724D01*
X751417D01*
Y506733D01*
X753110Y508426D01*
D16*
X1027430Y544830D02*
D03*
M02*
