G04*
G04 #@! TF.GenerationSoftware,Altium Limited,Altium Designer,23.5.1 (21)*
G04*
G04 Layer_Color=2752767*
%FSLAX44Y44*%
%MOMM*%
G71*
G04*
G04 #@! TF.SameCoordinates,14FB7749-BF70-4BA2-BDF3-10CF23B172C4*
G04*
G04*
G04 #@! TF.FilePolarity,Positive*
G04*
G01*
G75*
%ADD13C,0.1270*%
%ADD90C,0.1693*%
D13*
X293521Y724540D02*
X288441Y734700D01*
X298601D01*
X293521Y724540D01*
Y764540D02*
X288441Y774700D01*
X298601D01*
X293521Y764540D01*
X568960Y529590D02*
Y539750D01*
X579120D01*
Y529590D01*
X568960D01*
X594360D02*
Y539750D01*
X604520D01*
Y529590D01*
X594360D01*
X645160D02*
Y539750D01*
X655320D01*
Y529590D01*
X645160D01*
X695960D02*
Y539750D01*
X706120D01*
Y529590D01*
X695960D01*
X746760D02*
Y539750D01*
X756920D01*
Y529590D01*
X746760D01*
X721360D02*
Y539750D01*
X731520D01*
Y529590D01*
X721360D01*
X670560D02*
Y539750D01*
X680720D01*
Y529590D01*
X670560D01*
X619760D02*
Y539750D01*
X629920D01*
Y529590D01*
X619760D01*
X1172210Y906780D02*
X1174750Y909320D01*
X1177290D01*
X1174750Y911860D01*
X1177290Y914400D01*
X1174750D01*
X1172210Y916940D01*
X1169670Y914400D01*
X1167130D01*
X1169670Y911860D01*
X1167130Y909320D01*
X1169670D01*
X1172210Y906780D01*
X1146810D02*
X1149350Y909320D01*
X1151890D01*
X1149350Y911860D01*
X1151890Y914400D01*
X1149350D01*
X1146810Y916940D01*
X1144270Y914400D01*
X1141730D01*
X1144270Y911860D01*
X1141730Y909320D01*
X1144270D01*
X1146810Y906780D01*
X1121410D02*
X1123950Y909320D01*
X1126490D01*
X1123950Y911860D01*
X1126490Y914400D01*
X1123950D01*
X1121410Y916940D01*
X1118870Y914400D01*
X1116330D01*
X1118870Y911860D01*
X1116330Y909320D01*
X1118870D01*
X1121410Y906780D01*
X358140Y632460D02*
X360680Y635000D01*
X363220D01*
X360680Y637540D01*
X363220Y640080D01*
X360680D01*
X358140Y642620D01*
X355600Y640080D01*
X353060D01*
X355600Y637540D01*
X353060Y635000D01*
X355600D01*
X358140Y632460D01*
X383540D02*
X386080Y635000D01*
X388620D01*
X386080Y637540D01*
X388620Y640080D01*
X386080D01*
X383540Y642620D01*
X381000Y640080D01*
X378460D01*
X381000Y637540D01*
X378460Y635000D01*
X381000D01*
X383540Y632460D01*
X408940D02*
X411480Y635000D01*
X414020D01*
X411480Y637540D01*
X414020Y640080D01*
X411480D01*
X408940Y642620D01*
X406400Y640080D01*
X403860D01*
X406400Y637540D01*
X403860Y635000D01*
X406400D01*
X408940Y632460D01*
X1235710Y949960D02*
Y947420D01*
X1240790D01*
Y949960D01*
X1243330D01*
Y955040D01*
X1240790D01*
Y957580D01*
X1235710D01*
Y955040D01*
X1233170D01*
Y949960D01*
X1235710D01*
X1216660Y835660D02*
Y833120D01*
X1221740D01*
Y835660D01*
X1224280D01*
Y840740D01*
X1221740D01*
Y843280D01*
X1216660D01*
Y840740D01*
X1214120D01*
Y835660D01*
X1216660D01*
Y759460D02*
Y756920D01*
X1221740D01*
Y759460D01*
X1224280D01*
Y764540D01*
X1221740D01*
Y767080D01*
X1216660D01*
Y764540D01*
X1214120D01*
Y759460D01*
X1216660D01*
X1235710Y721360D02*
Y718820D01*
X1240790D01*
Y721360D01*
X1243330D01*
Y726440D01*
X1240790D01*
Y728980D01*
X1235710D01*
Y726440D01*
X1233170D01*
Y721360D01*
X1235710D01*
Y645160D02*
Y642620D01*
X1240790D01*
Y645160D01*
X1243330D01*
Y650240D01*
X1240790D01*
Y652780D01*
X1235710D01*
Y650240D01*
X1233170D01*
Y645160D01*
X1235710D01*
X1216660Y607060D02*
Y604520D01*
X1221740D01*
Y607060D01*
X1224280D01*
Y612140D01*
X1221740D01*
Y614680D01*
X1216660D01*
Y612140D01*
X1214120D01*
Y607060D01*
X1216660D01*
X1235710Y568960D02*
Y566420D01*
X1240790D01*
Y568960D01*
X1243330D01*
Y574040D01*
X1240790D01*
Y576580D01*
X1235710D01*
Y574040D01*
X1233170D01*
Y568960D01*
X1235710D01*
X1216660Y530860D02*
Y528320D01*
X1221740D01*
Y530860D01*
X1224280D01*
Y535940D01*
X1221740D01*
Y538480D01*
X1216660D01*
Y535940D01*
X1214120D01*
Y530860D01*
X1216660D01*
X1197610Y873760D02*
Y871220D01*
X1202690D01*
Y873760D01*
X1205230D01*
Y878840D01*
X1202690D01*
Y881380D01*
X1197610D01*
Y878840D01*
X1195070D01*
Y873760D01*
X1197610D01*
X1178560Y835660D02*
Y833120D01*
X1183640D01*
Y835660D01*
X1186180D01*
Y840740D01*
X1183640D01*
Y843280D01*
X1178560D01*
Y840740D01*
X1176020D01*
Y835660D01*
X1178560D01*
X1197610Y797560D02*
Y795020D01*
X1202690D01*
Y797560D01*
X1205230D01*
Y802640D01*
X1202690D01*
Y805180D01*
X1197610D01*
Y802640D01*
X1195070D01*
Y797560D01*
X1197610D01*
X1178560Y759460D02*
Y756920D01*
X1183640D01*
Y759460D01*
X1186180D01*
Y764540D01*
X1183640D01*
Y767080D01*
X1178560D01*
Y764540D01*
X1176020D01*
Y759460D01*
X1178560D01*
Y607060D02*
Y604520D01*
X1183640D01*
Y607060D01*
X1186180D01*
Y612140D01*
X1183640D01*
Y614680D01*
X1178560D01*
Y612140D01*
X1176020D01*
Y607060D01*
X1178560D01*
X1197610Y568960D02*
Y566420D01*
X1202690D01*
Y568960D01*
X1205230D01*
Y574040D01*
X1202690D01*
Y576580D01*
X1197610D01*
Y574040D01*
X1195070D01*
Y568960D01*
X1197610D01*
X1178560Y530860D02*
Y528320D01*
X1183640D01*
Y530860D01*
X1186180D01*
Y535940D01*
X1183640D01*
Y538480D01*
X1178560D01*
Y535940D01*
X1176020D01*
Y530860D01*
X1178560D01*
X1159510Y873760D02*
Y871220D01*
X1164590D01*
Y873760D01*
X1167130D01*
Y878840D01*
X1164590D01*
Y881380D01*
X1159510D01*
Y878840D01*
X1156970D01*
Y873760D01*
X1159510D01*
X1140460Y835660D02*
Y833120D01*
X1145540D01*
Y835660D01*
X1148080D01*
Y840740D01*
X1145540D01*
Y843280D01*
X1140460D01*
Y840740D01*
X1137920D01*
Y835660D01*
X1140460D01*
X1159510Y797560D02*
Y795020D01*
X1164590D01*
Y797560D01*
X1167130D01*
Y802640D01*
X1164590D01*
Y805180D01*
X1159510D01*
Y802640D01*
X1156970D01*
Y797560D01*
X1159510D01*
X1140460Y759460D02*
Y756920D01*
X1145540D01*
Y759460D01*
X1148080D01*
Y764540D01*
X1145540D01*
Y767080D01*
X1140460D01*
Y764540D01*
X1137920D01*
Y759460D01*
X1140460D01*
X1159510Y721360D02*
Y718820D01*
X1164590D01*
Y721360D01*
X1167130D01*
Y726440D01*
X1164590D01*
Y728980D01*
X1159510D01*
Y726440D01*
X1156970D01*
Y721360D01*
X1159510D01*
X1140460Y683260D02*
Y680720D01*
X1145540D01*
Y683260D01*
X1148080D01*
Y688340D01*
X1145540D01*
Y690880D01*
X1140460D01*
Y688340D01*
X1137920D01*
Y683260D01*
X1140460D01*
X1159510Y645160D02*
Y642620D01*
X1164590D01*
Y645160D01*
X1167130D01*
Y650240D01*
X1164590D01*
Y652780D01*
X1159510D01*
Y650240D01*
X1156970D01*
Y645160D01*
X1159510D01*
X1140460Y607060D02*
Y604520D01*
X1145540D01*
Y607060D01*
X1148080D01*
Y612140D01*
X1145540D01*
Y614680D01*
X1140460D01*
Y612140D01*
X1137920D01*
Y607060D01*
X1140460D01*
X1159510Y568960D02*
Y566420D01*
X1164590D01*
Y568960D01*
X1167130D01*
Y574040D01*
X1164590D01*
Y576580D01*
X1159510D01*
Y574040D01*
X1156970D01*
Y568960D01*
X1159510D01*
X1140460Y530860D02*
Y528320D01*
X1145540D01*
Y530860D01*
X1148080D01*
Y535940D01*
X1145540D01*
Y538480D01*
X1140460D01*
Y535940D01*
X1137920D01*
Y530860D01*
X1140460D01*
X1121410Y949960D02*
Y947420D01*
X1126490D01*
Y949960D01*
X1129030D01*
Y955040D01*
X1126490D01*
Y957580D01*
X1121410D01*
Y955040D01*
X1118870D01*
Y949960D01*
X1121410D01*
Y873760D02*
Y871220D01*
X1126490D01*
Y873760D01*
X1129030D01*
Y878840D01*
X1126490D01*
Y881380D01*
X1121410D01*
Y878840D01*
X1118870D01*
Y873760D01*
X1121410D01*
X1102360Y835660D02*
Y833120D01*
X1107440D01*
Y835660D01*
X1109980D01*
Y840740D01*
X1107440D01*
Y843280D01*
X1102360D01*
Y840740D01*
X1099820D01*
Y835660D01*
X1102360D01*
Y759460D02*
Y756920D01*
X1107440D01*
Y759460D01*
X1109980D01*
Y764540D01*
X1107440D01*
Y767080D01*
X1102360D01*
Y764540D01*
X1099820D01*
Y759460D01*
X1102360D01*
X1121410Y721360D02*
Y718820D01*
X1126490D01*
Y721360D01*
X1129030D01*
Y726440D01*
X1126490D01*
Y728980D01*
X1121410D01*
Y726440D01*
X1118870D01*
Y721360D01*
X1121410D01*
Y645160D02*
Y642620D01*
X1126490D01*
Y645160D01*
X1129030D01*
Y650240D01*
X1126490D01*
Y652780D01*
X1121410D01*
Y650240D01*
X1118870D01*
Y645160D01*
X1121410D01*
X1102360Y607060D02*
Y604520D01*
X1107440D01*
Y607060D01*
X1109980D01*
Y612140D01*
X1107440D01*
Y614680D01*
X1102360D01*
Y612140D01*
X1099820D01*
Y607060D01*
X1102360D01*
Y530860D02*
Y528320D01*
X1107440D01*
Y530860D01*
X1109980D01*
Y535940D01*
X1107440D01*
Y538480D01*
X1102360D01*
Y535940D01*
X1099820D01*
Y530860D01*
X1102360D01*
X1083310Y949960D02*
Y947420D01*
X1088390D01*
Y949960D01*
X1090930D01*
Y955040D01*
X1088390D01*
Y957580D01*
X1083310D01*
Y955040D01*
X1080770D01*
Y949960D01*
X1083310D01*
Y873760D02*
Y871220D01*
X1088390D01*
Y873760D01*
X1090930D01*
Y878840D01*
X1088390D01*
Y881380D01*
X1083310D01*
Y878840D01*
X1080770D01*
Y873760D01*
X1083310D01*
X1064260Y759460D02*
Y756920D01*
X1069340D01*
Y759460D01*
X1071880D01*
Y764540D01*
X1069340D01*
Y767080D01*
X1064260D01*
Y764540D01*
X1061720D01*
Y759460D01*
X1064260D01*
Y683260D02*
Y680720D01*
X1069340D01*
Y683260D01*
X1071880D01*
Y688340D01*
X1069340D01*
Y690880D01*
X1064260D01*
Y688340D01*
X1061720D01*
Y683260D01*
X1064260D01*
X1083310Y645160D02*
Y642620D01*
X1088390D01*
Y645160D01*
X1090930D01*
Y650240D01*
X1088390D01*
Y652780D01*
X1083310D01*
Y650240D01*
X1080770D01*
Y645160D01*
X1083310D01*
X1064260Y607060D02*
Y604520D01*
X1069340D01*
Y607060D01*
X1071880D01*
Y612140D01*
X1069340D01*
Y614680D01*
X1064260D01*
Y612140D01*
X1061720D01*
Y607060D01*
X1064260D01*
Y530860D02*
Y528320D01*
X1069340D01*
Y530860D01*
X1071880D01*
Y535940D01*
X1069340D01*
Y538480D01*
X1064260D01*
Y535940D01*
X1061720D01*
Y530860D01*
X1064260D01*
X1045210Y949960D02*
Y947420D01*
X1050290D01*
Y949960D01*
X1052830D01*
Y955040D01*
X1050290D01*
Y957580D01*
X1045210D01*
Y955040D01*
X1042670D01*
Y949960D01*
X1045210D01*
X1026160Y911860D02*
Y909320D01*
X1031240D01*
Y911860D01*
X1033780D01*
Y916940D01*
X1031240D01*
Y919480D01*
X1026160D01*
Y916940D01*
X1023620D01*
Y911860D01*
X1026160D01*
X1045210Y873760D02*
Y871220D01*
X1050290D01*
Y873760D01*
X1052830D01*
Y878840D01*
X1050290D01*
Y881380D01*
X1045210D01*
Y878840D01*
X1042670D01*
Y873760D01*
X1045210D01*
Y721360D02*
Y718820D01*
X1050290D01*
Y721360D01*
X1052830D01*
Y726440D01*
X1050290D01*
Y728980D01*
X1045210D01*
Y726440D01*
X1042670D01*
Y721360D01*
X1045210D01*
X1026160Y683260D02*
Y680720D01*
X1031240D01*
Y683260D01*
X1033780D01*
Y688340D01*
X1031240D01*
Y690880D01*
X1026160D01*
Y688340D01*
X1023620D01*
Y683260D01*
X1026160D01*
X1045210Y645160D02*
Y642620D01*
X1050290D01*
Y645160D01*
X1052830D01*
Y650240D01*
X1050290D01*
Y652780D01*
X1045210D01*
Y650240D01*
X1042670D01*
Y645160D01*
X1045210D01*
X1026160Y607060D02*
Y604520D01*
X1031240D01*
Y607060D01*
X1033780D01*
Y612140D01*
X1031240D01*
Y614680D01*
X1026160D01*
Y612140D01*
X1023620D01*
Y607060D01*
X1026160D01*
Y530860D02*
Y528320D01*
X1031240D01*
Y530860D01*
X1033780D01*
Y535940D01*
X1031240D01*
Y538480D01*
X1026160D01*
Y535940D01*
X1023620D01*
Y530860D01*
X1026160D01*
X1007110Y949960D02*
Y947420D01*
X1012190D01*
Y949960D01*
X1014730D01*
Y955040D01*
X1012190D01*
Y957580D01*
X1007110D01*
Y955040D01*
X1004570D01*
Y949960D01*
X1007110D01*
X988060Y911860D02*
Y909320D01*
X993140D01*
Y911860D01*
X995680D01*
Y916940D01*
X993140D01*
Y919480D01*
X988060D01*
Y916940D01*
X985520D01*
Y911860D01*
X988060D01*
X1007110Y873760D02*
Y871220D01*
X1012190D01*
Y873760D01*
X1014730D01*
Y878840D01*
X1012190D01*
Y881380D01*
X1007110D01*
Y878840D01*
X1004570D01*
Y873760D01*
X1007110D01*
X988060Y759460D02*
Y756920D01*
X993140D01*
Y759460D01*
X995680D01*
Y764540D01*
X993140D01*
Y767080D01*
X988060D01*
Y764540D01*
X985520D01*
Y759460D01*
X988060D01*
X1007110Y721360D02*
Y718820D01*
X1012190D01*
Y721360D01*
X1014730D01*
Y726440D01*
X1012190D01*
Y728980D01*
X1007110D01*
Y726440D01*
X1004570D01*
Y721360D01*
X1007110D01*
X988060Y683260D02*
Y680720D01*
X993140D01*
Y683260D01*
X995680D01*
Y688340D01*
X993140D01*
Y690880D01*
X988060D01*
Y688340D01*
X985520D01*
Y683260D01*
X988060D01*
X1007110Y645160D02*
Y642620D01*
X1012190D01*
Y645160D01*
X1014730D01*
Y650240D01*
X1012190D01*
Y652780D01*
X1007110D01*
Y650240D01*
X1004570D01*
Y645160D01*
X1007110D01*
X988060Y607060D02*
Y604520D01*
X993140D01*
Y607060D01*
X995680D01*
Y612140D01*
X993140D01*
Y614680D01*
X988060D01*
Y612140D01*
X985520D01*
Y607060D01*
X988060D01*
X1007110Y568960D02*
Y566420D01*
X1012190D01*
Y568960D01*
X1014730D01*
Y574040D01*
X1012190D01*
Y576580D01*
X1007110D01*
Y574040D01*
X1004570D01*
Y568960D01*
X1007110D01*
X988060Y530860D02*
Y528320D01*
X993140D01*
Y530860D01*
X995680D01*
Y535940D01*
X993140D01*
Y538480D01*
X988060D01*
Y535940D01*
X985520D01*
Y530860D01*
X988060D01*
X969010Y949960D02*
Y947420D01*
X974090D01*
Y949960D01*
X976630D01*
Y955040D01*
X974090D01*
Y957580D01*
X969010D01*
Y955040D01*
X966470D01*
Y949960D01*
X969010D01*
X949960Y911860D02*
Y909320D01*
X955040D01*
Y911860D01*
X957580D01*
Y916940D01*
X955040D01*
Y919480D01*
X949960D01*
Y916940D01*
X947420D01*
Y911860D01*
X949960D01*
X969010Y873760D02*
Y871220D01*
X974090D01*
Y873760D01*
X976630D01*
Y878840D01*
X974090D01*
Y881380D01*
X969010D01*
Y878840D01*
X966470D01*
Y873760D01*
X969010D01*
X949960Y607060D02*
Y604520D01*
X955040D01*
Y607060D01*
X957580D01*
Y612140D01*
X955040D01*
Y614680D01*
X949960D01*
Y612140D01*
X947420D01*
Y607060D01*
X949960D01*
X969010Y568960D02*
Y566420D01*
X974090D01*
Y568960D01*
X976630D01*
Y574040D01*
X974090D01*
Y576580D01*
X969010D01*
Y574040D01*
X966470D01*
Y568960D01*
X969010D01*
X949960Y530860D02*
Y528320D01*
X955040D01*
Y530860D01*
X957580D01*
Y535940D01*
X955040D01*
Y538480D01*
X949960D01*
Y535940D01*
X947420D01*
Y530860D01*
X949960D01*
X930910Y949960D02*
Y947420D01*
X935990D01*
Y949960D01*
X938530D01*
Y955040D01*
X935990D01*
Y957580D01*
X930910D01*
Y955040D01*
X928370D01*
Y949960D01*
X930910D01*
X911860Y911860D02*
Y909320D01*
X916940D01*
Y911860D01*
X919480D01*
Y916940D01*
X916940D01*
Y919480D01*
X911860D01*
Y916940D01*
X909320D01*
Y911860D01*
X911860D01*
X930910Y873760D02*
Y871220D01*
X935990D01*
Y873760D01*
X938530D01*
Y878840D01*
X935990D01*
Y881380D01*
X930910D01*
Y878840D01*
X928370D01*
Y873760D01*
X930910D01*
X911860Y759460D02*
Y756920D01*
X916940D01*
Y759460D01*
X919480D01*
Y764540D01*
X916940D01*
Y767080D01*
X911860D01*
Y764540D01*
X909320D01*
Y759460D01*
X911860D01*
X930910Y645160D02*
Y642620D01*
X935990D01*
Y645160D01*
X938530D01*
Y650240D01*
X935990D01*
Y652780D01*
X930910D01*
Y650240D01*
X928370D01*
Y645160D01*
X930910D01*
X911860Y607060D02*
Y604520D01*
X916940D01*
Y607060D01*
X919480D01*
Y612140D01*
X916940D01*
Y614680D01*
X911860D01*
Y612140D01*
X909320D01*
Y607060D01*
X911860D01*
X930910Y568960D02*
Y566420D01*
X935990D01*
Y568960D01*
X938530D01*
Y574040D01*
X935990D01*
Y576580D01*
X930910D01*
Y574040D01*
X928370D01*
Y568960D01*
X930910D01*
X911860Y530860D02*
Y528320D01*
X916940D01*
Y530860D01*
X919480D01*
Y535940D01*
X916940D01*
Y538480D01*
X911860D01*
Y535940D01*
X909320D01*
Y530860D01*
X911860D01*
X892810Y949960D02*
Y947420D01*
X897890D01*
Y949960D01*
X900430D01*
Y955040D01*
X897890D01*
Y957580D01*
X892810D01*
Y955040D01*
X890270D01*
Y949960D01*
X892810D01*
X873760Y911860D02*
Y909320D01*
X878840D01*
Y911860D01*
X881380D01*
Y916940D01*
X878840D01*
Y919480D01*
X873760D01*
Y916940D01*
X871220D01*
Y911860D01*
X873760D01*
X892810Y873760D02*
Y871220D01*
X897890D01*
Y873760D01*
X900430D01*
Y878840D01*
X897890D01*
Y881380D01*
X892810D01*
Y878840D01*
X890270D01*
Y873760D01*
X892810D01*
X873760Y759460D02*
Y756920D01*
X878840D01*
Y759460D01*
X881380D01*
Y764540D01*
X878840D01*
Y767080D01*
X873760D01*
Y764540D01*
X871220D01*
Y759460D01*
X873760D01*
Y683260D02*
Y680720D01*
X878840D01*
Y683260D01*
X881380D01*
Y688340D01*
X878840D01*
Y690880D01*
X873760D01*
Y688340D01*
X871220D01*
Y683260D01*
X873760D01*
Y607060D02*
Y604520D01*
X878840D01*
Y607060D01*
X881380D01*
Y612140D01*
X878840D01*
Y614680D01*
X873760D01*
Y612140D01*
X871220D01*
Y607060D01*
X873760D01*
X892810Y568960D02*
Y566420D01*
X897890D01*
Y568960D01*
X900430D01*
Y574040D01*
X897890D01*
Y576580D01*
X892810D01*
Y574040D01*
X890270D01*
Y568960D01*
X892810D01*
X873760Y530860D02*
Y528320D01*
X878840D01*
Y530860D01*
X881380D01*
Y535940D01*
X878840D01*
Y538480D01*
X873760D01*
Y535940D01*
X871220D01*
Y530860D01*
X873760D01*
X854710Y949960D02*
Y947420D01*
X859790D01*
Y949960D01*
X862330D01*
Y955040D01*
X859790D01*
Y957580D01*
X854710D01*
Y955040D01*
X852170D01*
Y949960D01*
X854710D01*
X835660Y911860D02*
Y909320D01*
X840740D01*
Y911860D01*
X843280D01*
Y916940D01*
X840740D01*
Y919480D01*
X835660D01*
Y916940D01*
X833120D01*
Y911860D01*
X835660D01*
X854710Y873760D02*
Y871220D01*
X859790D01*
Y873760D01*
X862330D01*
Y878840D01*
X859790D01*
Y881380D01*
X854710D01*
Y878840D01*
X852170D01*
Y873760D01*
X854710D01*
X835660Y683260D02*
Y680720D01*
X840740D01*
Y683260D01*
X843280D01*
Y688340D01*
X840740D01*
Y690880D01*
X835660D01*
Y688340D01*
X833120D01*
Y683260D01*
X835660D01*
Y607060D02*
Y604520D01*
X840740D01*
Y607060D01*
X843280D01*
Y612140D01*
X840740D01*
Y614680D01*
X835660D01*
Y612140D01*
X833120D01*
Y607060D01*
X835660D01*
X854710Y568960D02*
Y566420D01*
X859790D01*
Y568960D01*
X862330D01*
Y574040D01*
X859790D01*
Y576580D01*
X854710D01*
Y574040D01*
X852170D01*
Y568960D01*
X854710D01*
X835660Y530860D02*
Y528320D01*
X840740D01*
Y530860D01*
X843280D01*
Y535940D01*
X840740D01*
Y538480D01*
X835660D01*
Y535940D01*
X833120D01*
Y530860D01*
X835660D01*
X816610Y949960D02*
Y947420D01*
X821690D01*
Y949960D01*
X824230D01*
Y955040D01*
X821690D01*
Y957580D01*
X816610D01*
Y955040D01*
X814070D01*
Y949960D01*
X816610D01*
X797560Y911860D02*
Y909320D01*
X802640D01*
Y911860D01*
X805180D01*
Y916940D01*
X802640D01*
Y919480D01*
X797560D01*
Y916940D01*
X795020D01*
Y911860D01*
X797560D01*
Y683260D02*
Y680720D01*
X802640D01*
Y683260D01*
X805180D01*
Y688340D01*
X802640D01*
Y690880D01*
X797560D01*
Y688340D01*
X795020D01*
Y683260D01*
X797560D01*
Y607060D02*
Y604520D01*
X802640D01*
Y607060D01*
X805180D01*
Y612140D01*
X802640D01*
Y614680D01*
X797560D01*
Y612140D01*
X795020D01*
Y607060D01*
X797560D01*
X816610Y568960D02*
Y566420D01*
X821690D01*
Y568960D01*
X824230D01*
Y574040D01*
X821690D01*
Y576580D01*
X816610D01*
Y574040D01*
X814070D01*
Y568960D01*
X816610D01*
X797560Y530860D02*
Y528320D01*
X802640D01*
Y530860D01*
X805180D01*
Y535940D01*
X802640D01*
Y538480D01*
X797560D01*
Y535940D01*
X795020D01*
Y530860D01*
X797560D01*
X778510Y949960D02*
Y947420D01*
X783590D01*
Y949960D01*
X786130D01*
Y955040D01*
X783590D01*
Y957580D01*
X778510D01*
Y955040D01*
X775970D01*
Y949960D01*
X778510D01*
Y568960D02*
Y566420D01*
X783590D01*
Y568960D01*
X786130D01*
Y574040D01*
X783590D01*
Y576580D01*
X778510D01*
Y574040D01*
X775970D01*
Y568960D01*
X778510D01*
X740410Y949960D02*
Y947420D01*
X745490D01*
Y949960D01*
X748030D01*
Y955040D01*
X745490D01*
Y957580D01*
X740410D01*
Y955040D01*
X737870D01*
Y949960D01*
X740410D01*
X721360Y911860D02*
Y909320D01*
X726440D01*
Y911860D01*
X728980D01*
Y916940D01*
X726440D01*
Y919480D01*
X721360D01*
Y916940D01*
X718820D01*
Y911860D01*
X721360D01*
X740410Y797560D02*
Y795020D01*
X745490D01*
Y797560D01*
X748030D01*
Y802640D01*
X745490D01*
Y805180D01*
X740410D01*
Y802640D01*
X737870D01*
Y797560D01*
X740410D01*
X721360Y759460D02*
Y756920D01*
X726440D01*
Y759460D01*
X728980D01*
Y764540D01*
X726440D01*
Y767080D01*
X721360D01*
Y764540D01*
X718820D01*
Y759460D01*
X721360D01*
X702310Y949960D02*
Y947420D01*
X707390D01*
Y949960D01*
X709930D01*
Y955040D01*
X707390D01*
Y957580D01*
X702310D01*
Y955040D01*
X699770D01*
Y949960D01*
X702310D01*
Y797560D02*
Y795020D01*
X707390D01*
Y797560D01*
X709930D01*
Y802640D01*
X707390D01*
Y805180D01*
X702310D01*
Y802640D01*
X699770D01*
Y797560D01*
X702310D01*
X683260Y759460D02*
Y756920D01*
X688340D01*
Y759460D01*
X690880D01*
Y764540D01*
X688340D01*
Y767080D01*
X683260D01*
Y764540D01*
X680720D01*
Y759460D01*
X683260D01*
X702310Y568960D02*
Y566420D01*
X707390D01*
Y568960D01*
X709930D01*
Y574040D01*
X707390D01*
Y576580D01*
X702310D01*
Y574040D01*
X699770D01*
Y568960D01*
X702310D01*
X664210Y949960D02*
Y947420D01*
X669290D01*
Y949960D01*
X671830D01*
Y955040D01*
X669290D01*
Y957580D01*
X664210D01*
Y955040D01*
X661670D01*
Y949960D01*
X664210D01*
Y873760D02*
Y871220D01*
X669290D01*
Y873760D01*
X671830D01*
Y878840D01*
X669290D01*
Y881380D01*
X664210D01*
Y878840D01*
X661670D01*
Y873760D01*
X664210D01*
Y721360D02*
Y718820D01*
X669290D01*
Y721360D01*
X671830D01*
Y726440D01*
X669290D01*
Y728980D01*
X664210D01*
Y726440D01*
X661670D01*
Y721360D01*
X664210D01*
Y568960D02*
Y566420D01*
X669290D01*
Y568960D01*
X671830D01*
Y574040D01*
X669290D01*
Y576580D01*
X664210D01*
Y574040D01*
X661670D01*
Y568960D01*
X664210D01*
X626110Y949960D02*
Y947420D01*
X631190D01*
Y949960D01*
X633730D01*
Y955040D01*
X631190D01*
Y957580D01*
X626110D01*
Y955040D01*
X623570D01*
Y949960D01*
X626110D01*
X607060Y607060D02*
Y604520D01*
X612140D01*
Y607060D01*
X614680D01*
Y612140D01*
X612140D01*
Y614680D01*
X607060D01*
Y612140D01*
X604520D01*
Y607060D01*
X607060D01*
X626110Y568960D02*
Y566420D01*
X631190D01*
Y568960D01*
X633730D01*
Y574040D01*
X631190D01*
Y576580D01*
X626110D01*
Y574040D01*
X623570D01*
Y568960D01*
X626110D01*
X568960Y835660D02*
Y833120D01*
X574040D01*
Y835660D01*
X576580D01*
Y840740D01*
X574040D01*
Y843280D01*
X568960D01*
Y840740D01*
X566420D01*
Y835660D01*
X568960D01*
X588010Y721360D02*
Y718820D01*
X593090D01*
Y721360D01*
X595630D01*
Y726440D01*
X593090D01*
Y728980D01*
X588010D01*
Y726440D01*
X585470D01*
Y721360D01*
X588010D01*
Y568960D02*
Y566420D01*
X593090D01*
Y568960D01*
X595630D01*
Y574040D01*
X593090D01*
Y576580D01*
X588010D01*
Y574040D01*
X585470D01*
Y568960D01*
X588010D01*
X549910Y949960D02*
Y947420D01*
X554990D01*
Y949960D01*
X557530D01*
Y955040D01*
X554990D01*
Y957580D01*
X549910D01*
Y955040D01*
X547370D01*
Y949960D01*
X549910D01*
X530860Y911860D02*
Y909320D01*
X535940D01*
Y911860D01*
X538480D01*
Y916940D01*
X535940D01*
Y919480D01*
X530860D01*
Y916940D01*
X528320D01*
Y911860D01*
X530860D01*
X549910Y721360D02*
Y718820D01*
X554990D01*
Y721360D01*
X557530D01*
Y726440D01*
X554990D01*
Y728980D01*
X549910D01*
Y726440D01*
X547370D01*
Y721360D01*
X549910D01*
X530860Y683260D02*
Y680720D01*
X535940D01*
Y683260D01*
X538480D01*
Y688340D01*
X535940D01*
Y690880D01*
X530860D01*
Y688340D01*
X528320D01*
Y683260D01*
X530860D01*
X549910Y645160D02*
Y642620D01*
X554990D01*
Y645160D01*
X557530D01*
Y650240D01*
X554990D01*
Y652780D01*
X549910D01*
Y650240D01*
X547370D01*
Y645160D01*
X549910D01*
X530860Y607060D02*
Y604520D01*
X535940D01*
Y607060D01*
X538480D01*
Y612140D01*
X535940D01*
Y614680D01*
X530860D01*
Y612140D01*
X528320D01*
Y607060D01*
X530860D01*
X549910Y568960D02*
Y566420D01*
X554990D01*
Y568960D01*
X557530D01*
Y574040D01*
X554990D01*
Y576580D01*
X549910D01*
Y574040D01*
X547370D01*
Y568960D01*
X549910D01*
X530860Y530860D02*
Y528320D01*
X535940D01*
Y530860D01*
X538480D01*
Y535940D01*
X535940D01*
Y538480D01*
X530860D01*
Y535940D01*
X528320D01*
Y530860D01*
X530860D01*
X511810Y873760D02*
Y871220D01*
X516890D01*
Y873760D01*
X519430D01*
Y878840D01*
X516890D01*
Y881380D01*
X511810D01*
Y878840D01*
X509270D01*
Y873760D01*
X511810D01*
X492760Y835660D02*
Y833120D01*
X497840D01*
Y835660D01*
X500380D01*
Y840740D01*
X497840D01*
Y843280D01*
X492760D01*
Y840740D01*
X490220D01*
Y835660D01*
X492760D01*
Y759460D02*
Y756920D01*
X497840D01*
Y759460D01*
X500380D01*
Y764540D01*
X497840D01*
Y767080D01*
X492760D01*
Y764540D01*
X490220D01*
Y759460D01*
X492760D01*
Y683260D02*
Y680720D01*
X497840D01*
Y683260D01*
X500380D01*
Y688340D01*
X497840D01*
Y690880D01*
X492760D01*
Y688340D01*
X490220D01*
Y683260D01*
X492760D01*
X511810Y645160D02*
Y642620D01*
X516890D01*
Y645160D01*
X519430D01*
Y650240D01*
X516890D01*
Y652780D01*
X511810D01*
Y650240D01*
X509270D01*
Y645160D01*
X511810D01*
X492760Y607060D02*
Y604520D01*
X497840D01*
Y607060D01*
X500380D01*
Y612140D01*
X497840D01*
Y614680D01*
X492760D01*
Y612140D01*
X490220D01*
Y607060D01*
X492760D01*
Y530860D02*
Y528320D01*
X497840D01*
Y530860D01*
X500380D01*
Y535940D01*
X497840D01*
Y538480D01*
X492760D01*
Y535940D01*
X490220D01*
Y530860D01*
X492760D01*
X454660Y911860D02*
Y909320D01*
X459740D01*
Y911860D01*
X462280D01*
Y916940D01*
X459740D01*
Y919480D01*
X454660D01*
Y916940D01*
X452120D01*
Y911860D01*
X454660D01*
X473710Y873760D02*
Y871220D01*
X478790D01*
Y873760D01*
X481330D01*
Y878840D01*
X478790D01*
Y881380D01*
X473710D01*
Y878840D01*
X471170D01*
Y873760D01*
X473710D01*
X454660Y835660D02*
Y833120D01*
X459740D01*
Y835660D01*
X462280D01*
Y840740D01*
X459740D01*
Y843280D01*
X454660D01*
Y840740D01*
X452120D01*
Y835660D01*
X454660D01*
X473710Y797560D02*
Y795020D01*
X478790D01*
Y797560D01*
X481330D01*
Y802640D01*
X478790D01*
Y805180D01*
X473710D01*
Y802640D01*
X471170D01*
Y797560D01*
X473710D01*
X454660Y759460D02*
Y756920D01*
X459740D01*
Y759460D01*
X462280D01*
Y764540D01*
X459740D01*
Y767080D01*
X454660D01*
Y764540D01*
X452120D01*
Y759460D01*
X454660D01*
X473710Y645160D02*
Y642620D01*
X478790D01*
Y645160D01*
X481330D01*
Y650240D01*
X478790D01*
Y652780D01*
X473710D01*
Y650240D01*
X471170D01*
Y645160D01*
X473710D01*
X454660Y607060D02*
Y604520D01*
X459740D01*
Y607060D01*
X462280D01*
Y612140D01*
X459740D01*
Y614680D01*
X454660D01*
Y612140D01*
X452120D01*
Y607060D01*
X454660D01*
Y530860D02*
Y528320D01*
X459740D01*
Y530860D01*
X462280D01*
Y535940D01*
X459740D01*
Y538480D01*
X454660D01*
Y535940D01*
X452120D01*
Y530860D01*
X454660D01*
X416560Y911860D02*
Y909320D01*
X421640D01*
Y911860D01*
X424180D01*
Y916940D01*
X421640D01*
Y919480D01*
X416560D01*
Y916940D01*
X414020D01*
Y911860D01*
X416560D01*
X435610Y873760D02*
Y871220D01*
X440690D01*
Y873760D01*
X443230D01*
Y878840D01*
X440690D01*
Y881380D01*
X435610D01*
Y878840D01*
X433070D01*
Y873760D01*
X435610D01*
X416560Y835660D02*
Y833120D01*
X421640D01*
Y835660D01*
X424180D01*
Y840740D01*
X421640D01*
Y843280D01*
X416560D01*
Y840740D01*
X414020D01*
Y835660D01*
X416560D01*
X435610Y645160D02*
Y642620D01*
X440690D01*
Y645160D01*
X443230D01*
Y650240D01*
X440690D01*
Y652780D01*
X435610D01*
Y650240D01*
X433070D01*
Y645160D01*
X435610D01*
X416560Y607060D02*
Y604520D01*
X421640D01*
Y607060D01*
X424180D01*
Y612140D01*
X421640D01*
Y614680D01*
X416560D01*
Y612140D01*
X414020D01*
Y607060D01*
X416560D01*
X435610Y568960D02*
Y566420D01*
X440690D01*
Y568960D01*
X443230D01*
Y574040D01*
X440690D01*
Y576580D01*
X435610D01*
Y574040D01*
X433070D01*
Y568960D01*
X435610D01*
X416560Y530860D02*
Y528320D01*
X421640D01*
Y530860D01*
X424180D01*
Y535940D01*
X421640D01*
Y538480D01*
X416560D01*
Y535940D01*
X414020D01*
Y530860D01*
X416560D01*
X397510Y949960D02*
Y947420D01*
X402590D01*
Y949960D01*
X405130D01*
Y955040D01*
X402590D01*
Y957580D01*
X397510D01*
Y955040D01*
X394970D01*
Y949960D01*
X397510D01*
X378460Y911860D02*
Y909320D01*
X383540D01*
Y911860D01*
X386080D01*
Y916940D01*
X383540D01*
Y919480D01*
X378460D01*
Y916940D01*
X375920D01*
Y911860D01*
X378460D01*
X397510Y873760D02*
Y871220D01*
X402590D01*
Y873760D01*
X405130D01*
Y878840D01*
X402590D01*
Y881380D01*
X397510D01*
Y878840D01*
X394970D01*
Y873760D01*
X397510D01*
X378460Y835660D02*
Y833120D01*
X383540D01*
Y835660D01*
X386080D01*
Y840740D01*
X383540D01*
Y843280D01*
X378460D01*
Y840740D01*
X375920D01*
Y835660D01*
X378460D01*
X397510Y797560D02*
Y795020D01*
X402590D01*
Y797560D01*
X405130D01*
Y802640D01*
X402590D01*
Y805180D01*
X397510D01*
Y802640D01*
X394970D01*
Y797560D01*
X397510D01*
X378460Y683260D02*
Y680720D01*
X383540D01*
Y683260D01*
X386080D01*
Y688340D01*
X383540D01*
Y690880D01*
X378460D01*
Y688340D01*
X375920D01*
Y683260D01*
X378460D01*
Y607060D02*
Y604520D01*
X383540D01*
Y607060D01*
X386080D01*
Y612140D01*
X383540D01*
Y614680D01*
X378460D01*
Y612140D01*
X375920D01*
Y607060D01*
X378460D01*
X397510Y568960D02*
Y566420D01*
X402590D01*
Y568960D01*
X405130D01*
Y574040D01*
X402590D01*
Y576580D01*
X397510D01*
Y574040D01*
X394970D01*
Y568960D01*
X397510D01*
X378460Y530860D02*
Y528320D01*
X383540D01*
Y530860D01*
X386080D01*
Y535940D01*
X383540D01*
Y538480D01*
X378460D01*
Y535940D01*
X375920D01*
Y530860D01*
X378460D01*
X359410Y949960D02*
Y947420D01*
X364490D01*
Y949960D01*
X367030D01*
Y955040D01*
X364490D01*
Y957580D01*
X359410D01*
Y955040D01*
X356870D01*
Y949960D01*
X359410D01*
X340360Y911860D02*
Y909320D01*
X345440D01*
Y911860D01*
X347980D01*
Y916940D01*
X345440D01*
Y919480D01*
X340360D01*
Y916940D01*
X337820D01*
Y911860D01*
X340360D01*
X359410Y873760D02*
Y871220D01*
X364490D01*
Y873760D01*
X367030D01*
Y878840D01*
X364490D01*
Y881380D01*
X359410D01*
Y878840D01*
X356870D01*
Y873760D01*
X359410D01*
X340360Y835660D02*
Y833120D01*
X345440D01*
Y835660D01*
X347980D01*
Y840740D01*
X345440D01*
Y843280D01*
X340360D01*
Y840740D01*
X337820D01*
Y835660D01*
X340360D01*
X359410Y721360D02*
Y718820D01*
X364490D01*
Y721360D01*
X367030D01*
Y726440D01*
X364490D01*
Y728980D01*
X359410D01*
Y726440D01*
X356870D01*
Y721360D01*
X359410D01*
X340360Y683260D02*
Y680720D01*
X345440D01*
Y683260D01*
X347980D01*
Y688340D01*
X345440D01*
Y690880D01*
X340360D01*
Y688340D01*
X337820D01*
Y683260D01*
X340360D01*
Y607060D02*
Y604520D01*
X345440D01*
Y607060D01*
X347980D01*
Y612140D01*
X345440D01*
Y614680D01*
X340360D01*
Y612140D01*
X337820D01*
Y607060D01*
X340360D01*
X359410Y568960D02*
Y566420D01*
X364490D01*
Y568960D01*
X367030D01*
Y574040D01*
X364490D01*
Y576580D01*
X359410D01*
Y574040D01*
X356870D01*
Y568960D01*
X359410D01*
X340360Y530860D02*
Y528320D01*
X345440D01*
Y530860D01*
X347980D01*
Y535940D01*
X345440D01*
Y538480D01*
X340360D01*
Y535940D01*
X337820D01*
Y530860D01*
X340360D01*
X321310Y949960D02*
Y947420D01*
X326390D01*
Y949960D01*
X328930D01*
Y955040D01*
X326390D01*
Y957580D01*
X321310D01*
Y955040D01*
X318770D01*
Y949960D01*
X321310D01*
X302260Y911860D02*
Y909320D01*
X307340D01*
Y911860D01*
X309880D01*
Y916940D01*
X307340D01*
Y919480D01*
X302260D01*
Y916940D01*
X299720D01*
Y911860D01*
X302260D01*
X321310Y873760D02*
Y871220D01*
X326390D01*
Y873760D01*
X328930D01*
Y878840D01*
X326390D01*
Y881380D01*
X321310D01*
Y878840D01*
X318770D01*
Y873760D01*
X321310D01*
X302260Y835660D02*
Y833120D01*
X307340D01*
Y835660D01*
X309880D01*
Y840740D01*
X307340D01*
Y843280D01*
X302260D01*
Y840740D01*
X299720D01*
Y835660D01*
X302260D01*
X321310Y721360D02*
Y718820D01*
X326390D01*
Y721360D01*
X328930D01*
Y726440D01*
X326390D01*
Y728980D01*
X321310D01*
Y726440D01*
X318770D01*
Y721360D01*
X321310D01*
X302260Y683260D02*
Y680720D01*
X307340D01*
Y683260D01*
X309880D01*
Y688340D01*
X307340D01*
Y690880D01*
X302260D01*
Y688340D01*
X299720D01*
Y683260D01*
X302260D01*
X321310Y645160D02*
Y642620D01*
X326390D01*
Y645160D01*
X328930D01*
Y650240D01*
X326390D01*
Y652780D01*
X321310D01*
Y650240D01*
X318770D01*
Y645160D01*
X321310D01*
X302260Y607060D02*
Y604520D01*
X307340D01*
Y607060D01*
X309880D01*
Y612140D01*
X307340D01*
Y614680D01*
X302260D01*
Y612140D01*
X299720D01*
Y607060D01*
X302260D01*
X321310Y568960D02*
Y566420D01*
X326390D01*
Y568960D01*
X328930D01*
Y574040D01*
X326390D01*
Y576580D01*
X321310D01*
Y574040D01*
X318770D01*
Y568960D01*
X321310D01*
X302260Y530860D02*
Y528320D01*
X307340D01*
Y530860D01*
X309880D01*
Y535940D01*
X307340D01*
Y538480D01*
X302260D01*
Y535940D01*
X299720D01*
Y530860D01*
X302260D01*
X283210Y949960D02*
Y947420D01*
X288290D01*
Y949960D01*
X290830D01*
Y955040D01*
X288290D01*
Y957580D01*
X283210D01*
Y955040D01*
X280670D01*
Y949960D01*
X283210D01*
X264160Y911860D02*
Y909320D01*
X269240D01*
Y911860D01*
X271780D01*
Y916940D01*
X269240D01*
Y919480D01*
X264160D01*
Y916940D01*
X261620D01*
Y911860D01*
X264160D01*
X283210Y873760D02*
Y871220D01*
X288290D01*
Y873760D01*
X290830D01*
Y878840D01*
X288290D01*
Y881380D01*
X283210D01*
Y878840D01*
X280670D01*
Y873760D01*
X283210D01*
X264160Y835660D02*
Y833120D01*
X269240D01*
Y835660D01*
X271780D01*
Y840740D01*
X269240D01*
Y843280D01*
X264160D01*
Y840740D01*
X261620D01*
Y835660D01*
X264160D01*
X283210Y797560D02*
Y795020D01*
X288290D01*
Y797560D01*
X290830D01*
Y802640D01*
X288290D01*
Y805180D01*
X283210D01*
Y802640D01*
X280670D01*
Y797560D01*
X283210D01*
X264160Y759460D02*
Y756920D01*
X269240D01*
Y759460D01*
X271780D01*
Y764540D01*
X269240D01*
Y767080D01*
X264160D01*
Y764540D01*
X261620D01*
Y759460D01*
X264160D01*
Y683260D02*
Y680720D01*
X269240D01*
Y683260D01*
X271780D01*
Y688340D01*
X269240D01*
Y690880D01*
X264160D01*
Y688340D01*
X261620D01*
Y683260D01*
X264160D01*
X283210Y645160D02*
Y642620D01*
X288290D01*
Y645160D01*
X290830D01*
Y650240D01*
X288290D01*
Y652780D01*
X283210D01*
Y650240D01*
X280670D01*
Y645160D01*
X283210D01*
X264160Y607060D02*
Y604520D01*
X269240D01*
Y607060D01*
X271780D01*
Y612140D01*
X269240D01*
Y614680D01*
X264160D01*
Y612140D01*
X261620D01*
Y607060D01*
X264160D01*
X283210Y568960D02*
Y566420D01*
X288290D01*
Y568960D01*
X290830D01*
Y574040D01*
X288290D01*
Y576580D01*
X283210D01*
Y574040D01*
X280670D01*
Y568960D01*
X283210D01*
X264160Y530860D02*
Y528320D01*
X269240D01*
Y530860D01*
X271780D01*
Y535940D01*
X269240D01*
Y538480D01*
X264160D01*
Y535940D01*
X261620D01*
Y530860D01*
X264160D01*
X717898Y697230D02*
X720439Y702310D01*
X717898Y707390D01*
X722979Y704850D01*
X728058Y707390D01*
X725518Y702310D01*
X728058Y697230D01*
X722979Y699770D01*
X717898Y697230D01*
X508000Y834390D02*
X510540Y839470D01*
X508000Y844550D01*
X513080Y842010D01*
X518160Y844550D01*
X515620Y839470D01*
X518160Y834390D01*
X513080Y836930D01*
X508000Y834390D01*
X751840Y791210D02*
X754380Y796290D01*
X751840Y801370D01*
X756920Y798830D01*
X762000Y801370D01*
X759460Y796290D01*
X762000Y791210D01*
X756920Y793750D01*
X751840Y791210D01*
X814426Y716636D02*
X816966Y721716D01*
X814426Y726796D01*
X819506Y724256D01*
X824586Y726796D01*
X822046Y721716D01*
X824586Y716636D01*
X819506Y719176D01*
X814426Y716636D01*
X817880Y704850D02*
X820420Y709930D01*
X817880Y715010D01*
X822960Y712470D01*
X828040Y715010D01*
X825500Y709930D01*
X828040Y704850D01*
X822960Y707390D01*
X817880Y704850D01*
X726440Y591820D02*
X728980Y596900D01*
X726440Y601980D01*
X731520Y599440D01*
X736600Y601980D01*
X734060Y596900D01*
X736600Y591820D01*
X731520Y594360D01*
X726440Y591820D01*
X408192Y946567D02*
X410732Y951647D01*
X408192Y956727D01*
X413272Y954187D01*
X418352Y956727D01*
X415812Y951647D01*
X418352Y946567D01*
X413272Y949107D01*
X408192Y946567D01*
X410210Y928370D02*
X412750Y933450D01*
X410210Y938530D01*
X415290Y935990D01*
X420370Y938530D01*
X417830Y933450D01*
X420370Y928370D01*
X415290Y930910D01*
X410210Y928370D01*
X397344Y883855D02*
X399884Y888934D01*
X397344Y894015D01*
X402424Y891475D01*
X407504Y894015D01*
X404964Y888934D01*
X407504Y883855D01*
X402424Y886395D01*
X397344Y883855D01*
X537210Y834390D02*
X539750Y839470D01*
X537210Y844550D01*
X542290Y842010D01*
X547370Y844550D01*
X544830Y839470D01*
X547370Y834390D01*
X542290Y836930D01*
X537210Y834390D01*
X519430Y836930D02*
X521970Y842010D01*
X519430Y847090D01*
X524510Y844550D01*
X529590Y847090D01*
X527050Y842010D01*
X529590Y836930D01*
X524510Y839470D01*
X519430Y836930D01*
X614680Y726440D02*
X617220Y731520D01*
X614680Y736600D01*
X619760Y734060D01*
X624840Y736600D01*
X622300Y731520D01*
X624840Y726440D01*
X619760Y728980D01*
X614680Y726440D01*
X938530Y728980D02*
X941070Y734060D01*
X938530Y739140D01*
X943610Y736600D01*
X948690Y739140D01*
X946150Y734060D01*
X948690Y728980D01*
X943610Y731520D01*
X938530Y728980D01*
X759460Y657860D02*
X762000Y662940D01*
X759460Y668020D01*
X764540Y665480D01*
X769620Y668020D01*
X767080Y662940D01*
X769620Y657860D01*
X764540Y660400D01*
X759460Y657860D01*
X762000Y673100D02*
X764540Y678180D01*
X762000Y683260D01*
X767080Y680720D01*
X772160Y683260D01*
X769620Y678180D01*
X772160Y673100D01*
X767080Y675640D01*
X762000Y673100D01*
X744220Y674370D02*
X746760Y679450D01*
X744220Y684530D01*
X749300Y681990D01*
X754380Y684530D01*
X751840Y679450D01*
X754380Y674370D01*
X749300Y676910D01*
X744220Y674370D01*
X407670Y692150D02*
X410210Y697230D01*
X407670Y702310D01*
X412750Y699770D01*
X417830Y702310D01*
X415290Y697230D01*
X417830Y692150D01*
X412750Y694690D01*
X407670Y692150D01*
X819150Y795020D02*
X821690Y800100D01*
X819150Y805180D01*
X824230Y802640D01*
X829310Y805180D01*
X826770Y800100D01*
X829310Y795020D01*
X824230Y797560D01*
X819150Y795020D01*
X693420Y878840D02*
X695960Y883920D01*
X693420Y889000D01*
X698500Y886460D01*
X703580Y889000D01*
X701040Y883920D01*
X703580Y878840D01*
X698500Y881380D01*
X693420Y878840D01*
X675640D02*
X678180Y883920D01*
X675640Y889000D01*
X680720Y886460D01*
X685800Y889000D01*
X683260Y883920D01*
X685800Y878840D01*
X680720Y881380D01*
X675640Y878840D01*
X896904Y928370D02*
X899444Y933450D01*
X896904Y938530D01*
X901983Y935990D01*
X907064Y938530D01*
X904523Y933450D01*
X907064Y928370D01*
X901983Y930910D01*
X896904Y928370D01*
X895350Y897890D02*
X897890Y902970D01*
X895350Y908050D01*
X900430Y905510D01*
X905510Y908050D01*
X902970Y902970D01*
X905510Y897890D01*
X900430Y900430D01*
X895350Y897890D01*
X876300Y805180D02*
X878840Y810260D01*
X876300Y815340D01*
X881380Y812800D01*
X886460Y815340D01*
X883920Y810260D01*
X886460Y805180D01*
X881380Y807720D01*
X876300Y805180D01*
X889000D02*
X891540Y810260D01*
X889000Y815340D01*
X894080Y812800D01*
X899160Y815340D01*
X896620Y810260D01*
X899160Y805180D01*
X894080Y807720D01*
X889000Y805180D01*
X727710Y853440D02*
X730250Y858520D01*
X727710Y863600D01*
X732790Y861060D01*
X737870Y863600D01*
X735330Y858520D01*
X737870Y853440D01*
X732790Y855980D01*
X727710Y853440D01*
X750570Y880491D02*
X753110Y885571D01*
X750570Y890651D01*
X755650Y888111D01*
X760730Y890651D01*
X758190Y885571D01*
X760730Y880491D01*
X755650Y883031D01*
X750570Y880491D01*
X681990Y665480D02*
X684530Y670560D01*
X681990Y675640D01*
X687070Y673100D01*
X692150Y675640D01*
X689610Y670560D01*
X692150Y665480D01*
X687070Y668020D01*
X681990Y665480D01*
X705181Y672769D02*
X707721Y677849D01*
X705181Y682929D01*
X710261Y680389D01*
X715341Y682929D01*
X712801Y677849D01*
X715341Y672769D01*
X710261Y675309D01*
X705181Y672769D01*
X651109Y646752D02*
X653649Y651832D01*
X651109Y656912D01*
X656189Y654372D01*
X661269Y656912D01*
X658729Y651832D01*
X661269Y646752D01*
X656189Y649292D01*
X651109Y646752D01*
X651882Y629898D02*
X654422Y634978D01*
X651882Y640058D01*
X656962Y637518D01*
X662042Y640058D01*
X659502Y634978D01*
X662042Y629898D01*
X656962Y632438D01*
X651882Y629898D01*
X706420Y591976D02*
X708960Y597056D01*
X706420Y602136D01*
X711500Y599596D01*
X716580Y602136D01*
X714040Y597056D01*
X716580Y591976D01*
X711500Y594516D01*
X706420Y591976D01*
X524510Y920750D02*
X527050Y925830D01*
X524510Y930910D01*
X529590Y928370D01*
X534670Y930910D01*
X532130Y925830D01*
X534670Y920750D01*
X529590Y923290D01*
X524510Y920750D01*
X459740Y730250D02*
X462280Y735330D01*
X459740Y740410D01*
X464820Y737870D01*
X469900Y740410D01*
X467360Y735330D01*
X469900Y730250D01*
X464820Y732790D01*
X459740Y730250D01*
X437518Y692788D02*
X440058Y697868D01*
X437518Y702948D01*
X442598Y700408D01*
X447678Y702948D01*
X445138Y697868D01*
X447678Y692788D01*
X442598Y695328D01*
X437518Y692788D01*
X426720Y701040D02*
X429260Y706120D01*
X426720Y711200D01*
X431800Y708660D01*
X436880Y711200D01*
X434340Y706120D01*
X436880Y701040D01*
X431800Y703580D01*
X426720Y701040D01*
X548640Y817880D02*
X551180Y822960D01*
X548640Y828040D01*
X553720Y825500D01*
X558800Y828040D01*
X556260Y822960D01*
X558800Y817880D01*
X553720Y820420D01*
X548640Y817880D01*
X563734Y788390D02*
X566274Y793470D01*
X563734Y798550D01*
X568814Y796010D01*
X573894Y798550D01*
X571354Y793470D01*
X573894Y788390D01*
X568814Y790930D01*
X563734Y788390D01*
X817880Y781050D02*
X820420Y786130D01*
X817880Y791210D01*
X822960Y788670D01*
X828040Y791210D01*
X825500Y786130D01*
X828040Y781050D01*
X822960Y783590D01*
X817880Y781050D01*
X830580Y755650D02*
X833120Y760730D01*
X830580Y765810D01*
X835660Y763270D01*
X840740Y765810D01*
X838200Y760730D01*
X840740Y755650D01*
X835660Y758190D01*
X830580Y755650D01*
X1068070Y543560D02*
X1070610Y548640D01*
X1068070Y553720D01*
X1073150Y551180D01*
X1078230Y553720D01*
X1075690Y548640D01*
X1078230Y543560D01*
X1073150Y546100D01*
X1068070Y543560D01*
X1093470Y544830D02*
X1096010Y549910D01*
X1093470Y554990D01*
X1098550Y552450D01*
X1103630Y554990D01*
X1101090Y549910D01*
X1103630Y544830D01*
X1098550Y547370D01*
X1093470Y544830D01*
X643240Y923785D02*
X645780Y928865D01*
X643240Y933945D01*
X648320Y931405D01*
X653400Y933945D01*
X650860Y928865D01*
X653400Y923785D01*
X648320Y926325D01*
X643240Y923785D01*
X687070Y908050D02*
X689610Y913130D01*
X687070Y918210D01*
X692150Y915670D01*
X697230Y918210D01*
X694690Y913130D01*
X697230Y908050D01*
X692150Y910590D01*
X687070Y908050D01*
X675640D02*
X678180Y913130D01*
X675640Y918210D01*
X680720Y915670D01*
X685800Y918210D01*
X683260Y913130D01*
X685800Y908050D01*
X680720Y910590D01*
X675640Y908050D01*
X642620Y905510D02*
X645160Y910590D01*
X642620Y915670D01*
X647700Y913130D01*
X652780Y915670D01*
X650240Y910590D01*
X652780Y905510D01*
X647700Y908050D01*
X642620Y905510D01*
X545458Y693419D02*
X547998Y698499D01*
X545458Y703579D01*
X550538Y701039D01*
X555618Y703579D01*
X553078Y698499D01*
X555618Y693419D01*
X550538Y695959D01*
X545458Y693419D01*
X585470Y842010D02*
X588010Y847090D01*
X585470Y852170D01*
X590550Y849630D01*
X595630Y852170D01*
X593090Y847090D01*
X595630Y842010D01*
X590550Y844550D01*
X585470Y842010D01*
X591221Y860962D02*
X593761Y866042D01*
X591221Y871122D01*
X596301Y868582D01*
X601381Y871122D01*
X598841Y866042D01*
X601381Y860962D01*
X596301Y863502D01*
X591221Y860962D01*
X637540Y574040D02*
X640080Y579120D01*
X637540Y584200D01*
X642620Y581660D01*
X647700Y584200D01*
X645160Y579120D01*
X647700Y574040D01*
X642620Y576580D01*
X637540Y574040D01*
Y593090D02*
X640080Y598170D01*
X637540Y603250D01*
X642620Y600710D01*
X647700Y603250D01*
X645160Y598170D01*
X647700Y593090D01*
X642620Y595630D01*
X637540Y593090D01*
X511813Y765822D02*
X514353Y770902D01*
X511813Y775982D01*
X516893Y773442D01*
X521973Y775982D01*
X519433Y770902D01*
X521973Y765822D01*
X516893Y768362D01*
X511813Y765822D01*
X534670Y749300D02*
X537210Y754380D01*
X534670Y759460D01*
X539750Y756920D01*
X544830Y759460D01*
X542290Y754380D01*
X544830Y749300D01*
X539750Y751840D01*
X534670Y749300D01*
X419100Y668020D02*
X421640Y673100D01*
X419100Y678180D01*
X424180Y675640D01*
X429260Y678180D01*
X426720Y673100D01*
X429260Y668020D01*
X424180Y670560D01*
X419100Y668020D01*
X402590Y786130D02*
X405130Y791210D01*
X402590Y796290D01*
X407670Y793750D01*
X412750Y796290D01*
X410210Y791210D01*
X412750Y786130D01*
X407670Y788670D01*
X402590Y786130D01*
X874705Y771900D02*
X877245Y776980D01*
X874705Y782060D01*
X879785Y779520D01*
X884865Y782060D01*
X882325Y776980D01*
X884865Y771900D01*
X879785Y774440D01*
X874705Y771900D01*
X317500Y779780D02*
X320040Y784860D01*
X317500Y789940D01*
X322580Y787400D01*
X327660Y789940D01*
X325120Y784860D01*
X327660Y779780D01*
X322580Y782320D01*
X317500Y779780D01*
X313613Y803045D02*
X316153Y808125D01*
X313613Y813205D01*
X318693Y810665D01*
X323773Y813205D01*
X321233Y808125D01*
X323773Y803045D01*
X318693Y805585D01*
X313613Y803045D01*
X539750Y914400D02*
X542290Y919480D01*
X539750Y924560D01*
X544830Y922020D01*
X549910Y924560D01*
X547370Y919480D01*
X549910Y914400D01*
X544830Y916940D01*
X539750Y914400D01*
Y939800D02*
X542290Y944880D01*
X539750Y949960D01*
X544830Y947420D01*
X549910Y949960D01*
X547370Y944880D01*
X549910Y939800D01*
X544830Y942340D01*
X539750Y939800D01*
X852170Y819232D02*
X854710Y824312D01*
X852170Y829392D01*
X857250Y826852D01*
X862330Y829392D01*
X859790Y824312D01*
X862330Y819232D01*
X857250Y821772D01*
X852170Y819232D01*
X568960Y875030D02*
X571500Y880110D01*
X568960Y885190D01*
X574040Y882650D01*
X579120Y885190D01*
X576580Y880110D01*
X579120Y875030D01*
X574040Y877570D01*
X568960Y875030D01*
X600710D02*
X603250Y880110D01*
X600710Y885190D01*
X605790Y882650D01*
X610870Y885190D01*
X608330Y880110D01*
X610870Y875030D01*
X605790Y877570D01*
X600710Y875030D01*
X567690Y862330D02*
X570230Y867410D01*
X567690Y872490D01*
X572770Y869950D01*
X577850Y872490D01*
X575310Y867410D01*
X577850Y862330D01*
X572770Y864870D01*
X567690Y862330D01*
X712470Y662940D02*
X715010Y668020D01*
X712470Y673100D01*
X717550Y670560D01*
X722630Y673100D01*
X720090Y668020D01*
X722630Y662940D01*
X717550Y665480D01*
X712470Y662940D01*
D90*
X605090Y939800D02*
G03*
X605090Y939800I-5080J0D01*
G01*
Y927800D02*
G03*
X605090Y927800I-5080J0D01*
G01*
X593090Y939800D02*
G03*
X593090Y939800I-5080J0D01*
G01*
Y927800D02*
G03*
X593090Y927800I-5080J0D01*
G01*
X581090Y939800D02*
G03*
X581090Y939800I-5080J0D01*
G01*
Y927800D02*
G03*
X581090Y927800I-5080J0D01*
G01*
M02*
