G04*
G04 #@! TF.GenerationSoftware,Altium Limited,Altium Designer,23.5.1 (21)*
G04*
G04 Layer_Color=16711935*
%FSLAX44Y44*%
%MOMM*%
G71*
G04*
G04 #@! TF.SameCoordinates,14FB7749-BF70-4BA2-BDF3-10CF23B172C4*
G04*
G04*
G04 #@! TF.FilePolarity,Positive*
G04*
G01*
G75*
%ADD10C,0.2000*%
%ADD13C,0.1270*%
%ADD14C,0.2540*%
%ADD88C,0.1000*%
D10*
X316621Y762620D02*
G03*
X316621Y762620I-1000J0D01*
G01*
X832611Y591030D02*
Y651030D01*
Y591030D02*
X892611D01*
Y651030D01*
X832611D02*
X892611D01*
X471650Y653570D02*
X531650D01*
X471650Y593570D02*
Y653570D01*
Y593570D02*
X531650D01*
Y653570D01*
X845225Y802830D02*
X861225D01*
Y794830D02*
Y802830D01*
X845225Y794830D02*
X861225D01*
X845225D02*
Y802830D01*
X864600Y928950D02*
Y937950D01*
X1108710Y899160D02*
Y924560D01*
Y899160D02*
X1184910D01*
Y924560D01*
X1108710D02*
X1184910D01*
X421640Y624840D02*
Y650240D01*
X345440D02*
X421640D01*
X345440Y624840D02*
Y650240D01*
Y624840D02*
X421640D01*
X846294Y755727D02*
Y781727D01*
X867294D01*
Y755727D02*
Y781727D01*
X846294Y755727D02*
X867294D01*
X860680Y735520D02*
X876680D01*
Y727520D02*
Y735520D01*
X860680Y727520D02*
X876680D01*
X860680D02*
Y735520D01*
X874693Y899017D02*
X890693D01*
X874693D02*
Y907017D01*
X890693D01*
Y899017D02*
Y907017D01*
X845163Y907470D02*
X862162D01*
Y898470D02*
Y907470D01*
X845163Y898470D02*
X862162D01*
X845163D02*
Y907470D01*
X847600Y928950D02*
Y937950D01*
Y928950D02*
X864600D01*
X847600Y937950D02*
X864600D01*
X514453Y935795D02*
Y943795D01*
Y935795D02*
X530453D01*
Y943795D01*
X514453D02*
X530453D01*
X495850Y930315D02*
Y951815D01*
X474350D02*
X495850D01*
X474350Y930315D02*
Y951815D01*
Y930315D02*
X495850D01*
X396929Y728598D02*
Y768476D01*
X446967D01*
Y728598D02*
Y768476D01*
X396929Y728598D02*
X446967D01*
X562103Y743131D02*
Y778181D01*
X497053Y743131D02*
X562103D01*
X497053D02*
Y778181D01*
X562103D01*
X354200Y764980D02*
X369700D01*
Y756480D02*
Y764980D01*
X354200Y756480D02*
X369700D01*
X354200D02*
Y764980D01*
Y740850D02*
X369700D01*
Y732350D02*
Y740850D01*
X354200Y732350D02*
X369700D01*
X354200D02*
Y740850D01*
X418160Y800240D02*
Y817740D01*
X427660D01*
Y800240D02*
Y817740D01*
X418160Y800240D02*
X427660D01*
X326720Y758933D02*
Y776433D01*
X336220D01*
Y758933D02*
Y776433D01*
X326720Y758933D02*
X336220D01*
X334950Y730390D02*
Y747890D01*
X325450Y730390D02*
X334950D01*
X325450D02*
Y747890D01*
X334950D01*
X737490Y668210D02*
X753490D01*
Y660210D02*
Y668210D01*
X737490Y660210D02*
X753490D01*
X737490D02*
Y668210D01*
X595919Y809855D02*
X601575Y804199D01*
X584605Y798541D02*
X595919Y809855D01*
X584605Y798541D02*
X590261Y792885D01*
X601575Y804199D01*
X608710Y827850D02*
Y835850D01*
X592710D02*
X608710D01*
X592710Y827850D02*
Y835850D01*
Y827850D02*
X608710D01*
X374687Y893000D02*
X390687D01*
Y885000D02*
Y893000D01*
X374687Y885000D02*
X390687D01*
X374687D02*
Y893000D01*
X373770Y862957D02*
X390770D01*
X373770D02*
Y871958D01*
X390770D01*
Y862957D02*
Y871958D01*
X892203Y929450D02*
Y937450D01*
X876204D02*
X892203D01*
X876204Y929450D02*
Y937450D01*
Y929450D02*
X892203D01*
X352180Y793890D02*
Y811390D01*
X361680D01*
Y793890D02*
Y811390D01*
X352180Y793890D02*
X361680D01*
X329994Y793223D02*
Y810723D01*
X339494D01*
Y793223D02*
Y810723D01*
X329994Y793223D02*
X339494D01*
X381890Y816800D02*
X397890D01*
Y808800D02*
Y816800D01*
X381890Y808800D02*
X397890D01*
X381890D02*
Y816800D01*
X677050Y902640D02*
X694550D01*
Y893140D02*
Y902640D01*
X677050Y893140D02*
X694550D01*
X677050D02*
Y902640D01*
X694342Y631752D02*
X720342D01*
Y652752D01*
X694342D02*
X720342D01*
X694342Y631752D02*
Y652752D01*
D13*
X255021Y650620D02*
Y711620D01*
X242121D02*
X255021D01*
X242121Y787620D02*
X255021D01*
X242121Y711620D02*
Y787620D01*
X255021D02*
X300121D01*
X255021Y711620D02*
Y787620D01*
Y711620D02*
X300121D01*
Y787620D01*
D14*
X257521Y702620D02*
X265139D01*
Y698811D01*
X263869Y697542D01*
X261330D01*
X260060Y698811D01*
Y702620D01*
X263869Y689924D02*
X265139Y691194D01*
Y693733D01*
X263869Y695002D01*
X258791D01*
X257521Y693733D01*
Y691194D01*
X258791Y689924D01*
X265139Y687385D02*
X257521D01*
Y683576D01*
X258791Y682307D01*
X260060D01*
X261330Y683576D01*
Y687385D01*
Y683576D01*
X262600Y682307D01*
X263869D01*
X265139Y683576D01*
Y687385D01*
Y667072D02*
Y672150D01*
X257521D01*
Y667072D01*
X261330Y672150D02*
Y669611D01*
X265139Y664532D02*
X257521D01*
Y660723D01*
X258791Y659454D01*
X263869D01*
X265139Y660723D01*
Y664532D01*
X263869Y651836D02*
X265139Y653106D01*
Y655645D01*
X263869Y656915D01*
X258791D01*
X257521Y655645D01*
Y653106D01*
X258791Y651836D01*
X261330D01*
Y654376D01*
X265139Y644219D02*
Y649297D01*
X257521D01*
Y644219D01*
X261330Y649297D02*
Y646758D01*
D88*
X766137Y738828D02*
G03*
X766137Y738828I-5000J0D01*
G01*
X609010Y954800D02*
G03*
X609010Y954800I-5000J0D01*
G01*
X561340Y521970D02*
X764540D01*
X561340Y547370D02*
X764540D01*
Y521970D02*
Y547370D01*
X561340Y521970D02*
Y547370D01*
X765670Y860070D02*
Y869670D01*
X748170Y860070D02*
Y869670D01*
Y860070D02*
X765670D01*
X748170Y869670D02*
X765670D01*
X670137Y829828D02*
X770138D01*
X670137Y729827D02*
X770138D01*
X670137D02*
Y829828D01*
X770138Y729827D02*
Y829828D01*
X630295Y750430D02*
X639895D01*
X630295Y732930D02*
X639895D01*
Y750430D01*
X630295Y732930D02*
Y750430D01*
X615320Y641349D02*
Y704849D01*
X581020D02*
X615320D01*
X581020Y641349D02*
Y704849D01*
Y641349D02*
X615320D01*
X813790Y801230D02*
X813790Y783730D01*
X804190D02*
Y801230D01*
X813790D01*
X804190Y783730D02*
X813790D01*
X670250Y634772D02*
Y652272D01*
X562510Y964300D02*
X613510D01*
X562510Y903300D02*
X613510D01*
Y964300D01*
X562510Y903300D02*
Y964300D01*
X627073Y911080D02*
Y928580D01*
X636672Y911080D02*
Y928580D01*
X627073Y911080D02*
X636672D01*
X627073Y928580D02*
X636672D01*
X449926Y933585D02*
Y951085D01*
X459526Y933585D02*
Y951085D01*
X449926Y933585D02*
X459526D01*
X449926Y951085D02*
X459526D01*
X424526Y933585D02*
Y951085D01*
X434126Y933585D02*
Y951085D01*
X424526Y933585D02*
X434126D01*
X424526Y951085D02*
X434126D01*
X481510Y744500D02*
Y754100D01*
X464010Y744500D02*
Y754100D01*
Y744500D02*
X481510D01*
X464010Y754100D02*
X481510D01*
X524900Y818460D02*
Y827460D01*
X541900Y818460D02*
Y827460D01*
X524900D02*
X541900D01*
X524900Y818460D02*
X541900D01*
X788019Y626250D02*
X797619D01*
X788019Y643750D02*
X797619D01*
X788019Y626250D02*
Y643750D01*
X797619Y626250D02*
Y643750D01*
X496139Y811920D02*
X505138D01*
X496139Y828920D02*
X505138D01*
X496139Y811920D02*
Y828920D01*
X505138Y811920D02*
Y828920D01*
X679850Y634772D02*
Y652272D01*
X670250Y634772D02*
X679850D01*
X670250Y652272D02*
X679850D01*
X695510Y605680D02*
X713010D01*
X695510Y615279D02*
X713010D01*
Y605680D02*
Y615279D01*
X695510Y605680D02*
Y615279D01*
X471796Y840623D02*
X481396D01*
X471796Y823123D02*
X481396D01*
Y840623D01*
X471796Y823123D02*
Y840623D01*
X800380Y712610D02*
X809980D01*
X800380Y730110D02*
X809980D01*
X800380Y712610D02*
Y730110D01*
X809980Y712610D02*
Y730110D01*
X749440Y689890D02*
Y699490D01*
X766940Y689890D02*
Y699490D01*
X749440D02*
X766940D01*
X749440Y689890D02*
X766940D01*
X730110Y891820D02*
Y901420D01*
X712610Y891820D02*
Y901420D01*
Y891820D02*
X730110D01*
X712610Y901420D02*
X730110D01*
X698360Y863880D02*
Y873480D01*
X680860Y863880D02*
Y873480D01*
Y863880D02*
X698360D01*
X680860Y873480D02*
X698360D01*
M02*
