G04*
G04 #@! TF.GenerationSoftware,Altium Limited,Altium Designer,23.5.1 (21)*
G04*
G04 Layer_Physical_Order=1*
G04 Layer_Color=255*
%FSLAX44Y44*%
%MOMM*%
G71*
G04*
G04 #@! TF.SameCoordinates,14FB7749-BF70-4BA2-BDF3-10CF23B172C4*
G04*
G04*
G04 #@! TF.FilePolarity,Positive*
G04*
G01*
G75*
%ADD14C,0.2540*%
%ADD15C,0.1524*%
%ADD23R,1.3000X1.6900*%
%ADD24R,0.9000X1.6250*%
%ADD25R,1.8500X0.4000*%
%ADD26R,1.5500X1.3000*%
%ADD27R,1.3000X1.5500*%
%ADD28R,1.3311X1.0121*%
%ADD29R,1.2500X1.1000*%
%ADD30O,0.3000X2.1000*%
%ADD31O,2.1000X0.3000*%
%ADD32R,1.1000X1.2500*%
%ADD33R,2.7900X0.7400*%
%ADD34R,1.5240X2.5400*%
%ADD35R,2.5400X1.5240*%
%ADD36R,1.0000X1.2000*%
%ADD37R,0.6587X0.8121*%
%ADD38R,0.8000X0.8000*%
%ADD39O,0.4500X1.1000*%
%ADD40R,4.1000X2.4000*%
%ADD41R,0.3450X2.2000*%
G04:AMPARAMS|DCode=42|XSize=2.2mm|YSize=0.345mm|CornerRadius=0.1725mm|HoleSize=0mm|Usage=FLASHONLY|Rotation=90.000|XOffset=0mm|YOffset=0mm|HoleType=Round|Shape=RoundedRectangle|*
%AMROUNDEDRECTD42*
21,1,2.2000,0.0000,0,0,90.0*
21,1,1.8550,0.3450,0,0,90.0*
1,1,0.3450,0.0000,0.9275*
1,1,0.3450,0.0000,-0.9275*
1,1,0.3450,0.0000,-0.9275*
1,1,0.3450,0.0000,0.9275*
%
%ADD42ROUNDEDRECTD42*%
%ADD43R,0.8721X1.0043*%
G04:AMPARAMS|DCode=44|XSize=1.0043mm|YSize=0.8721mm|CornerRadius=0.4361mm|HoleSize=0mm|Usage=FLASHONLY|Rotation=270.000|XOffset=0mm|YOffset=0mm|HoleType=Round|Shape=RoundedRectangle|*
%AMROUNDEDRECTD44*
21,1,1.0043,0.0000,0,0,270.0*
21,1,0.1322,0.8721,0,0,270.0*
1,1,0.8721,0.0000,-0.0661*
1,1,0.8721,0.0000,0.0661*
1,1,0.8721,0.0000,0.0661*
1,1,0.8721,0.0000,-0.0661*
%
%ADD44ROUNDEDRECTD44*%
G04:AMPARAMS|DCode=45|XSize=1.0043mm|YSize=3.1821mm|CornerRadius=0.4369mm|HoleSize=0mm|Usage=FLASHONLY|Rotation=270.000|XOffset=0mm|YOffset=0mm|HoleType=Round|Shape=RoundedRectangle|*
%AMROUNDEDRECTD45*
21,1,1.0043,2.3084,0,0,270.0*
21,1,0.1306,3.1821,0,0,270.0*
1,1,0.8737,-1.1542,-0.0653*
1,1,0.8737,-1.1542,0.0653*
1,1,0.8737,1.1542,0.0653*
1,1,0.8737,1.1542,-0.0653*
%
%ADD45ROUNDEDRECTD45*%
%ADD46R,0.6500X1.0500*%
%ADD47R,0.9350X0.9621*%
%ADD48R,0.9000X0.7500*%
G04:AMPARAMS|DCode=49|XSize=0.6587mm|YSize=0.8121mm|CornerRadius=0mm|HoleSize=0mm|Usage=FLASHONLY|Rotation=225.000|XOffset=0mm|YOffset=0mm|HoleType=Round|Shape=Rectangle|*
%AMROTATEDRECTD49*
4,1,4,-0.0542,0.5200,0.5200,-0.0542,0.0542,-0.5200,-0.5200,0.0542,-0.0542,0.5200,0.0*
%
%ADD49ROTATEDRECTD49*%

%ADD50R,1.0500X0.6500*%
%ADD51R,1.3061X1.0582*%
%ADD52R,0.7500X0.9000*%
%ADD53R,0.3500X0.5000*%
%ADD66R,0.3500X0.3750*%
%ADD67R,0.3750X0.3500*%
%ADD73C,1.5500*%
%ADD74R,1.5500X1.5500*%
%ADD75C,0.2032*%
%ADD76C,0.6350*%
%ADD77C,0.3810*%
%ADD78C,0.3048*%
%ADD79C,0.5080*%
%ADD80C,0.4064*%
%ADD81C,0.5000*%
%ADD82C,1.6000*%
%ADD83R,1.6000X1.6000*%
%ADD84C,0.7620*%
%ADD85C,0.6350*%
%ADD86C,0.6600*%
G36*
X1256030Y500380D02*
X254000D01*
Y1009650D01*
X1256030D01*
Y500380D01*
D02*
G37*
%LPC*%
G36*
X428514Y955531D02*
X413272D01*
X411785Y955236D01*
X410525Y954393D01*
X409683Y953133D01*
X409387Y951647D01*
X409683Y950160D01*
X410525Y948900D01*
X411785Y948058D01*
X413272Y947762D01*
X427067D01*
X427840Y947246D01*
X429326Y946950D01*
X430813Y947246D01*
X432073Y948088D01*
X432915Y949348D01*
X433211Y950835D01*
X432915Y952321D01*
X432073Y953582D01*
X431261Y954393D01*
X430001Y955236D01*
X428514Y955531D01*
D02*
G37*
G36*
X883270Y940051D02*
X871603D01*
Y937076D01*
X870140D01*
Y939990D01*
X857060D01*
Y926910D01*
X870140D01*
Y929824D01*
X871603D01*
Y926849D01*
X883270D01*
Y940051D01*
D02*
G37*
G36*
X896804D02*
X885137D01*
Y926849D01*
X896804D01*
Y928629D01*
X897290Y928951D01*
X898074Y929189D01*
X899754Y928067D01*
X901983Y927623D01*
X904213Y928067D01*
X906104Y929330D01*
X907367Y931220D01*
X907810Y933450D01*
X907367Y935680D01*
X906104Y937570D01*
X904213Y938833D01*
X901983Y939277D01*
X899754Y938833D01*
X898074Y937711D01*
X897290Y937950D01*
X896804Y938271D01*
Y940051D01*
D02*
G37*
G36*
X648320Y932749D02*
X646833Y932454D01*
X646475Y932215D01*
X631873D01*
X630386Y931919D01*
X629126Y931077D01*
X628284Y929817D01*
X627988Y928330D01*
X628284Y926843D01*
X629126Y925583D01*
X630386Y924741D01*
X631873Y924445D01*
X647785D01*
X649272Y924741D01*
X650532Y925583D01*
X651067Y926118D01*
X651909Y927378D01*
X652205Y928865D01*
X651909Y930351D01*
X651067Y931612D01*
X649807Y932454D01*
X648320Y932749D01*
D02*
G37*
G36*
X1173480Y922072D02*
Y913130D01*
X1182422D01*
X1182235Y914546D01*
X1181198Y917049D01*
X1179549Y919199D01*
X1177399Y920848D01*
X1174896Y921885D01*
X1173480Y922072D01*
D02*
G37*
G36*
X1170940D02*
X1169524Y921885D01*
X1167021Y920848D01*
X1164871Y919199D01*
X1163222Y917049D01*
X1162185Y914546D01*
X1161998Y913130D01*
X1170940D01*
Y922072D01*
D02*
G37*
G36*
X639913Y920120D02*
X623833D01*
Y915215D01*
X619506D01*
X618019Y914919D01*
X616759Y914077D01*
X615633Y912951D01*
X609844D01*
X608929Y913562D01*
X607060Y913934D01*
X605191Y913562D01*
X603607Y912504D01*
X602548Y910919D01*
X602176Y909050D01*
Y902550D01*
X602548Y900681D01*
X603607Y899097D01*
X605191Y898038D01*
X607060Y897666D01*
X608929Y898038D01*
X610513Y899097D01*
X611572Y900681D01*
X611944Y902550D01*
Y905181D01*
X617242D01*
X618728Y905477D01*
X619989Y906319D01*
X621115Y907446D01*
X623833D01*
Y902540D01*
X639913D01*
Y906705D01*
X643422D01*
X643580Y906470D01*
X645470Y905207D01*
X647700Y904763D01*
X649930Y905207D01*
X651820Y906470D01*
X653083Y908360D01*
X653527Y910590D01*
X653083Y912820D01*
X651820Y914710D01*
X649930Y915973D01*
X647700Y916417D01*
X645470Y915973D01*
X643580Y914710D01*
X643422Y914475D01*
X639913D01*
Y920120D01*
D02*
G37*
G36*
X881760Y909618D02*
X870092D01*
Y906643D01*
X867703D01*
Y909510D01*
X854623D01*
Y896430D01*
X867703D01*
Y899392D01*
X870092D01*
Y896417D01*
X881760D01*
Y909618D01*
D02*
G37*
G36*
X1182422Y910590D02*
X1173480D01*
Y901648D01*
X1174896Y901835D01*
X1177399Y902872D01*
X1179549Y904521D01*
X1181198Y906671D01*
X1182235Y909174D01*
X1182422Y910590D01*
D02*
G37*
G36*
X1170940D02*
X1161998D01*
X1162185Y909174D01*
X1163222Y906671D01*
X1164871Y904521D01*
X1167021Y902872D01*
X1169524Y901835D01*
X1170940Y901648D01*
Y910590D01*
D02*
G37*
G36*
X895294Y909618D02*
X883627D01*
Y896417D01*
X895294D01*
Y898117D01*
X895656Y898378D01*
X896564Y898680D01*
X898200Y897587D01*
X900430Y897143D01*
X902660Y897587D01*
X904550Y898850D01*
X905813Y900740D01*
X906257Y902970D01*
X905813Y905200D01*
X904550Y907090D01*
X902660Y908353D01*
X900430Y908797D01*
X898200Y908353D01*
X896564Y907260D01*
X895656Y907562D01*
X895294Y907823D01*
Y909618D01*
D02*
G37*
G36*
X692150Y917015D02*
X690663Y916719D01*
X689403Y915877D01*
X689228Y915702D01*
X688386Y914442D01*
X688090Y912955D01*
Y898770D01*
X687915Y897890D01*
X688211Y896403D01*
X689053Y895143D01*
X690313Y894301D01*
X691800Y894005D01*
X693287Y894301D01*
X694547Y895143D01*
X694722Y895318D01*
X695564Y896578D01*
X695860Y898065D01*
Y912250D01*
X696035Y913130D01*
X695739Y914617D01*
X694897Y915877D01*
X693637Y916719D01*
X692150Y917015D01*
D02*
G37*
G36*
X395288Y895601D02*
X383621D01*
Y882399D01*
X395288D01*
Y883173D01*
X402095D01*
X402424Y883108D01*
X404654Y883551D01*
X406544Y884814D01*
X407808Y886705D01*
X408251Y888934D01*
X407808Y891164D01*
X406544Y893055D01*
X406479Y893120D01*
X404589Y894383D01*
X402359Y894827D01*
X395288D01*
Y895601D01*
D02*
G37*
G36*
X698500Y887805D02*
X697013Y887509D01*
X695753Y886667D01*
X694911Y885407D01*
X694615Y883920D01*
Y870308D01*
X694521Y870167D01*
X694225Y868680D01*
X694521Y867193D01*
X695363Y865933D01*
X696623Y865091D01*
X698110Y864795D01*
X699596Y865091D01*
X700857Y865933D01*
X701247Y866323D01*
X702089Y867584D01*
X702385Y869070D01*
Y883920D01*
X702089Y885407D01*
X701247Y886667D01*
X699987Y887509D01*
X698500Y887805D01*
D02*
G37*
G36*
X381754Y895601D02*
X370086D01*
Y882399D01*
X370093D01*
Y873997D01*
X368230D01*
Y860917D01*
X381310D01*
Y866410D01*
X381747Y868607D01*
Y882399D01*
X381754D01*
Y895601D01*
D02*
G37*
G36*
X524510Y847837D02*
X522280Y847393D01*
X520390Y846130D01*
X519127Y844240D01*
X518936Y843279D01*
X517587Y843011D01*
X517200Y843590D01*
X515310Y844853D01*
X513080Y845297D01*
X510850Y844853D01*
X508960Y843590D01*
X507697Y841700D01*
X507253Y839470D01*
Y830633D01*
X507697Y828403D01*
X508960Y826513D01*
X514557Y820915D01*
X516448Y819652D01*
X518678Y819208D01*
X518683D01*
Y811530D01*
X519127Y809300D01*
X520390Y807410D01*
X524916Y802884D01*
Y799388D01*
X524656Y799189D01*
X523550Y797747D01*
X522854Y796068D01*
X522617Y794267D01*
Y792945D01*
X522854Y791144D01*
X523550Y789465D01*
X524656Y788024D01*
X524916Y787824D01*
Y785517D01*
X515938Y776539D01*
X514663Y776286D01*
X512773Y775023D01*
X511510Y773132D01*
X511066Y770902D01*
X511510Y768672D01*
X512773Y766782D01*
X514663Y765519D01*
X516893Y765075D01*
X519123Y765519D01*
X521013Y766782D01*
X522276Y768672D01*
X522530Y769947D01*
X532873Y780290D01*
X533884Y781803D01*
X534239Y783586D01*
Y787824D01*
X534499Y788024D01*
X535605Y789465D01*
X536300Y791144D01*
X536538Y792945D01*
Y794267D01*
X536300Y796068D01*
X535605Y797747D01*
X534499Y799189D01*
X534239Y799388D01*
Y801041D01*
X578355D01*
X580891Y798506D01*
X579513Y797128D01*
X588848Y787793D01*
X597098Y796043D01*
X587763Y805378D01*
X586385Y803999D01*
X582711Y807673D01*
X581451Y808515D01*
X579964Y808811D01*
X534882D01*
X533698Y810583D01*
X530381Y813900D01*
X530442Y815170D01*
X530690D01*
Y822774D01*
X530727Y822960D01*
Y841620D01*
X530284Y843850D01*
X529020Y845740D01*
X528630Y846130D01*
X526740Y847393D01*
X524510Y847837D01*
D02*
G37*
G36*
X542095Y843419D02*
X540509Y843103D01*
X539165Y842205D01*
X538267Y840861D01*
X537951Y839275D01*
Y823941D01*
X537756Y822960D01*
X538072Y821374D01*
X538970Y820030D01*
X540314Y819132D01*
X541900Y818816D01*
X553720D01*
X555306Y819132D01*
X556650Y820030D01*
X557548Y821374D01*
X557864Y822960D01*
X557548Y824546D01*
X556650Y825890D01*
X555306Y826788D01*
X553720Y827104D01*
X546239D01*
Y839275D01*
X545923Y840861D01*
X545887Y840914D01*
X545879Y840957D01*
X545037Y842217D01*
X543777Y843059D01*
X543734Y843067D01*
X543681Y843103D01*
X542095Y843419D01*
D02*
G37*
G36*
X318699Y812010D02*
X317212Y811716D01*
X315951Y810876D01*
X315106Y809617D01*
X314808Y808131D01*
X315101Y806644D01*
X315941Y805383D01*
X316093Y805230D01*
X316096Y805228D01*
X316098Y805226D01*
X316725Y804807D01*
X317352Y804386D01*
X317355Y804385D01*
X317358Y804383D01*
X318105Y804235D01*
X318838Y804088D01*
X318841Y804089D01*
X318845Y804088D01*
X334744D01*
X336231Y804383D01*
X337491Y805226D01*
X338333Y806486D01*
X338629Y807972D01*
X338333Y809459D01*
X337491Y810719D01*
X336231Y811561D01*
X334744Y811857D01*
X319459D01*
X318699Y812010D01*
D02*
G37*
G36*
X552477Y797491D02*
X550991Y797195D01*
X549731Y796353D01*
X548889Y795093D01*
X548593Y793606D01*
X548889Y792120D01*
X549731Y790859D01*
X549867Y790723D01*
X551127Y789881D01*
X552613Y789585D01*
X568814D01*
X570301Y789881D01*
X571561Y790723D01*
X572403Y791984D01*
X572699Y793470D01*
X572403Y794957D01*
X571561Y796217D01*
X570301Y797059D01*
X568814Y797355D01*
X553162D01*
X552477Y797491D01*
D02*
G37*
G36*
X281061Y793310D02*
X262981D01*
Y771330D01*
X281061D01*
Y793310D01*
D02*
G37*
G36*
X982980Y744220D02*
X952500D01*
Y737945D01*
X947888D01*
X947730Y738180D01*
X945840Y739443D01*
X943610Y739887D01*
X941380Y739443D01*
X939490Y738180D01*
X938227Y736290D01*
X937783Y734060D01*
X938227Y731830D01*
X939490Y729940D01*
X941380Y728677D01*
X943610Y728233D01*
X945840Y728677D01*
X947730Y729940D01*
X947888Y730175D01*
X952500D01*
Y723900D01*
X982980D01*
Y744220D01*
D02*
G37*
G36*
X1153160Y994744D02*
X552450D01*
X550864Y994428D01*
X549520Y993530D01*
X548622Y992186D01*
X548551Y991828D01*
X525756Y969034D01*
X524970Y967858D01*
X524694Y966470D01*
X524694Y966470D01*
Y952191D01*
X497140D01*
Y952855D01*
X488310D01*
Y944275D01*
Y937855D01*
X481890D01*
Y942855D01*
X473060D01*
Y937449D01*
X462766D01*
Y942625D01*
X446686D01*
Y940295D01*
X437366D01*
Y942625D01*
X421286D01*
Y937335D01*
X419568D01*
X419410Y937570D01*
X417520Y938833D01*
X415290Y939277D01*
X413060Y938833D01*
X411170Y937570D01*
X409907Y935680D01*
X409463Y933450D01*
X409907Y931220D01*
X411170Y929330D01*
X413060Y928067D01*
X415290Y927623D01*
X417520Y928067D01*
X419410Y929330D01*
X419568Y929565D01*
X421286D01*
Y925045D01*
X437366D01*
Y932525D01*
X446686D01*
Y925045D01*
X462766D01*
Y929680D01*
X473060D01*
Y929275D01*
X478310D01*
Y929025D01*
X479513D01*
X479679Y928192D01*
X480465Y927015D01*
X542634Y864846D01*
X542634Y864846D01*
X543810Y864060D01*
X545197Y863784D01*
X545197Y863784D01*
X568319D01*
X568650Y863290D01*
X570540Y862027D01*
X572770Y861583D01*
X575000Y862027D01*
X576890Y863290D01*
X577023Y863489D01*
X578293Y863103D01*
Y822874D01*
X578550Y821586D01*
X579279Y820493D01*
X591079Y808694D01*
X589082Y806697D01*
X598417Y797363D01*
X600414Y799359D01*
X606622Y793151D01*
X607714Y792421D01*
X609003Y792165D01*
X621101D01*
X635614Y777651D01*
X634909Y776560D01*
X633645Y776812D01*
X534896D01*
X533310Y776496D01*
X531966Y775598D01*
X459011Y702644D01*
X445738D01*
X444828Y703251D01*
X442598Y703695D01*
X440368Y703251D01*
X439459Y702644D01*
X435567D01*
X434908Y703914D01*
X435389Y704633D01*
X435685Y706120D01*
X435389Y707607D01*
X434547Y708867D01*
X433818Y709596D01*
X433253Y709973D01*
X433211Y710441D01*
X433387Y711411D01*
X434548Y712188D01*
X434748D01*
X436159Y711245D01*
X437823Y710914D01*
X439487Y711245D01*
X440898Y712188D01*
X441099D01*
X442509Y711245D01*
X444173Y710914D01*
X445838Y711245D01*
X447248Y712188D01*
X448191Y713598D01*
X448522Y715263D01*
Y731597D01*
X448687Y731844D01*
X449032Y733578D01*
Y736734D01*
X449032Y736735D01*
X448687Y738469D01*
X447705Y739939D01*
X445473Y742171D01*
X444003Y743153D01*
X442268Y743498D01*
X392704D01*
X391819Y743322D01*
X390970Y743154D01*
X390970Y743153D01*
X390970Y743153D01*
X390170Y742619D01*
X389500Y742171D01*
X389500Y742171D01*
X389500Y742171D01*
X389500Y742171D01*
X388461Y741132D01*
X376319D01*
Y743951D01*
X347581D01*
X347581Y743951D01*
Y743951D01*
X346611Y744614D01*
X342880Y748345D01*
X341410Y749327D01*
X339676Y749672D01*
X337240D01*
Y751430D01*
X323914D01*
X322682Y752662D01*
X322707Y752915D01*
X325185Y755393D01*
X338510D01*
Y755938D01*
X338827Y756198D01*
X347581D01*
Y753379D01*
X376319D01*
Y756198D01*
X389283D01*
X390577Y754904D01*
X390577Y754904D01*
X390577Y754904D01*
X390578Y754904D01*
X391242Y754460D01*
X392048Y753922D01*
X392048Y753922D01*
X392048Y753922D01*
X393017Y753729D01*
X393782Y753577D01*
X393782D01*
X393782Y753577D01*
X393782Y753577D01*
X442268D01*
X444003Y753922D01*
X445473Y754904D01*
X447705Y757136D01*
X448687Y758606D01*
X449032Y760340D01*
X449032Y760340D01*
Y763497D01*
X448687Y765231D01*
X448522Y765478D01*
Y781813D01*
X448191Y783477D01*
X447248Y784887D01*
X445838Y785830D01*
X444173Y786161D01*
X443785Y786593D01*
X443517Y787325D01*
X444946Y788755D01*
X457115D01*
X463606Y782264D01*
Y757340D01*
X455470D01*
Y741260D01*
X460676D01*
Y739415D01*
X459437Y737560D01*
X458993Y735330D01*
X459437Y733100D01*
X460700Y731210D01*
X462590Y729947D01*
X464820Y729503D01*
X467050Y729947D01*
X468940Y731210D01*
X470203Y733100D01*
X470647Y735330D01*
X470203Y737560D01*
X468964Y739415D01*
Y741260D01*
X473050D01*
Y757340D01*
X471894D01*
Y783980D01*
X471751Y784697D01*
X471578Y785566D01*
X471578Y785566D01*
X470680Y786910D01*
X461761Y795829D01*
X460417Y796727D01*
X460417Y796727D01*
X459548Y796900D01*
X458831Y797042D01*
X443230D01*
X441644Y796727D01*
X440300Y795829D01*
X437173Y792702D01*
X436895Y792285D01*
X434970Y790360D01*
X434072Y789016D01*
X433756Y787430D01*
Y786828D01*
X432486Y785959D01*
X431473Y786161D01*
X430864Y786040D01*
X429594Y787082D01*
Y796700D01*
X429950D01*
Y798846D01*
X439770D01*
X441356Y799162D01*
X442700Y800060D01*
X461869Y819229D01*
X468556D01*
Y814583D01*
X478776D01*
X484369Y808990D01*
X485713Y808092D01*
X487299Y807776D01*
X492849D01*
Y806130D01*
X496495D01*
Y800861D01*
X496495Y800860D01*
X496495Y800860D01*
X496632Y800170D01*
X496810Y799275D01*
X496810Y799275D01*
Y799275D01*
X497150Y798766D01*
X497709Y797931D01*
X497709Y797930D01*
X497709Y797930D01*
X499910Y795729D01*
X499717Y794267D01*
Y792945D01*
X499955Y791144D01*
X500650Y789465D01*
X501756Y788024D01*
X503198Y786918D01*
X504876Y786222D01*
X506678Y785985D01*
X508479Y786222D01*
X510158Y786918D01*
X511599Y788024D01*
X512705Y789465D01*
X513401Y791144D01*
X513638Y792945D01*
Y794267D01*
X513401Y796068D01*
X512705Y797747D01*
X511599Y799189D01*
X510158Y800295D01*
X508479Y800990D01*
X506678Y801227D01*
X506195Y801164D01*
X504782Y802577D01*
Y806130D01*
X508429D01*
Y817710D01*
X492849D01*
Y816064D01*
X489015D01*
X484636Y820443D01*
Y832162D01*
X468556D01*
Y827516D01*
X460153D01*
X458567Y827201D01*
X457223Y826302D01*
X438054Y807134D01*
X429950D01*
Y809280D01*
X421920D01*
X416740Y814460D01*
X415395Y815358D01*
X413810Y815674D01*
X406721D01*
Y820631D01*
X373059D01*
Y809998D01*
X365240Y802179D01*
X363970Y802705D01*
Y802930D01*
X349890D01*
Y800838D01*
X341784D01*
Y802262D01*
X327704D01*
Y800505D01*
X315912D01*
X314178Y800160D01*
X312708Y799177D01*
X312708Y799177D01*
X305405Y791875D01*
X304423Y790404D01*
X304078Y788670D01*
Y767160D01*
X299350D01*
X298423Y768430D01*
X298660Y769620D01*
X298565Y770098D01*
X299371Y771080D01*
X302661D01*
Y792410D01*
X288582D01*
Y771080D01*
X288581D01*
X288655Y770990D01*
X288383Y769620D01*
X288619Y768430D01*
X288581Y767160D01*
X288581Y767160D01*
X288581Y767160D01*
Y758080D01*
Y751580D01*
Y745080D01*
Y738580D01*
Y732080D01*
X288581Y732080D01*
X288619Y730810D01*
X288383Y729620D01*
X288655Y728250D01*
X288581Y728160D01*
X288582D01*
Y706830D01*
X302661D01*
Y728160D01*
X299371D01*
X298565Y729142D01*
X298660Y729620D01*
X298424Y730810D01*
X299350Y732080D01*
X312161D01*
Y738580D01*
Y745088D01*
X317438D01*
X320591Y741935D01*
X322061Y740953D01*
X323160Y740734D01*
Y738850D01*
X337240D01*
Y739370D01*
X338510Y739896D01*
X345011Y733395D01*
X346481Y732413D01*
X347581Y732194D01*
Y729249D01*
X376319D01*
Y732068D01*
X390337D01*
X391223Y732244D01*
X392071Y732413D01*
X392072Y732413D01*
X392072Y732413D01*
X392872Y732948D01*
X393542Y733395D01*
X393542Y733395D01*
X393542Y733395D01*
X393542Y733395D01*
X394188Y734041D01*
X395458Y733515D01*
Y710997D01*
X395580D01*
Y696287D01*
Y683380D01*
X380610Y668410D01*
X379712Y667066D01*
X379396Y665480D01*
Y646962D01*
X378351Y646528D01*
X376201Y644879D01*
X374552Y642729D01*
X373515Y640226D01*
X373161Y637540D01*
X373515Y634854D01*
X374552Y632351D01*
X376201Y630201D01*
X378351Y628552D01*
X380854Y627515D01*
X383540Y627161D01*
X386226Y627515D01*
X388729Y628552D01*
X390879Y630201D01*
X392528Y632351D01*
X393565Y634854D01*
X393919Y637540D01*
X393565Y640226D01*
X392528Y642729D01*
X390879Y644879D01*
X388729Y646528D01*
X387684Y646962D01*
Y663764D01*
X402653Y678733D01*
X403552Y680078D01*
X403867Y681663D01*
Y684605D01*
X405137Y685145D01*
X406084Y684512D01*
X407670Y684196D01*
X458470D01*
X460056Y684512D01*
X461400Y685410D01*
X533321Y757331D01*
X534367Y756610D01*
X533923Y754380D01*
X534367Y752150D01*
X535088Y751070D01*
Y739809D01*
X530606Y735327D01*
X518035D01*
X516232Y735090D01*
X514551Y734393D01*
X513108Y733286D01*
X512001Y731843D01*
X511305Y730162D01*
X511067Y728359D01*
Y727053D01*
X511305Y725250D01*
X512001Y723569D01*
X513108Y722126D01*
X514551Y721018D01*
X516232Y720322D01*
X518035Y720085D01*
X541119D01*
X542923Y720322D01*
X544603Y721018D01*
X546047Y722126D01*
X547154Y723569D01*
X547850Y725250D01*
X548088Y727053D01*
Y728359D01*
X547850Y730162D01*
X547154Y731843D01*
X546047Y733286D01*
X544603Y734393D01*
X544210Y734557D01*
X543841Y735772D01*
X544057Y736095D01*
X544412Y737879D01*
Y751070D01*
X545133Y752150D01*
X545577Y754380D01*
X545133Y756610D01*
X543870Y758500D01*
X541980Y759763D01*
X539750Y760207D01*
X537520Y759763D01*
X536799Y760809D01*
X539444Y763454D01*
X609979D01*
X610465Y762281D01*
X606670Y758486D01*
X605772Y757142D01*
X605456Y755556D01*
Y704739D01*
X602030D01*
Y693309D01*
X602030Y692259D01*
X602030Y690989D01*
Y679559D01*
X602030D01*
Y679339D01*
X602030D01*
Y670376D01*
X599440D01*
X598052Y670100D01*
X596876Y669314D01*
X596876Y669314D01*
X594336Y666774D01*
X594246Y666639D01*
X561330D01*
Y654159D01*
X593274D01*
Y647039D01*
X540415Y594180D01*
X529635D01*
X529634Y594180D01*
X529284Y594110D01*
X527775D01*
Y653030D01*
X533190D01*
Y673610D01*
X515110D01*
Y653030D01*
X520524D01*
Y594110D01*
X515110D01*
Y573530D01*
X533190D01*
Y586928D01*
X541917D01*
X541917Y586928D01*
X543305Y587204D01*
X544481Y587990D01*
X599464Y642973D01*
X599464Y642973D01*
X600250Y644149D01*
X600526Y645537D01*
X600526Y645537D01*
Y661694D01*
X600760Y661888D01*
X602030Y661290D01*
Y654159D01*
X602030D01*
Y653939D01*
X602030D01*
Y641459D01*
X614635D01*
Y612392D01*
X614931Y610905D01*
X615773Y609645D01*
X639830Y585588D01*
X639829Y584391D01*
X639698Y584041D01*
X638500Y583240D01*
X637237Y581350D01*
X636793Y579120D01*
X637237Y576890D01*
X638500Y575000D01*
X640390Y573737D01*
X642620Y573293D01*
X643203Y573409D01*
X646614Y569998D01*
Y544577D01*
X644924Y543877D01*
X642723Y542187D01*
X641033Y539986D01*
X639971Y537421D01*
X639609Y534670D01*
X639971Y531918D01*
X641033Y529355D01*
X642723Y527153D01*
X644924Y525463D01*
X647488Y524401D01*
X650240Y524039D01*
X652991Y524401D01*
X655555Y525463D01*
X657757Y527153D01*
X659447Y529355D01*
X660509Y531918D01*
X660871Y534670D01*
X660509Y537421D01*
X659447Y539986D01*
X657757Y542187D01*
X655555Y543877D01*
X653866Y544577D01*
Y571500D01*
X653866Y571500D01*
X653590Y572887D01*
X652804Y574064D01*
X652804Y574064D01*
X648331Y578537D01*
X648447Y579120D01*
X648003Y581350D01*
X646998Y582855D01*
X647528Y584125D01*
X732790D01*
X734277Y584421D01*
X735537Y585263D01*
X784984Y634710D01*
X800859D01*
Y639645D01*
X812571D01*
Y634490D01*
X833151D01*
Y639645D01*
X892071D01*
Y634490D01*
X912651D01*
Y652570D01*
X892071D01*
Y647414D01*
X833151D01*
Y652570D01*
X812571D01*
Y647414D01*
X800859D01*
Y652290D01*
X795690D01*
Y704732D01*
X795394Y706219D01*
X794552Y707479D01*
X763980Y738051D01*
X764730Y738965D01*
X764833Y739009D01*
X765561Y738522D01*
X767138Y738209D01*
X785138D01*
X785666Y738314D01*
X791887Y732093D01*
X793147Y731251D01*
X794634Y730955D01*
X797140D01*
Y721070D01*
X809035D01*
X809410Y720995D01*
X813702D01*
X813852Y720845D01*
X814123Y719486D01*
X815386Y717596D01*
X817276Y716333D01*
X819506Y715889D01*
X821736Y716333D01*
X823626Y717596D01*
X824666Y719152D01*
X826093Y719521D01*
X829526Y716087D01*
X829531Y716063D01*
X830373Y714803D01*
X831477Y714066D01*
X835636Y709906D01*
X835636Y709906D01*
X836813Y709120D01*
X838200Y708844D01*
X838200Y708844D01*
X873528D01*
X901676Y680696D01*
X901676Y680696D01*
X902852Y679910D01*
X904240Y679634D01*
X904240Y679634D01*
X952500D01*
Y673100D01*
X982980D01*
Y693420D01*
X952500D01*
Y686886D01*
X905742D01*
X878703Y713924D01*
X879229Y715194D01*
X931948D01*
X939776Y707366D01*
X939776Y707366D01*
X940953Y706580D01*
X942340Y706304D01*
X942340Y706304D01*
X952500D01*
Y698500D01*
X982980D01*
Y718820D01*
X952500D01*
Y713556D01*
X943842D01*
X936014Y721384D01*
X934837Y722170D01*
X933450Y722446D01*
X933450Y722446D01*
X840497D01*
X835634Y727309D01*
X835681Y727548D01*
X837138Y728530D01*
X837347Y728489D01*
X852079D01*
Y723919D01*
X870470D01*
Y739120D01*
X867179D01*
Y751687D01*
X870834D01*
Y768767D01*
X863818D01*
X863167Y769815D01*
X863168Y770037D01*
X863449Y771448D01*
Y771888D01*
X864903Y773342D01*
X878547D01*
X879785Y773096D01*
X881272Y773391D01*
X882532Y774234D01*
X883374Y775494D01*
X883670Y776980D01*
X883374Y778467D01*
X882532Y779727D01*
X882286Y779974D01*
X881026Y780816D01*
X879539Y781111D01*
X863294D01*
X861808Y780816D01*
X860547Y779974D01*
X859008Y778434D01*
X857834Y778920D01*
Y785767D01*
X853920D01*
Y791229D01*
X855015D01*
Y806431D01*
X836625D01*
Y802411D01*
X835463Y802180D01*
X834287Y801394D01*
X834286Y801394D01*
X833096Y800203D01*
X832310Y799027D01*
X832034Y797640D01*
X832034Y797640D01*
Y790172D01*
X828053Y786190D01*
X826737Y786671D01*
X826549Y787617D01*
X825707Y788877D01*
X824447Y789719D01*
X822960Y790015D01*
X821929D01*
X820442Y789719D01*
X819182Y788877D01*
X818170Y787865D01*
X808990D01*
X807503Y787569D01*
X806243Y786727D01*
X805401Y785467D01*
X805105Y783980D01*
X805401Y782493D01*
X806243Y781233D01*
X807503Y780391D01*
X808990Y780095D01*
X819779D01*
X820257Y780190D01*
X820882Y779020D01*
X812816Y770953D01*
X789984D01*
X789179Y771935D01*
X789257Y772328D01*
X788943Y773904D01*
X788326Y774827D01*
X788943Y775751D01*
X789257Y777327D01*
X788943Y778904D01*
X788326Y779827D01*
X788943Y780751D01*
X789257Y782328D01*
X788943Y783904D01*
X788326Y784827D01*
X788943Y785751D01*
X789257Y787327D01*
X788943Y788904D01*
X788326Y789827D01*
X788943Y790751D01*
X789257Y792328D01*
X788943Y793904D01*
X788050Y795240D01*
X786714Y796133D01*
X785138Y796447D01*
X780777D01*
X780218Y797325D01*
X780779Y798208D01*
X785138D01*
X786317Y798443D01*
X791458D01*
X791668Y798233D01*
X792928Y797391D01*
X794415Y797095D01*
X800950D01*
Y792190D01*
X817030D01*
Y796215D01*
X819952D01*
X820110Y795980D01*
X822000Y794717D01*
X824230Y794273D01*
X826460Y794717D01*
X828350Y795980D01*
X829613Y797870D01*
X830057Y800100D01*
X829613Y802330D01*
X828350Y804220D01*
X826460Y805483D01*
X824230Y805927D01*
X822000Y805483D01*
X820110Y804220D01*
X819952Y803985D01*
X817030D01*
Y809770D01*
X800950D01*
Y804865D01*
X796024D01*
X795814Y805074D01*
X794554Y805917D01*
X793067Y806212D01*
X790036D01*
X789230Y807194D01*
X789257Y807327D01*
X788943Y808904D01*
X788326Y809827D01*
X788943Y810751D01*
X789257Y812328D01*
X789230Y812461D01*
X790036Y813443D01*
X875222D01*
X875934Y812173D01*
X875553Y810260D01*
X875997Y808030D01*
X877260Y806140D01*
X877754Y805809D01*
Y801370D01*
X877754Y801370D01*
X878030Y799983D01*
X878816Y798806D01*
X881356Y796266D01*
X881356Y796266D01*
X882533Y795480D01*
X883920Y795204D01*
X990368D01*
X1109956Y675616D01*
X1109956Y675616D01*
X1111133Y674830D01*
X1112520Y674554D01*
X1184910D01*
Y668020D01*
X1215390D01*
Y688340D01*
X1184910D01*
Y681806D01*
X1114022D01*
X994434Y801394D01*
X993258Y802180D01*
X991870Y802456D01*
X991870Y802456D01*
X885422D01*
X885006Y802872D01*
Y805809D01*
X885500Y806140D01*
X886763Y808030D01*
X887083Y809634D01*
X888377D01*
X888697Y808030D01*
X889960Y806140D01*
X891850Y804877D01*
X894080Y804433D01*
X896310Y804877D01*
X898200Y806140D01*
X898531Y806634D01*
X1001798D01*
X1107416Y701016D01*
X1108593Y700230D01*
X1109980Y699954D01*
X1109980Y699954D01*
X1184910D01*
Y693420D01*
X1215390D01*
Y713740D01*
X1184910D01*
Y707206D01*
X1111482D01*
X1006515Y812173D01*
X1006527Y812536D01*
X1006961Y813523D01*
X1008044Y813738D01*
X1009304Y814580D01*
X1030309Y835585D01*
X1061817D01*
X1065455Y831947D01*
Y830580D01*
X1059180D01*
Y800100D01*
X1079500D01*
Y830580D01*
X1073225D01*
Y833556D01*
X1072929Y835042D01*
X1072087Y836303D01*
X1066173Y842217D01*
X1064912Y843059D01*
X1063426Y843355D01*
X1028700D01*
X1027213Y843059D01*
X1025953Y842217D01*
X1004948Y821212D01*
X863463D01*
X862713Y822482D01*
X863077Y824312D01*
X862633Y826542D01*
X861370Y828433D01*
X859480Y829696D01*
X857250Y830139D01*
X855020Y829696D01*
X853130Y828433D01*
X852799Y827938D01*
X768409D01*
X768409Y827938D01*
X767021Y827662D01*
X765845Y826876D01*
X765845Y826876D01*
X762267Y823298D01*
X761703Y823355D01*
X761072Y824697D01*
X761443Y825251D01*
X761756Y826828D01*
Y831943D01*
X1004738D01*
X1006224Y832239D01*
X1007485Y833081D01*
X1020149Y845745D01*
X1077416D01*
X1090855Y832306D01*
Y830580D01*
X1084580D01*
Y800100D01*
X1104900D01*
Y830580D01*
X1098625D01*
Y833915D01*
X1098329Y835402D01*
X1097487Y836662D01*
X1081772Y852377D01*
X1080512Y853219D01*
X1079025Y853515D01*
X1018540D01*
X1017053Y853219D01*
X1015793Y852377D01*
X1003129Y839712D01*
X761756D01*
Y844828D01*
X761443Y846404D01*
X760550Y847740D01*
X759214Y848633D01*
X757637Y848947D01*
X756061Y848633D01*
X754725Y847740D01*
X753832Y846404D01*
X753518Y844828D01*
Y826828D01*
X753832Y825251D01*
X754637Y824046D01*
X754487Y823449D01*
X754144Y822776D01*
X751131D01*
X750787Y823449D01*
X750637Y824046D01*
X751443Y825251D01*
X751757Y826828D01*
Y844828D01*
X751522Y846006D01*
Y856830D01*
X757210D01*
Y872910D01*
X754723D01*
X754237Y874083D01*
X754850Y874696D01*
X755692Y875957D01*
X755988Y877443D01*
Y879384D01*
X756521Y879917D01*
X757880Y880188D01*
X759770Y881451D01*
X761033Y883341D01*
X761477Y885571D01*
X761033Y887801D01*
X759770Y889691D01*
X757880Y890954D01*
X755650Y891398D01*
X753420Y890954D01*
X752532Y890361D01*
X751431Y890920D01*
X751319Y892126D01*
X759808Y900614D01*
X835428D01*
X835636Y900406D01*
X835636Y900406D01*
X836813Y899620D01*
X838200Y899344D01*
X838200Y899344D01*
X839622D01*
Y896430D01*
X852702D01*
Y909510D01*
X839622D01*
Y908245D01*
X838352Y907566D01*
X838317Y907590D01*
X836930Y907866D01*
X836930Y907866D01*
X762253D01*
X761767Y909039D01*
X782552Y929824D01*
X842060D01*
Y926910D01*
X855140D01*
Y939990D01*
X842060D01*
Y937076D01*
X781050D01*
X779662Y936800D01*
X778486Y936014D01*
X778486Y936014D01*
X740386Y897914D01*
X739600Y896738D01*
X739324Y895350D01*
X739324Y895350D01*
Y886203D01*
X718015Y864893D01*
X716745Y865419D01*
Y888580D01*
X721650D01*
Y904660D01*
X704070D01*
Y888580D01*
X708976D01*
Y865599D01*
X705781Y862405D01*
X694126D01*
X692639Y862109D01*
X691379Y861267D01*
X691170Y861058D01*
X689900Y861584D01*
Y876720D01*
X684605D01*
Y879642D01*
X684840Y879800D01*
X686103Y881690D01*
X686547Y883920D01*
X686103Y886150D01*
X684840Y888040D01*
X682950Y889303D01*
X681559Y889580D01*
X681684Y890850D01*
X686090D01*
Y904930D01*
X684145D01*
Y908545D01*
X684840Y909010D01*
X686103Y910900D01*
X686547Y913130D01*
X686103Y915360D01*
X684840Y917250D01*
X682950Y918513D01*
X680720Y918957D01*
X678490Y918513D01*
X676600Y917250D01*
X675337Y915360D01*
X674893Y913130D01*
X675337Y910900D01*
X676375Y909345D01*
Y904930D01*
X673510D01*
Y890850D01*
X679756D01*
X679881Y889580D01*
X678490Y889303D01*
X676600Y888040D01*
X675337Y886150D01*
X674893Y883920D01*
X675337Y881690D01*
X676600Y879800D01*
X676835Y879642D01*
Y876720D01*
X672320D01*
Y860640D01*
X678753D01*
Y846006D01*
X678519Y844828D01*
Y826828D01*
X678832Y825251D01*
X679725Y823915D01*
X681061Y823022D01*
X682638Y822709D01*
X684214Y823022D01*
X685550Y823915D01*
X686443Y825251D01*
X686757Y826828D01*
Y844828D01*
X686522Y846006D01*
Y860640D01*
X688978D01*
X689130Y860497D01*
X689618Y859370D01*
X689049Y858519D01*
X688753Y857032D01*
Y846006D01*
X688519Y844828D01*
Y826828D01*
X688832Y825251D01*
X689725Y823915D01*
X691061Y823022D01*
X692638Y822709D01*
X694214Y823022D01*
X695137Y823639D01*
X696061Y823022D01*
X697637Y822709D01*
X699214Y823022D01*
X700137Y823639D01*
X701061Y823022D01*
X702638Y822709D01*
X704214Y823022D01*
X705137Y823639D01*
X706061Y823022D01*
X707637Y822709D01*
X709214Y823022D01*
X710137Y823639D01*
X711061Y823022D01*
X712638Y822709D01*
X714214Y823022D01*
X715137Y823639D01*
X716061Y823022D01*
X717637Y822709D01*
X719214Y823022D01*
X720137Y823639D01*
X721061Y823022D01*
X722638Y822709D01*
X724214Y823022D01*
X725137Y823639D01*
X726061Y823022D01*
X727637Y822709D01*
X728030Y822787D01*
X729012Y821981D01*
Y820573D01*
X729012Y820572D01*
X729288Y819185D01*
X730074Y818009D01*
X731496Y816586D01*
X732673Y815800D01*
X734060Y815524D01*
X734060Y815524D01*
X762887D01*
X763473Y814730D01*
X763596Y814299D01*
X763332Y813904D01*
X763018Y812328D01*
X763332Y810751D01*
X763949Y809827D01*
X763332Y808904D01*
X763018Y807327D01*
X763332Y805751D01*
X763949Y804827D01*
X763332Y803904D01*
X763018Y802328D01*
X763097Y801935D01*
X762291Y800953D01*
X759126D01*
X757738Y800677D01*
X756562Y799891D01*
X756562Y799891D01*
X756504Y799833D01*
X755533Y799640D01*
X754356Y798854D01*
X753570Y797678D01*
X753294Y796290D01*
X753570Y794902D01*
X754356Y793726D01*
X755533Y792940D01*
X756920Y792664D01*
X758088D01*
X758089Y792664D01*
X759476Y792940D01*
X760615Y793702D01*
X762291D01*
X763096Y792720D01*
X763018Y792328D01*
X763332Y790751D01*
X763949Y789827D01*
X763332Y788904D01*
X763018Y787327D01*
X763332Y785751D01*
X763949Y784827D01*
X763332Y783904D01*
X763018Y782328D01*
X763332Y780751D01*
X763949Y779827D01*
X763332Y778904D01*
X763018Y777327D01*
X763037Y777236D01*
X762423Y775917D01*
X761163Y775074D01*
X756931Y770843D01*
X756089Y769583D01*
X755793Y768096D01*
Y736860D01*
X755864Y736502D01*
X754725Y735740D01*
X753832Y734404D01*
X753518Y732827D01*
Y714827D01*
X753832Y713251D01*
X754725Y711915D01*
X756061Y711022D01*
X757637Y710708D01*
X758126Y710805D01*
X762805Y706126D01*
Y702730D01*
X757900D01*
Y686650D01*
X763195D01*
Y682458D01*
X762960Y682300D01*
X761697Y680410D01*
X761253Y678180D01*
X761697Y675950D01*
X762960Y674060D01*
X764850Y672797D01*
X767080Y672353D01*
X769310Y672797D01*
X771200Y674060D01*
X772463Y675950D01*
X772907Y678180D01*
X772463Y680410D01*
X771200Y682300D01*
X770965Y682458D01*
Y686650D01*
X775480D01*
Y702730D01*
X770574D01*
Y707735D01*
X770279Y709222D01*
X769437Y710482D01*
X761756Y718163D01*
Y727628D01*
X762930Y728114D01*
X787921Y703123D01*
Y652290D01*
X784779D01*
Y644058D01*
X783510Y643806D01*
X782250Y642964D01*
X738110Y598824D01*
X736790Y599300D01*
X735640Y601020D01*
X735405Y601178D01*
Y632503D01*
X735109Y633990D01*
X734267Y635250D01*
X732779Y636738D01*
X731519Y637580D01*
X730032Y637876D01*
X727392D01*
X726500Y639146D01*
X726637Y639832D01*
X726637Y639832D01*
Y654411D01*
X726845Y654619D01*
X726845Y654619D01*
X727631Y655795D01*
X727907Y657183D01*
X727907Y657183D01*
Y669005D01*
X729177Y669337D01*
X729763Y668459D01*
X732889Y665333D01*
Y657609D01*
X744557D01*
Y670811D01*
X737667D01*
X735953Y672525D01*
Y697633D01*
X739164Y700844D01*
X739950Y702020D01*
X740226Y703408D01*
X740226Y703408D01*
Y710169D01*
X741496Y710935D01*
X742638Y710708D01*
X744214Y711022D01*
X745137Y711639D01*
X746061Y711022D01*
X747637Y710708D01*
X749214Y711022D01*
X750550Y711915D01*
X751443Y713251D01*
X751757Y714827D01*
Y732827D01*
X751443Y734404D01*
X750550Y735740D01*
X749214Y736633D01*
X747637Y736946D01*
X746061Y736633D01*
X745137Y736016D01*
X744214Y736633D01*
X742638Y736946D01*
X741061Y736633D01*
X740137Y736016D01*
X739214Y736633D01*
X737637Y736946D01*
X736061Y736633D01*
X735137Y736016D01*
X734214Y736633D01*
X732638Y736946D01*
X731061Y736633D01*
X730137Y736016D01*
X729214Y736633D01*
X727637Y736946D01*
X726061Y736633D01*
X725137Y736016D01*
X724214Y736633D01*
X722638Y736946D01*
X721061Y736633D01*
X720137Y736016D01*
X719214Y736633D01*
X717637Y736946D01*
X716061Y736633D01*
X715137Y736016D01*
X714214Y736633D01*
X712638Y736946D01*
X711061Y736633D01*
X710137Y736016D01*
X709214Y736633D01*
X707637Y736946D01*
X706061Y736633D01*
X705137Y736016D01*
X704214Y736633D01*
X702638Y736946D01*
X701061Y736633D01*
X700137Y736016D01*
X699214Y736633D01*
X697637Y736946D01*
X696061Y736633D01*
X695137Y736016D01*
X694214Y736633D01*
X692638Y736946D01*
X691061Y736633D01*
X690138Y736016D01*
X689214Y736633D01*
X687637Y736946D01*
X686061Y736633D01*
X685138Y736016D01*
X684214Y736633D01*
X682638Y736946D01*
X681061Y736633D01*
X679725Y735740D01*
X678832Y734404D01*
X678519Y732827D01*
Y725202D01*
X662384Y709068D01*
X661280Y708330D01*
X656200Y703250D01*
X655302Y701906D01*
X654986Y700320D01*
Y689944D01*
X635908D01*
X635010Y690842D01*
X635010Y692039D01*
X635010Y693309D01*
Y704739D01*
X613744D01*
Y727952D01*
X615014Y728337D01*
X615640Y727400D01*
X617530Y726137D01*
X619760Y725693D01*
X621990Y726137D01*
X623880Y727400D01*
X624038Y727635D01*
X627055D01*
Y724390D01*
X643135D01*
Y729296D01*
X651256D01*
X652743Y729591D01*
X654003Y730433D01*
X659083Y735513D01*
X659925Y736774D01*
X660210Y738209D01*
X673137D01*
X674714Y738522D01*
X676050Y739415D01*
X676943Y740751D01*
X677256Y742328D01*
X676943Y743904D01*
X676050Y745240D01*
X674714Y746133D01*
X673137Y746447D01*
X655137D01*
X653561Y746133D01*
X652225Y745240D01*
X651332Y743904D01*
X651018Y742328D01*
X651332Y740751D01*
X652133Y739551D01*
X649647Y737065D01*
X643135D01*
Y741970D01*
X627055D01*
Y735405D01*
X624038D01*
X623880Y735640D01*
X621990Y736903D01*
X619760Y737347D01*
X617530Y736903D01*
X615640Y735640D01*
X615014Y734703D01*
X613744Y735089D01*
Y753840D01*
X617430Y757526D01*
X641966D01*
X649728Y749764D01*
X649729Y749764D01*
X650905Y748978D01*
X652292Y748702D01*
X652292Y748702D01*
X653292D01*
X653561Y748522D01*
X655137Y748208D01*
X673137D01*
X674714Y748522D01*
X676050Y749415D01*
X676943Y750751D01*
X677256Y752328D01*
X676943Y753904D01*
X676326Y754827D01*
X676943Y755751D01*
X677256Y757327D01*
X676943Y758904D01*
X676326Y759827D01*
X676943Y760751D01*
X677256Y762328D01*
X676943Y763904D01*
X676326Y764827D01*
X676943Y765751D01*
X677256Y767327D01*
X676943Y768904D01*
X676326Y769827D01*
X676943Y770751D01*
X677256Y772328D01*
X676943Y773904D01*
X676326Y774827D01*
X676943Y775751D01*
X677256Y777327D01*
X676943Y778904D01*
X676326Y779827D01*
X676943Y780751D01*
X677256Y782328D01*
X676943Y783904D01*
X676326Y784827D01*
X676943Y785751D01*
X677256Y787327D01*
X676943Y788904D01*
X676326Y789827D01*
X676943Y790751D01*
X677256Y792328D01*
X676943Y793904D01*
X676326Y794827D01*
X676943Y795751D01*
X677256Y797327D01*
X676943Y798904D01*
X676326Y799827D01*
X676943Y800751D01*
X677256Y802328D01*
X676943Y803904D01*
X676326Y804827D01*
X676943Y805751D01*
X677256Y807327D01*
X676943Y808904D01*
X676326Y809827D01*
X676943Y810751D01*
X677256Y812328D01*
X676943Y813904D01*
X676326Y814827D01*
X676943Y815751D01*
X677256Y817327D01*
X676943Y818904D01*
X676050Y820240D01*
X674714Y821133D01*
X673137Y821446D01*
X665296D01*
Y836930D01*
X665296Y836930D01*
X665020Y838317D01*
X664234Y839494D01*
X664234Y839494D01*
X608354Y895374D01*
X607178Y896160D01*
X605790Y896436D01*
X605790Y896436D01*
X602212D01*
X598509Y900138D01*
X598872Y900681D01*
X599244Y902550D01*
Y909050D01*
X598872Y910919D01*
X597813Y912504D01*
X596229Y913562D01*
X594360Y913934D01*
X592491Y913562D01*
X590907Y912504D01*
X590180Y912432D01*
X583108Y919504D01*
X583108Y919504D01*
X581931Y920290D01*
X580544Y920566D01*
X580544Y920566D01*
X573960D01*
X573960Y920566D01*
X572573Y920290D01*
X571396Y919504D01*
X570206Y918314D01*
X569552Y917334D01*
X568179Y916910D01*
X558530Y926559D01*
X558515Y926569D01*
X558505Y926584D01*
X558505Y926584D01*
X546834Y938255D01*
X547257Y939628D01*
X548950Y940760D01*
X550213Y942650D01*
X550657Y944880D01*
X550213Y947110D01*
X548950Y949000D01*
X548456Y949331D01*
Y959265D01*
X565995Y976804D01*
X992186D01*
X1074665Y894325D01*
X1115996Y852994D01*
Y830580D01*
X1109980D01*
Y800100D01*
X1130300D01*
Y830580D01*
X1124284D01*
Y854710D01*
X1123968Y856296D01*
X1123070Y857640D01*
X1083089Y897621D01*
X1094972Y909504D01*
X1111120D01*
Y901570D01*
X1131700D01*
Y922150D01*
X1111120D01*
Y916756D01*
X1093470D01*
X1092083Y916480D01*
X1090906Y915694D01*
X1090906Y915694D01*
X1077961Y902749D01*
X996832Y983878D01*
X995488Y984776D01*
X993902Y985092D01*
X565011D01*
X563425Y984776D01*
X562081Y983878D01*
X561183Y982534D01*
X561111Y982176D01*
X542266Y963331D01*
X541480Y962155D01*
X541204Y960767D01*
X541204Y960767D01*
Y949331D01*
X540710Y949000D01*
X539578Y947307D01*
X538205Y946884D01*
X534940Y950150D01*
X534940Y950150D01*
X533763Y950936D01*
X533184Y951051D01*
X533106Y951129D01*
X531946Y951904D01*
Y964968D01*
X553434Y986456D01*
X1151444D01*
X1174336Y963564D01*
X1144246Y933474D01*
X1143460Y932298D01*
X1143184Y930910D01*
X1143184Y930910D01*
Y921496D01*
X1141621Y920848D01*
X1139471Y919199D01*
X1137822Y917049D01*
X1136785Y914546D01*
X1136431Y911860D01*
X1136785Y909174D01*
X1137822Y906671D01*
X1139471Y904521D01*
X1141621Y902872D01*
X1144124Y901835D01*
X1146810Y901481D01*
X1149496Y901835D01*
X1151999Y902872D01*
X1154149Y904521D01*
X1155798Y906671D01*
X1156835Y909174D01*
X1157189Y911860D01*
X1156835Y914546D01*
X1155798Y917049D01*
X1154149Y919199D01*
X1151999Y920848D01*
X1150436Y921496D01*
Y929408D01*
X1179464Y958436D01*
X1239186Y898714D01*
Y757366D01*
X1216563Y734743D01*
X1215390Y735229D01*
Y739140D01*
X1184910D01*
Y718820D01*
X1215390D01*
Y724836D01*
X1216660D01*
X1218246Y725152D01*
X1219590Y726050D01*
X1246260Y752720D01*
X1247158Y754064D01*
X1247474Y755650D01*
Y900430D01*
X1247158Y902016D01*
X1246260Y903360D01*
X1182760Y966860D01*
X1156090Y993530D01*
X1154746Y994428D01*
X1153160Y994744D01*
D02*
G37*
G36*
X805180Y716745D02*
X803693Y716449D01*
X802433Y715607D01*
X801591Y714347D01*
X801295Y712860D01*
X801591Y711374D01*
X802433Y710113D01*
X805363Y707183D01*
X806624Y706341D01*
X808110Y706045D01*
X822960D01*
X824447Y706341D01*
X825707Y707183D01*
X826549Y708443D01*
X826845Y709930D01*
X826549Y711417D01*
X825707Y712677D01*
X824447Y713519D01*
X822960Y713815D01*
X809719D01*
X807927Y715607D01*
X806667Y716449D01*
X805180Y716745D01*
D02*
G37*
G36*
X281061Y727910D02*
X262981D01*
Y705930D01*
X281061D01*
Y727910D01*
D02*
G37*
G36*
X594310Y704739D02*
X561330D01*
Y703160D01*
X553848D01*
X552768Y703882D01*
X550538Y704326D01*
X548308Y703882D01*
X546418Y702619D01*
X545154Y700729D01*
X544711Y698499D01*
X545154Y696269D01*
X546418Y694379D01*
X548308Y693116D01*
X550538Y692672D01*
X552768Y693116D01*
X553848Y693837D01*
X561330D01*
Y692259D01*
X594310D01*
Y704739D01*
D02*
G37*
G36*
X749690Y698575D02*
X748204Y698279D01*
X746943Y697437D01*
X746553Y697047D01*
X745711Y695786D01*
X745415Y694300D01*
Y679450D01*
X745711Y677963D01*
X746553Y676703D01*
X747813Y675861D01*
X749300Y675565D01*
X750787Y675861D01*
X752047Y676703D01*
X752889Y677963D01*
X753185Y679450D01*
Y693062D01*
X753279Y693203D01*
X753575Y694690D01*
X753279Y696177D01*
X752437Y697437D01*
X751177Y698279D01*
X749690Y698575D01*
D02*
G37*
G36*
X762239Y668095D02*
X752257D01*
X750770Y667799D01*
X749510Y666957D01*
X748668Y665697D01*
X748372Y664210D01*
X748668Y662723D01*
X749510Y661463D01*
X750770Y660621D01*
X752257Y660325D01*
X760630D01*
X760762Y660193D01*
X762022Y659351D01*
X763509Y659055D01*
X764540D01*
X766027Y659351D01*
X767287Y660193D01*
X768129Y661453D01*
X768425Y662940D01*
X768129Y664427D01*
X767287Y665687D01*
X766027Y666529D01*
X765262Y666681D01*
X764986Y666957D01*
X763726Y667799D01*
X762239Y668095D01*
D02*
G37*
G36*
X359410Y647752D02*
Y638810D01*
X368352D01*
X368165Y640226D01*
X367128Y642729D01*
X365479Y644879D01*
X363329Y646528D01*
X360826Y647565D01*
X359410Y647752D01*
D02*
G37*
G36*
X356870D02*
X355454Y647565D01*
X352951Y646528D01*
X350801Y644879D01*
X349152Y642729D01*
X348115Y640226D01*
X347928Y638810D01*
X356870D01*
Y647752D01*
D02*
G37*
G36*
X368352Y636270D02*
X359410D01*
Y627328D01*
X360826Y627515D01*
X363329Y628552D01*
X365479Y630201D01*
X367128Y632351D01*
X368165Y634854D01*
X368352Y636270D01*
D02*
G37*
G36*
X356870D02*
X347928D01*
X348115Y634854D01*
X349152Y632351D01*
X350801Y630201D01*
X352951Y628552D01*
X355454Y627515D01*
X356870Y627328D01*
Y636270D01*
D02*
G37*
G36*
X424180Y678927D02*
X421950Y678483D01*
X420060Y677220D01*
X418797Y675330D01*
X418361Y673141D01*
X406010Y660790D01*
X405112Y659446D01*
X404796Y657860D01*
Y647830D01*
X398650D01*
Y627250D01*
X419230D01*
Y647830D01*
X413084D01*
Y656144D01*
X424221Y667281D01*
X426410Y667717D01*
X428300Y668980D01*
X429563Y670870D01*
X430007Y673100D01*
X429563Y675330D01*
X428300Y677220D01*
X426410Y678483D01*
X424180Y678927D01*
D02*
G37*
G36*
X1134110Y586740D02*
X1113790D01*
Y556260D01*
X1134110D01*
Y586740D01*
D02*
G37*
G36*
X1057910D02*
X1037590D01*
Y556260D01*
X1057910D01*
Y586740D01*
D02*
G37*
G36*
X1108710D02*
X1088390D01*
Y556260D01*
X1094665D01*
Y554188D01*
X1094430Y554030D01*
X1093167Y552140D01*
X1092723Y549910D01*
X1093167Y547680D01*
X1094430Y545790D01*
X1096320Y544527D01*
X1098550Y544083D01*
X1100780Y544527D01*
X1102670Y545790D01*
X1103933Y547680D01*
X1104377Y549910D01*
X1103933Y552140D01*
X1102670Y554030D01*
X1102435Y554188D01*
Y556260D01*
X1108710D01*
Y586740D01*
D02*
G37*
G36*
X1083310D02*
X1062990D01*
Y556260D01*
X1069265D01*
Y552918D01*
X1069030Y552760D01*
X1067767Y550870D01*
X1067323Y548640D01*
X1067767Y546410D01*
X1069030Y544520D01*
X1070920Y543257D01*
X1073150Y542813D01*
X1075380Y543257D01*
X1077270Y544520D01*
X1078533Y546410D01*
X1078977Y548640D01*
X1078533Y550870D01*
X1077270Y552760D01*
X1077035Y552918D01*
Y556260D01*
X1083310D01*
Y586740D01*
D02*
G37*
G36*
X575310Y545134D02*
Y535940D01*
X584504D01*
X584309Y537421D01*
X583247Y539986D01*
X581557Y542187D01*
X579356Y543877D01*
X576791Y544939D01*
X575310Y545134D01*
D02*
G37*
G36*
X600710D02*
Y535940D01*
X609904D01*
X609709Y537421D01*
X608647Y539986D01*
X606957Y542187D01*
X604756Y543877D01*
X602192Y544939D01*
X600710Y545134D01*
D02*
G37*
G36*
X626110D02*
Y535940D01*
X635304D01*
X635109Y537421D01*
X634047Y539986D01*
X632357Y542187D01*
X630155Y543877D01*
X627592Y544939D01*
X626110Y545134D01*
D02*
G37*
G36*
X572770D02*
X571288Y544939D01*
X568725Y543877D01*
X566523Y542187D01*
X564833Y539986D01*
X563771Y537421D01*
X563576Y535940D01*
X572770D01*
Y545134D01*
D02*
G37*
G36*
X598170D02*
X596688Y544939D01*
X594124Y543877D01*
X591923Y542187D01*
X590233Y539986D01*
X589171Y537421D01*
X588976Y535940D01*
X598170D01*
Y545134D01*
D02*
G37*
G36*
X623570D02*
X622089Y544939D01*
X619524Y543877D01*
X617323Y542187D01*
X615633Y539986D01*
X614571Y537421D01*
X614376Y535940D01*
X623570D01*
Y545134D01*
D02*
G37*
G36*
X635304Y533400D02*
X626110D01*
Y524206D01*
X627592Y524401D01*
X630155Y525463D01*
X632357Y527153D01*
X634047Y529355D01*
X635109Y531918D01*
X635304Y533400D01*
D02*
G37*
G36*
X609904D02*
X600710D01*
Y524206D01*
X602192Y524401D01*
X604756Y525463D01*
X606957Y527153D01*
X608647Y529355D01*
X609709Y531918D01*
X609904Y533400D01*
D02*
G37*
G36*
X584504D02*
X575310D01*
Y524206D01*
X576791Y524401D01*
X579356Y525463D01*
X581557Y527153D01*
X583247Y529355D01*
X584309Y531918D01*
X584504Y533400D01*
D02*
G37*
G36*
X623570D02*
X614376D01*
X614571Y531918D01*
X615633Y529355D01*
X617323Y527153D01*
X619524Y525463D01*
X622089Y524401D01*
X623570Y524206D01*
Y533400D01*
D02*
G37*
G36*
X598170D02*
X588976D01*
X589171Y531918D01*
X590233Y529355D01*
X591923Y527153D01*
X594124Y525463D01*
X596688Y524401D01*
X598170Y524206D01*
Y533400D01*
D02*
G37*
G36*
X572770D02*
X563576D01*
X563771Y531918D01*
X564833Y529355D01*
X566523Y527153D01*
X568725Y525463D01*
X571288Y524401D01*
X572770Y524206D01*
Y533400D01*
D02*
G37*
G36*
X762380Y545210D02*
X741300D01*
Y524130D01*
X762380D01*
Y545210D01*
D02*
G37*
G36*
X726440Y545301D02*
X723689Y544939D01*
X721124Y543877D01*
X718923Y542187D01*
X717233Y539986D01*
X716171Y537421D01*
X715809Y534670D01*
X716171Y531918D01*
X717233Y529355D01*
X718923Y527153D01*
X721124Y525463D01*
X723689Y524401D01*
X726440Y524039D01*
X729192Y524401D01*
X731756Y525463D01*
X733957Y527153D01*
X735647Y529355D01*
X736709Y531918D01*
X737071Y534670D01*
X736709Y537421D01*
X735647Y539986D01*
X733957Y542187D01*
X731756Y543877D01*
X729192Y544939D01*
X726440Y545301D01*
D02*
G37*
G36*
X701040D02*
X698288Y544939D01*
X695724Y543877D01*
X693523Y542187D01*
X691833Y539986D01*
X690771Y537421D01*
X690409Y534670D01*
X690771Y531918D01*
X691833Y529355D01*
X693523Y527153D01*
X695724Y525463D01*
X698288Y524401D01*
X701040Y524039D01*
X703792Y524401D01*
X706356Y525463D01*
X708557Y527153D01*
X710247Y529355D01*
X711309Y531918D01*
X711671Y534670D01*
X711309Y537421D01*
X710247Y539986D01*
X708557Y542187D01*
X706356Y543877D01*
X703792Y544939D01*
X701040Y545301D01*
D02*
G37*
G36*
X675640D02*
X672888Y544939D01*
X670324Y543877D01*
X668123Y542187D01*
X666433Y539986D01*
X665371Y537421D01*
X665009Y534670D01*
X665371Y531918D01*
X666433Y529355D01*
X668123Y527153D01*
X670324Y525463D01*
X672888Y524401D01*
X675640Y524039D01*
X678391Y524401D01*
X680956Y525463D01*
X683157Y527153D01*
X684847Y529355D01*
X685909Y531918D01*
X686271Y534670D01*
X685909Y537421D01*
X684847Y539986D01*
X683157Y542187D01*
X680956Y543877D01*
X678391Y544939D01*
X675640Y545301D01*
D02*
G37*
%LPD*%
G36*
X523387Y933194D02*
X525520D01*
Y929984D01*
X525470Y929950D01*
X524207Y928060D01*
X523763Y925830D01*
X524207Y923600D01*
X525470Y921710D01*
X527360Y920447D01*
X529590Y920003D01*
X531820Y920447D01*
X533710Y921710D01*
X534973Y923600D01*
X535417Y925830D01*
X534973Y928060D01*
X533710Y929950D01*
X533290Y930231D01*
Y933194D01*
X535054D01*
Y938121D01*
X536227Y938607D01*
X553274Y921560D01*
X553377Y921405D01*
X553392Y921395D01*
X553403Y921380D01*
X553550Y921284D01*
X564360Y910474D01*
X564076Y909050D01*
Y902550D01*
X564448Y900681D01*
X565507Y899097D01*
X567091Y898038D01*
X568960Y897666D01*
X570829Y898038D01*
X572413Y899097D01*
X573472Y900681D01*
X573844Y902550D01*
Y909050D01*
X573482Y910869D01*
X575334Y912720D01*
X575731Y913314D01*
X577308D01*
X577900Y912044D01*
X577148Y910919D01*
X576776Y909050D01*
Y902550D01*
X577148Y900681D01*
X578207Y899097D01*
X578293Y899039D01*
Y893896D01*
X548456D01*
Y915029D01*
X548950Y915360D01*
X550213Y917250D01*
X550657Y919480D01*
X550213Y921710D01*
X548950Y923600D01*
X547060Y924863D01*
X544830Y925307D01*
X542600Y924863D01*
X540710Y923600D01*
X539447Y921710D01*
X539003Y919480D01*
X539447Y917250D01*
X540710Y915360D01*
X541204Y915029D01*
Y893896D01*
X537647D01*
X497614Y933928D01*
X497813Y934732D01*
X498105Y935234D01*
X498189Y935250D01*
X500538D01*
X501826Y935507D01*
X502919Y936236D01*
X503111Y936428D01*
X509852D01*
Y933194D01*
X521520D01*
Y944939D01*
X523387D01*
Y933194D01*
D02*
G37*
G36*
X604287Y840925D02*
Y838451D01*
X601643D01*
Y825249D01*
X603434D01*
Y821610D01*
X603434Y821610D01*
X603710Y820223D01*
X604496Y819046D01*
X623562Y799981D01*
X622936Y798811D01*
X622495Y798898D01*
X610397D01*
X605175Y804120D01*
X606667Y805612D01*
X597332Y814947D01*
X595840Y813455D01*
X585027Y824269D01*
Y842784D01*
X586297Y843169D01*
X586430Y842970D01*
X588320Y841707D01*
X589679Y841436D01*
X590058Y841057D01*
Y838451D01*
X588109D01*
Y825249D01*
X599776D01*
Y838451D01*
X597828D01*
Y842666D01*
X597532Y844153D01*
X596690Y845413D01*
X596273Y845829D01*
X596445Y847100D01*
X596878Y847395D01*
X597490Y847722D01*
X604287Y840925D01*
D02*
G37*
G36*
X623655Y833658D02*
Y812810D01*
X623655Y812810D01*
X623871Y811723D01*
X622810Y810988D01*
X610686Y823112D01*
Y823249D01*
X611263Y824112D01*
X611489Y825249D01*
X613311D01*
Y838451D01*
X611539D01*
Y842427D01*
X611263Y843814D01*
X610477Y844991D01*
X610477Y844991D01*
X597511Y857957D01*
X597905Y859358D01*
X597946Y859368D01*
X623655Y833658D01*
D02*
G37*
G36*
X598146Y890246D02*
X598146Y890246D01*
X599323Y889460D01*
X600710Y889184D01*
X600710Y889184D01*
X604288D01*
X606422Y887050D01*
X606095Y886438D01*
X605748Y885929D01*
X603560Y885493D01*
X601670Y884230D01*
X600407Y882340D01*
X599963Y880110D01*
X600407Y877880D01*
X601670Y875990D01*
X603560Y874727D01*
X605790Y874283D01*
X606373Y874399D01*
X641534Y839238D01*
Y805343D01*
X640361Y804857D01*
X630906Y814312D01*
Y835160D01*
X630906Y835160D01*
X630630Y836548D01*
X629844Y837724D01*
X629844Y837724D01*
X602028Y865540D01*
X602128Y866042D01*
X601684Y868271D01*
X600421Y870162D01*
X598531Y871425D01*
X596301Y871869D01*
X594466Y871504D01*
X593196Y872251D01*
Y893537D01*
X594369Y894023D01*
X598146Y890246D01*
D02*
G37*
G36*
X613439Y880034D02*
X658044Y835428D01*
Y821446D01*
X655137D01*
X653561Y821133D01*
X652225Y820240D01*
X651332Y818904D01*
X651018Y817327D01*
X651332Y815751D01*
X651949Y814827D01*
X651332Y813904D01*
X651018Y812328D01*
X651332Y810751D01*
X651949Y809827D01*
X651332Y808904D01*
X651018Y807327D01*
X651332Y805751D01*
X651949Y804827D01*
X651332Y803904D01*
X651040Y802439D01*
X650624Y802178D01*
X649815Y801869D01*
X648786Y802898D01*
Y840740D01*
X648786Y840740D01*
X648510Y842128D01*
X647724Y843304D01*
X612063Y878964D01*
X612087Y879589D01*
X613058Y880038D01*
X613439Y880034D01*
D02*
G37*
G36*
X415870Y803610D02*
Y796700D01*
X421306D01*
Y792586D01*
X420133Y792100D01*
X418276Y793957D01*
X417016Y794799D01*
X415529Y795095D01*
X407670D01*
X406183Y794799D01*
X404923Y793957D01*
X404081Y792697D01*
X403785Y791210D01*
X404081Y789723D01*
X404923Y788463D01*
X406183Y787621D01*
X407670Y787325D01*
X411767D01*
X411892Y786055D01*
X410759Y785830D01*
X409348Y784887D01*
X409148D01*
X407738Y785830D01*
X406073Y786161D01*
X404409Y785830D01*
X402999Y784887D01*
X402798D01*
X401387Y785830D01*
X399723Y786161D01*
X398059Y785830D01*
X396648Y784887D01*
X395706Y783477D01*
X395375Y781813D01*
Y764721D01*
X394955Y764394D01*
X394105Y764108D01*
X393700Y764379D01*
X392894Y764917D01*
X392894Y764917D01*
X392894Y764917D01*
X392076Y765080D01*
X391160Y765262D01*
X376319D01*
Y768081D01*
X347581D01*
Y765262D01*
X340518D01*
X339609Y765870D01*
X338510Y766088D01*
Y767972D01*
X324430D01*
Y766088D01*
X323331Y765870D01*
X321861Y764887D01*
X321860Y764887D01*
X317625Y760652D01*
X312161D01*
Y762261D01*
X312797Y763212D01*
X313142Y764947D01*
X313142Y764947D01*
Y786793D01*
X317790Y791440D01*
X327704D01*
Y789682D01*
X341784D01*
Y791774D01*
X349890D01*
Y790350D01*
X363970D01*
Y792108D01*
X366110D01*
X367844Y792453D01*
X369315Y793435D01*
X380709Y804829D01*
X380802Y804969D01*
X406721D01*
Y807386D01*
X412093D01*
X415870Y803610D01*
D02*
G37*
G36*
X846669Y785767D02*
X842755D01*
Y768687D01*
X850465D01*
X850991Y767417D01*
X847772Y764198D01*
X836275D01*
X834788Y763902D01*
X833528Y763060D01*
X832686Y761800D01*
X832390Y760313D01*
X832686Y758827D01*
X833528Y757567D01*
X834788Y756724D01*
X836275Y756429D01*
X849858D01*
X850294Y756342D01*
X851781Y756638D01*
X853041Y757480D01*
X853883Y758740D01*
X853936Y759005D01*
X854484Y759351D01*
X855754Y758651D01*
Y751687D01*
X859409D01*
Y739120D01*
X852079D01*
Y736258D01*
X838956D01*
X812685Y762528D01*
X813171Y763702D01*
X814317D01*
X814317Y763702D01*
X815705Y763978D01*
X816881Y764764D01*
X838224Y786106D01*
X838224Y786106D01*
X839010Y787282D01*
X839286Y788670D01*
X839286Y788670D01*
Y791229D01*
X846669D01*
Y785767D01*
D02*
G37*
G36*
X701061Y711022D02*
X702638Y710708D01*
X703478Y710019D01*
Y704795D01*
X700635Y701953D01*
X699849Y700777D01*
X699573Y699389D01*
X699573Y699389D01*
Y683076D01*
X677047D01*
X676561Y684249D01*
X690201Y697889D01*
X690201Y697889D01*
X690987Y699066D01*
X691263Y700453D01*
Y709981D01*
X692245Y710786D01*
X692638Y710708D01*
X694214Y711022D01*
X695137Y711639D01*
X696061Y711022D01*
X697637Y710708D01*
X699214Y711022D01*
X700137Y711639D01*
X701061Y711022D01*
D02*
G37*
G36*
X679040Y712940D02*
X679725Y711915D01*
X681061Y711022D01*
X682638Y710708D01*
X683030Y710786D01*
X684012Y709981D01*
Y701955D01*
X653702Y671646D01*
X635010D01*
Y679339D01*
X635010D01*
Y679559D01*
X635010D01*
Y681656D01*
X657344D01*
X658930Y681972D01*
X660274Y682870D01*
X662060Y684656D01*
X662958Y686000D01*
X663274Y687586D01*
Y698604D01*
X667140Y702470D01*
X667877Y703574D01*
X677622Y713318D01*
X679040Y712940D01*
D02*
G37*
G36*
X699573Y664608D02*
X699573Y664608D01*
X699573Y664608D01*
Y664607D01*
X699707Y663937D01*
X699849Y663221D01*
X699849Y663220D01*
X699849Y663220D01*
X700265Y662597D01*
X700467Y662295D01*
Y656287D01*
X700072Y655695D01*
X698638Y655451D01*
X690955Y663134D01*
Y670560D01*
X690659Y672047D01*
X689817Y673307D01*
X688557Y674149D01*
X687070Y674445D01*
X685583Y674149D01*
X684323Y673307D01*
X683481Y672047D01*
X683185Y670560D01*
Y661525D01*
X683481Y660038D01*
X684323Y658778D01*
X693441Y649660D01*
X693524Y649246D01*
X694366Y647985D01*
X694846Y647505D01*
X696106Y646663D01*
X697593Y646367D01*
X698533Y646554D01*
X699803Y645735D01*
Y645212D01*
X719385D01*
Y641334D01*
X717344Y639292D01*
X706302D01*
Y629212D01*
X706708D01*
Y624358D01*
X707003Y622871D01*
X707846Y621611D01*
X708875Y620581D01*
Y618519D01*
X703970D01*
Y602439D01*
X706984D01*
X707380Y601176D01*
X706116Y599286D01*
X705673Y597056D01*
X706116Y594826D01*
X707227Y593165D01*
X706826Y591895D01*
X645801D01*
X645416Y593165D01*
X646740Y594050D01*
X648003Y595940D01*
X648447Y598170D01*
X648003Y600400D01*
X646740Y602290D01*
X646246Y602621D01*
Y647468D01*
X651109Y652331D01*
X651986Y651965D01*
X652321Y651748D01*
X652600Y650346D01*
X653442Y649085D01*
X654702Y648243D01*
X656189Y647948D01*
X657143Y648137D01*
X675050D01*
X676537Y648433D01*
X677797Y649275D01*
X678639Y650536D01*
X678935Y652022D01*
X678639Y653509D01*
X677797Y654769D01*
X676537Y655611D01*
X675050Y655907D01*
X656480D01*
X656282Y656140D01*
X655880Y657102D01*
X674602Y675824D01*
X699573D01*
Y664608D01*
D02*
G37*
G36*
X651743Y663221D02*
X640056Y651534D01*
X639270Y650358D01*
X638994Y648970D01*
X638994Y648970D01*
Y602621D01*
X638500Y602290D01*
X637463Y600739D01*
X636035Y600371D01*
X622405Y614001D01*
Y641459D01*
X635010D01*
Y653939D01*
X635010D01*
Y654159D01*
X635010D01*
Y663540D01*
X635977Y664186D01*
X636185Y664394D01*
X651257D01*
X651743Y663221D01*
D02*
G37*
G36*
X727635Y601178D02*
X727400Y601020D01*
X726137Y599130D01*
X725693Y596900D01*
X726137Y594670D01*
X727142Y593165D01*
X726612Y591895D01*
X716174D01*
X715773Y593165D01*
X716883Y594826D01*
X717327Y597056D01*
X716883Y599286D01*
X716645Y599643D01*
Y602439D01*
X721550D01*
Y618519D01*
X716645D01*
Y622190D01*
X716349Y623677D01*
X715507Y624937D01*
X714477Y625967D01*
Y629212D01*
X721383D01*
Y630107D01*
X727635D01*
Y601178D01*
D02*
G37*
%LPC*%
G36*
X322580Y788745D02*
X321093Y788449D01*
X319833Y787607D01*
X318991Y786347D01*
X318695Y784860D01*
X318991Y783373D01*
X319833Y782113D01*
X324356Y777591D01*
Y776162D01*
X324651Y774676D01*
X325493Y773416D01*
X327973Y770936D01*
X329234Y770094D01*
X330720Y769798D01*
X331470D01*
X332957Y770094D01*
X334217Y770936D01*
X335059Y772196D01*
X335355Y773682D01*
X335059Y775169D01*
X334217Y776429D01*
X332957Y777271D01*
X332543Y777354D01*
X332125Y777772D01*
Y779200D01*
X331829Y780686D01*
X330987Y781947D01*
X325327Y787607D01*
X324067Y788449D01*
X322580Y788745D01*
D02*
G37*
G36*
X683090Y643812D02*
X667010D01*
Y638907D01*
X661210D01*
X661082Y639098D01*
X659192Y640361D01*
X656962Y640805D01*
X654732Y640361D01*
X652841Y639098D01*
X651578Y637208D01*
X651135Y634978D01*
X651578Y632748D01*
X652841Y630858D01*
X654732Y629594D01*
X656962Y629151D01*
X659192Y629594D01*
X661082Y630858D01*
X661269Y631137D01*
X667010D01*
Y626232D01*
X683090D01*
Y631137D01*
X687196D01*
X687534Y630912D01*
X687534Y630911D01*
X687535Y630911D01*
X688288Y630762D01*
X689020Y630616D01*
X693303D01*
Y629212D01*
X701883D01*
Y639292D01*
X693303D01*
Y638385D01*
X690323D01*
X689985Y638611D01*
X689984Y638611D01*
X689983Y638611D01*
X689251Y638757D01*
X688499Y638907D01*
X683090D01*
Y643812D01*
D02*
G37*
%LPD*%
D14*
X792819Y643500D02*
X792849Y643530D01*
X791805Y644513D02*
Y704732D01*
X792849Y643530D02*
X822861D01*
X791805Y644513D02*
X792819Y643500D01*
X789536Y640217D02*
X792819Y643500D01*
X759678Y736860D02*
X791805Y704732D01*
X807392Y762328D02*
X837347Y732373D01*
X861275D01*
X793067Y802328D02*
X794415Y800980D01*
X776138Y802328D02*
X793067D01*
X794415Y800980D02*
X806450D01*
X809410Y724880D02*
X815311D01*
X818475Y721716D01*
X819506D01*
X805180Y729110D02*
Y730610D01*
Y712860D02*
X808110Y709930D01*
X822960D01*
X642902Y588010D02*
X732790D01*
X784997Y640217D02*
X789536D01*
X732790Y588010D02*
X784997Y640217D01*
X731520Y596900D02*
Y632503D01*
X717354Y633991D02*
X730032D01*
X731520Y632503D01*
X717093Y634252D02*
X717354Y633991D01*
X618520Y612392D02*
X642902Y588010D01*
X413272Y951647D02*
X428514D01*
X429326Y950835D01*
X415290Y933450D02*
X428941D01*
X431901Y936410D01*
X454726D01*
X541900Y822960D02*
X542095Y823155D01*
Y839275D02*
X542290Y839470D01*
X619760Y731520D02*
X633435D01*
X635095Y733180D01*
X943610Y734060D02*
X967740D01*
X752257Y664210D02*
X762239D01*
X763509Y662940D01*
X764540D01*
X767080Y678180D02*
Y694300D01*
X749300D02*
X749690Y694690D01*
X749300Y679450D02*
Y694300D01*
X425123Y710148D02*
X428422Y706849D01*
X425123Y710148D02*
Y724538D01*
X428422Y706849D02*
X431071D01*
X808990Y800980D02*
X809870Y800100D01*
X824230D01*
X698500Y869070D02*
Y883920D01*
X680720Y869070D02*
X682638Y867152D01*
X680720Y869070D02*
Y883920D01*
X698110Y868680D02*
X698500Y869070D01*
X890971Y933450D02*
X901983D01*
X889460Y903017D02*
X889508Y902970D01*
X900430D01*
X748420Y864870D02*
Y873760D01*
X752103Y877443D01*
Y880993D01*
X755650Y884540D01*
Y885571D01*
X747637Y862953D02*
X748420Y864870D01*
X747637Y835828D02*
Y862953D01*
X687070Y661525D02*
X697113Y651482D01*
X687070Y661525D02*
Y670560D01*
X697113Y650732D02*
X697593Y650252D01*
X697113Y650732D02*
Y651482D01*
X717093Y667563D02*
X717550Y668020D01*
X717093Y650252D02*
Y667563D01*
X656189Y651832D02*
X656379Y652022D01*
X675050D01*
X656962Y634978D02*
X657006Y635022D01*
X675050D01*
X712760Y612866D02*
X715147Y610479D01*
X711500Y597056D02*
X712760Y598316D01*
Y610479D01*
X766690Y694690D02*
X767080Y694300D01*
X529220Y939795D02*
X529405Y939610D01*
Y926015D02*
Y939610D01*
Y926015D02*
X529590Y925830D01*
X454996Y933565D02*
X477475D01*
X454726Y933835D02*
X454996Y933565D01*
X431071Y706849D02*
X431800Y706120D01*
X552613Y793470D02*
X568814D01*
X552477Y793606D02*
X552613Y793470D01*
X808990Y783980D02*
X819779D01*
X821929Y786130D01*
X822960D01*
X836275Y760313D02*
X850208D01*
X777408Y762328D02*
X807392D01*
X1073150Y548640D02*
Y571500D01*
X1098550Y549910D02*
Y571500D01*
X969010Y681990D02*
X970280Y683260D01*
X969010Y681990D02*
X970280Y683260D01*
X969010Y681990D02*
X970280Y683260D01*
X969010Y681990D02*
X970280Y683260D01*
X969010Y681990D02*
X970280Y683260D01*
X969010Y681990D02*
X970280Y683260D01*
X969010Y681990D02*
X970280Y683260D01*
X969010Y681990D02*
X970280Y683260D01*
X967740D02*
X969010Y681990D01*
X973182Y704488D02*
X975419D01*
X969010Y708660D02*
X973182Y704488D01*
X805180Y729110D02*
X809410Y724880D01*
X647785Y928330D02*
X648320Y928865D01*
X631873Y928330D02*
X647785D01*
X691800Y897890D02*
X691975Y898065D01*
Y912955D01*
X692150Y913130D01*
X679800Y897890D02*
X680260Y898350D01*
Y912670D01*
X680720Y913130D01*
X631873Y911330D02*
X632613Y910590D01*
X647700D01*
X593943Y831850D02*
Y842666D01*
X590550Y846059D02*
X593943Y842666D01*
X590550Y846059D02*
Y847090D01*
X776138Y742328D02*
X787146D01*
X800950Y734840D02*
X805180Y730610D01*
X794634Y734840D02*
X800950D01*
X787146Y742328D02*
X794634Y734840D01*
X682638Y835828D02*
Y867152D01*
X529577Y804926D02*
X579964D01*
X618520Y612392D02*
Y647699D01*
X656336Y738260D02*
Y742328D01*
X607060Y909066D02*
X617242D01*
X712760Y612866D02*
Y622190D01*
Y610479D02*
Y612866D01*
Y610479D02*
X715147D01*
X715264Y610362D01*
X477475Y933565D02*
Y938005D01*
X759678Y736860D02*
Y768096D01*
X763910Y772328D01*
X776138D01*
X757637Y716788D02*
Y723827D01*
Y716788D02*
X766690Y707735D01*
Y694690D02*
Y707735D01*
X607060Y905800D02*
Y909066D01*
X617242D02*
X619506Y911330D01*
X631873D01*
X579964Y804926D02*
X588305Y796585D01*
X656336Y742328D02*
X664137D01*
X651256Y733180D02*
X656336Y738260D01*
X635095Y733180D02*
X651256D01*
X697344Y634501D02*
X697593Y634252D01*
X689020Y634501D02*
X697344D01*
X688499Y635022D02*
X689020Y634501D01*
X675050Y635022D02*
X688499D01*
X710592Y624358D02*
X712760Y622190D01*
X710592Y624358D02*
Y634252D01*
X966470Y709930D02*
X967740Y708660D01*
X407670Y791210D02*
X415529D01*
X418773Y787966D01*
Y772537D02*
Y787966D01*
X850208Y760313D02*
X850294Y760227D01*
Y761227D01*
X855500Y766433D01*
Y767384D01*
X859564Y771448D01*
Y773497D01*
X863294Y777227D01*
X879539D02*
X879785Y776980D01*
X863294Y777227D02*
X879539D01*
X330720Y773682D02*
X331470D01*
X328240Y776162D02*
X330720Y773682D01*
X328240Y776162D02*
Y779200D01*
X322580Y784860D02*
X328240Y779200D01*
X318693Y808125D02*
X318845Y807972D01*
X334744D01*
X833120Y717550D02*
Y717621D01*
X757637Y835828D02*
X1004738D01*
X1018540Y849630D01*
X1079025D01*
X1094740Y833915D01*
Y815340D02*
Y833915D01*
X1069340Y815340D02*
Y833556D01*
X1063426Y839470D02*
X1069340Y833556D01*
X1028700Y839470D02*
X1063426D01*
X1006557Y817327D02*
X1028700Y839470D01*
X777408Y817327D02*
X1006557D01*
X692638Y835828D02*
Y857032D01*
X694126Y858520D01*
X707390D01*
X712860Y863990D01*
Y896620D01*
X822861Y643530D02*
X902361D01*
X863294Y736522D02*
Y756697D01*
X861686Y734913D02*
X863294Y736522D01*
X664210Y705400D02*
X682638Y723827D01*
D15*
X581660Y822874D02*
Y890270D01*
X664137Y777327D02*
X665407D01*
X665241Y777494D02*
X665407Y777327D01*
X581660Y822874D02*
X609003Y795532D01*
X664137Y742328D02*
X665407D01*
X633977Y767327D02*
X664137D01*
X640699Y777327D02*
X664137D01*
X622495Y795532D02*
X640699Y777327D01*
X609003Y795532D02*
X622495D01*
X581660Y890270D02*
Y905800D01*
X492725Y938565D02*
X497928D01*
X497980Y938617D01*
X500538D01*
X501716Y939795D01*
X515686D01*
D23*
X272021Y716920D02*
D03*
Y782320D02*
D03*
D24*
X295621Y717495D02*
D03*
Y781745D02*
D03*
D25*
X300371Y736620D02*
D03*
Y743120D02*
D03*
Y749620D02*
D03*
Y756120D02*
D03*
Y762620D02*
D03*
D26*
X902361Y598530D02*
D03*
X822861D02*
D03*
X902361Y643530D02*
D03*
X822861D02*
D03*
D27*
X479150Y583820D02*
D03*
Y663320D02*
D03*
X524150Y583820D02*
D03*
Y663320D02*
D03*
D28*
X845820Y798830D02*
D03*
X860631D02*
D03*
X861275Y731520D02*
D03*
X876085D02*
D03*
D29*
X765420Y864870D02*
D03*
X748420D02*
D03*
X481260Y749300D02*
D03*
X464260D02*
D03*
X712760Y610479D02*
D03*
X695760D02*
D03*
X749690Y694690D02*
D03*
X766690D02*
D03*
X729860Y896620D02*
D03*
X712860D02*
D03*
X698110Y868680D02*
D03*
X681110D02*
D03*
D30*
X757637Y723827D02*
D03*
X752638D02*
D03*
X747637D02*
D03*
X742638D02*
D03*
X737637D02*
D03*
X732638D02*
D03*
X727637D02*
D03*
X722638D02*
D03*
X717637D02*
D03*
X712638D02*
D03*
X707637D02*
D03*
X702638D02*
D03*
X697637D02*
D03*
X692638D02*
D03*
X687637D02*
D03*
X682638D02*
D03*
Y835828D02*
D03*
X687637D02*
D03*
X692638D02*
D03*
X697637D02*
D03*
X702638D02*
D03*
X707637D02*
D03*
X712638D02*
D03*
X717637D02*
D03*
X722638D02*
D03*
X727637D02*
D03*
X732638D02*
D03*
X737637D02*
D03*
X742638D02*
D03*
X747637D02*
D03*
X752638D02*
D03*
X757637D02*
D03*
D31*
X664137Y742328D02*
D03*
Y747327D02*
D03*
Y752328D02*
D03*
Y757327D02*
D03*
Y762328D02*
D03*
Y767327D02*
D03*
Y772328D02*
D03*
Y777327D02*
D03*
Y782328D02*
D03*
Y787327D02*
D03*
Y792328D02*
D03*
Y797327D02*
D03*
Y802328D02*
D03*
Y807327D02*
D03*
Y812328D02*
D03*
Y817327D02*
D03*
X776138D02*
D03*
Y812328D02*
D03*
Y807327D02*
D03*
Y802328D02*
D03*
Y797327D02*
D03*
Y792328D02*
D03*
Y787327D02*
D03*
Y782328D02*
D03*
Y777327D02*
D03*
Y772328D02*
D03*
Y767327D02*
D03*
Y762328D02*
D03*
Y757327D02*
D03*
Y752328D02*
D03*
Y747327D02*
D03*
Y742328D02*
D03*
D32*
X635095Y750180D02*
D03*
Y733180D02*
D03*
X808990Y800980D02*
D03*
Y783980D02*
D03*
X631873Y911330D02*
D03*
Y928330D02*
D03*
X454726Y933835D02*
D03*
Y950835D02*
D03*
X429326Y933835D02*
D03*
Y950835D02*
D03*
X792819Y626500D02*
D03*
Y643500D02*
D03*
X675050Y635022D02*
D03*
Y652022D02*
D03*
X476596Y840373D02*
D03*
Y823372D02*
D03*
X805180Y712860D02*
D03*
Y729860D02*
D03*
D33*
X577820Y698499D02*
D03*
Y685799D02*
D03*
Y673099D02*
D03*
Y660399D02*
D03*
Y647699D02*
D03*
X618520D02*
D03*
Y660399D02*
D03*
Y673099D02*
D03*
Y685799D02*
D03*
Y698499D02*
D03*
D34*
X1047750Y571500D02*
D03*
X1073150D02*
D03*
X1098550D02*
D03*
X1123950D02*
D03*
X1149350D02*
D03*
X1145540Y815340D02*
D03*
X1094740D02*
D03*
X1069340D02*
D03*
X1043940D02*
D03*
X1120140D02*
D03*
D35*
X1200150Y652780D02*
D03*
Y678180D02*
D03*
Y703580D02*
D03*
Y728980D02*
D03*
Y754380D02*
D03*
X967740Y759460D02*
D03*
Y734060D02*
D03*
Y708660D02*
D03*
Y683260D02*
D03*
Y657860D02*
D03*
D36*
X863294Y760227D02*
D03*
Y777227D02*
D03*
X850294D02*
D03*
Y760227D02*
D03*
D37*
X889460Y903017D02*
D03*
X875926D02*
D03*
X529220Y939795D02*
D03*
X515686D02*
D03*
X738723Y664210D02*
D03*
X752257D02*
D03*
X593943Y831850D02*
D03*
X607477D02*
D03*
X375920Y889000D02*
D03*
X389454D02*
D03*
X877436Y933450D02*
D03*
X890971D02*
D03*
D38*
X846162Y902970D02*
D03*
X861163D02*
D03*
X863600Y933450D02*
D03*
X848600D02*
D03*
X389770Y867457D02*
D03*
X374770D02*
D03*
D39*
X607060Y961800D02*
D03*
X594360D02*
D03*
X581660D02*
D03*
X568960D02*
D03*
Y905800D02*
D03*
X581660D02*
D03*
X594360D02*
D03*
X607060D02*
D03*
D40*
X588010Y933800D02*
D03*
D41*
X399723Y724538D02*
D03*
D42*
X406073D02*
D03*
X412423D02*
D03*
X418773D02*
D03*
X425123D02*
D03*
X431473D02*
D03*
X437823D02*
D03*
X444173D02*
D03*
Y772537D02*
D03*
X437823D02*
D03*
X431473D02*
D03*
X425123D02*
D03*
X418773D02*
D03*
X412423D02*
D03*
X406073D02*
D03*
X399723D02*
D03*
D43*
X552477Y793606D02*
D03*
D44*
X529577D02*
D03*
X506678D02*
D03*
D45*
X529577Y727706D02*
D03*
D46*
X524900Y822960D02*
D03*
X541900D02*
D03*
D47*
X354796Y760730D02*
D03*
X369104D02*
D03*
X354796Y736600D02*
D03*
X369104D02*
D03*
D48*
X422910Y802990D02*
D03*
Y814990D02*
D03*
X331470Y761683D02*
D03*
Y773682D02*
D03*
X330200Y745140D02*
D03*
Y733140D02*
D03*
X356930Y796640D02*
D03*
Y808640D02*
D03*
X334744Y795973D02*
D03*
Y807972D02*
D03*
D49*
X588305Y796585D02*
D03*
X597875Y806155D02*
D03*
D50*
X500639Y811920D02*
D03*
Y828920D02*
D03*
D51*
X382129Y812800D02*
D03*
X397651D02*
D03*
D52*
X679800Y897890D02*
D03*
X691800D02*
D03*
D53*
X697593Y634252D02*
D03*
X704093D02*
D03*
X710592D02*
D03*
X717093D02*
D03*
Y650252D02*
D03*
X710592D02*
D03*
X704093D02*
D03*
X697593D02*
D03*
D66*
X487600Y933440D02*
D03*
X482600D02*
D03*
Y948690D02*
D03*
X487600D02*
D03*
D67*
X477475Y933565D02*
D03*
Y938565D02*
D03*
Y943565D02*
D03*
Y948565D02*
D03*
X492725D02*
D03*
Y943565D02*
D03*
Y938565D02*
D03*
Y933565D02*
D03*
D73*
X1172210Y911860D02*
D03*
X1146810D02*
D03*
X358140Y637540D02*
D03*
X383540D02*
D03*
D74*
X1121410Y911860D02*
D03*
X408940Y637540D02*
D03*
D75*
X742950Y884701D02*
Y895350D01*
X781050Y933450D02*
X848600D01*
X742950Y895350D02*
X781050Y933450D01*
X747522Y882807D02*
Y893456D01*
X758306Y904240D02*
X836930D01*
X747522Y893456D02*
X758306Y904240D01*
X722808Y702480D02*
X722979Y702310D01*
X722638Y723827D02*
X722808Y723657D01*
Y702480D02*
Y723657D01*
X836930Y904240D02*
X838200Y902970D01*
X759126Y797327D02*
X776138D01*
X758089Y796290D02*
X759126Y797327D01*
X756920Y796290D02*
X758089D01*
X732327Y671023D02*
Y699135D01*
X737232Y666118D02*
Y666468D01*
X732327Y671023D02*
X736095Y667255D01*
X736445D02*
X737232Y666468D01*
X736095Y667255D02*
X736445D01*
X881380Y801370D02*
Y810260D01*
Y801370D02*
X883920Y798830D01*
X894080Y810260D02*
X1003300D01*
X732790Y850900D02*
Y858520D01*
X712638Y835828D02*
X712823Y836013D01*
Y848108D01*
X747522Y882807D01*
X707637Y835828D02*
Y849389D01*
X742950Y884701D01*
X737452Y836013D02*
X737637Y835828D01*
X732790Y850900D02*
X737452Y846238D01*
Y836013D02*
Y846238D01*
X704093Y650252D02*
Y663713D01*
X703199Y664607D02*
X704093Y663713D01*
X703199Y664607D02*
Y679450D01*
X713085Y714893D02*
Y723827D01*
X717550Y668020D02*
Y683213D01*
X724281Y657183D02*
Y687055D01*
X711675Y689088D02*
X717550Y683213D01*
X716247Y695089D02*
X724281Y687055D01*
X814317Y767327D02*
X835660Y788670D01*
X836850Y798830D02*
X845820D01*
X835660Y797640D02*
X836850Y798830D01*
X835660Y788670D02*
Y797640D01*
X777408Y767327D02*
X814317D01*
X846250Y798830D02*
X850294Y794785D01*
X661670Y819150D02*
Y836930D01*
X600710Y892810D02*
X605790D01*
X661670Y836930D01*
X596350Y866091D02*
X627280Y835160D01*
X596301Y866042D02*
Y866140D01*
X594889Y867552D02*
X596301Y866140D01*
X589570Y860770D02*
Y907914D01*
X664137Y782328D02*
X665407D01*
X652577Y787513D02*
X665222D01*
X650240Y534670D02*
Y571500D01*
X642620Y579120D02*
X650240Y571500D01*
X642620Y598170D02*
Y648970D01*
X673100Y679450D01*
X654043Y792513D02*
X665222D01*
X607913Y825500D02*
Y842427D01*
X737190Y723549D02*
X737275Y723465D01*
X737452Y723288D01*
X662865Y772328D02*
Y772352D01*
X673100Y679450D02*
X703199D01*
X634683Y668020D02*
X655204D01*
X687637Y700453D01*
Y723827D01*
X703199Y679450D02*
Y699389D01*
X537210Y767080D02*
X633730D01*
X633977Y767327D01*
X633986Y772328D02*
X662865D01*
X633645Y772668D02*
X633986Y772328D01*
X776138Y752328D02*
X805487D01*
X838995Y718820D01*
X933450D01*
X942340Y709930D01*
X966470D01*
X904240Y683260D02*
X967740D01*
X875030Y712470D02*
X904240Y683260D01*
X838200Y712470D02*
X875030D01*
X833120Y717550D02*
X838200Y712470D01*
X803414Y747327D02*
X833120Y717621D01*
X776138Y747327D02*
X803414D01*
X838200Y902970D02*
X846162D01*
X861163D02*
X861210Y903017D01*
X875926D01*
X524150Y585070D02*
Y663320D01*
Y585070D02*
X529634Y590554D01*
X541917D01*
X596900Y645537D01*
X524150Y583820D02*
Y585070D01*
X596900Y645537D02*
Y664210D01*
X599440Y666750D01*
X633414D01*
X634683Y668020D01*
X737190Y723549D02*
X737637Y723827D01*
X737452Y714381D02*
Y723288D01*
X736600Y713528D02*
X737452Y714381D01*
X736600Y703408D02*
Y713528D01*
X732327Y699135D02*
X736600Y703408D01*
X850294Y777227D02*
Y794785D01*
X1003300Y810260D02*
X1109980Y703580D01*
X1200150D01*
X1093470Y913130D02*
X1120140D01*
X544830Y890270D02*
X581660D01*
X544830D02*
Y919480D01*
Y944880D02*
Y960767D01*
X565011Y980948D01*
X492725Y933565D02*
X492850D01*
X536145Y890270D01*
X544830D01*
X1077595Y897255D02*
X1093470Y913130D01*
X1120140D02*
X1121410Y911860D01*
X528320Y966470D02*
X552450Y990600D01*
X528320Y948565D02*
X530542D01*
X531521Y947586D02*
X532376D01*
X555941Y923969D02*
Y924020D01*
X1146810Y911860D02*
Y930910D01*
X1179830Y963930D01*
X528320Y948565D02*
Y966470D01*
X530542Y948565D02*
X531521Y947586D01*
X555941Y923969D02*
X555966Y923995D01*
X568488Y906272D02*
Y911474D01*
X646343Y782328D02*
X664137D01*
X607060Y821610D02*
X646343Y782328D01*
X607060Y821610D02*
Y825500D01*
X607913D01*
X589570Y860770D02*
X607913Y842427D01*
X580544Y916940D02*
X589570Y907914D01*
X573960Y916940D02*
X580544D01*
X572770Y915750D02*
X573960Y916940D01*
X572770Y915284D02*
Y915750D01*
X568960Y911474D02*
X572770Y915284D01*
X492725Y948565D02*
X528320D01*
X532376Y947586D02*
X555941Y924020D01*
X555966Y923995D02*
X568488Y911474D01*
Y906272D02*
X568960Y905800D01*
X652292Y752328D02*
X664137D01*
X643468Y761152D02*
X652292Y752328D01*
X615196Y761152D02*
X643468D01*
X732638Y820572D02*
Y835828D01*
Y820572D02*
X734060Y819150D01*
X763247D01*
X768409Y824312D01*
X857250D01*
X883920Y798830D02*
X991870D01*
X1112520Y678180D01*
X1200150D01*
X707637Y723827D02*
X707954Y723696D01*
Y714511D02*
Y723696D01*
Y714511D02*
X708000Y714465D01*
X707104Y713569D02*
X708000Y714465D01*
X707104Y703294D02*
Y713569D01*
X703199Y699389D02*
X707104Y703294D01*
X594379Y899141D02*
X600710Y892810D01*
X594379Y899141D02*
Y905781D01*
X594360Y905800D02*
X594379Y905781D01*
X487600Y933440D02*
X488153Y932887D01*
Y930920D02*
Y932887D01*
Y930920D02*
X538963Y880110D01*
X574040D01*
X605790D02*
X645160Y840740D01*
Y801396D02*
Y840740D01*
Y801396D02*
X654043Y792513D01*
X664137Y792328D02*
X665222Y792513D01*
X482600Y933440D02*
X483028Y933012D01*
Y929579D02*
Y933012D01*
Y929579D02*
X545197Y867410D01*
X572770D01*
X627280Y812810D02*
Y835160D01*
Y812810D02*
X652577Y787513D01*
X664137Y787327D02*
X665222Y787513D01*
X717093Y634252D02*
Y635002D01*
X717827Y635736D01*
X718915D01*
X723011Y639832D01*
Y655913D01*
X724281Y657183D01*
X716247Y695089D02*
Y708559D01*
X717657Y709969D01*
Y723484D01*
X710261Y650583D02*
X710592Y650252D01*
X710261Y650583D02*
Y677849D01*
X863600Y933450D02*
X877436D01*
X712638Y723827D02*
X713085D01*
X712572Y714381D02*
X713085Y714893D01*
X712572Y712572D02*
Y714381D01*
X711675Y711675D02*
X712572Y712572D01*
X711675Y689088D02*
Y711675D01*
D76*
X524900Y822960D02*
Y824960D01*
X524825Y825035D02*
X524900Y824960D01*
X518678Y825035D02*
X524825D01*
X513080Y830633D02*
Y839470D01*
Y830633D02*
X518678Y825035D01*
X402359Y889000D02*
X402424Y888934D01*
X389454Y889000D02*
X402359D01*
X524900Y822960D02*
Y841620D01*
X524510Y842010D02*
X524900Y841620D01*
X524510Y811530D02*
Y822960D01*
Y811530D02*
X529577Y806463D01*
X374770Y867457D02*
X375920Y868607D01*
Y889000D01*
D77*
X308610Y788670D02*
X315912Y795973D01*
X300371Y762620D02*
X307621D01*
X308610Y764947D02*
Y788670D01*
X307621Y762620D02*
X307716Y762715D01*
Y764053D01*
X308610Y764947D01*
X392704Y738966D02*
X442268D01*
X444353Y733432D02*
X444500Y733578D01*
X390337Y736600D02*
X392704Y738966D01*
X444500Y733578D02*
Y736735D01*
X442268Y738966D02*
X444500Y736735D01*
X369104Y736600D02*
X390337D01*
X444353Y763643D02*
X444500Y763497D01*
Y760340D02*
Y763497D01*
X442268Y758109D02*
X444500Y760340D01*
X393782Y758109D02*
X442268D01*
X391160Y760730D02*
X393782Y758109D01*
X369104Y760730D02*
X391160D01*
X300371Y756120D02*
X319503D01*
X325065Y761683D01*
X331470D01*
X337875D01*
X338827Y760730D01*
X354796D01*
X323795Y745140D02*
X330200D01*
X319315Y749620D02*
X323795Y745140D01*
X300371Y749620D02*
X319315D01*
X330200Y745140D02*
X339676D01*
X348216Y736600D01*
X354796D01*
X315912Y795973D02*
X334744D01*
X335077Y796306D01*
X356597D01*
X356930Y796640D01*
X366110D01*
X377504Y808034D01*
Y809414D01*
X380890Y812800D01*
X382129D01*
D78*
X542095Y823155D02*
Y839275D01*
X609600Y755556D02*
X615196Y761152D01*
X609600Y700675D02*
X611776Y698499D01*
X609600Y700675D02*
Y755556D01*
X611776Y698499D02*
X618520D01*
X412423Y724538D02*
X412500Y724461D01*
Y697480D02*
Y724461D01*
Y697480D02*
X412750Y697230D01*
X407670Y688340D02*
X458470D01*
X399723Y681663D02*
Y696287D01*
X407670Y688340D01*
X399723Y696287D02*
Y711200D01*
X419662Y704622D02*
X425785Y698500D01*
X419662Y704622D02*
Y712063D01*
X425785Y698500D02*
X442598D01*
X418850Y712875D02*
X419662Y712063D01*
X467750Y749300D02*
Y783980D01*
X464260Y749300D02*
X464820Y748740D01*
Y735330D02*
Y748740D01*
X418773Y724538D02*
X418850Y724461D01*
X442598Y698500D02*
X460728D01*
X418850Y712875D02*
Y724461D01*
X458470Y688340D02*
X537210Y767080D01*
X541900Y822960D02*
X553720D01*
X396581Y811530D02*
X413810D01*
X616764Y685800D02*
X657344D01*
X662865Y772352D02*
X665384D01*
X1179830Y963930D02*
X1243330Y900430D01*
X383540Y637540D02*
Y665480D01*
X399723Y681663D01*
Y724538D02*
X399925Y724485D01*
Y713767D02*
Y724485D01*
Y713767D02*
X400050Y713641D01*
Y711200D02*
Y713641D01*
X664137Y772328D02*
X665384Y772352D01*
X534896Y772668D02*
X633645D01*
X460728Y698500D02*
X534896Y772668D01*
X408940Y637540D02*
Y657860D01*
X424180Y673100D01*
X565011Y980948D02*
X993902D01*
X1077595Y897255D01*
X1120140Y815340D02*
Y854710D01*
X1077595Y897255D02*
X1120140Y854710D01*
X1200150Y728980D02*
X1216660D01*
X1243330Y755650D01*
Y900430D01*
X1153160Y990600D02*
X1179830Y963930D01*
X552450Y990600D02*
X1153160D01*
X657344Y685800D02*
X659130Y687586D01*
Y700320D01*
X664210Y705400D01*
X458831Y792899D02*
X467750Y783980D01*
X443230Y792899D02*
X458831D01*
X440103Y789772D02*
X443230Y792899D01*
X440103Y789634D02*
Y789772D01*
X437900Y787430D02*
X440103Y789634D01*
X437900Y772646D02*
Y787430D01*
X437823Y772537D02*
X437900Y772646D01*
X431473Y772537D02*
X437823D01*
X413810Y811530D02*
X419934Y805406D01*
Y805216D02*
Y805406D01*
Y805216D02*
X422160Y802990D01*
X422910D01*
X439770D01*
X460153Y823372D01*
X476596D01*
Y822623D02*
Y823372D01*
Y822623D02*
X487299Y811920D01*
X500639D01*
Y800861D02*
Y811920D01*
Y800861D02*
X506678Y794822D01*
Y793606D02*
Y794822D01*
X425450Y782248D02*
Y800394D01*
X425200Y781998D02*
X425450Y782248D01*
X425200Y773045D02*
Y781998D01*
Y773045D02*
X425309Y772936D01*
X425123Y772537D02*
X425309Y772936D01*
D79*
X1195070Y728980D02*
X1196340Y730250D01*
X1193076Y726986D02*
X1195070Y728980D01*
X967740Y734060D02*
X969156D01*
D80*
X550538Y698499D02*
X577820D01*
X529577Y727706D02*
X539750Y737879D01*
X529577Y804926D02*
Y806463D01*
Y793606D02*
Y804926D01*
Y783586D02*
Y793606D01*
X516893Y770902D02*
X529577Y783586D01*
X539750Y737879D02*
Y754380D01*
D81*
X293521Y729620D02*
D03*
Y769620D02*
D03*
D82*
X574040Y534670D02*
D03*
X599440D02*
D03*
X650240D02*
D03*
X701040D02*
D03*
X726440D02*
D03*
X675640D02*
D03*
X624840D02*
D03*
D83*
X751840D02*
D03*
D84*
X1238250Y952500D02*
D03*
X1219200Y838200D02*
D03*
Y762000D02*
D03*
X1238250Y723900D02*
D03*
Y647700D02*
D03*
X1219200Y609600D02*
D03*
X1238250Y571500D02*
D03*
X1219200Y533400D02*
D03*
X1200150Y876300D02*
D03*
X1181100Y838200D02*
D03*
X1200150Y800100D02*
D03*
X1181100Y762000D02*
D03*
Y609600D02*
D03*
X1200150Y571500D02*
D03*
X1181100Y533400D02*
D03*
X1162050Y876300D02*
D03*
X1143000Y838200D02*
D03*
X1162050Y800100D02*
D03*
X1143000Y762000D02*
D03*
X1162050Y723900D02*
D03*
X1143000Y685800D02*
D03*
X1162050Y647700D02*
D03*
X1143000Y609600D02*
D03*
X1162050Y571500D02*
D03*
X1143000Y533400D02*
D03*
X1123950Y952500D02*
D03*
Y876300D02*
D03*
X1104900Y838200D02*
D03*
Y762000D02*
D03*
X1123950Y723900D02*
D03*
Y647700D02*
D03*
X1104900Y609600D02*
D03*
Y533400D02*
D03*
X1085850Y952500D02*
D03*
Y876300D02*
D03*
X1066800Y762000D02*
D03*
Y685800D02*
D03*
X1085850Y647700D02*
D03*
X1066800Y609600D02*
D03*
Y533400D02*
D03*
X1047750Y952500D02*
D03*
X1028700Y914400D02*
D03*
X1047750Y876300D02*
D03*
Y723900D02*
D03*
X1028700Y685800D02*
D03*
X1047750Y647700D02*
D03*
X1028700Y609600D02*
D03*
Y533400D02*
D03*
X1009650Y952500D02*
D03*
X990600Y914400D02*
D03*
X1009650Y876300D02*
D03*
X990600Y762000D02*
D03*
X1009650Y723900D02*
D03*
X990600Y685800D02*
D03*
X1009650Y647700D02*
D03*
X990600Y609600D02*
D03*
X1009650Y571500D02*
D03*
X990600Y533400D02*
D03*
X971550Y952500D02*
D03*
X952500Y914400D02*
D03*
X971550Y876300D02*
D03*
X952500Y609600D02*
D03*
X971550Y571500D02*
D03*
X952500Y533400D02*
D03*
X933450Y952500D02*
D03*
X914400Y914400D02*
D03*
X933450Y876300D02*
D03*
X914400Y762000D02*
D03*
X933450Y647700D02*
D03*
X914400Y609600D02*
D03*
X933450Y571500D02*
D03*
X914400Y533400D02*
D03*
X895350Y952500D02*
D03*
X876300Y914400D02*
D03*
X895350Y876300D02*
D03*
X876300Y762000D02*
D03*
Y685800D02*
D03*
Y609600D02*
D03*
X895350Y571500D02*
D03*
X876300Y533400D02*
D03*
X857250Y952500D02*
D03*
X838200Y914400D02*
D03*
X857250Y876300D02*
D03*
X838200Y685800D02*
D03*
Y609600D02*
D03*
X857250Y571500D02*
D03*
X838200Y533400D02*
D03*
X819150Y952500D02*
D03*
X800100Y914400D02*
D03*
Y685800D02*
D03*
Y609600D02*
D03*
X819150Y571500D02*
D03*
X800100Y533400D02*
D03*
X781050Y952500D02*
D03*
Y571500D02*
D03*
X742950Y952500D02*
D03*
X723900Y914400D02*
D03*
X742950Y800100D02*
D03*
X723900Y762000D02*
D03*
X704850Y952500D02*
D03*
Y800100D02*
D03*
X685800Y762000D02*
D03*
X704850Y571500D02*
D03*
X666750Y952500D02*
D03*
Y876300D02*
D03*
Y723900D02*
D03*
Y571500D02*
D03*
X628650Y952500D02*
D03*
X609600Y609600D02*
D03*
X628650Y571500D02*
D03*
X571500Y838200D02*
D03*
X590550Y723900D02*
D03*
Y571500D02*
D03*
X552450Y952500D02*
D03*
X533400Y914400D02*
D03*
X552450Y723900D02*
D03*
X533400Y685800D02*
D03*
X552450Y647700D02*
D03*
X533400Y609600D02*
D03*
X552450Y571500D02*
D03*
X533400Y533400D02*
D03*
X514350Y876300D02*
D03*
X495300Y838200D02*
D03*
Y762000D02*
D03*
Y685800D02*
D03*
X514350Y647700D02*
D03*
X495300Y609600D02*
D03*
Y533400D02*
D03*
X457200Y914400D02*
D03*
X476250Y876300D02*
D03*
X457200Y838200D02*
D03*
X476250Y800100D02*
D03*
X457200Y762000D02*
D03*
X476250Y647700D02*
D03*
X457200Y609600D02*
D03*
Y533400D02*
D03*
X419100Y914400D02*
D03*
X438150Y876300D02*
D03*
X419100Y838200D02*
D03*
X438150Y647700D02*
D03*
X419100Y609600D02*
D03*
X438150Y571500D02*
D03*
X419100Y533400D02*
D03*
X400050Y952500D02*
D03*
X381000Y914400D02*
D03*
X400050Y876300D02*
D03*
X381000Y838200D02*
D03*
X400050Y800100D02*
D03*
X381000Y685800D02*
D03*
Y609600D02*
D03*
X400050Y571500D02*
D03*
X381000Y533400D02*
D03*
X361950Y952500D02*
D03*
X342900Y914400D02*
D03*
X361950Y876300D02*
D03*
X342900Y838200D02*
D03*
X361950Y723900D02*
D03*
X342900Y685800D02*
D03*
Y609600D02*
D03*
X361950Y571500D02*
D03*
X342900Y533400D02*
D03*
X323850Y952500D02*
D03*
X304800Y914400D02*
D03*
X323850Y876300D02*
D03*
X304800Y838200D02*
D03*
X323850Y723900D02*
D03*
X304800Y685800D02*
D03*
X323850Y647700D02*
D03*
X304800Y609600D02*
D03*
X323850Y571500D02*
D03*
X304800Y533400D02*
D03*
X285750Y952500D02*
D03*
X266700Y914400D02*
D03*
X285750Y876300D02*
D03*
X266700Y838200D02*
D03*
X285750Y800100D02*
D03*
X266700Y762000D02*
D03*
Y685800D02*
D03*
X285750Y647700D02*
D03*
X266700Y609600D02*
D03*
X285750Y571500D02*
D03*
X266700Y533400D02*
D03*
D85*
X722979Y702310D02*
D03*
X513080Y839470D02*
D03*
X756920Y796290D02*
D03*
X819506Y721716D02*
D03*
X822960Y709930D02*
D03*
X731520Y596900D02*
D03*
X413272Y951647D02*
D03*
X415290Y933450D02*
D03*
X402424Y888934D02*
D03*
X542290Y839470D02*
D03*
X524510Y842010D02*
D03*
X619760Y731520D02*
D03*
X943610Y734060D02*
D03*
X764540Y662940D02*
D03*
X767080Y678180D02*
D03*
X749300Y679450D02*
D03*
X412750Y697230D02*
D03*
X824230Y800100D02*
D03*
X698500Y883920D02*
D03*
X680720D02*
D03*
X901983Y933450D02*
D03*
X900430Y902970D02*
D03*
X881380Y810260D02*
D03*
X894080D02*
D03*
X732790Y858520D02*
D03*
X755650Y885571D02*
D03*
X687070Y670560D02*
D03*
X710261Y677849D02*
D03*
X656189Y651832D02*
D03*
X656962Y634978D02*
D03*
X711500Y597056D02*
D03*
X529590Y925830D02*
D03*
X464820Y735330D02*
D03*
X442598Y697868D02*
D03*
X431800Y706120D02*
D03*
X553720Y822960D02*
D03*
X568814Y793470D02*
D03*
X822960Y786130D02*
D03*
X835660Y760730D02*
D03*
X1073150Y548640D02*
D03*
X1098550Y549910D02*
D03*
X648320Y928865D02*
D03*
X692150Y913130D02*
D03*
X680720D02*
D03*
X647700Y910590D02*
D03*
X550538Y698499D02*
D03*
X590550Y847090D02*
D03*
X596301Y866042D02*
D03*
X642620Y579120D02*
D03*
Y598170D02*
D03*
X516893Y770902D02*
D03*
X539750Y754380D02*
D03*
X424180Y673100D02*
D03*
X407670Y791210D02*
D03*
X879785Y776980D02*
D03*
X322580Y784860D02*
D03*
X318693Y808125D02*
D03*
X544830Y919480D02*
D03*
Y944880D02*
D03*
X857250Y824312D02*
D03*
X574040Y880110D02*
D03*
X605790D02*
D03*
X572770Y867410D02*
D03*
X717550Y668020D02*
D03*
D86*
X600010Y939800D02*
D03*
Y927800D02*
D03*
X588010Y939800D02*
D03*
Y927800D02*
D03*
X576010Y939800D02*
D03*
Y927800D02*
D03*
M02*
