G04*
G04 #@! TF.GenerationSoftware,Altium Limited,Altium Designer,23.5.1 (21)*
G04*
G04 Layer_Color=16711935*
%FSLAX44Y44*%
%MOMM*%
G71*
G04*
G04 #@! TF.SameCoordinates,14FB7749-BF70-4BA2-BDF3-10CF23B172C4*
G04*
G04*
G04 #@! TF.FilePolarity,Positive*
G04*
G01*
G75*
%ADD10C,0.2000*%
G36*
X864645Y626060D02*
X864694D01*
X864828Y626046D01*
X864975Y626025D01*
X865130Y625990D01*
X865299Y625948D01*
X865454Y625892D01*
X865461D01*
X865475Y625885D01*
X865496Y625871D01*
X865524Y625856D01*
X865594Y625821D01*
X865686Y625758D01*
X865791Y625688D01*
X865897Y625596D01*
X865996Y625491D01*
X866087Y625371D01*
Y625364D01*
X866094Y625357D01*
X866108Y625336D01*
X866122Y625315D01*
X866157Y625244D01*
X866200Y625153D01*
X866249Y625040D01*
X866284Y624907D01*
X866319Y624766D01*
X866333Y624611D01*
X865714Y624562D01*
Y624569D01*
Y624583D01*
X865707Y624604D01*
X865700Y624639D01*
X865679Y624717D01*
X865651Y624822D01*
X865609Y624935D01*
X865545Y625047D01*
X865468Y625153D01*
X865369Y625251D01*
X865355Y625258D01*
X865320Y625286D01*
X865250Y625329D01*
X865158Y625371D01*
X865039Y625413D01*
X864898Y625455D01*
X864722Y625484D01*
X864525Y625491D01*
X864427D01*
X864384Y625484D01*
X864328Y625476D01*
X864201Y625462D01*
X864061Y625434D01*
X863920Y625399D01*
X863786Y625343D01*
X863730Y625308D01*
X863674Y625272D01*
X863660Y625265D01*
X863632Y625237D01*
X863589Y625188D01*
X863547Y625132D01*
X863498Y625054D01*
X863456Y624970D01*
X863428Y624871D01*
X863413Y624759D01*
Y624745D01*
Y624717D01*
X863420Y624667D01*
X863435Y624611D01*
X863456Y624541D01*
X863491Y624470D01*
X863533Y624400D01*
X863596Y624330D01*
X863603Y624323D01*
X863639Y624301D01*
X863667Y624280D01*
X863695Y624266D01*
X863737Y624245D01*
X863786Y624217D01*
X863850Y624196D01*
X863920Y624168D01*
X863997Y624140D01*
X864089Y624104D01*
X864187Y624076D01*
X864300Y624041D01*
X864427Y624013D01*
X864567Y623978D01*
X864574D01*
X864603Y623971D01*
X864645Y623964D01*
X864694Y623950D01*
X864757Y623936D01*
X864835Y623915D01*
X864912Y623893D01*
X864996Y623872D01*
X865179Y623823D01*
X865355Y623774D01*
X865440Y623746D01*
X865517Y623717D01*
X865587Y623696D01*
X865644Y623668D01*
X865651D01*
X865665Y623661D01*
X865686Y623647D01*
X865714Y623633D01*
X865791Y623591D01*
X865883Y623535D01*
X865988Y623457D01*
X866094Y623373D01*
X866193Y623274D01*
X866277Y623169D01*
X866284Y623155D01*
X866312Y623120D01*
X866340Y623056D01*
X866383Y622972D01*
X866418Y622873D01*
X866453Y622754D01*
X866474Y622620D01*
X866481Y622479D01*
Y622472D01*
Y622465D01*
Y622444D01*
Y622416D01*
X866467Y622338D01*
X866453Y622240D01*
X866425Y622127D01*
X866390Y622008D01*
X866333Y621881D01*
X866256Y621748D01*
Y621740D01*
X866249Y621734D01*
X866214Y621691D01*
X866164Y621628D01*
X866094Y621558D01*
X866003Y621473D01*
X865890Y621382D01*
X865763Y621297D01*
X865616Y621220D01*
X865609D01*
X865594Y621213D01*
X865573Y621206D01*
X865545Y621192D01*
X865503Y621178D01*
X865454Y621157D01*
X865341Y621128D01*
X865208Y621093D01*
X865046Y621058D01*
X864870Y621037D01*
X864680Y621030D01*
X864567D01*
X864511Y621037D01*
X864448D01*
X864377Y621044D01*
X864293Y621051D01*
X864117Y621079D01*
X863934Y621107D01*
X863751Y621157D01*
X863575Y621220D01*
X863568D01*
X863554Y621227D01*
X863533Y621241D01*
X863505Y621255D01*
X863420Y621297D01*
X863322Y621361D01*
X863209Y621445D01*
X863090Y621544D01*
X862977Y621663D01*
X862872Y621797D01*
Y621804D01*
X862858Y621818D01*
X862850Y621839D01*
X862829Y621867D01*
X862815Y621902D01*
X862794Y621945D01*
X862745Y622050D01*
X862696Y622184D01*
X862654Y622332D01*
X862625Y622500D01*
X862611Y622676D01*
X863216Y622733D01*
Y622725D01*
Y622719D01*
X863223Y622697D01*
Y622669D01*
X863238Y622606D01*
X863259Y622514D01*
X863287Y622423D01*
X863315Y622317D01*
X863364Y622219D01*
X863413Y622127D01*
X863420Y622120D01*
X863442Y622092D01*
X863477Y622043D01*
X863533Y621994D01*
X863603Y621931D01*
X863681Y621867D01*
X863786Y621804D01*
X863899Y621748D01*
X863906D01*
X863913Y621740D01*
X863934Y621734D01*
X863955Y621726D01*
X864025Y621705D01*
X864117Y621677D01*
X864230Y621649D01*
X864356Y621628D01*
X864497Y621614D01*
X864652Y621607D01*
X864715D01*
X864785Y621614D01*
X864870Y621621D01*
X864968Y621635D01*
X865081Y621649D01*
X865193Y621677D01*
X865299Y621712D01*
X865313Y621719D01*
X865348Y621734D01*
X865397Y621762D01*
X865461Y621790D01*
X865524Y621839D01*
X865594Y621888D01*
X865665Y621945D01*
X865721Y622015D01*
X865728Y622022D01*
X865742Y622050D01*
X865763Y622085D01*
X865791Y622141D01*
X865820Y622198D01*
X865841Y622268D01*
X865855Y622346D01*
X865862Y622430D01*
Y622437D01*
Y622472D01*
X865855Y622514D01*
X865848Y622571D01*
X865827Y622627D01*
X865806Y622697D01*
X865770Y622768D01*
X865721Y622831D01*
X865714Y622838D01*
X865693Y622859D01*
X865665Y622887D01*
X865616Y622929D01*
X865559Y622972D01*
X865482Y623021D01*
X865390Y623070D01*
X865285Y623112D01*
X865278Y623120D01*
X865243Y623126D01*
X865186Y623148D01*
X865151Y623155D01*
X865102Y623169D01*
X865053Y623190D01*
X864989Y623204D01*
X864919Y623225D01*
X864835Y623246D01*
X864750Y623267D01*
X864652Y623295D01*
X864539Y623324D01*
X864419Y623352D01*
X864413D01*
X864391Y623359D01*
X864356Y623366D01*
X864314Y623380D01*
X864258Y623394D01*
X864194Y623408D01*
X864054Y623450D01*
X863899Y623499D01*
X863737Y623549D01*
X863596Y623598D01*
X863533Y623626D01*
X863477Y623654D01*
X863470D01*
X863463Y623661D01*
X863420Y623689D01*
X863357Y623725D01*
X863287Y623781D01*
X863202Y623844D01*
X863118Y623922D01*
X863034Y624013D01*
X862963Y624112D01*
X862956Y624126D01*
X862935Y624161D01*
X862907Y624217D01*
X862879Y624287D01*
X862850Y624379D01*
X862822Y624484D01*
X862801Y624597D01*
X862794Y624717D01*
Y624724D01*
Y624731D01*
Y624752D01*
Y624780D01*
X862808Y624850D01*
X862822Y624942D01*
X862843Y625047D01*
X862879Y625167D01*
X862928Y625286D01*
X862998Y625406D01*
Y625413D01*
X863005Y625420D01*
X863040Y625462D01*
X863090Y625519D01*
X863153Y625589D01*
X863238Y625667D01*
X863343Y625751D01*
X863470Y625828D01*
X863610Y625899D01*
X863617D01*
X863632Y625906D01*
X863653Y625913D01*
X863681Y625927D01*
X863716Y625941D01*
X863765Y625955D01*
X863871Y625983D01*
X864004Y626011D01*
X864159Y626039D01*
X864321Y626060D01*
X864504Y626068D01*
X864595D01*
X864645Y626060D01*
D02*
G37*
G36*
X871849Y621114D02*
X871216D01*
X870196Y624822D01*
Y624829D01*
X870189Y624843D01*
X870182Y624864D01*
X870175Y624900D01*
X870154Y624977D01*
X870133Y625068D01*
X870105Y625167D01*
X870076Y625258D01*
X870055Y625336D01*
X870048Y625371D01*
X870041Y625392D01*
Y625385D01*
X870034Y625378D01*
X870027Y625336D01*
X870013Y625272D01*
X869992Y625195D01*
X869971Y625111D01*
X869943Y625012D01*
X869921Y624914D01*
X869893Y624822D01*
X868866Y621114D01*
X868191D01*
X866917Y625983D01*
X867586D01*
X868310Y622789D01*
Y622782D01*
X868317Y622768D01*
X868324Y622740D01*
X868331Y622704D01*
X868338Y622655D01*
X868353Y622606D01*
X868367Y622543D01*
X868381Y622472D01*
X868416Y622324D01*
X868451Y622156D01*
X868486Y621973D01*
X868521Y621790D01*
Y621797D01*
X868528Y621825D01*
X868542Y621860D01*
X868549Y621916D01*
X868564Y621973D01*
X868585Y622043D01*
X868620Y622198D01*
X868662Y622353D01*
X868676Y622430D01*
X868697Y622500D01*
X868711Y622564D01*
X868725Y622620D01*
X868739Y622662D01*
X868746Y622690D01*
X869668Y625983D01*
X870449D01*
X871139Y623513D01*
Y623507D01*
X871153Y623471D01*
X871167Y623422D01*
X871181Y623359D01*
X871202Y623274D01*
X871230Y623183D01*
X871258Y623077D01*
X871286Y622958D01*
X871322Y622824D01*
X871350Y622690D01*
X871413Y622402D01*
X871476Y622099D01*
X871526Y621790D01*
Y621797D01*
X871533Y621811D01*
Y621839D01*
X871547Y621874D01*
X871554Y621916D01*
X871568Y621966D01*
X871575Y622029D01*
X871596Y622099D01*
X871631Y622254D01*
X871673Y622437D01*
X871716Y622634D01*
X871772Y622852D01*
X872532Y625983D01*
X873186D01*
X871849Y621114D01*
D02*
G37*
G36*
X875796D02*
X875198D01*
Y624921D01*
X875191Y624914D01*
X875156Y624885D01*
X875114Y624843D01*
X875044Y624794D01*
X874966Y624731D01*
X874868Y624660D01*
X874755Y624583D01*
X874629Y624506D01*
X874621D01*
X874614Y624498D01*
X874572Y624470D01*
X874502Y624435D01*
X874417Y624393D01*
X874319Y624344D01*
X874213Y624295D01*
X874108Y624245D01*
X874002Y624203D01*
Y624780D01*
X874009D01*
X874023Y624794D01*
X874052Y624801D01*
X874087Y624822D01*
X874129Y624843D01*
X874178Y624871D01*
X874298Y624942D01*
X874438Y625019D01*
X874579Y625118D01*
X874727Y625230D01*
X874875Y625350D01*
X874882Y625357D01*
X874889Y625364D01*
X874910Y625385D01*
X874938Y625406D01*
X875001Y625476D01*
X875086Y625561D01*
X875170Y625659D01*
X875262Y625772D01*
X875339Y625885D01*
X875409Y626004D01*
X875796D01*
Y621114D01*
D02*
G37*
G36*
X503887Y622775D02*
X503878D01*
X503869D01*
X503841Y622766D01*
X503804D01*
X503721Y622747D01*
X503601Y622719D01*
X503480Y622682D01*
X503342Y622645D01*
X503212Y622581D01*
X503092Y622516D01*
X503083Y622507D01*
X503046Y622479D01*
X502981Y622433D01*
X502916Y622359D01*
X502833Y622266D01*
X502750Y622165D01*
X502667Y622026D01*
X502593Y621878D01*
Y621869D01*
X502584Y621860D01*
X502574Y621832D01*
X502565Y621804D01*
X502537Y621712D01*
X502500Y621591D01*
X502463Y621444D01*
X502436Y621277D01*
X502417Y621092D01*
X502408Y620889D01*
Y620806D01*
X502417Y620713D01*
X502426Y620602D01*
X502445Y620473D01*
X502463Y620325D01*
X502500Y620177D01*
X502547Y620038D01*
X502556Y620020D01*
X502574Y619973D01*
X502611Y619909D01*
X502648Y619826D01*
X502713Y619742D01*
X502778Y619650D01*
X502852Y619557D01*
X502944Y619483D01*
X502953Y619474D01*
X502990Y619456D01*
X503037Y619428D01*
X503111Y619391D01*
X503185Y619354D01*
X503277Y619326D01*
X503379Y619308D01*
X503490Y619299D01*
X503499D01*
X503545D01*
X503601Y619308D01*
X503675Y619317D01*
X503749Y619345D01*
X503841Y619373D01*
X503933Y619419D01*
X504017Y619483D01*
X504026Y619493D01*
X504054Y619520D01*
X504091Y619557D01*
X504146Y619622D01*
X504202Y619696D01*
X504266Y619798D01*
X504331Y619918D01*
X504387Y620057D01*
X504396Y620066D01*
X504405Y620112D01*
X504433Y620186D01*
X504442Y620232D01*
X504460Y620297D01*
X504488Y620362D01*
X504507Y620445D01*
X504534Y620537D01*
X504562Y620648D01*
X504590Y620759D01*
X504627Y620889D01*
X504664Y621037D01*
X504701Y621194D01*
Y621203D01*
X504710Y621231D01*
X504719Y621277D01*
X504738Y621333D01*
X504756Y621407D01*
X504775Y621490D01*
X504830Y621675D01*
X504895Y621878D01*
X504960Y622091D01*
X505024Y622276D01*
X505061Y622359D01*
X505098Y622433D01*
Y622442D01*
X505108Y622451D01*
X505145Y622507D01*
X505191Y622590D01*
X505265Y622682D01*
X505348Y622793D01*
X505450Y622904D01*
X505570Y623015D01*
X505699Y623108D01*
X505718Y623117D01*
X505764Y623145D01*
X505838Y623182D01*
X505931Y623219D01*
X506051Y623256D01*
X506189Y623293D01*
X506337Y623320D01*
X506495Y623330D01*
X506504D01*
X506513D01*
X506541D01*
X506578D01*
X506670Y623311D01*
X506790Y623293D01*
X506929Y623265D01*
X507086Y623219D01*
X507243Y623154D01*
X507401Y623062D01*
X507410D01*
X507419Y623052D01*
X507475Y623006D01*
X507549Y622941D01*
X507641Y622858D01*
X507743Y622747D01*
X507854Y622608D01*
X507955Y622442D01*
X508048Y622257D01*
Y622248D01*
X508057Y622229D01*
X508066Y622202D01*
X508085Y622165D01*
X508103Y622118D01*
X508122Y622054D01*
X508159Y621915D01*
X508196Y621739D01*
X508233Y621536D01*
X508260Y621323D01*
X508270Y621083D01*
Y620963D01*
X508260Y620898D01*
Y620833D01*
X508242Y620658D01*
X508214Y620464D01*
X508168Y620260D01*
X508112Y620038D01*
X508039Y619835D01*
Y619826D01*
X508029Y619807D01*
X508011Y619779D01*
X507992Y619742D01*
X507946Y619650D01*
X507863Y619530D01*
X507771Y619391D01*
X507650Y619252D01*
X507512Y619123D01*
X507354Y619003D01*
X507345D01*
X507336Y618993D01*
X507308Y618975D01*
X507280Y618956D01*
X507188Y618910D01*
X507068Y618855D01*
X506920Y618790D01*
X506744Y618744D01*
X506559Y618698D01*
X506356Y618679D01*
X506291Y619493D01*
X506300D01*
X506319D01*
X506347Y619502D01*
X506393Y619511D01*
X506495Y619539D01*
X506633Y619576D01*
X506781Y619632D01*
X506929Y619715D01*
X507068Y619816D01*
X507197Y619946D01*
X507206Y619964D01*
X507243Y620010D01*
X507299Y620103D01*
X507354Y620223D01*
X507410Y620380D01*
X507465Y620565D01*
X507502Y620796D01*
X507512Y621055D01*
Y621185D01*
X507502Y621240D01*
X507493Y621314D01*
X507475Y621481D01*
X507438Y621665D01*
X507391Y621850D01*
X507317Y622026D01*
X507271Y622100D01*
X507225Y622174D01*
X507216Y622192D01*
X507179Y622229D01*
X507114Y622285D01*
X507040Y622340D01*
X506938Y622405D01*
X506827Y622461D01*
X506698Y622498D01*
X506550Y622516D01*
X506531D01*
X506495D01*
X506430Y622507D01*
X506356Y622488D01*
X506263Y622461D01*
X506171Y622414D01*
X506078Y622359D01*
X505986Y622276D01*
X505977Y622266D01*
X505949Y622220D01*
X505921Y622183D01*
X505903Y622146D01*
X505875Y622091D01*
X505838Y622026D01*
X505810Y621943D01*
X505773Y621850D01*
X505736Y621749D01*
X505690Y621628D01*
X505653Y621499D01*
X505607Y621351D01*
X505570Y621185D01*
X505524Y621000D01*
Y620991D01*
X505514Y620954D01*
X505505Y620898D01*
X505487Y620833D01*
X505468Y620750D01*
X505441Y620648D01*
X505413Y620547D01*
X505385Y620436D01*
X505320Y620195D01*
X505256Y619964D01*
X505219Y619853D01*
X505182Y619752D01*
X505154Y619659D01*
X505117Y619585D01*
Y619576D01*
X505108Y619557D01*
X505089Y619530D01*
X505071Y619493D01*
X505015Y619391D01*
X504941Y619271D01*
X504840Y619132D01*
X504729Y618993D01*
X504599Y618864D01*
X504460Y618753D01*
X504442Y618744D01*
X504396Y618707D01*
X504313Y618670D01*
X504202Y618614D01*
X504072Y618568D01*
X503915Y618522D01*
X503739Y618494D01*
X503554Y618485D01*
X503545D01*
X503536D01*
X503508D01*
X503471D01*
X503370Y618503D01*
X503240Y618522D01*
X503092Y618559D01*
X502935Y618605D01*
X502769Y618679D01*
X502593Y618781D01*
X502584D01*
X502574Y618790D01*
X502519Y618836D01*
X502436Y618901D01*
X502343Y618993D01*
X502232Y619114D01*
X502112Y619262D01*
X502001Y619428D01*
X501899Y619622D01*
Y619632D01*
X501890Y619650D01*
X501881Y619678D01*
X501862Y619715D01*
X501844Y619770D01*
X501816Y619835D01*
X501779Y619983D01*
X501733Y620158D01*
X501687Y620371D01*
X501659Y620602D01*
X501650Y620852D01*
Y621000D01*
X501659Y621074D01*
Y621157D01*
X501668Y621249D01*
X501678Y621360D01*
X501715Y621591D01*
X501752Y621832D01*
X501816Y622072D01*
X501899Y622303D01*
Y622313D01*
X501909Y622331D01*
X501927Y622359D01*
X501946Y622396D01*
X502001Y622507D01*
X502084Y622636D01*
X502195Y622784D01*
X502325Y622941D01*
X502482Y623089D01*
X502658Y623228D01*
X502667D01*
X502685Y623246D01*
X502713Y623256D01*
X502750Y623284D01*
X502796Y623302D01*
X502852Y623330D01*
X502990Y623394D01*
X503166Y623459D01*
X503360Y623515D01*
X503582Y623552D01*
X503813Y623570D01*
X503887Y622775D01*
D02*
G37*
G36*
X508159Y617033D02*
X503961Y616081D01*
X503952D01*
X503933Y616072D01*
X503897Y616063D01*
X503850Y616053D01*
X503786Y616044D01*
X503721Y616026D01*
X503638Y616007D01*
X503545Y615989D01*
X503351Y615942D01*
X503129Y615896D01*
X502889Y615850D01*
X502648Y615804D01*
X502658D01*
X502695Y615794D01*
X502741Y615776D01*
X502815Y615767D01*
X502889Y615748D01*
X502981Y615721D01*
X503185Y615674D01*
X503388Y615619D01*
X503490Y615600D01*
X503582Y615573D01*
X503665Y615554D01*
X503739Y615536D01*
X503795Y615517D01*
X503832Y615508D01*
X508159Y614297D01*
Y613270D01*
X504914Y612364D01*
X504904D01*
X504858Y612346D01*
X504793Y612327D01*
X504710Y612309D01*
X504599Y612281D01*
X504479Y612244D01*
X504340Y612207D01*
X504183Y612170D01*
X504007Y612124D01*
X503832Y612087D01*
X503453Y612004D01*
X503055Y611921D01*
X502648Y611856D01*
X502658D01*
X502676Y611847D01*
X502713D01*
X502759Y611828D01*
X502815Y611819D01*
X502879Y611800D01*
X502963Y611791D01*
X503055Y611763D01*
X503259Y611717D01*
X503499Y611662D01*
X503758Y611606D01*
X504044Y611532D01*
X508159Y610534D01*
Y609674D01*
X501761Y611431D01*
Y612263D01*
X506633Y613603D01*
X506642D01*
X506661Y613613D01*
X506689Y613622D01*
X506735Y613631D01*
X506837Y613659D01*
X506957Y613686D01*
X507086Y613723D01*
X507206Y613760D01*
X507308Y613788D01*
X507354Y613797D01*
X507382Y613807D01*
X507373D01*
X507364Y613816D01*
X507308Y613825D01*
X507225Y613844D01*
X507123Y613871D01*
X507012Y613899D01*
X506883Y613936D01*
X506753Y613964D01*
X506633Y614001D01*
X501761Y615351D01*
Y616238D01*
X508159Y617912D01*
Y617033D01*
D02*
G37*
G36*
X501936Y609304D02*
X502020Y609295D01*
X502112Y609276D01*
X502205Y609258D01*
X502306Y609221D01*
X502316D01*
X502325Y609212D01*
X502380Y609193D01*
X502463Y609156D01*
X502574Y609101D01*
X502704Y609027D01*
X502852Y608934D01*
X503000Y608833D01*
X503157Y608703D01*
X503166D01*
X503175Y608685D01*
X503231Y608638D01*
X503314Y608555D01*
X503434Y608435D01*
X503573Y608296D01*
X503739Y608121D01*
X503924Y607908D01*
X504118Y607677D01*
X504128Y607668D01*
X504155Y607631D01*
X504202Y607575D01*
X504257Y607510D01*
X504331Y607427D01*
X504414Y607326D01*
X504507Y607224D01*
X504608Y607104D01*
X504830Y606872D01*
X505052Y606641D01*
X505163Y606530D01*
X505274Y606429D01*
X505376Y606336D01*
X505478Y606262D01*
X505487D01*
X505496Y606244D01*
X505524Y606225D01*
X505561Y606207D01*
X505662Y606142D01*
X505783Y606068D01*
X505931Y606003D01*
X506088Y605939D01*
X506263Y605902D01*
X506430Y605883D01*
X506439D01*
X506448D01*
X506504Y605892D01*
X506596Y605902D01*
X506698Y605929D01*
X506827Y605966D01*
X506957Y606031D01*
X507086Y606114D01*
X507216Y606225D01*
X507234Y606244D01*
X507271Y606290D01*
X507317Y606355D01*
X507382Y606456D01*
X507438Y606586D01*
X507493Y606734D01*
X507530Y606909D01*
X507539Y607104D01*
Y607159D01*
X507530Y607196D01*
X507521Y607307D01*
X507493Y607436D01*
X507456Y607575D01*
X507391Y607732D01*
X507308Y607880D01*
X507197Y608019D01*
X507179Y608037D01*
X507132Y608074D01*
X507058Y608130D01*
X506948Y608185D01*
X506818Y608250D01*
X506652Y608306D01*
X506467Y608343D01*
X506254Y608361D01*
X506337Y609165D01*
X506347D01*
X506374Y609156D01*
X506421D01*
X506485Y609147D01*
X506559Y609128D01*
X506642Y609110D01*
X506744Y609082D01*
X506846Y609054D01*
X507068Y608980D01*
X507290Y608870D01*
X507401Y608805D01*
X507512Y608722D01*
X507613Y608638D01*
X507706Y608546D01*
X507715Y608537D01*
X507724Y608518D01*
X507752Y608490D01*
X507780Y608444D01*
X507817Y608389D01*
X507854Y608324D01*
X507900Y608250D01*
X507946Y608158D01*
X507992Y608056D01*
X508039Y607945D01*
X508076Y607825D01*
X508112Y607695D01*
X508140Y607557D01*
X508168Y607409D01*
X508177Y607252D01*
X508186Y607085D01*
Y606993D01*
X508177Y606928D01*
X508168Y606854D01*
X508159Y606762D01*
X508140Y606660D01*
X508122Y606558D01*
X508057Y606318D01*
X507965Y606077D01*
X507909Y605957D01*
X507844Y605837D01*
X507761Y605726D01*
X507669Y605624D01*
X507659Y605615D01*
X507650Y605597D01*
X507613Y605578D01*
X507576Y605541D01*
X507530Y605495D01*
X507465Y605449D01*
X507401Y605402D01*
X507317Y605347D01*
X507142Y605255D01*
X506920Y605162D01*
X506809Y605125D01*
X506679Y605107D01*
X506550Y605088D01*
X506411Y605079D01*
X506393D01*
X506347D01*
X506273Y605088D01*
X506171Y605097D01*
X506060Y605116D01*
X505931Y605153D01*
X505792Y605190D01*
X505653Y605245D01*
X505635Y605255D01*
X505588Y605273D01*
X505514Y605310D01*
X505413Y605365D01*
X505302Y605439D01*
X505163Y605532D01*
X505024Y605643D01*
X504867Y605772D01*
X504849Y605791D01*
X504793Y605837D01*
X504747Y605883D01*
X504701Y605929D01*
X504645Y605985D01*
X504571Y606059D01*
X504497Y606133D01*
X504414Y606225D01*
X504322Y606318D01*
X504220Y606429D01*
X504118Y606549D01*
X503998Y606678D01*
X503878Y606826D01*
X503749Y606974D01*
X503739Y606983D01*
X503721Y607002D01*
X503693Y607039D01*
X503656Y607085D01*
X503601Y607141D01*
X503545Y607205D01*
X503425Y607353D01*
X503286Y607510D01*
X503148Y607658D01*
X503027Y607788D01*
X502981Y607843D01*
X502935Y607890D01*
X502926Y607899D01*
X502898Y607926D01*
X502861Y607963D01*
X502806Y608010D01*
X502741Y608056D01*
X502676Y608111D01*
X502519Y608222D01*
Y605070D01*
X501761D01*
Y609313D01*
X501770D01*
X501807D01*
X501862D01*
X501936Y609304D01*
D02*
G37*
G36*
X855638Y803860D02*
X855702Y803853D01*
X855779Y803846D01*
X855856Y803839D01*
X855948Y803818D01*
X856138Y803776D01*
X856349Y803713D01*
X856454Y803671D01*
X856553Y803621D01*
X856652Y803558D01*
X856750Y803495D01*
X856757Y803488D01*
X856771Y803481D01*
X856799Y803459D01*
X856834Y803424D01*
X856870Y803389D01*
X856919Y803340D01*
X856968Y803283D01*
X857024Y803227D01*
X857081Y803157D01*
X857137Y803073D01*
X857200Y802988D01*
X857257Y802897D01*
X857306Y802791D01*
X857362Y802685D01*
X857404Y802573D01*
X857447Y802446D01*
X856813Y802299D01*
Y802306D01*
X856806Y802320D01*
X856792Y802348D01*
X856778Y802383D01*
X856764Y802425D01*
X856743Y802482D01*
X856687Y802594D01*
X856616Y802721D01*
X856532Y802847D01*
X856426Y802967D01*
X856314Y803073D01*
X856300Y803086D01*
X856257Y803115D01*
X856187Y803150D01*
X856096Y803199D01*
X855976Y803241D01*
X855842Y803283D01*
X855681Y803312D01*
X855505Y803319D01*
X855448D01*
X855413Y803312D01*
X855364D01*
X855308Y803305D01*
X855174Y803283D01*
X855026Y803255D01*
X854872Y803206D01*
X854710Y803136D01*
X854562Y803044D01*
X854555D01*
X854548Y803030D01*
X854499Y802995D01*
X854435Y802939D01*
X854358Y802854D01*
X854266Y802749D01*
X854182Y802629D01*
X854105Y802482D01*
X854034Y802320D01*
Y802313D01*
X854027Y802299D01*
X854020Y802277D01*
X854013Y802242D01*
X853999Y802200D01*
X853985Y802151D01*
X853964Y802031D01*
X853936Y801890D01*
X853908Y801736D01*
X853894Y801567D01*
X853886Y801384D01*
Y801377D01*
Y801356D01*
Y801320D01*
Y801278D01*
X853894Y801229D01*
Y801166D01*
X853901Y801095D01*
X853908Y801018D01*
X853929Y800849D01*
X853964Y800666D01*
X854006Y800483D01*
X854062Y800300D01*
Y800293D01*
X854069Y800279D01*
X854083Y800258D01*
X854098Y800223D01*
X854140Y800138D01*
X854203Y800040D01*
X854280Y799928D01*
X854379Y799808D01*
X854492Y799702D01*
X854625Y799604D01*
X854632D01*
X854646Y799597D01*
X854668Y799583D01*
X854696Y799569D01*
X854731Y799555D01*
X854773Y799533D01*
X854872Y799491D01*
X854998Y799449D01*
X855139Y799414D01*
X855294Y799386D01*
X855455Y799379D01*
X855505D01*
X855547Y799386D01*
X855596D01*
X855645Y799393D01*
X855772Y799421D01*
X855920Y799456D01*
X856068Y799512D01*
X856222Y799590D01*
X856300Y799632D01*
X856370Y799688D01*
X856377Y799695D01*
X856384Y799702D01*
X856405Y799723D01*
X856433Y799744D01*
X856462Y799780D01*
X856497Y799822D01*
X856539Y799864D01*
X856574Y799920D01*
X856616Y799984D01*
X856666Y800054D01*
X856708Y800125D01*
X856750Y800209D01*
X856785Y800300D01*
X856820Y800399D01*
X856856Y800504D01*
X856884Y800617D01*
X857531Y800455D01*
Y800448D01*
X857524Y800420D01*
X857510Y800378D01*
X857489Y800322D01*
X857468Y800258D01*
X857440Y800181D01*
X857404Y800096D01*
X857362Y800005D01*
X857264Y799808D01*
X857137Y799611D01*
X857060Y799512D01*
X856982Y799414D01*
X856898Y799329D01*
X856799Y799245D01*
X856792Y799238D01*
X856778Y799224D01*
X856743Y799210D01*
X856708Y799182D01*
X856652Y799146D01*
X856595Y799111D01*
X856518Y799076D01*
X856441Y799041D01*
X856349Y798999D01*
X856251Y798964D01*
X856145Y798928D01*
X856032Y798893D01*
X855913Y798865D01*
X855786Y798851D01*
X855652Y798837D01*
X855512Y798830D01*
X855434D01*
X855378Y798837D01*
X855315D01*
X855237Y798844D01*
X855153Y798858D01*
X855054Y798872D01*
X854850Y798907D01*
X854639Y798964D01*
X854428Y799041D01*
X854330Y799090D01*
X854231Y799146D01*
X854224Y799154D01*
X854210Y799161D01*
X854182Y799182D01*
X854154Y799210D01*
X854112Y799238D01*
X854062Y799280D01*
X854006Y799329D01*
X853950Y799386D01*
X853894Y799449D01*
X853830Y799512D01*
X853704Y799674D01*
X853584Y799864D01*
X853478Y800075D01*
Y800082D01*
X853464Y800103D01*
X853457Y800138D01*
X853436Y800181D01*
X853422Y800237D01*
X853401Y800307D01*
X853373Y800385D01*
X853352Y800469D01*
X853331Y800561D01*
X853303Y800666D01*
X853267Y800884D01*
X853239Y801131D01*
X853225Y801384D01*
Y801391D01*
Y801419D01*
Y801461D01*
X853232Y801510D01*
Y801581D01*
X853239Y801651D01*
X853246Y801743D01*
X853260Y801834D01*
X853296Y802038D01*
X853345Y802263D01*
X853415Y802488D01*
X853514Y802707D01*
X853521Y802714D01*
X853528Y802735D01*
X853542Y802763D01*
X853570Y802798D01*
X853598Y802847D01*
X853633Y802904D01*
X853725Y803030D01*
X853844Y803171D01*
X853985Y803312D01*
X854147Y803452D01*
X854337Y803572D01*
X854344Y803579D01*
X854365Y803586D01*
X854393Y803600D01*
X854428Y803621D01*
X854484Y803642D01*
X854541Y803663D01*
X854611Y803692D01*
X854689Y803720D01*
X854773Y803748D01*
X854865Y803776D01*
X855061Y803818D01*
X855287Y803853D01*
X855519Y803867D01*
X855589D01*
X855638Y803860D01*
D02*
G37*
G36*
X859768Y803797D02*
X859825Y803790D01*
X859888Y803783D01*
X859958Y803776D01*
X860029Y803755D01*
X860198Y803713D01*
X860367Y803649D01*
X860451Y803607D01*
X860535Y803558D01*
X860613Y803495D01*
X860690Y803431D01*
X860697Y803424D01*
X860704Y803417D01*
X860725Y803396D01*
X860753Y803368D01*
X860782Y803326D01*
X860817Y803283D01*
X860887Y803178D01*
X860957Y803044D01*
X861021Y802889D01*
X861070Y802714D01*
X861077Y802622D01*
X861084Y802524D01*
Y802517D01*
Y802510D01*
Y802467D01*
X861077Y802404D01*
X861063Y802327D01*
X861042Y802228D01*
X861007Y802130D01*
X860965Y802031D01*
X860901Y801933D01*
X860894Y801919D01*
X860866Y801890D01*
X860824Y801848D01*
X860768Y801792D01*
X860690Y801729D01*
X860599Y801665D01*
X860493Y801602D01*
X860367Y801546D01*
X860374D01*
X860388Y801539D01*
X860409Y801532D01*
X860437Y801517D01*
X860521Y801482D01*
X860620Y801433D01*
X860725Y801363D01*
X860838Y801285D01*
X860943Y801187D01*
X861042Y801074D01*
Y801067D01*
X861049Y801060D01*
X861077Y801018D01*
X861119Y800948D01*
X861161Y800856D01*
X861204Y800744D01*
X861246Y800610D01*
X861274Y800462D01*
X861281Y800300D01*
Y800293D01*
Y800272D01*
Y800237D01*
X861274Y800195D01*
X861267Y800146D01*
X861260Y800082D01*
X861246Y800012D01*
X861225Y799934D01*
X861176Y799773D01*
X861140Y799681D01*
X861091Y799597D01*
X861042Y799505D01*
X860986Y799421D01*
X860915Y799336D01*
X860838Y799252D01*
X860831Y799245D01*
X860817Y799231D01*
X860796Y799210D01*
X860760Y799189D01*
X860711Y799154D01*
X860662Y799118D01*
X860599Y799083D01*
X860528Y799041D01*
X860451Y798999D01*
X860359Y798964D01*
X860261Y798928D01*
X860162Y798893D01*
X860050Y798872D01*
X859930Y798851D01*
X859811Y798837D01*
X859677Y798830D01*
X859607D01*
X859557Y798837D01*
X859494Y798844D01*
X859424Y798851D01*
X859346Y798865D01*
X859262Y798886D01*
X859072Y798935D01*
X858973Y798971D01*
X858882Y799006D01*
X858783Y799055D01*
X858685Y799111D01*
X858593Y799175D01*
X858509Y799252D01*
X858502Y799259D01*
X858488Y799273D01*
X858467Y799294D01*
X858439Y799329D01*
X858410Y799372D01*
X858368Y799421D01*
X858333Y799477D01*
X858291Y799548D01*
X858249Y799618D01*
X858214Y799702D01*
X858143Y799878D01*
X858115Y799984D01*
X858094Y800089D01*
X858080Y800202D01*
X858073Y800314D01*
Y800322D01*
Y800335D01*
Y800364D01*
X858080Y800392D01*
Y800434D01*
X858087Y800483D01*
X858101Y800596D01*
X858129Y800723D01*
X858171Y800849D01*
X858235Y800983D01*
X858312Y801109D01*
Y801116D01*
X858326Y801124D01*
X858354Y801159D01*
X858410Y801215D01*
X858488Y801285D01*
X858586Y801356D01*
X858706Y801433D01*
X858840Y801496D01*
X859001Y801546D01*
X858995D01*
X858987Y801553D01*
X858966Y801560D01*
X858938Y801574D01*
X858875Y801602D01*
X858790Y801644D01*
X858699Y801701D01*
X858607Y801771D01*
X858523Y801848D01*
X858446Y801933D01*
X858439Y801947D01*
X858418Y801975D01*
X858389Y802031D01*
X858361Y802102D01*
X858326Y802193D01*
X858298Y802299D01*
X858277Y802418D01*
X858270Y802545D01*
Y802552D01*
Y802566D01*
Y802594D01*
X858277Y802636D01*
X858284Y802679D01*
X858291Y802735D01*
X858319Y802854D01*
X858361Y802995D01*
X858432Y803143D01*
X858474Y803220D01*
X858523Y803298D01*
X858586Y803368D01*
X858650Y803438D01*
X858657Y803445D01*
X858671Y803452D01*
X858692Y803474D01*
X858720Y803495D01*
X858755Y803523D01*
X858804Y803551D01*
X858861Y803586D01*
X858917Y803621D01*
X858987Y803656D01*
X859065Y803692D01*
X859149Y803720D01*
X859241Y803748D01*
X859438Y803790D01*
X859550Y803797D01*
X859663Y803804D01*
X859726D01*
X859768Y803797D01*
D02*
G37*
G36*
X1150333Y912122D02*
Y912113D01*
Y912086D01*
Y912049D01*
Y911993D01*
X1150323Y911919D01*
Y911845D01*
X1150305Y911669D01*
X1150286Y911466D01*
X1150249Y911253D01*
X1150194Y911059D01*
X1150129Y910874D01*
Y910865D01*
X1150120Y910856D01*
X1150092Y910800D01*
X1150046Y910726D01*
X1149981Y910625D01*
X1149889Y910523D01*
X1149787Y910412D01*
X1149658Y910301D01*
X1149510Y910209D01*
X1149491Y910199D01*
X1149436Y910172D01*
X1149352Y910135D01*
X1149232Y910098D01*
X1149084Y910051D01*
X1148918Y910014D01*
X1148733Y909987D01*
X1148530Y909978D01*
X1148447D01*
X1148391Y909987D01*
X1148317Y909996D01*
X1148243Y910005D01*
X1148049Y910042D01*
X1147846Y910098D01*
X1147633Y910181D01*
X1147522Y910236D01*
X1147420Y910301D01*
X1147328Y910375D01*
X1147235Y910458D01*
X1147226Y910468D01*
X1147217Y910477D01*
X1147198Y910514D01*
X1147171Y910551D01*
X1147134Y910597D01*
X1147097Y910662D01*
X1147060Y910736D01*
X1147013Y910819D01*
X1146976Y910911D01*
X1146939Y911022D01*
X1146902Y911133D01*
X1146865Y911263D01*
X1146847Y911401D01*
X1146819Y911559D01*
X1146810Y911716D01*
Y911891D01*
X1147577Y912002D01*
Y911993D01*
Y911975D01*
Y911938D01*
X1147587Y911882D01*
X1147596Y911827D01*
Y911762D01*
X1147624Y911605D01*
X1147651Y911438D01*
X1147707Y911272D01*
X1147762Y911124D01*
X1147799Y911059D01*
X1147846Y911004D01*
X1147855Y910995D01*
X1147892Y910967D01*
X1147947Y910921D01*
X1148021Y910874D01*
X1148123Y910819D01*
X1148234Y910782D01*
X1148372Y910745D01*
X1148520Y910736D01*
X1148576D01*
X1148631Y910745D01*
X1148715Y910754D01*
X1148798Y910773D01*
X1148890Y910791D01*
X1148983Y910828D01*
X1149075Y910874D01*
X1149084Y910884D01*
X1149112Y910902D01*
X1149149Y910939D01*
X1149205Y910976D01*
X1149251Y911041D01*
X1149306Y911105D01*
X1149352Y911180D01*
X1149389Y911272D01*
Y911281D01*
X1149408Y911318D01*
X1149417Y911383D01*
X1149436Y911466D01*
X1149454Y911577D01*
X1149464Y911716D01*
X1149482Y911882D01*
Y912076D01*
Y916487D01*
X1150333D01*
Y912122D01*
D02*
G37*
G36*
X1153670Y916505D02*
X1153744Y916496D01*
X1153837Y916487D01*
X1153938Y916468D01*
X1154040Y916450D01*
X1154280Y916385D01*
X1154521Y916292D01*
X1154641Y916237D01*
X1154761Y916172D01*
X1154872Y916089D01*
X1154974Y915996D01*
X1154983Y915987D01*
X1155002Y915978D01*
X1155020Y915941D01*
X1155057Y915904D01*
X1155103Y915858D01*
X1155150Y915793D01*
X1155196Y915728D01*
X1155251Y915645D01*
X1155344Y915469D01*
X1155436Y915247D01*
X1155473Y915137D01*
X1155492Y915007D01*
X1155510Y914878D01*
X1155519Y914739D01*
Y914721D01*
Y914674D01*
X1155510Y914600D01*
X1155501Y914499D01*
X1155482Y914388D01*
X1155445Y914258D01*
X1155408Y914120D01*
X1155353Y913981D01*
X1155344Y913962D01*
X1155325Y913916D01*
X1155288Y913842D01*
X1155233Y913740D01*
X1155159Y913630D01*
X1155066Y913491D01*
X1154955Y913352D01*
X1154826Y913195D01*
X1154807Y913176D01*
X1154761Y913121D01*
X1154715Y913075D01*
X1154669Y913029D01*
X1154613Y912973D01*
X1154539Y912899D01*
X1154465Y912825D01*
X1154373Y912742D01*
X1154280Y912650D01*
X1154169Y912548D01*
X1154049Y912446D01*
X1153920Y912326D01*
X1153772Y912206D01*
X1153624Y912076D01*
X1153615Y912067D01*
X1153596Y912049D01*
X1153559Y912021D01*
X1153513Y911984D01*
X1153458Y911928D01*
X1153393Y911873D01*
X1153245Y911753D01*
X1153088Y911614D01*
X1152940Y911475D01*
X1152810Y911355D01*
X1152755Y911309D01*
X1152709Y911263D01*
X1152699Y911253D01*
X1152672Y911226D01*
X1152635Y911189D01*
X1152589Y911133D01*
X1152542Y911068D01*
X1152487Y911004D01*
X1152376Y910847D01*
X1155529D01*
Y910089D01*
X1151285D01*
Y910098D01*
Y910135D01*
Y910190D01*
X1151294Y910264D01*
X1151303Y910347D01*
X1151322Y910440D01*
X1151340Y910532D01*
X1151377Y910634D01*
Y910643D01*
X1151387Y910652D01*
X1151405Y910708D01*
X1151442Y910791D01*
X1151497Y910902D01*
X1151572Y911032D01*
X1151664Y911180D01*
X1151766Y911327D01*
X1151895Y911485D01*
Y911494D01*
X1151914Y911503D01*
X1151960Y911559D01*
X1152043Y911642D01*
X1152163Y911762D01*
X1152302Y911901D01*
X1152478Y912067D01*
X1152690Y912252D01*
X1152921Y912446D01*
X1152931Y912455D01*
X1152968Y912483D01*
X1153023Y912529D01*
X1153088Y912585D01*
X1153171Y912659D01*
X1153273Y912742D01*
X1153374Y912834D01*
X1153495Y912936D01*
X1153726Y913158D01*
X1153957Y913380D01*
X1154068Y913491D01*
X1154169Y913602D01*
X1154262Y913704D01*
X1154336Y913805D01*
Y913814D01*
X1154354Y913824D01*
X1154373Y913851D01*
X1154391Y913888D01*
X1154456Y913990D01*
X1154530Y914110D01*
X1154595Y914258D01*
X1154660Y914415D01*
X1154697Y914591D01*
X1154715Y914758D01*
Y914767D01*
Y914776D01*
X1154706Y914831D01*
X1154697Y914924D01*
X1154669Y915026D01*
X1154632Y915155D01*
X1154567Y915285D01*
X1154484Y915414D01*
X1154373Y915543D01*
X1154354Y915562D01*
X1154308Y915599D01*
X1154243Y915645D01*
X1154142Y915710D01*
X1154012Y915765D01*
X1153864Y915821D01*
X1153689Y915858D01*
X1153495Y915867D01*
X1153439D01*
X1153402Y915858D01*
X1153291Y915848D01*
X1153162Y915821D01*
X1153023Y915784D01*
X1152866Y915719D01*
X1152718Y915636D01*
X1152579Y915525D01*
X1152561Y915506D01*
X1152524Y915460D01*
X1152468Y915386D01*
X1152413Y915275D01*
X1152348Y915146D01*
X1152293Y914979D01*
X1152256Y914794D01*
X1152237Y914582D01*
X1151433Y914665D01*
Y914674D01*
X1151442Y914702D01*
Y914748D01*
X1151451Y914813D01*
X1151470Y914887D01*
X1151488Y914970D01*
X1151516Y915072D01*
X1151544Y915174D01*
X1151618Y915396D01*
X1151729Y915617D01*
X1151793Y915728D01*
X1151877Y915839D01*
X1151960Y915941D01*
X1152052Y916033D01*
X1152061Y916043D01*
X1152080Y916052D01*
X1152108Y916080D01*
X1152154Y916107D01*
X1152209Y916144D01*
X1152274Y916181D01*
X1152348Y916228D01*
X1152441Y916274D01*
X1152542Y916320D01*
X1152653Y916366D01*
X1152773Y916403D01*
X1152903Y916440D01*
X1153042Y916468D01*
X1153189Y916496D01*
X1153347Y916505D01*
X1153513Y916514D01*
X1153605D01*
X1153670Y916505D01*
D02*
G37*
G36*
X377059Y639413D02*
X377133Y639404D01*
X377216Y639395D01*
X377309Y639376D01*
X377410Y639358D01*
X377632Y639302D01*
X377863Y639210D01*
X377983Y639154D01*
X378094Y639090D01*
X378205Y639006D01*
X378316Y638923D01*
X378326Y638914D01*
X378344Y638895D01*
X378372Y638868D01*
X378399Y638831D01*
X378446Y638784D01*
X378492Y638720D01*
X378547Y638655D01*
X378603Y638572D01*
X378658Y638479D01*
X378714Y638387D01*
X378815Y638165D01*
X378899Y637906D01*
X378926Y637767D01*
X378945Y637620D01*
X378159Y637518D01*
Y637527D01*
X378150Y637546D01*
X378141Y637583D01*
X378131Y637629D01*
X378122Y637684D01*
X378104Y637749D01*
X378057Y637888D01*
X377993Y638054D01*
X377909Y638211D01*
X377817Y638359D01*
X377706Y638489D01*
X377687Y638498D01*
X377651Y638535D01*
X377577Y638581D01*
X377484Y638627D01*
X377373Y638683D01*
X377234Y638729D01*
X377077Y638766D01*
X376911Y638775D01*
X376855D01*
X376818Y638766D01*
X376717Y638757D01*
X376587Y638729D01*
X376439Y638683D01*
X376282Y638618D01*
X376125Y638526D01*
X375977Y638396D01*
X375959Y638378D01*
X375912Y638322D01*
X375857Y638239D01*
X375783Y638128D01*
X375709Y637989D01*
X375653Y637832D01*
X375607Y637647D01*
X375589Y637444D01*
Y637435D01*
Y637416D01*
Y637388D01*
X375598Y637351D01*
X375607Y637250D01*
X375635Y637130D01*
X375672Y636982D01*
X375737Y636834D01*
X375829Y636686D01*
X375949Y636547D01*
X375968Y636529D01*
X376014Y636492D01*
X376088Y636436D01*
X376190Y636371D01*
X376319Y636307D01*
X376476Y636251D01*
X376652Y636214D01*
X376846Y636196D01*
X376929D01*
X376994Y636205D01*
X377077Y636214D01*
X377170Y636233D01*
X377281Y636251D01*
X377401Y636279D01*
X377309Y635586D01*
X377262D01*
X377225Y635595D01*
X377105D01*
X377003Y635576D01*
X376883Y635558D01*
X376744Y635530D01*
X376587Y635484D01*
X376439Y635419D01*
X376282Y635336D01*
X376273D01*
X376264Y635327D01*
X376217Y635290D01*
X376153Y635225D01*
X376079Y635142D01*
X376005Y635022D01*
X375940Y634883D01*
X375894Y634726D01*
X375875Y634633D01*
Y634532D01*
Y634522D01*
Y634513D01*
Y634458D01*
X375894Y634384D01*
X375912Y634282D01*
X375949Y634171D01*
X375996Y634051D01*
X376070Y633931D01*
X376171Y633820D01*
X376180Y633810D01*
X376227Y633773D01*
X376291Y633727D01*
X376375Y633672D01*
X376486Y633625D01*
X376615Y633579D01*
X376763Y633542D01*
X376929Y633533D01*
X377003D01*
X377087Y633551D01*
X377197Y633570D01*
X377318Y633607D01*
X377438Y633653D01*
X377567Y633727D01*
X377687Y633820D01*
X377697Y633829D01*
X377734Y633875D01*
X377789Y633940D01*
X377854Y634032D01*
X377919Y634152D01*
X377983Y634300D01*
X378039Y634476D01*
X378076Y634679D01*
X378862Y634541D01*
Y634532D01*
X378853Y634504D01*
X378843Y634467D01*
X378834Y634411D01*
X378815Y634347D01*
X378788Y634273D01*
X378732Y634097D01*
X378640Y633894D01*
X378529Y633690D01*
X378390Y633496D01*
X378214Y633320D01*
X378205Y633311D01*
X378187Y633302D01*
X378159Y633283D01*
X378122Y633256D01*
X378076Y633219D01*
X378011Y633182D01*
X377946Y633145D01*
X377863Y633098D01*
X377678Y633024D01*
X377466Y632951D01*
X377216Y632904D01*
X377087Y632886D01*
X376855D01*
X376754Y632895D01*
X376633Y632914D01*
X376486Y632941D01*
X376319Y632988D01*
X376153Y633043D01*
X375986Y633117D01*
X375977D01*
X375968Y633126D01*
X375912Y633154D01*
X375829Y633209D01*
X375737Y633274D01*
X375626Y633367D01*
X375515Y633468D01*
X375404Y633588D01*
X375311Y633727D01*
X375302Y633746D01*
X375274Y633792D01*
X375238Y633875D01*
X375191Y633977D01*
X375145Y634097D01*
X375108Y634236D01*
X375080Y634393D01*
X375071Y634550D01*
Y634568D01*
Y634624D01*
X375080Y634698D01*
X375099Y634800D01*
X375126Y634920D01*
X375173Y635049D01*
X375228Y635179D01*
X375302Y635308D01*
X375311Y635327D01*
X375339Y635364D01*
X375395Y635428D01*
X375469Y635502D01*
X375561Y635586D01*
X375672Y635678D01*
X375801Y635761D01*
X375959Y635844D01*
X375949D01*
X375931Y635854D01*
X375903Y635863D01*
X375866Y635872D01*
X375765Y635909D01*
X375635Y635965D01*
X375487Y636039D01*
X375339Y636131D01*
X375201Y636251D01*
X375071Y636390D01*
X375062Y636408D01*
X375025Y636464D01*
X374969Y636556D01*
X374914Y636676D01*
X374858Y636824D01*
X374803Y637000D01*
X374766Y637203D01*
X374757Y637425D01*
Y637435D01*
Y637462D01*
Y637509D01*
X374766Y637564D01*
X374775Y637638D01*
X374794Y637721D01*
X374812Y637814D01*
X374831Y637915D01*
X374905Y638137D01*
X374960Y638257D01*
X375016Y638368D01*
X375089Y638489D01*
X375173Y638609D01*
X375265Y638729D01*
X375376Y638840D01*
X375385Y638849D01*
X375404Y638868D01*
X375441Y638895D01*
X375487Y638932D01*
X375543Y638979D01*
X375616Y639025D01*
X375700Y639080D01*
X375801Y639127D01*
X375903Y639182D01*
X376023Y639238D01*
X376143Y639284D01*
X376282Y639330D01*
X376430Y639367D01*
X376587Y639395D01*
X376744Y639413D01*
X376920Y639422D01*
X377003D01*
X377059Y639413D01*
D02*
G37*
G36*
X381959D02*
X382033Y639404D01*
X382107Y639395D01*
X382301Y639358D01*
X382505Y639302D01*
X382717Y639219D01*
X382828Y639164D01*
X382930Y639099D01*
X383022Y639025D01*
X383115Y638942D01*
X383124Y638932D01*
X383133Y638923D01*
X383152Y638886D01*
X383179Y638849D01*
X383216Y638803D01*
X383253Y638738D01*
X383290Y638664D01*
X383337Y638581D01*
X383374Y638489D01*
X383411Y638378D01*
X383447Y638267D01*
X383484Y638137D01*
X383503Y637999D01*
X383531Y637841D01*
X383540Y637684D01*
Y637509D01*
X382773Y637398D01*
Y637407D01*
Y637425D01*
Y637462D01*
X382763Y637518D01*
X382754Y637573D01*
Y637638D01*
X382726Y637795D01*
X382699Y637962D01*
X382643Y638128D01*
X382588Y638276D01*
X382551Y638341D01*
X382505Y638396D01*
X382495Y638405D01*
X382458Y638433D01*
X382403Y638479D01*
X382329Y638526D01*
X382227Y638581D01*
X382116Y638618D01*
X381978Y638655D01*
X381830Y638664D01*
X381774D01*
X381719Y638655D01*
X381635Y638646D01*
X381552Y638627D01*
X381460Y638609D01*
X381367Y638572D01*
X381275Y638526D01*
X381266Y638516D01*
X381238Y638498D01*
X381201Y638461D01*
X381145Y638424D01*
X381099Y638359D01*
X381044Y638294D01*
X380998Y638220D01*
X380961Y638128D01*
Y638119D01*
X380942Y638082D01*
X380933Y638017D01*
X380914Y637934D01*
X380896Y637823D01*
X380886Y637684D01*
X380868Y637518D01*
Y637324D01*
Y632914D01*
X380017D01*
Y637277D01*
Y637287D01*
Y637314D01*
Y637351D01*
Y637407D01*
X380027Y637481D01*
Y637555D01*
X380045Y637730D01*
X380064Y637934D01*
X380101Y638147D01*
X380156Y638341D01*
X380221Y638526D01*
Y638535D01*
X380230Y638544D01*
X380258Y638600D01*
X380304Y638674D01*
X380369Y638775D01*
X380461Y638877D01*
X380563Y638988D01*
X380692Y639099D01*
X380840Y639191D01*
X380859Y639201D01*
X380914Y639228D01*
X380998Y639265D01*
X381118Y639302D01*
X381266Y639348D01*
X381432Y639385D01*
X381617Y639413D01*
X381820Y639422D01*
X381903D01*
X381959Y639413D01*
D02*
G37*
G36*
X856795Y775185D02*
X852988D01*
X852995Y775179D01*
X853023Y775143D01*
X853065Y775101D01*
X853115Y775031D01*
X853178Y774953D01*
X853248Y774855D01*
X853326Y774742D01*
X853403Y774616D01*
Y774609D01*
X853410Y774602D01*
X853438Y774559D01*
X853474Y774489D01*
X853516Y774405D01*
X853565Y774306D01*
X853614Y774201D01*
X853663Y774095D01*
X853706Y773989D01*
X853129D01*
Y773997D01*
X853115Y774011D01*
X853108Y774039D01*
X853087Y774074D01*
X853065Y774116D01*
X853037Y774165D01*
X852967Y774285D01*
X852890Y774426D01*
X852791Y774566D01*
X852679Y774714D01*
X852559Y774862D01*
X852552Y774869D01*
X852545Y774876D01*
X852524Y774897D01*
X852503Y774925D01*
X852432Y774988D01*
X852348Y775073D01*
X852249Y775157D01*
X852137Y775249D01*
X852024Y775326D01*
X851905Y775397D01*
Y775784D01*
X856795D01*
Y775185D01*
D02*
G37*
G36*
X854733Y771253D02*
X856795D01*
Y770605D01*
X854733D01*
X851926Y768727D01*
Y769508D01*
X853403Y770464D01*
X853410D01*
X853424Y770479D01*
X853445Y770493D01*
X853474Y770507D01*
X853509Y770535D01*
X853551Y770563D01*
X853656Y770626D01*
X853783Y770704D01*
X853924Y770788D01*
X854072Y770880D01*
X854226Y770964D01*
X854219D01*
X854205Y770971D01*
X854184Y770985D01*
X854156Y771006D01*
X854121Y771027D01*
X854079Y771056D01*
X853973Y771119D01*
X853847Y771196D01*
X853699Y771288D01*
X853537Y771393D01*
X853361Y771506D01*
X851926Y772442D01*
Y773194D01*
X854733Y771253D01*
D02*
G37*
G36*
X871093Y736550D02*
X871156Y736543D01*
X871234Y736536D01*
X871311Y736529D01*
X871403Y736508D01*
X871593Y736466D01*
X871804Y736403D01*
X871909Y736360D01*
X872008Y736311D01*
X872106Y736248D01*
X872205Y736185D01*
X872212Y736178D01*
X872226Y736171D01*
X872254Y736149D01*
X872289Y736114D01*
X872324Y736079D01*
X872374Y736030D01*
X872423Y735974D01*
X872479Y735917D01*
X872535Y735847D01*
X872592Y735762D01*
X872655Y735678D01*
X872711Y735586D01*
X872761Y735481D01*
X872817Y735376D01*
X872859Y735263D01*
X872901Y735136D01*
X872268Y734988D01*
Y734995D01*
X872261Y735010D01*
X872247Y735038D01*
X872233Y735073D01*
X872219Y735115D01*
X872198Y735171D01*
X872141Y735284D01*
X872071Y735411D01*
X871987Y735537D01*
X871881Y735657D01*
X871769Y735762D01*
X871755Y735777D01*
X871712Y735805D01*
X871642Y735840D01*
X871551Y735889D01*
X871431Y735931D01*
X871297Y735974D01*
X871135Y736002D01*
X870959Y736009D01*
X870903D01*
X870868Y736002D01*
X870819D01*
X870762Y735995D01*
X870629Y735974D01*
X870481Y735945D01*
X870326Y735896D01*
X870164Y735826D01*
X870017Y735734D01*
X870010D01*
X870003Y735720D01*
X869953Y735685D01*
X869890Y735629D01*
X869813Y735544D01*
X869721Y735439D01*
X869637Y735319D01*
X869559Y735171D01*
X869489Y735010D01*
Y735003D01*
X869482Y734988D01*
X869475Y734967D01*
X869468Y734932D01*
X869454Y734890D01*
X869440Y734841D01*
X869419Y734721D01*
X869390Y734580D01*
X869362Y734426D01*
X869348Y734257D01*
X869341Y734074D01*
Y734067D01*
Y734046D01*
Y734010D01*
Y733968D01*
X869348Y733919D01*
Y733856D01*
X869355Y733785D01*
X869362Y733708D01*
X869383Y733539D01*
X869419Y733356D01*
X869461Y733173D01*
X869517Y732990D01*
Y732983D01*
X869524Y732969D01*
X869538Y732948D01*
X869552Y732913D01*
X869594Y732829D01*
X869658Y732730D01*
X869735Y732617D01*
X869834Y732498D01*
X869946Y732392D01*
X870080Y732294D01*
X870087D01*
X870101Y732287D01*
X870122Y732273D01*
X870150Y732259D01*
X870185Y732244D01*
X870228Y732223D01*
X870326Y732181D01*
X870453Y732139D01*
X870594Y732104D01*
X870748Y732076D01*
X870910Y732069D01*
X870959D01*
X871002Y732076D01*
X871051D01*
X871100Y732083D01*
X871227Y732111D01*
X871375Y732146D01*
X871522Y732202D01*
X871677Y732280D01*
X871755Y732322D01*
X871825Y732378D01*
X871832Y732385D01*
X871839Y732392D01*
X871860Y732413D01*
X871888Y732434D01*
X871916Y732470D01*
X871952Y732512D01*
X871994Y732554D01*
X872029Y732610D01*
X872071Y732674D01*
X872120Y732744D01*
X872163Y732814D01*
X872205Y732899D01*
X872240Y732990D01*
X872275Y733089D01*
X872310Y733194D01*
X872338Y733307D01*
X872986Y733145D01*
Y733138D01*
X872979Y733110D01*
X872965Y733068D01*
X872943Y733011D01*
X872922Y732948D01*
X872894Y732871D01*
X872859Y732786D01*
X872817Y732695D01*
X872718Y732498D01*
X872592Y732301D01*
X872514Y732202D01*
X872437Y732104D01*
X872353Y732019D01*
X872254Y731935D01*
X872247Y731928D01*
X872233Y731914D01*
X872198Y731900D01*
X872163Y731872D01*
X872106Y731836D01*
X872050Y731801D01*
X871973Y731766D01*
X871895Y731731D01*
X871804Y731689D01*
X871705Y731654D01*
X871600Y731618D01*
X871487Y731583D01*
X871367Y731555D01*
X871241Y731541D01*
X871107Y731527D01*
X870966Y731520D01*
X870889D01*
X870833Y731527D01*
X870770D01*
X870692Y731534D01*
X870608Y731548D01*
X870509Y731562D01*
X870305Y731597D01*
X870094Y731654D01*
X869883Y731731D01*
X869784Y731780D01*
X869686Y731836D01*
X869679Y731843D01*
X869665Y731851D01*
X869637Y731872D01*
X869609Y731900D01*
X869566Y731928D01*
X869517Y731970D01*
X869461Y732019D01*
X869405Y732076D01*
X869348Y732139D01*
X869285Y732202D01*
X869158Y732364D01*
X869039Y732554D01*
X868933Y732765D01*
Y732772D01*
X868919Y732793D01*
X868912Y732829D01*
X868891Y732871D01*
X868877Y732927D01*
X868856Y732997D01*
X868828Y733075D01*
X868807Y733159D01*
X868785Y733251D01*
X868757Y733356D01*
X868722Y733574D01*
X868694Y733821D01*
X868680Y734074D01*
Y734081D01*
Y734109D01*
Y734151D01*
X868687Y734201D01*
Y734271D01*
X868694Y734341D01*
X868701Y734433D01*
X868715Y734524D01*
X868750Y734728D01*
X868800Y734953D01*
X868870Y735179D01*
X868968Y735397D01*
X868975Y735404D01*
X868982Y735425D01*
X868997Y735453D01*
X869025Y735488D01*
X869053Y735537D01*
X869088Y735594D01*
X869179Y735720D01*
X869299Y735861D01*
X869440Y736002D01*
X869602Y736142D01*
X869791Y736262D01*
X869799Y736269D01*
X869820Y736276D01*
X869848Y736290D01*
X869883Y736311D01*
X869939Y736332D01*
X869995Y736353D01*
X870066Y736382D01*
X870143Y736410D01*
X870228Y736438D01*
X870319Y736466D01*
X870516Y736508D01*
X870741Y736543D01*
X870974Y736557D01*
X871044D01*
X871093Y736550D01*
D02*
G37*
G36*
X876729Y735938D02*
X876722Y735931D01*
X876708Y735917D01*
X876680Y735889D01*
X876651Y735847D01*
X876609Y735798D01*
X876553Y735741D01*
X876497Y735671D01*
X876433Y735586D01*
X876370Y735502D01*
X876293Y735404D01*
X876215Y735291D01*
X876138Y735179D01*
X876053Y735052D01*
X875969Y734918D01*
X875884Y734770D01*
X875800Y734623D01*
X875793Y734616D01*
X875779Y734587D01*
X875758Y734545D01*
X875723Y734482D01*
X875687Y734405D01*
X875645Y734320D01*
X875596Y734222D01*
X875547Y734109D01*
X875490Y733982D01*
X875427Y733856D01*
X875371Y733715D01*
X875315Y733567D01*
X875202Y733265D01*
X875097Y732941D01*
Y732934D01*
X875089Y732913D01*
X875082Y732878D01*
X875068Y732835D01*
X875054Y732779D01*
X875040Y732709D01*
X875019Y732632D01*
X875005Y732547D01*
X874984Y732449D01*
X874963Y732343D01*
X874928Y732118D01*
X874893Y731872D01*
X874871Y731604D01*
X874259D01*
Y731611D01*
Y731632D01*
Y731661D01*
X874266Y731703D01*
Y731759D01*
X874273Y731829D01*
X874280Y731907D01*
X874287Y731991D01*
X874302Y732090D01*
X874315Y732188D01*
X874337Y732308D01*
X874358Y732428D01*
X874379Y732554D01*
X874407Y732695D01*
X874477Y732983D01*
Y732990D01*
X874484Y733018D01*
X874499Y733061D01*
X874520Y733124D01*
X874541Y733194D01*
X874569Y733279D01*
X874597Y733377D01*
X874639Y733483D01*
X874681Y733602D01*
X874724Y733722D01*
X874829Y733989D01*
X874956Y734271D01*
X875097Y734552D01*
X875104Y734559D01*
X875118Y734587D01*
X875139Y734623D01*
X875167Y734679D01*
X875202Y734742D01*
X875251Y734820D01*
X875301Y734904D01*
X875357Y734995D01*
X875490Y735200D01*
X875631Y735411D01*
X875793Y735629D01*
X875962Y735833D01*
X873577D01*
Y736410D01*
X876729D01*
Y735938D01*
D02*
G37*
G36*
X882693Y898149D02*
X880435D01*
X880379Y898156D01*
X880315D01*
X880167Y898163D01*
X880013Y898184D01*
X879844Y898205D01*
X879689Y898240D01*
X879612Y898261D01*
X879548Y898282D01*
X879541D01*
X879534Y898289D01*
X879492Y898311D01*
X879429Y898339D01*
X879351Y898388D01*
X879267Y898451D01*
X879175Y898536D01*
X879091Y898634D01*
X879007Y898747D01*
Y898754D01*
X878999Y898761D01*
X878971Y898803D01*
X878943Y898874D01*
X878901Y898965D01*
X878866Y899071D01*
X878831Y899197D01*
X878810Y899331D01*
X878802Y899479D01*
Y899486D01*
Y899500D01*
Y899528D01*
X878810Y899563D01*
Y899612D01*
X878817Y899661D01*
X878845Y899781D01*
X878887Y899922D01*
X878943Y900070D01*
X879028Y900217D01*
X879084Y900288D01*
X879140Y900358D01*
X879147Y900365D01*
X879154Y900372D01*
X879175Y900393D01*
X879204Y900414D01*
X879239Y900443D01*
X879281Y900471D01*
X879337Y900506D01*
X879393Y900548D01*
X879464Y900583D01*
X879541Y900618D01*
X879626Y900661D01*
X879717Y900696D01*
X879823Y900724D01*
X879928Y900759D01*
X880048Y900780D01*
X880174Y900801D01*
X880160Y900808D01*
X880132Y900822D01*
X880090Y900851D01*
X880034Y900879D01*
X879907Y900956D01*
X879844Y901005D01*
X879788Y901048D01*
X879773Y901062D01*
X879738Y901097D01*
X879682Y901153D01*
X879612Y901223D01*
X879534Y901322D01*
X879443Y901428D01*
X879351Y901554D01*
X879253Y901695D01*
X878416Y903018D01*
X879218D01*
X879858Y902004D01*
Y901997D01*
X879872Y901983D01*
X879886Y901962D01*
X879907Y901934D01*
X879956Y901857D01*
X880020Y901758D01*
X880097Y901653D01*
X880174Y901540D01*
X880252Y901434D01*
X880322Y901336D01*
X880329Y901329D01*
X880350Y901301D01*
X880386Y901259D01*
X880435Y901209D01*
X880540Y901104D01*
X880597Y901055D01*
X880653Y901012D01*
X880660Y901005D01*
X880674Y900998D01*
X880702Y900984D01*
X880744Y900963D01*
X880787Y900942D01*
X880836Y900921D01*
X880948Y900886D01*
X880956D01*
X880970Y900879D01*
X880998D01*
X881033Y900872D01*
X881082Y900865D01*
X881138D01*
X881216Y900858D01*
X882046D01*
Y903018D01*
X882693D01*
Y898149D01*
D02*
G37*
G36*
X876382Y899211D02*
X876389Y899218D01*
X876424Y899246D01*
X876467Y899289D01*
X876537Y899338D01*
X876614Y899401D01*
X876713Y899472D01*
X876825Y899549D01*
X876952Y899626D01*
X876959D01*
X876966Y899633D01*
X877008Y899661D01*
X877079Y899697D01*
X877163Y899739D01*
X877262Y899788D01*
X877367Y899837D01*
X877473Y899887D01*
X877578Y899929D01*
Y899352D01*
X877571D01*
X877557Y899338D01*
X877529Y899331D01*
X877494Y899310D01*
X877452Y899289D01*
X877402Y899260D01*
X877283Y899190D01*
X877142Y899113D01*
X877001Y899014D01*
X876854Y898902D01*
X876706Y898782D01*
X876699Y898775D01*
X876692Y898768D01*
X876671Y898747D01*
X876643Y898726D01*
X876579Y898655D01*
X876495Y898571D01*
X876410Y898472D01*
X876319Y898360D01*
X876242Y898247D01*
X876171Y898128D01*
X875784D01*
Y903018D01*
X876382D01*
Y899211D01*
D02*
G37*
G36*
X860058Y905970D02*
X860114Y905963D01*
X860185Y905956D01*
X860262Y905942D01*
X860340Y905928D01*
X860523Y905879D01*
X860705Y905809D01*
X860797Y905766D01*
X860888Y905717D01*
X860973Y905654D01*
X861050Y905583D01*
X861057Y905576D01*
X861071Y905569D01*
X861085Y905541D01*
X861114Y905513D01*
X861149Y905478D01*
X861184Y905429D01*
X861219Y905379D01*
X861261Y905316D01*
X861332Y905182D01*
X861402Y905014D01*
X861430Y904929D01*
X861444Y904831D01*
X861458Y904732D01*
X861465Y904627D01*
Y904613D01*
Y904577D01*
X861458Y904521D01*
X861451Y904444D01*
X861437Y904359D01*
X861409Y904261D01*
X861381Y904155D01*
X861339Y904050D01*
X861332Y904036D01*
X861318Y904000D01*
X861289Y903944D01*
X861247Y903867D01*
X861191Y903782D01*
X861121Y903677D01*
X861036Y903571D01*
X860938Y903452D01*
X860923Y903438D01*
X860888Y903395D01*
X860853Y903360D01*
X860818Y903325D01*
X860776Y903283D01*
X860720Y903226D01*
X860663Y903170D01*
X860593Y903107D01*
X860523Y903036D01*
X860438Y902959D01*
X860347Y902882D01*
X860248Y902790D01*
X860135Y902699D01*
X860023Y902600D01*
X860016Y902593D01*
X860002Y902579D01*
X859974Y902558D01*
X859939Y902530D01*
X859896Y902488D01*
X859847Y902446D01*
X859734Y902354D01*
X859615Y902249D01*
X859502Y902143D01*
X859404Y902051D01*
X859362Y902016D01*
X859326Y901981D01*
X859319Y901974D01*
X859298Y901953D01*
X859270Y901925D01*
X859235Y901883D01*
X859200Y901833D01*
X859157Y901784D01*
X859073Y901665D01*
X861472D01*
Y901088D01*
X858243D01*
Y901095D01*
Y901123D01*
Y901165D01*
X858250Y901221D01*
X858257Y901285D01*
X858271Y901355D01*
X858285Y901425D01*
X858313Y901503D01*
Y901510D01*
X858320Y901517D01*
X858334Y901559D01*
X858363Y901622D01*
X858405Y901707D01*
X858461Y901805D01*
X858531Y901918D01*
X858609Y902030D01*
X858707Y902150D01*
Y902157D01*
X858721Y902164D01*
X858756Y902206D01*
X858820Y902270D01*
X858911Y902361D01*
X859017Y902467D01*
X859150Y902593D01*
X859312Y902734D01*
X859488Y902882D01*
X859495Y902889D01*
X859523Y902910D01*
X859566Y902945D01*
X859615Y902987D01*
X859678Y903044D01*
X859756Y903107D01*
X859833Y903177D01*
X859924Y903255D01*
X860100Y903423D01*
X860276Y903592D01*
X860361Y903677D01*
X860438Y903761D01*
X860508Y903839D01*
X860565Y903916D01*
Y903923D01*
X860579Y903930D01*
X860593Y903951D01*
X860607Y903979D01*
X860656Y904057D01*
X860712Y904148D01*
X860762Y904261D01*
X860811Y904380D01*
X860839Y904514D01*
X860853Y904641D01*
Y904648D01*
Y904655D01*
X860846Y904697D01*
X860839Y904767D01*
X860818Y904845D01*
X860790Y904943D01*
X860741Y905042D01*
X860677Y905140D01*
X860593Y905239D01*
X860579Y905253D01*
X860544Y905281D01*
X860494Y905316D01*
X860417Y905365D01*
X860318Y905407D01*
X860206Y905450D01*
X860072Y905478D01*
X859924Y905485D01*
X859882D01*
X859854Y905478D01*
X859770Y905471D01*
X859671Y905450D01*
X859566Y905422D01*
X859446Y905372D01*
X859333Y905309D01*
X859228Y905225D01*
X859214Y905210D01*
X859186Y905175D01*
X859143Y905119D01*
X859101Y905035D01*
X859052Y904936D01*
X859010Y904809D01*
X858982Y904669D01*
X858968Y904507D01*
X858355Y904570D01*
Y904577D01*
X858363Y904598D01*
Y904634D01*
X858370Y904683D01*
X858384Y904739D01*
X858398Y904802D01*
X858419Y904880D01*
X858440Y904957D01*
X858496Y905126D01*
X858581Y905295D01*
X858630Y905379D01*
X858693Y905464D01*
X858756Y905541D01*
X858827Y905612D01*
X858834Y905619D01*
X858848Y905626D01*
X858869Y905647D01*
X858904Y905668D01*
X858946Y905696D01*
X858996Y905724D01*
X859052Y905759D01*
X859122Y905795D01*
X859200Y905830D01*
X859284Y905865D01*
X859376Y905893D01*
X859474Y905921D01*
X859580Y905942D01*
X859692Y905963D01*
X859812Y905970D01*
X859939Y905977D01*
X860009D01*
X860058Y905970D01*
D02*
G37*
G36*
X855661Y905949D02*
X855801Y905942D01*
X855942Y905928D01*
X856083Y905907D01*
X856202Y905886D01*
X856209D01*
X856224Y905879D01*
X856245D01*
X856273Y905865D01*
X856350Y905844D01*
X856449Y905809D01*
X856561Y905759D01*
X856681Y905696D01*
X856801Y905626D01*
X856913Y905534D01*
X856920Y905527D01*
X856927Y905520D01*
X856948Y905499D01*
X856976Y905478D01*
X857047Y905407D01*
X857131Y905309D01*
X857223Y905189D01*
X857321Y905049D01*
X857413Y904887D01*
X857490Y904704D01*
Y904697D01*
X857497Y904683D01*
X857511Y904655D01*
X857518Y904613D01*
X857539Y904563D01*
X857553Y904507D01*
X857567Y904444D01*
X857589Y904366D01*
X857610Y904289D01*
X857624Y904197D01*
X857659Y904000D01*
X857680Y903782D01*
X857687Y903543D01*
Y903536D01*
Y903522D01*
Y903487D01*
Y903452D01*
X857680Y903402D01*
Y903346D01*
X857673Y903212D01*
X857652Y903058D01*
X857631Y902896D01*
X857596Y902727D01*
X857553Y902558D01*
Y902551D01*
X857546Y902537D01*
X857539Y902516D01*
X857532Y902488D01*
X857504Y902410D01*
X857462Y902312D01*
X857420Y902199D01*
X857363Y902087D01*
X857293Y901967D01*
X857223Y901854D01*
X857216Y901840D01*
X857188Y901805D01*
X857145Y901756D01*
X857089Y901693D01*
X857026Y901622D01*
X856948Y901552D01*
X856871Y901475D01*
X856779Y901411D01*
X856765Y901404D01*
X856737Y901383D01*
X856688Y901355D01*
X856618Y901320D01*
X856533Y901277D01*
X856435Y901242D01*
X856322Y901200D01*
X856195Y901165D01*
X856181D01*
X856160Y901158D01*
X856139Y901151D01*
X856069Y901144D01*
X855970Y901130D01*
X855858Y901116D01*
X855724Y901102D01*
X855576Y901095D01*
X855415Y901088D01*
X853663D01*
Y905956D01*
X855534D01*
X855661Y905949D01*
D02*
G37*
G36*
X862439Y936535D02*
X862531Y936521D01*
X862644Y936500D01*
X862770Y936464D01*
X862897Y936422D01*
X863024Y936366D01*
X863030D01*
X863037Y936359D01*
X863080Y936338D01*
X863143Y936296D01*
X863213Y936246D01*
X863298Y936176D01*
X863382Y936099D01*
X863467Y936007D01*
X863537Y935902D01*
X863544Y935888D01*
X863565Y935852D01*
X863593Y935789D01*
X863628Y935712D01*
X863664Y935620D01*
X863692Y935515D01*
X863713Y935395D01*
X863720Y935275D01*
Y935261D01*
Y935219D01*
X863713Y935163D01*
X863699Y935086D01*
X863678Y934994D01*
X863643Y934895D01*
X863600Y934797D01*
X863544Y934698D01*
X863537Y934684D01*
X863516Y934656D01*
X863474Y934607D01*
X863418Y934551D01*
X863347Y934487D01*
X863263Y934417D01*
X863164Y934354D01*
X863045Y934290D01*
X863052D01*
X863066Y934283D01*
X863087Y934276D01*
X863115Y934269D01*
X863192Y934241D01*
X863291Y934199D01*
X863403Y934143D01*
X863516Y934072D01*
X863622Y933981D01*
X863720Y933875D01*
X863727Y933861D01*
X863755Y933819D01*
X863797Y933749D01*
X863840Y933657D01*
X863882Y933545D01*
X863924Y933411D01*
X863952Y933256D01*
X863959Y933087D01*
Y933080D01*
Y933059D01*
Y933024D01*
X863952Y932982D01*
X863945Y932925D01*
X863931Y932862D01*
X863917Y932792D01*
X863903Y932714D01*
X863847Y932545D01*
X863804Y932454D01*
X863762Y932370D01*
X863706Y932278D01*
X863643Y932187D01*
X863572Y932095D01*
X863488Y932011D01*
X863481Y932004D01*
X863467Y931990D01*
X863439Y931969D01*
X863403Y931941D01*
X863361Y931905D01*
X863305Y931870D01*
X863242Y931828D01*
X863164Y931793D01*
X863087Y931750D01*
X862995Y931708D01*
X862904Y931673D01*
X862798Y931638D01*
X862686Y931610D01*
X862566Y931589D01*
X862447Y931575D01*
X862313Y931568D01*
X862250D01*
X862207Y931575D01*
X862151Y931582D01*
X862088Y931589D01*
X862017Y931603D01*
X861940Y931617D01*
X861771Y931659D01*
X861595Y931729D01*
X861504Y931772D01*
X861419Y931821D01*
X861335Y931884D01*
X861250Y931947D01*
X861243Y931954D01*
X861229Y931969D01*
X861208Y931990D01*
X861187Y932018D01*
X861152Y932053D01*
X861117Y932102D01*
X861075Y932151D01*
X861032Y932215D01*
X860990Y932285D01*
X860948Y932356D01*
X860871Y932524D01*
X860807Y932721D01*
X860786Y932827D01*
X860772Y932940D01*
X861370Y933017D01*
Y933010D01*
X861377Y932996D01*
X861384Y932968D01*
X861391Y932933D01*
X861398Y932890D01*
X861412Y932841D01*
X861448Y932736D01*
X861497Y932609D01*
X861560Y932489D01*
X861630Y932377D01*
X861715Y932278D01*
X861729Y932271D01*
X861757Y932243D01*
X861813Y932208D01*
X861884Y932173D01*
X861968Y932130D01*
X862074Y932095D01*
X862193Y932067D01*
X862320Y932060D01*
X862362D01*
X862390Y932067D01*
X862468Y932074D01*
X862566Y932095D01*
X862679Y932130D01*
X862798Y932180D01*
X862918Y932250D01*
X863030Y932348D01*
X863045Y932363D01*
X863080Y932405D01*
X863122Y932468D01*
X863178Y932553D01*
X863234Y932658D01*
X863277Y932778D01*
X863312Y932918D01*
X863326Y933073D01*
Y933080D01*
Y933094D01*
Y933115D01*
X863319Y933144D01*
X863312Y933221D01*
X863291Y933312D01*
X863263Y933425D01*
X863213Y933538D01*
X863143Y933650D01*
X863052Y933756D01*
X863037Y933770D01*
X863002Y933798D01*
X862946Y933840D01*
X862869Y933889D01*
X862770Y933939D01*
X862651Y933981D01*
X862517Y934009D01*
X862369Y934023D01*
X862306D01*
X862257Y934016D01*
X862193Y934009D01*
X862123Y933995D01*
X862038Y933981D01*
X861947Y933960D01*
X862017Y934487D01*
X862053D01*
X862081Y934480D01*
X862172D01*
X862250Y934494D01*
X862341Y934509D01*
X862447Y934530D01*
X862566Y934565D01*
X862679Y934614D01*
X862798Y934677D01*
X862805D01*
X862812Y934684D01*
X862848Y934713D01*
X862897Y934762D01*
X862953Y934825D01*
X863009Y934917D01*
X863059Y935022D01*
X863094Y935142D01*
X863108Y935212D01*
Y935290D01*
Y935296D01*
Y935304D01*
Y935346D01*
X863094Y935402D01*
X863080Y935480D01*
X863052Y935564D01*
X863016Y935655D01*
X862960Y935747D01*
X862883Y935831D01*
X862876Y935838D01*
X862840Y935866D01*
X862791Y935902D01*
X862728Y935944D01*
X862644Y935979D01*
X862545Y936014D01*
X862432Y936042D01*
X862306Y936049D01*
X862250D01*
X862186Y936035D01*
X862102Y936021D01*
X862010Y935993D01*
X861919Y935958D01*
X861820Y935902D01*
X861729Y935831D01*
X861722Y935824D01*
X861694Y935789D01*
X861652Y935740D01*
X861602Y935669D01*
X861553Y935578D01*
X861504Y935465D01*
X861461Y935332D01*
X861433Y935177D01*
X860835Y935283D01*
Y935290D01*
X860842Y935311D01*
X860849Y935339D01*
X860856Y935381D01*
X860871Y935430D01*
X860892Y935487D01*
X860934Y935620D01*
X861004Y935775D01*
X861089Y935930D01*
X861194Y936077D01*
X861328Y936211D01*
X861335Y936218D01*
X861349Y936225D01*
X861370Y936239D01*
X861398Y936260D01*
X861433Y936289D01*
X861483Y936317D01*
X861532Y936345D01*
X861595Y936380D01*
X861736Y936436D01*
X861898Y936493D01*
X862088Y936528D01*
X862186Y936542D01*
X862362D01*
X862439Y936535D01*
D02*
G37*
G36*
X858098Y936514D02*
X858239Y936507D01*
X858380Y936493D01*
X858521Y936471D01*
X858640Y936450D01*
X858647D01*
X858661Y936443D01*
X858682D01*
X858710Y936429D01*
X858788Y936408D01*
X858886Y936373D01*
X858999Y936324D01*
X859119Y936260D01*
X859238Y936190D01*
X859351Y936099D01*
X859358Y936092D01*
X859365Y936085D01*
X859386Y936063D01*
X859414Y936042D01*
X859484Y935972D01*
X859569Y935873D01*
X859660Y935754D01*
X859759Y935613D01*
X859850Y935451D01*
X859928Y935268D01*
Y935261D01*
X859935Y935247D01*
X859949Y935219D01*
X859956Y935177D01*
X859977Y935128D01*
X859991Y935071D01*
X860005Y935008D01*
X860026Y934931D01*
X860047Y934853D01*
X860061Y934762D01*
X860097Y934565D01*
X860118Y934347D01*
X860125Y934108D01*
Y934100D01*
Y934086D01*
Y934051D01*
Y934016D01*
X860118Y933967D01*
Y933911D01*
X860111Y933777D01*
X860089Y933622D01*
X860068Y933460D01*
X860033Y933291D01*
X859991Y933122D01*
Y933115D01*
X859984Y933101D01*
X859977Y933080D01*
X859970Y933052D01*
X859942Y932975D01*
X859900Y932876D01*
X859857Y932764D01*
X859801Y932651D01*
X859731Y932532D01*
X859660Y932419D01*
X859653Y932405D01*
X859625Y932370D01*
X859583Y932320D01*
X859527Y932257D01*
X859463Y932187D01*
X859386Y932116D01*
X859309Y932039D01*
X859217Y931976D01*
X859203Y931969D01*
X859175Y931947D01*
X859126Y931919D01*
X859055Y931884D01*
X858971Y931842D01*
X858872Y931807D01*
X858760Y931765D01*
X858633Y931729D01*
X858619D01*
X858598Y931722D01*
X858577Y931715D01*
X858506Y931708D01*
X858408Y931694D01*
X858295Y931680D01*
X858162Y931666D01*
X858014Y931659D01*
X857852Y931652D01*
X856100D01*
Y936521D01*
X857972D01*
X858098Y936514D01*
D02*
G37*
G36*
X529362Y939879D02*
X528764D01*
Y943686D01*
X528757Y943679D01*
X528722Y943651D01*
X528680Y943608D01*
X528609Y943559D01*
X528532Y943496D01*
X528433Y943425D01*
X528321Y943348D01*
X528194Y943270D01*
X528187D01*
X528180Y943263D01*
X528138Y943235D01*
X528068Y943200D01*
X527983Y943158D01*
X527885Y943109D01*
X527779Y943059D01*
X527674Y943010D01*
X527568Y942968D01*
Y943545D01*
X527575D01*
X527589Y943559D01*
X527617Y943566D01*
X527653Y943587D01*
X527695Y943608D01*
X527744Y943636D01*
X527864Y943707D01*
X528004Y943784D01*
X528145Y943883D01*
X528293Y943995D01*
X528441Y944115D01*
X528448Y944122D01*
X528455Y944129D01*
X528476Y944150D01*
X528504Y944171D01*
X528567Y944241D01*
X528652Y944326D01*
X528736Y944424D01*
X528828Y944537D01*
X528905Y944650D01*
X528975Y944769D01*
X529362D01*
Y939879D01*
D02*
G37*
G36*
X524768Y944741D02*
X524831D01*
X524979Y944734D01*
X525134Y944713D01*
X525303Y944692D01*
X525457Y944657D01*
X525535Y944635D01*
X525598Y944614D01*
X525605D01*
X525612Y944607D01*
X525654Y944586D01*
X525718Y944558D01*
X525795Y944509D01*
X525880Y944445D01*
X525971Y944361D01*
X526055Y944263D01*
X526140Y944150D01*
Y944143D01*
X526147Y944136D01*
X526175Y944094D01*
X526203Y944023D01*
X526245Y943932D01*
X526281Y943826D01*
X526316Y943700D01*
X526337Y943566D01*
X526344Y943418D01*
Y943411D01*
Y943397D01*
Y943369D01*
X526337Y943334D01*
Y943285D01*
X526330Y943235D01*
X526302Y943116D01*
X526259Y942975D01*
X526203Y942827D01*
X526119Y942680D01*
X526062Y942609D01*
X526006Y942539D01*
X525999Y942532D01*
X525992Y942525D01*
X525971Y942504D01*
X525943Y942483D01*
X525908Y942454D01*
X525865Y942426D01*
X525809Y942391D01*
X525753Y942349D01*
X525682Y942314D01*
X525605Y942279D01*
X525521Y942236D01*
X525429Y942201D01*
X525324Y942173D01*
X525218Y942138D01*
X525098Y942117D01*
X524972Y942096D01*
X524986Y942088D01*
X525014Y942074D01*
X525056Y942046D01*
X525113Y942018D01*
X525239Y941941D01*
X525303Y941891D01*
X525359Y941849D01*
X525373Y941835D01*
X525408Y941800D01*
X525464Y941744D01*
X525535Y941673D01*
X525612Y941575D01*
X525704Y941469D01*
X525795Y941343D01*
X525894Y941202D01*
X526731Y939879D01*
X525929D01*
X525289Y940892D01*
Y940900D01*
X525274Y940913D01*
X525260Y940935D01*
X525239Y940963D01*
X525190Y941040D01*
X525127Y941139D01*
X525049Y941244D01*
X524972Y941357D01*
X524894Y941462D01*
X524824Y941561D01*
X524817Y941568D01*
X524796Y941596D01*
X524761Y941638D01*
X524711Y941687D01*
X524606Y941793D01*
X524550Y941842D01*
X524493Y941885D01*
X524486Y941891D01*
X524472Y941898D01*
X524444Y941913D01*
X524402Y941934D01*
X524360Y941955D01*
X524310Y941976D01*
X524198Y942011D01*
X524191D01*
X524177Y942018D01*
X524149D01*
X524114Y942025D01*
X524064Y942032D01*
X524008D01*
X523931Y942039D01*
X523100D01*
Y939879D01*
X522453D01*
Y944748D01*
X524711D01*
X524768Y944741D01*
D02*
G37*
G36*
X532627Y944762D02*
X532718Y944748D01*
X532824Y944727D01*
X532936Y944699D01*
X533056Y944664D01*
X533169Y944607D01*
X533176D01*
X533183Y944600D01*
X533218Y944579D01*
X533274Y944544D01*
X533344Y944495D01*
X533422Y944424D01*
X533506Y944347D01*
X533584Y944256D01*
X533661Y944150D01*
X533668Y944136D01*
X533696Y944101D01*
X533724Y944037D01*
X533774Y943946D01*
X533816Y943840D01*
X533872Y943721D01*
X533921Y943580D01*
X533964Y943425D01*
Y943418D01*
X533971Y943404D01*
X533978Y943383D01*
X533985Y943348D01*
X533992Y943306D01*
X533999Y943257D01*
X534013Y943193D01*
X534020Y943123D01*
X534034Y943045D01*
X534041Y942961D01*
X534048Y942862D01*
X534062Y942764D01*
X534069Y942651D01*
Y942539D01*
X534076Y942412D01*
Y942279D01*
Y942271D01*
Y942243D01*
Y942194D01*
Y942138D01*
X534069Y942060D01*
Y941976D01*
X534062Y941885D01*
X534055Y941786D01*
X534034Y941561D01*
X533999Y941329D01*
X533957Y941104D01*
X533928Y940998D01*
X533893Y940892D01*
Y940885D01*
X533886Y940871D01*
X533872Y940843D01*
X533858Y940808D01*
X533844Y940759D01*
X533816Y940710D01*
X533760Y940590D01*
X533689Y940463D01*
X533598Y940322D01*
X533492Y940196D01*
X533366Y940076D01*
X533358D01*
X533352Y940062D01*
X533330Y940048D01*
X533302Y940034D01*
X533267Y940013D01*
X533232Y939985D01*
X533126Y939936D01*
X533000Y939886D01*
X532852Y939837D01*
X532676Y939809D01*
X532486Y939795D01*
X532416D01*
X532366Y939802D01*
X532310Y939809D01*
X532240Y939823D01*
X532163Y939837D01*
X532078Y939858D01*
X531994Y939886D01*
X531902Y939914D01*
X531811Y939957D01*
X531719Y940006D01*
X531628Y940062D01*
X531536Y940133D01*
X531452Y940210D01*
X531375Y940294D01*
X531367Y940301D01*
X531353Y940322D01*
X531332Y940358D01*
X531297Y940414D01*
X531262Y940477D01*
X531227Y940562D01*
X531177Y940660D01*
X531135Y940773D01*
X531093Y940900D01*
X531051Y941047D01*
X531009Y941209D01*
X530973Y941392D01*
X530938Y941589D01*
X530917Y941800D01*
X530903Y942032D01*
X530896Y942279D01*
Y942286D01*
Y942314D01*
Y942363D01*
Y942419D01*
X530903Y942497D01*
Y942581D01*
X530910Y942673D01*
X530917Y942778D01*
X530938Y942996D01*
X530973Y943228D01*
X531016Y943460D01*
X531044Y943566D01*
X531072Y943672D01*
Y943679D01*
X531079Y943693D01*
X531093Y943721D01*
X531107Y943756D01*
X531121Y943805D01*
X531149Y943855D01*
X531206Y943974D01*
X531276Y944101D01*
X531367Y944234D01*
X531473Y944368D01*
X531600Y944481D01*
X531607D01*
X531614Y944495D01*
X531635Y944509D01*
X531663Y944523D01*
X531698Y944551D01*
X531740Y944572D01*
X531846Y944628D01*
X531973Y944678D01*
X532120Y944727D01*
X532296Y944755D01*
X532486Y944769D01*
X532549D01*
X532627Y944762D01*
D02*
G37*
G36*
X478993Y941058D02*
X479049Y941051D01*
X479113Y941044D01*
X479190Y941037D01*
X479267Y941016D01*
X479443Y940974D01*
X479619Y940910D01*
X479711Y940868D01*
X479802Y940819D01*
X479887Y940762D01*
X479971Y940699D01*
X479978Y940692D01*
X479992Y940685D01*
X480006Y940657D01*
X480034Y940629D01*
X480070Y940594D01*
X480105Y940551D01*
X480147Y940495D01*
X480182Y940432D01*
X480224Y940368D01*
X480266Y940291D01*
X480344Y940122D01*
X480407Y939925D01*
X480428Y939820D01*
X480442Y939707D01*
X479816Y939658D01*
Y939665D01*
Y939679D01*
X479809Y939700D01*
X479802Y939735D01*
X479781Y939813D01*
X479753Y939918D01*
X479711Y940024D01*
X479654Y940143D01*
X479584Y940249D01*
X479500Y940347D01*
X479486Y940354D01*
X479457Y940383D01*
X479401Y940418D01*
X479324Y940460D01*
X479239Y940502D01*
X479134Y940537D01*
X479014Y940565D01*
X478881Y940573D01*
X478838D01*
X478810Y940565D01*
X478726Y940558D01*
X478627Y940530D01*
X478508Y940495D01*
X478388Y940439D01*
X478261Y940354D01*
X478205Y940305D01*
X478149Y940249D01*
X478142Y940242D01*
X478135Y940235D01*
X478121Y940214D01*
X478100Y940193D01*
X478050Y940115D01*
X477994Y940017D01*
X477945Y939897D01*
X477896Y939749D01*
X477860Y939574D01*
X477846Y939482D01*
Y939383D01*
Y939377D01*
Y939362D01*
Y939334D01*
X477853Y939299D01*
Y939257D01*
X477860Y939208D01*
X477881Y939095D01*
X477917Y938961D01*
X477966Y938828D01*
X478036Y938701D01*
X478135Y938581D01*
Y938574D01*
X478149Y938567D01*
X478184Y938532D01*
X478247Y938483D01*
X478332Y938427D01*
X478444Y938377D01*
X478571Y938328D01*
X478719Y938293D01*
X478803Y938279D01*
X478937D01*
X478993Y938286D01*
X479063Y938293D01*
X479148Y938314D01*
X479232Y938335D01*
X479324Y938370D01*
X479415Y938413D01*
X479422Y938420D01*
X479450Y938434D01*
X479493Y938469D01*
X479549Y938504D01*
X479605Y938553D01*
X479661Y938617D01*
X479725Y938680D01*
X479774Y938757D01*
X480337Y938680D01*
X479865Y936175D01*
X477445D01*
Y936745D01*
X479394D01*
X479654Y938061D01*
X479647Y938054D01*
X479633Y938047D01*
X479612Y938033D01*
X479577Y938011D01*
X479535Y937990D01*
X479486Y937962D01*
X479373Y937906D01*
X479232Y937850D01*
X479077Y937800D01*
X478909Y937765D01*
X478824Y937751D01*
X478669D01*
X478627Y937758D01*
X478571Y937765D01*
X478508Y937772D01*
X478437Y937786D01*
X478360Y937807D01*
X478191Y937857D01*
X478100Y937892D01*
X478008Y937941D01*
X477917Y937990D01*
X477825Y938047D01*
X477741Y938117D01*
X477656Y938194D01*
X477649Y938202D01*
X477635Y938215D01*
X477614Y938237D01*
X477586Y938272D01*
X477551Y938321D01*
X477515Y938370D01*
X477473Y938434D01*
X477431Y938504D01*
X477396Y938581D01*
X477354Y938666D01*
X477318Y938764D01*
X477283Y938863D01*
X477255Y938968D01*
X477234Y939088D01*
X477220Y939208D01*
X477213Y939334D01*
Y939341D01*
Y939362D01*
Y939398D01*
X477220Y939447D01*
X477227Y939503D01*
X477234Y939566D01*
X477248Y939644D01*
X477262Y939721D01*
X477304Y939904D01*
X477375Y940094D01*
X477417Y940193D01*
X477473Y940284D01*
X477530Y940383D01*
X477600Y940474D01*
X477607Y940481D01*
X477621Y940502D01*
X477649Y940530D01*
X477684Y940565D01*
X477734Y940608D01*
X477790Y940664D01*
X477860Y940713D01*
X477938Y940770D01*
X478022Y940826D01*
X478121Y940875D01*
X478226Y940924D01*
X478339Y940974D01*
X478458Y941009D01*
X478592Y941037D01*
X478733Y941058D01*
X478881Y941065D01*
X478944D01*
X478993Y941058D01*
D02*
G37*
G36*
X483292D02*
X483348D01*
X483419Y941051D01*
X483496Y941044D01*
X483573Y941037D01*
X483749Y941009D01*
X483939Y940966D01*
X484122Y940910D01*
X484298Y940833D01*
X484305D01*
X484319Y940819D01*
X484340Y940805D01*
X484368Y940791D01*
X484446Y940734D01*
X484537Y940657D01*
X484643Y940558D01*
X484741Y940446D01*
X484840Y940305D01*
X484917Y940150D01*
Y940143D01*
X484924Y940129D01*
X484931Y940101D01*
X484945Y940066D01*
X484959Y940024D01*
X484973Y939967D01*
X484995Y939904D01*
X485009Y939827D01*
X485023Y939742D01*
X485044Y939651D01*
X485058Y939552D01*
X485072Y939447D01*
X485086Y939327D01*
X485093Y939201D01*
X485100Y939067D01*
Y938926D01*
Y936112D01*
X484453D01*
Y938926D01*
Y938933D01*
Y938954D01*
Y938989D01*
Y939032D01*
X484446Y939081D01*
Y939144D01*
X484439Y939278D01*
X484425Y939433D01*
X484404Y939587D01*
X484375Y939735D01*
X484361Y939799D01*
X484340Y939862D01*
X484333Y939876D01*
X484319Y939911D01*
X484284Y939960D01*
X484242Y940031D01*
X484193Y940101D01*
X484122Y940179D01*
X484038Y940256D01*
X483939Y940319D01*
X483925Y940326D01*
X483890Y940347D01*
X483827Y940368D01*
X483742Y940397D01*
X483644Y940432D01*
X483517Y940453D01*
X483383Y940474D01*
X483236Y940481D01*
X483165D01*
X483123Y940474D01*
X483060D01*
X482996Y940467D01*
X482842Y940439D01*
X482673Y940404D01*
X482511Y940347D01*
X482356Y940270D01*
X482286Y940221D01*
X482223Y940164D01*
X482215Y940157D01*
X482208Y940150D01*
X482194Y940129D01*
X482173Y940101D01*
X482152Y940059D01*
X482124Y940017D01*
X482096Y939953D01*
X482068Y939890D01*
X482039Y939813D01*
X482018Y939721D01*
X481990Y939616D01*
X481969Y939503D01*
X481948Y939377D01*
X481934Y939243D01*
X481920Y939088D01*
Y938926D01*
Y936112D01*
X481273D01*
Y938926D01*
Y938933D01*
Y938961D01*
Y938997D01*
Y939046D01*
X481280Y939109D01*
Y939180D01*
X481287Y939264D01*
X481294Y939348D01*
X481315Y939538D01*
X481343Y939735D01*
X481385Y939925D01*
X481413Y940017D01*
X481441Y940101D01*
Y940108D01*
X481449Y940122D01*
X481463Y940143D01*
X481477Y940172D01*
X481519Y940249D01*
X481582Y940347D01*
X481667Y940460D01*
X481765Y940573D01*
X481892Y940692D01*
X482047Y940798D01*
X482054D01*
X482068Y940812D01*
X482089Y940819D01*
X482124Y940840D01*
X482166Y940861D01*
X482223Y940882D01*
X482279Y940903D01*
X482349Y940931D01*
X482426Y940959D01*
X482511Y940981D01*
X482602Y941002D01*
X482708Y941023D01*
X482813Y941037D01*
X482926Y941051D01*
X483179Y941065D01*
X483243D01*
X483292Y941058D01*
D02*
G37*
G36*
X420534Y756382D02*
X420591Y756375D01*
X420654Y756361D01*
X420724Y756347D01*
X420802Y756333D01*
X420970Y756277D01*
X421062Y756235D01*
X421146Y756192D01*
X421238Y756136D01*
X421329Y756073D01*
X421421Y756002D01*
X421505Y755918D01*
X421512Y755911D01*
X421526Y755897D01*
X421547Y755869D01*
X421576Y755834D01*
X421611Y755791D01*
X421646Y755735D01*
X421688Y755672D01*
X421723Y755594D01*
X421766Y755517D01*
X421808Y755425D01*
X421843Y755334D01*
X421878Y755228D01*
X421906Y755116D01*
X421927Y754996D01*
X421941Y754877D01*
X421949Y754743D01*
Y754680D01*
X421941Y754637D01*
X421934Y754581D01*
X421927Y754518D01*
X421913Y754447D01*
X421899Y754370D01*
X421857Y754201D01*
X421787Y754025D01*
X421744Y753934D01*
X421695Y753849D01*
X421632Y753765D01*
X421568Y753680D01*
X421562Y753673D01*
X421547Y753659D01*
X421526Y753638D01*
X421498Y753617D01*
X421463Y753582D01*
X421414Y753547D01*
X421365Y753505D01*
X421301Y753462D01*
X421231Y753420D01*
X421161Y753378D01*
X420992Y753301D01*
X420795Y753237D01*
X420689Y753216D01*
X420577Y753202D01*
X420499Y753800D01*
X420506D01*
X420520Y753807D01*
X420548Y753814D01*
X420583Y753821D01*
X420626Y753828D01*
X420675Y753842D01*
X420780Y753877D01*
X420907Y753927D01*
X421027Y753990D01*
X421139Y754060D01*
X421238Y754145D01*
X421245Y754159D01*
X421273Y754187D01*
X421308Y754243D01*
X421343Y754314D01*
X421386Y754398D01*
X421421Y754504D01*
X421449Y754623D01*
X421456Y754750D01*
Y754792D01*
X421449Y754820D01*
X421442Y754898D01*
X421421Y754996D01*
X421386Y755109D01*
X421336Y755228D01*
X421266Y755348D01*
X421167Y755461D01*
X421153Y755475D01*
X421111Y755510D01*
X421048Y755552D01*
X420964Y755608D01*
X420858Y755665D01*
X420738Y755707D01*
X420598Y755742D01*
X420443Y755756D01*
X420436D01*
X420422D01*
X420401D01*
X420373Y755749D01*
X420295Y755742D01*
X420204Y755721D01*
X420091Y755693D01*
X419978Y755643D01*
X419866Y755573D01*
X419760Y755482D01*
X419746Y755468D01*
X419718Y755432D01*
X419676Y755376D01*
X419627Y755299D01*
X419577Y755200D01*
X419535Y755081D01*
X419507Y754947D01*
X419493Y754799D01*
Y754736D01*
X419500Y754687D01*
X419507Y754623D01*
X419521Y754553D01*
X419535Y754469D01*
X419556Y754377D01*
X419029Y754447D01*
Y754483D01*
X419036Y754511D01*
Y754602D01*
X419022Y754680D01*
X419007Y754771D01*
X418986Y754877D01*
X418951Y754996D01*
X418902Y755109D01*
X418839Y755228D01*
Y755235D01*
X418832Y755242D01*
X418803Y755278D01*
X418754Y755327D01*
X418691Y755383D01*
X418599Y755440D01*
X418494Y755489D01*
X418374Y755524D01*
X418304Y755538D01*
X418227D01*
X418219D01*
X418213D01*
X418170D01*
X418114Y755524D01*
X418037Y755510D01*
X417952Y755482D01*
X417861Y755446D01*
X417769Y755390D01*
X417685Y755313D01*
X417678Y755306D01*
X417650Y755271D01*
X417614Y755221D01*
X417572Y755158D01*
X417537Y755074D01*
X417502Y754975D01*
X417474Y754863D01*
X417467Y754736D01*
Y754680D01*
X417481Y754616D01*
X417495Y754532D01*
X417523Y754440D01*
X417558Y754349D01*
X417614Y754250D01*
X417685Y754159D01*
X417692Y754152D01*
X417727Y754124D01*
X417776Y754081D01*
X417847Y754032D01*
X417938Y753983D01*
X418051Y753934D01*
X418184Y753892D01*
X418339Y753863D01*
X418234Y753265D01*
X418227D01*
X418205Y753272D01*
X418177Y753279D01*
X418135Y753287D01*
X418086Y753301D01*
X418030Y753322D01*
X417896Y753364D01*
X417741Y753434D01*
X417586Y753519D01*
X417439Y753624D01*
X417305Y753758D01*
X417298Y753765D01*
X417291Y753779D01*
X417277Y753800D01*
X417256Y753828D01*
X417228Y753863D01*
X417199Y753913D01*
X417171Y753962D01*
X417136Y754025D01*
X417080Y754166D01*
X417023Y754328D01*
X416988Y754518D01*
X416974Y754616D01*
Y754792D01*
X416981Y754870D01*
X416995Y754961D01*
X417016Y755074D01*
X417052Y755200D01*
X417094Y755327D01*
X417150Y755453D01*
Y755461D01*
X417157Y755468D01*
X417178Y755510D01*
X417220Y755573D01*
X417270Y755643D01*
X417340Y755728D01*
X417417Y755812D01*
X417509Y755897D01*
X417614Y755967D01*
X417629Y755974D01*
X417664Y755995D01*
X417727Y756023D01*
X417804Y756059D01*
X417896Y756094D01*
X418001Y756122D01*
X418121Y756143D01*
X418241Y756150D01*
X418255D01*
X418297D01*
X418353Y756143D01*
X418431Y756129D01*
X418522Y756108D01*
X418620Y756073D01*
X418719Y756031D01*
X418818Y755974D01*
X418832Y755967D01*
X418860Y755946D01*
X418909Y755904D01*
X418965Y755847D01*
X419029Y755777D01*
X419099Y755693D01*
X419162Y755594D01*
X419226Y755475D01*
Y755482D01*
X419233Y755496D01*
X419240Y755517D01*
X419247Y755545D01*
X419275Y755622D01*
X419317Y755721D01*
X419373Y755834D01*
X419444Y755946D01*
X419535Y756052D01*
X419641Y756150D01*
X419655Y756157D01*
X419697Y756185D01*
X419767Y756227D01*
X419859Y756270D01*
X419971Y756312D01*
X420105Y756354D01*
X420260Y756382D01*
X420429Y756389D01*
X420436D01*
X420457D01*
X420492D01*
X420534Y756382D01*
D02*
G37*
G36*
X419992Y752358D02*
X420063D01*
X420147Y752351D01*
X420232Y752344D01*
X420422Y752323D01*
X420619Y752294D01*
X420809Y752252D01*
X420900Y752224D01*
X420985Y752196D01*
X420992D01*
X421006Y752189D01*
X421027Y752175D01*
X421055Y752161D01*
X421132Y752119D01*
X421231Y752055D01*
X421343Y751971D01*
X421456Y751872D01*
X421576Y751746D01*
X421681Y751591D01*
Y751584D01*
X421695Y751570D01*
X421702Y751549D01*
X421723Y751514D01*
X421744Y751471D01*
X421766Y751415D01*
X421787Y751359D01*
X421815Y751288D01*
X421843Y751211D01*
X421864Y751126D01*
X421885Y751035D01*
X421906Y750929D01*
X421920Y750824D01*
X421934Y750711D01*
X421949Y750458D01*
Y750395D01*
X421941Y750346D01*
Y750289D01*
X421934Y750219D01*
X421927Y750142D01*
X421920Y750064D01*
X421892Y749888D01*
X421850Y749698D01*
X421794Y749515D01*
X421716Y749339D01*
Y749332D01*
X421702Y749318D01*
X421688Y749297D01*
X421674Y749269D01*
X421618Y749192D01*
X421540Y749100D01*
X421442Y748995D01*
X421329Y748896D01*
X421189Y748798D01*
X421034Y748720D01*
X421027D01*
X421013Y748713D01*
X420985Y748706D01*
X420949Y748692D01*
X420907Y748678D01*
X420851Y748664D01*
X420788Y748643D01*
X420710Y748629D01*
X420626Y748615D01*
X420534Y748594D01*
X420436Y748580D01*
X420330Y748566D01*
X420211Y748551D01*
X420084Y748544D01*
X419950Y748537D01*
X419810D01*
X416995D01*
Y749185D01*
X419810D01*
X419817D01*
X419838D01*
X419873D01*
X419915D01*
X419964Y749192D01*
X420028D01*
X420161Y749199D01*
X420316Y749213D01*
X420471Y749234D01*
X420619Y749262D01*
X420682Y749276D01*
X420745Y749297D01*
X420759Y749304D01*
X420795Y749318D01*
X420844Y749353D01*
X420914Y749396D01*
X420985Y749445D01*
X421062Y749515D01*
X421139Y749600D01*
X421203Y749698D01*
X421210Y749712D01*
X421231Y749747D01*
X421252Y749811D01*
X421280Y749895D01*
X421315Y749994D01*
X421336Y750120D01*
X421357Y750254D01*
X421365Y750402D01*
Y750472D01*
X421357Y750514D01*
Y750578D01*
X421350Y750641D01*
X421322Y750796D01*
X421287Y750965D01*
X421231Y751126D01*
X421153Y751281D01*
X421104Y751352D01*
X421048Y751415D01*
X421041Y751422D01*
X421034Y751429D01*
X421013Y751443D01*
X420985Y751464D01*
X420942Y751485D01*
X420900Y751514D01*
X420837Y751542D01*
X420774Y751570D01*
X420696Y751598D01*
X420605Y751619D01*
X420499Y751647D01*
X420387Y751668D01*
X420260Y751689D01*
X420126Y751703D01*
X419971Y751718D01*
X419810D01*
X416995D01*
Y752365D01*
X419810D01*
X419817D01*
X419845D01*
X419880D01*
X419929D01*
X419992Y752358D01*
D02*
G37*
G36*
X534530Y760009D02*
X531716D01*
X531709D01*
X531688D01*
X531653D01*
X531611D01*
X531561Y760002D01*
X531498D01*
X531364Y759995D01*
X531210Y759981D01*
X531055Y759960D01*
X530907Y759931D01*
X530844Y759917D01*
X530780Y759896D01*
X530766Y759889D01*
X530731Y759875D01*
X530682Y759840D01*
X530612Y759798D01*
X530541Y759749D01*
X530464Y759678D01*
X530386Y759594D01*
X530323Y759495D01*
X530316Y759481D01*
X530295Y759446D01*
X530274Y759383D01*
X530246Y759298D01*
X530210Y759200D01*
X530189Y759073D01*
X530168Y758939D01*
X530161Y758792D01*
Y758721D01*
X530168Y758679D01*
Y758616D01*
X530175Y758552D01*
X530204Y758398D01*
X530239Y758229D01*
X530295Y758067D01*
X530372Y757912D01*
X530422Y757842D01*
X530478Y757778D01*
X530485Y757771D01*
X530492Y757764D01*
X530513Y757750D01*
X530541Y757729D01*
X530583Y757708D01*
X530626Y757680D01*
X530689Y757652D01*
X530752Y757624D01*
X530830Y757596D01*
X530921Y757574D01*
X531027Y757546D01*
X531139Y757525D01*
X531266Y757504D01*
X531400Y757490D01*
X531554Y757476D01*
X531716D01*
X534530D01*
Y756829D01*
X531716D01*
X531709D01*
X531681D01*
X531646D01*
X531597D01*
X531533Y756836D01*
X531463D01*
X531379Y756843D01*
X531294Y756850D01*
X531104Y756871D01*
X530907Y756899D01*
X530717Y756941D01*
X530626Y756969D01*
X530541Y756998D01*
X530534D01*
X530520Y757004D01*
X530499Y757019D01*
X530471Y757033D01*
X530393Y757075D01*
X530295Y757138D01*
X530182Y757223D01*
X530070Y757321D01*
X529950Y757448D01*
X529845Y757603D01*
Y757610D01*
X529831Y757624D01*
X529824Y757645D01*
X529802Y757680D01*
X529781Y757722D01*
X529760Y757778D01*
X529739Y757835D01*
X529711Y757905D01*
X529683Y757982D01*
X529662Y758067D01*
X529641Y758158D01*
X529619Y758264D01*
X529605Y758370D01*
X529591Y758482D01*
X529577Y758735D01*
Y758799D01*
X529584Y758848D01*
Y758904D01*
X529591Y758975D01*
X529598Y759052D01*
X529605Y759129D01*
X529634Y759305D01*
X529676Y759495D01*
X529732Y759678D01*
X529809Y759854D01*
Y759861D01*
X529824Y759875D01*
X529838Y759896D01*
X529852Y759924D01*
X529908Y760002D01*
X529985Y760093D01*
X530084Y760199D01*
X530196Y760297D01*
X530337Y760396D01*
X530492Y760473D01*
X530499D01*
X530513Y760480D01*
X530541Y760487D01*
X530576Y760501D01*
X530619Y760515D01*
X530675Y760529D01*
X530738Y760551D01*
X530816Y760565D01*
X530900Y760579D01*
X530992Y760600D01*
X531090Y760614D01*
X531195Y760628D01*
X531315Y760642D01*
X531442Y760649D01*
X531576Y760656D01*
X531716D01*
X534530D01*
Y760009D01*
D02*
G37*
G36*
X529795Y756076D02*
X529859Y756069D01*
X529929Y756055D01*
X529999Y756041D01*
X530077Y756012D01*
X530084D01*
X530091Y756005D01*
X530133Y755991D01*
X530196Y755963D01*
X530281Y755921D01*
X530379Y755865D01*
X530492Y755794D01*
X530605Y755717D01*
X530724Y755619D01*
X530731D01*
X530738Y755604D01*
X530780Y755569D01*
X530844Y755506D01*
X530935Y755414D01*
X531041Y755309D01*
X531167Y755175D01*
X531308Y755013D01*
X531456Y754837D01*
X531463Y754830D01*
X531484Y754802D01*
X531519Y754760D01*
X531561Y754711D01*
X531618Y754648D01*
X531681Y754570D01*
X531751Y754493D01*
X531829Y754401D01*
X531998Y754225D01*
X532166Y754050D01*
X532251Y753965D01*
X532335Y753888D01*
X532413Y753817D01*
X532490Y753761D01*
X532497D01*
X532504Y753747D01*
X532525Y753733D01*
X532553Y753719D01*
X532631Y753670D01*
X532722Y753613D01*
X532835Y753564D01*
X532954Y753515D01*
X533088Y753487D01*
X533215Y753473D01*
X533222D01*
X533229D01*
X533271Y753480D01*
X533341Y753487D01*
X533419Y753508D01*
X533517Y753536D01*
X533616Y753585D01*
X533714Y753649D01*
X533813Y753733D01*
X533827Y753747D01*
X533855Y753782D01*
X533890Y753831D01*
X533940Y753909D01*
X533982Y754007D01*
X534024Y754120D01*
X534052Y754253D01*
X534059Y754401D01*
Y754444D01*
X534052Y754472D01*
X534045Y754556D01*
X534024Y754655D01*
X533996Y754760D01*
X533946Y754880D01*
X533883Y754992D01*
X533799Y755098D01*
X533785Y755112D01*
X533750Y755140D01*
X533693Y755182D01*
X533609Y755225D01*
X533510Y755274D01*
X533384Y755316D01*
X533243Y755344D01*
X533081Y755358D01*
X533144Y755970D01*
X533152D01*
X533173Y755963D01*
X533208D01*
X533257Y755956D01*
X533313Y755942D01*
X533377Y755928D01*
X533454Y755907D01*
X533531Y755886D01*
X533700Y755830D01*
X533869Y755745D01*
X533954Y755696D01*
X534038Y755633D01*
X534115Y755569D01*
X534186Y755499D01*
X534193Y755492D01*
X534200Y755478D01*
X534221Y755457D01*
X534242Y755422D01*
X534270Y755379D01*
X534298Y755330D01*
X534333Y755274D01*
X534369Y755203D01*
X534404Y755126D01*
X534439Y755042D01*
X534467Y754950D01*
X534495Y754852D01*
X534516Y754746D01*
X534538Y754633D01*
X534545Y754514D01*
X534552Y754387D01*
Y754317D01*
X534545Y754268D01*
X534538Y754211D01*
X534530Y754141D01*
X534516Y754064D01*
X534502Y753986D01*
X534453Y753803D01*
X534383Y753620D01*
X534341Y753529D01*
X534291Y753437D01*
X534228Y753353D01*
X534158Y753276D01*
X534151Y753269D01*
X534143Y753254D01*
X534115Y753240D01*
X534087Y753212D01*
X534052Y753177D01*
X534003Y753142D01*
X533954Y753107D01*
X533890Y753064D01*
X533757Y752994D01*
X533588Y752924D01*
X533503Y752896D01*
X533405Y752882D01*
X533306Y752868D01*
X533201Y752860D01*
X533187D01*
X533152D01*
X533095Y752868D01*
X533018Y752875D01*
X532933Y752889D01*
X532835Y752917D01*
X532729Y752945D01*
X532624Y752987D01*
X532610Y752994D01*
X532575Y753008D01*
X532518Y753036D01*
X532441Y753079D01*
X532356Y753135D01*
X532251Y753205D01*
X532145Y753290D01*
X532026Y753388D01*
X532012Y753402D01*
X531969Y753437D01*
X531934Y753473D01*
X531899Y753508D01*
X531857Y753550D01*
X531801Y753606D01*
X531744Y753662D01*
X531681Y753733D01*
X531611Y753803D01*
X531533Y753888D01*
X531456Y753979D01*
X531364Y754078D01*
X531273Y754190D01*
X531174Y754303D01*
X531167Y754310D01*
X531153Y754324D01*
X531132Y754352D01*
X531104Y754387D01*
X531062Y754429D01*
X531020Y754479D01*
X530928Y754591D01*
X530823Y754711D01*
X530717Y754823D01*
X530626Y754922D01*
X530591Y754964D01*
X530555Y754999D01*
X530548Y755006D01*
X530527Y755027D01*
X530499Y755056D01*
X530457Y755091D01*
X530407Y755126D01*
X530358Y755168D01*
X530239Y755253D01*
Y752853D01*
X529662D01*
Y756083D01*
X529669D01*
X529697D01*
X529739D01*
X529795Y756076D01*
D02*
G37*
G36*
X368430Y765697D02*
X368479D01*
X368535Y765690D01*
X368669Y765662D01*
X368817Y765627D01*
X368972Y765571D01*
X369126Y765486D01*
X369204Y765437D01*
X369274Y765380D01*
X369281Y765374D01*
X369288Y765367D01*
X369309Y765345D01*
X369330Y765324D01*
X369366Y765289D01*
X369394Y765247D01*
X369471Y765148D01*
X369548Y765022D01*
X369619Y764867D01*
X369682Y764691D01*
X369724Y764494D01*
X369126Y764445D01*
Y764452D01*
X369119Y764459D01*
X369112Y764501D01*
X369091Y764564D01*
X369063Y764642D01*
X369035Y764726D01*
X368993Y764811D01*
X368943Y764888D01*
X368894Y764951D01*
X368880Y764965D01*
X368852Y764994D01*
X368803Y765036D01*
X368732Y765085D01*
X368641Y765127D01*
X368542Y765170D01*
X368423Y765198D01*
X368296Y765212D01*
X368247D01*
X368191Y765205D01*
X368127Y765191D01*
X368043Y765170D01*
X367958Y765141D01*
X367874Y765106D01*
X367790Y765050D01*
X367775Y765043D01*
X367740Y765015D01*
X367691Y764965D01*
X367628Y764895D01*
X367557Y764811D01*
X367480Y764712D01*
X367410Y764585D01*
X367339Y764445D01*
Y764438D01*
X367332Y764424D01*
X367325Y764403D01*
X367311Y764374D01*
X367304Y764332D01*
X367290Y764283D01*
X367276Y764227D01*
X367262Y764156D01*
X367241Y764079D01*
X367227Y763995D01*
X367213Y763903D01*
X367206Y763804D01*
X367192Y763692D01*
X367184Y763579D01*
X367178Y763453D01*
Y763326D01*
X367184Y763333D01*
X367213Y763375D01*
X367262Y763432D01*
X367325Y763502D01*
X367396Y763586D01*
X367487Y763664D01*
X367585Y763741D01*
X367698Y763812D01*
X367705D01*
X367712Y763819D01*
X367754Y763840D01*
X367818Y763861D01*
X367902Y763896D01*
X368001Y763924D01*
X368113Y763945D01*
X368233Y763966D01*
X368359Y763973D01*
X368416D01*
X368458Y763966D01*
X368514Y763959D01*
X368571Y763952D01*
X368641Y763938D01*
X368711Y763917D01*
X368873Y763868D01*
X368957Y763833D01*
X369042Y763783D01*
X369126Y763734D01*
X369218Y763678D01*
X369302Y763607D01*
X369380Y763530D01*
X369387Y763523D01*
X369401Y763509D01*
X369422Y763488D01*
X369443Y763453D01*
X369478Y763403D01*
X369513Y763354D01*
X369548Y763291D01*
X369591Y763221D01*
X369633Y763143D01*
X369668Y763059D01*
X369703Y762960D01*
X369739Y762862D01*
X369760Y762756D01*
X369781Y762637D01*
X369795Y762517D01*
X369802Y762390D01*
Y762383D01*
Y762369D01*
Y762348D01*
Y762313D01*
X369795Y762271D01*
Y762228D01*
X369774Y762116D01*
X369753Y761982D01*
X369717Y761842D01*
X369668Y761687D01*
X369598Y761539D01*
Y761532D01*
X369591Y761525D01*
X369577Y761504D01*
X369563Y761476D01*
X369520Y761405D01*
X369457Y761314D01*
X369380Y761215D01*
X369288Y761117D01*
X369176Y761018D01*
X369056Y760934D01*
X369049D01*
X369042Y760927D01*
X369021Y760913D01*
X368993Y760906D01*
X368922Y760871D01*
X368831Y760835D01*
X368711Y760793D01*
X368578Y760765D01*
X368430Y760737D01*
X368268Y760730D01*
X368233D01*
X368198Y760737D01*
X368141D01*
X368078Y760744D01*
X368008Y760758D01*
X367923Y760779D01*
X367839Y760800D01*
X367740Y760828D01*
X367642Y760864D01*
X367543Y760906D01*
X367438Y760962D01*
X367339Y761025D01*
X367241Y761096D01*
X367142Y761180D01*
X367051Y761279D01*
X367044Y761286D01*
X367030Y761307D01*
X367009Y761335D01*
X366981Y761384D01*
X366938Y761448D01*
X366903Y761518D01*
X366861Y761609D01*
X366819Y761708D01*
X366769Y761827D01*
X366727Y761961D01*
X366692Y762109D01*
X366657Y762271D01*
X366622Y762454D01*
X366600Y762651D01*
X366586Y762862D01*
X366579Y763087D01*
Y763094D01*
Y763101D01*
Y763122D01*
Y763150D01*
X366586Y763221D01*
Y763319D01*
X366594Y763432D01*
X366608Y763565D01*
X366622Y763713D01*
X366643Y763875D01*
X366671Y764037D01*
X366706Y764213D01*
X366748Y764381D01*
X366797Y764550D01*
X366861Y764712D01*
X366931Y764867D01*
X367009Y765015D01*
X367100Y765141D01*
X367107Y765148D01*
X367121Y765162D01*
X367149Y765191D01*
X367184Y765233D01*
X367227Y765275D01*
X367283Y765317D01*
X367353Y765374D01*
X367424Y765423D01*
X367508Y765472D01*
X367600Y765528D01*
X367705Y765571D01*
X367811Y765620D01*
X367930Y765655D01*
X368057Y765683D01*
X368191Y765697D01*
X368331Y765704D01*
X368388D01*
X368430Y765697D01*
D02*
G37*
G36*
X364265Y765676D02*
X364328D01*
X364476Y765669D01*
X364631Y765648D01*
X364799Y765627D01*
X364954Y765592D01*
X365032Y765571D01*
X365095Y765549D01*
X365102D01*
X365109Y765542D01*
X365151Y765521D01*
X365215Y765493D01*
X365292Y765444D01*
X365376Y765380D01*
X365468Y765296D01*
X365552Y765198D01*
X365637Y765085D01*
Y765078D01*
X365644Y765071D01*
X365672Y765029D01*
X365700Y764958D01*
X365742Y764867D01*
X365777Y764761D01*
X365812Y764635D01*
X365834Y764501D01*
X365841Y764353D01*
Y764346D01*
Y764332D01*
Y764304D01*
X365834Y764269D01*
Y764220D01*
X365827Y764170D01*
X365798Y764051D01*
X365756Y763910D01*
X365700Y763762D01*
X365616Y763615D01*
X365559Y763544D01*
X365503Y763474D01*
X365496Y763467D01*
X365489Y763460D01*
X365468Y763439D01*
X365440Y763418D01*
X365405Y763389D01*
X365362Y763361D01*
X365306Y763326D01*
X365250Y763284D01*
X365179Y763249D01*
X365102Y763214D01*
X365018Y763171D01*
X364926Y763136D01*
X364821Y763108D01*
X364715Y763073D01*
X364595Y763052D01*
X364469Y763031D01*
X364483Y763024D01*
X364511Y763009D01*
X364553Y762981D01*
X364609Y762953D01*
X364736Y762876D01*
X364799Y762827D01*
X364856Y762784D01*
X364870Y762770D01*
X364905Y762735D01*
X364961Y762679D01*
X365032Y762608D01*
X365109Y762510D01*
X365200Y762404D01*
X365292Y762278D01*
X365390Y762137D01*
X366228Y760814D01*
X365426D01*
X364785Y761827D01*
Y761834D01*
X364771Y761849D01*
X364757Y761870D01*
X364736Y761898D01*
X364687Y761975D01*
X364623Y762074D01*
X364546Y762179D01*
X364469Y762292D01*
X364391Y762397D01*
X364321Y762496D01*
X364314Y762503D01*
X364293Y762531D01*
X364258Y762573D01*
X364208Y762623D01*
X364103Y762728D01*
X364047Y762777D01*
X363990Y762820D01*
X363983Y762827D01*
X363969Y762834D01*
X363941Y762848D01*
X363899Y762869D01*
X363857Y762890D01*
X363807Y762911D01*
X363695Y762946D01*
X363688D01*
X363674Y762953D01*
X363646D01*
X363610Y762960D01*
X363561Y762967D01*
X363505D01*
X363427Y762974D01*
X362597D01*
Y760814D01*
X361950D01*
Y765683D01*
X364208D01*
X364265Y765676D01*
D02*
G37*
G36*
X369605Y740920D02*
X367656D01*
X367396Y739604D01*
X367403Y739611D01*
X367417Y739618D01*
X367438Y739632D01*
X367473Y739653D01*
X367515Y739675D01*
X367564Y739703D01*
X367677Y739759D01*
X367818Y739815D01*
X367972Y739865D01*
X368141Y739900D01*
X368226Y739914D01*
X368381D01*
X368423Y739907D01*
X368479Y739900D01*
X368542Y739893D01*
X368613Y739879D01*
X368690Y739857D01*
X368859Y739808D01*
X368951Y739773D01*
X369042Y739724D01*
X369133Y739675D01*
X369225Y739618D01*
X369309Y739548D01*
X369394Y739471D01*
X369401Y739463D01*
X369415Y739449D01*
X369436Y739428D01*
X369464Y739393D01*
X369499Y739344D01*
X369534Y739295D01*
X369577Y739231D01*
X369619Y739161D01*
X369654Y739083D01*
X369696Y738999D01*
X369731Y738901D01*
X369767Y738802D01*
X369795Y738697D01*
X369816Y738577D01*
X369830Y738457D01*
X369837Y738331D01*
Y738324D01*
Y738303D01*
Y738267D01*
X369830Y738218D01*
X369823Y738162D01*
X369816Y738099D01*
X369802Y738021D01*
X369788Y737944D01*
X369745Y737761D01*
X369675Y737571D01*
X369633Y737472D01*
X369577Y737381D01*
X369520Y737282D01*
X369450Y737191D01*
X369443Y737184D01*
X369429Y737163D01*
X369401Y737135D01*
X369366Y737099D01*
X369316Y737057D01*
X369260Y737001D01*
X369190Y736952D01*
X369112Y736895D01*
X369028Y736839D01*
X368929Y736790D01*
X368824Y736741D01*
X368711Y736691D01*
X368592Y736656D01*
X368458Y736628D01*
X368317Y736607D01*
X368170Y736600D01*
X368106D01*
X368057Y736607D01*
X368001Y736614D01*
X367937Y736621D01*
X367860Y736628D01*
X367783Y736649D01*
X367607Y736691D01*
X367431Y736755D01*
X367339Y736797D01*
X367248Y736846D01*
X367163Y736902D01*
X367079Y736966D01*
X367072Y736973D01*
X367058Y736980D01*
X367044Y737008D01*
X367016Y737036D01*
X366981Y737071D01*
X366945Y737113D01*
X366903Y737170D01*
X366868Y737233D01*
X366826Y737296D01*
X366783Y737374D01*
X366706Y737543D01*
X366643Y737740D01*
X366622Y737845D01*
X366608Y737958D01*
X367234Y738007D01*
Y738000D01*
Y737986D01*
X367241Y737965D01*
X367248Y737930D01*
X367269Y737852D01*
X367297Y737747D01*
X367339Y737641D01*
X367396Y737522D01*
X367466Y737416D01*
X367550Y737318D01*
X367564Y737310D01*
X367593Y737282D01*
X367649Y737247D01*
X367726Y737205D01*
X367811Y737163D01*
X367916Y737128D01*
X368036Y737099D01*
X368170Y737092D01*
X368212D01*
X368240Y737099D01*
X368324Y737106D01*
X368423Y737135D01*
X368542Y737170D01*
X368662Y737226D01*
X368789Y737310D01*
X368845Y737360D01*
X368901Y737416D01*
X368908Y737423D01*
X368915Y737430D01*
X368929Y737451D01*
X368951Y737472D01*
X369000Y737550D01*
X369056Y737648D01*
X369105Y737768D01*
X369155Y737916D01*
X369190Y738092D01*
X369204Y738183D01*
Y738281D01*
Y738288D01*
Y738303D01*
Y738331D01*
X369197Y738366D01*
Y738408D01*
X369190Y738457D01*
X369169Y738570D01*
X369133Y738704D01*
X369084Y738837D01*
X369014Y738964D01*
X368915Y739083D01*
Y739090D01*
X368901Y739098D01*
X368866Y739133D01*
X368803Y739182D01*
X368718Y739238D01*
X368606Y739287D01*
X368479Y739337D01*
X368331Y739372D01*
X368247Y739386D01*
X368113D01*
X368057Y739379D01*
X367987Y739372D01*
X367902Y739351D01*
X367818Y739330D01*
X367726Y739295D01*
X367635Y739252D01*
X367628Y739245D01*
X367600Y739231D01*
X367557Y739196D01*
X367501Y739161D01*
X367445Y739112D01*
X367388Y739048D01*
X367325Y738985D01*
X367276Y738908D01*
X366713Y738985D01*
X367184Y741490D01*
X369605D01*
Y740920D01*
D02*
G37*
G36*
X364265Y741546D02*
X364328D01*
X364476Y741539D01*
X364631Y741518D01*
X364799Y741497D01*
X364954Y741462D01*
X365032Y741441D01*
X365095Y741419D01*
X365102D01*
X365109Y741412D01*
X365151Y741391D01*
X365215Y741363D01*
X365292Y741314D01*
X365376Y741251D01*
X365468Y741166D01*
X365552Y741068D01*
X365637Y740955D01*
Y740948D01*
X365644Y740941D01*
X365672Y740899D01*
X365700Y740828D01*
X365742Y740737D01*
X365777Y740631D01*
X365812Y740505D01*
X365834Y740371D01*
X365841Y740223D01*
Y740216D01*
Y740202D01*
Y740174D01*
X365834Y740139D01*
Y740090D01*
X365827Y740040D01*
X365798Y739921D01*
X365756Y739780D01*
X365700Y739632D01*
X365616Y739485D01*
X365559Y739414D01*
X365503Y739344D01*
X365496Y739337D01*
X365489Y739330D01*
X365468Y739309D01*
X365440Y739287D01*
X365405Y739259D01*
X365362Y739231D01*
X365306Y739196D01*
X365250Y739154D01*
X365179Y739119D01*
X365102Y739083D01*
X365018Y739041D01*
X364926Y739006D01*
X364821Y738978D01*
X364715Y738943D01*
X364595Y738922D01*
X364469Y738901D01*
X364483Y738894D01*
X364511Y738879D01*
X364553Y738851D01*
X364609Y738823D01*
X364736Y738746D01*
X364799Y738697D01*
X364856Y738654D01*
X364870Y738640D01*
X364905Y738605D01*
X364961Y738549D01*
X365032Y738478D01*
X365109Y738380D01*
X365200Y738274D01*
X365292Y738148D01*
X365390Y738007D01*
X366228Y736684D01*
X365426D01*
X364785Y737698D01*
Y737704D01*
X364771Y737719D01*
X364757Y737740D01*
X364736Y737768D01*
X364687Y737845D01*
X364623Y737944D01*
X364546Y738049D01*
X364469Y738162D01*
X364391Y738267D01*
X364321Y738366D01*
X364314Y738373D01*
X364293Y738401D01*
X364258Y738443D01*
X364208Y738493D01*
X364103Y738598D01*
X364047Y738647D01*
X363990Y738689D01*
X363983Y738697D01*
X363969Y738704D01*
X363941Y738718D01*
X363899Y738739D01*
X363857Y738760D01*
X363807Y738781D01*
X363695Y738816D01*
X363688D01*
X363674Y738823D01*
X363646D01*
X363610Y738830D01*
X363561Y738837D01*
X363505D01*
X363427Y738844D01*
X362597D01*
Y736684D01*
X361950D01*
Y741553D01*
X364208D01*
X364265Y741546D01*
D02*
G37*
G36*
X420525Y820824D02*
X420616D01*
X420722Y820817D01*
X420827Y820803D01*
X421067Y820782D01*
X421320Y820747D01*
X421559Y820697D01*
X421679Y820662D01*
X421784Y820627D01*
X421791D01*
X421805Y820620D01*
X421834Y820606D01*
X421876Y820592D01*
X421918Y820571D01*
X421974Y820543D01*
X422094Y820472D01*
X422228Y820388D01*
X422368Y820289D01*
X422502Y820163D01*
X422622Y820022D01*
Y820015D01*
X422636Y820001D01*
X422650Y819980D01*
X422664Y819952D01*
X422685Y819909D01*
X422713Y819867D01*
X422741Y819811D01*
X422762Y819755D01*
X422819Y819621D01*
X422868Y819459D01*
X422896Y819283D01*
X422910Y819086D01*
Y819030D01*
X422903Y818995D01*
Y818945D01*
X422896Y818889D01*
X422868Y818756D01*
X422833Y818608D01*
X422776Y818453D01*
X422699Y818298D01*
X422650Y818221D01*
X422593Y818150D01*
X422587Y818143D01*
X422579Y818136D01*
X422558Y818115D01*
X422537Y818094D01*
X422502Y818066D01*
X422460Y818031D01*
X422361Y817961D01*
X422235Y817890D01*
X422080Y817820D01*
X421904Y817764D01*
X421700Y817721D01*
X421651Y818298D01*
X421658D01*
X421672Y818305D01*
X421686D01*
X421714Y818312D01*
X421791Y818333D01*
X421876Y818362D01*
X421974Y818397D01*
X422073Y818446D01*
X422164Y818502D01*
X422242Y818573D01*
X422249Y818580D01*
X422270Y818608D01*
X422298Y818657D01*
X422326Y818713D01*
X422361Y818791D01*
X422389Y818882D01*
X422411Y818988D01*
X422418Y819100D01*
Y819150D01*
X422411Y819199D01*
X422403Y819262D01*
X422389Y819340D01*
X422368Y819417D01*
X422340Y819501D01*
X422298Y819579D01*
X422291Y819586D01*
X422277Y819614D01*
X422249Y819656D01*
X422206Y819698D01*
X422157Y819755D01*
X422101Y819811D01*
X422038Y819867D01*
X421960Y819923D01*
X421953Y819930D01*
X421918Y819945D01*
X421869Y819973D01*
X421805Y820001D01*
X421721Y820036D01*
X421623Y820071D01*
X421510Y820106D01*
X421383Y820142D01*
X421376D01*
X421369Y820149D01*
X421348D01*
X421320Y820156D01*
X421250Y820170D01*
X421158Y820191D01*
X421046Y820205D01*
X420926Y820219D01*
X420792Y820226D01*
X420652Y820233D01*
X420645D01*
X420624D01*
X420588D01*
X420532D01*
X420546Y820226D01*
X420581Y820198D01*
X420630Y820156D01*
X420701Y820106D01*
X420771Y820036D01*
X420849Y819952D01*
X420926Y819853D01*
X420996Y819741D01*
X421003Y819726D01*
X421025Y819684D01*
X421053Y819621D01*
X421081Y819544D01*
X421116Y819438D01*
X421144Y819325D01*
X421165Y819199D01*
X421172Y819065D01*
Y819009D01*
X421165Y818967D01*
X421158Y818910D01*
X421151Y818854D01*
X421137Y818784D01*
X421116Y818713D01*
X421067Y818551D01*
X421032Y818467D01*
X420989Y818383D01*
X420940Y818291D01*
X420877Y818207D01*
X420813Y818122D01*
X420736Y818045D01*
X420729Y818038D01*
X420715Y818024D01*
X420694Y818010D01*
X420659Y817982D01*
X420609Y817946D01*
X420560Y817911D01*
X420497Y817876D01*
X420426Y817841D01*
X420349Y817799D01*
X420265Y817764D01*
X420166Y817728D01*
X420068Y817693D01*
X419955Y817665D01*
X419836Y817651D01*
X419716Y817637D01*
X419582Y817630D01*
X419575D01*
X419547D01*
X419512D01*
X419463Y817637D01*
X419399Y817644D01*
X419322Y817651D01*
X419244Y817665D01*
X419153Y817686D01*
X418970Y817735D01*
X418872Y817771D01*
X418766Y817813D01*
X418667Y817862D01*
X418576Y817925D01*
X418478Y817989D01*
X418393Y818066D01*
X418386Y818073D01*
X418372Y818087D01*
X418351Y818108D01*
X418323Y818143D01*
X418288Y818186D01*
X418245Y818242D01*
X418210Y818298D01*
X418161Y818369D01*
X418119Y818439D01*
X418084Y818523D01*
X418006Y818713D01*
X417978Y818812D01*
X417957Y818924D01*
X417943Y819037D01*
X417936Y819157D01*
Y819206D01*
X417943Y819241D01*
Y819276D01*
X417950Y819325D01*
X417971Y819445D01*
X417999Y819579D01*
X418048Y819726D01*
X418112Y819874D01*
X418196Y820022D01*
Y820029D01*
X418210Y820036D01*
X418224Y820057D01*
X418245Y820085D01*
X418302Y820156D01*
X418379Y820247D01*
X418485Y820339D01*
X418611Y820444D01*
X418759Y820536D01*
X418928Y820620D01*
X418935D01*
X418949Y820627D01*
X418977Y820641D01*
X419012Y820655D01*
X419062Y820669D01*
X419125Y820690D01*
X419195Y820704D01*
X419273Y820726D01*
X419364Y820747D01*
X419470Y820768D01*
X419582Y820782D01*
X419702Y820796D01*
X419836Y820810D01*
X419976Y820824D01*
X420131Y820831D01*
X420293D01*
X420300D01*
X420335D01*
X420384D01*
X420448D01*
X420525Y820824D01*
D02*
G37*
G36*
X422826Y815498D02*
X419019D01*
X419026Y815491D01*
X419054Y815456D01*
X419097Y815414D01*
X419146Y815343D01*
X419209Y815266D01*
X419280Y815167D01*
X419357Y815055D01*
X419434Y814928D01*
Y814921D01*
X419441Y814914D01*
X419470Y814872D01*
X419505Y814801D01*
X419547Y814717D01*
X419596Y814619D01*
X419646Y814513D01*
X419695Y814407D01*
X419737Y814302D01*
X419160D01*
Y814309D01*
X419146Y814323D01*
X419139Y814351D01*
X419118Y814386D01*
X419097Y814428D01*
X419069Y814478D01*
X418998Y814597D01*
X418921Y814738D01*
X418822Y814879D01*
X418710Y815027D01*
X418590Y815174D01*
X418583Y815181D01*
X418576Y815188D01*
X418555Y815210D01*
X418534Y815238D01*
X418464Y815301D01*
X418379Y815385D01*
X418281Y815470D01*
X418168Y815561D01*
X418055Y815639D01*
X417936Y815709D01*
Y816096D01*
X422826D01*
Y815498D01*
D02*
G37*
G36*
X421320Y813289D02*
X421362Y813275D01*
X421418Y813254D01*
X421482Y813232D01*
X421559Y813204D01*
X421644Y813169D01*
X421735Y813127D01*
X421932Y813028D01*
X422129Y812902D01*
X422228Y812824D01*
X422326Y812747D01*
X422411Y812663D01*
X422495Y812564D01*
X422502Y812557D01*
X422516Y812543D01*
X422530Y812508D01*
X422558Y812473D01*
X422593Y812416D01*
X422629Y812360D01*
X422664Y812283D01*
X422699Y812205D01*
X422741Y812114D01*
X422776Y812015D01*
X422812Y811910D01*
X422847Y811797D01*
X422875Y811677D01*
X422889Y811551D01*
X422903Y811417D01*
X422910Y811276D01*
Y811199D01*
X422903Y811143D01*
Y811079D01*
X422896Y811002D01*
X422882Y810918D01*
X422868Y810819D01*
X422833Y810615D01*
X422776Y810404D01*
X422699Y810193D01*
X422650Y810095D01*
X422593Y809996D01*
X422587Y809989D01*
X422579Y809975D01*
X422558Y809947D01*
X422530Y809919D01*
X422502Y809876D01*
X422460Y809827D01*
X422411Y809771D01*
X422354Y809715D01*
X422291Y809658D01*
X422228Y809595D01*
X422066Y809468D01*
X421876Y809349D01*
X421665Y809243D01*
X421658D01*
X421637Y809229D01*
X421601Y809222D01*
X421559Y809201D01*
X421503Y809187D01*
X421433Y809166D01*
X421355Y809138D01*
X421271Y809117D01*
X421179Y809095D01*
X421074Y809067D01*
X420856Y809032D01*
X420609Y809004D01*
X420356Y808990D01*
X420349D01*
X420321D01*
X420279D01*
X420229Y808997D01*
X420159D01*
X420089Y809004D01*
X419997Y809011D01*
X419906Y809025D01*
X419702Y809060D01*
X419477Y809109D01*
X419252Y809180D01*
X419033Y809278D01*
X419026Y809285D01*
X419005Y809292D01*
X418977Y809306D01*
X418942Y809335D01*
X418893Y809363D01*
X418836Y809398D01*
X418710Y809489D01*
X418569Y809609D01*
X418428Y809750D01*
X418288Y809912D01*
X418168Y810101D01*
X418161Y810109D01*
X418154Y810130D01*
X418140Y810158D01*
X418119Y810193D01*
X418098Y810249D01*
X418077Y810306D01*
X418048Y810376D01*
X418020Y810453D01*
X417992Y810538D01*
X417964Y810629D01*
X417922Y810826D01*
X417887Y811051D01*
X417873Y811283D01*
Y811354D01*
X417879Y811403D01*
X417887Y811467D01*
X417894Y811544D01*
X417901Y811621D01*
X417922Y811713D01*
X417964Y811903D01*
X418027Y812114D01*
X418069Y812219D01*
X418119Y812318D01*
X418182Y812416D01*
X418245Y812515D01*
X418252Y812522D01*
X418260Y812536D01*
X418281Y812564D01*
X418316Y812599D01*
X418351Y812634D01*
X418400Y812684D01*
X418456Y812733D01*
X418513Y812789D01*
X418583Y812846D01*
X418667Y812902D01*
X418752Y812965D01*
X418843Y813021D01*
X418949Y813071D01*
X419054Y813127D01*
X419167Y813169D01*
X419294Y813211D01*
X419441Y812578D01*
X419434D01*
X419420Y812571D01*
X419392Y812557D01*
X419357Y812543D01*
X419315Y812529D01*
X419258Y812508D01*
X419146Y812451D01*
X419019Y812381D01*
X418893Y812297D01*
X418773Y812191D01*
X418667Y812079D01*
X418653Y812065D01*
X418625Y812022D01*
X418590Y811952D01*
X418541Y811861D01*
X418499Y811741D01*
X418456Y811607D01*
X418428Y811445D01*
X418421Y811270D01*
Y811213D01*
X418428Y811178D01*
Y811129D01*
X418435Y811072D01*
X418456Y810939D01*
X418485Y810791D01*
X418534Y810636D01*
X418604Y810474D01*
X418696Y810327D01*
Y810320D01*
X418710Y810313D01*
X418745Y810263D01*
X418801Y810200D01*
X418886Y810123D01*
X418991Y810031D01*
X419111Y809947D01*
X419258Y809869D01*
X419420Y809799D01*
X419427D01*
X419441Y809792D01*
X419463Y809785D01*
X419498Y809778D01*
X419540Y809764D01*
X419589Y809750D01*
X419709Y809729D01*
X419850Y809700D01*
X420004Y809672D01*
X420173Y809658D01*
X420356Y809651D01*
X420363D01*
X420384D01*
X420420D01*
X420462D01*
X420511Y809658D01*
X420574D01*
X420645Y809665D01*
X420722Y809672D01*
X420891Y809694D01*
X421074Y809729D01*
X421257Y809771D01*
X421440Y809827D01*
X421447D01*
X421461Y809834D01*
X421482Y809848D01*
X421517Y809862D01*
X421601Y809904D01*
X421700Y809968D01*
X421813Y810045D01*
X421932Y810144D01*
X422038Y810256D01*
X422136Y810390D01*
Y810397D01*
X422143Y810411D01*
X422157Y810432D01*
X422171Y810460D01*
X422185Y810496D01*
X422206Y810538D01*
X422249Y810636D01*
X422291Y810763D01*
X422326Y810904D01*
X422354Y811058D01*
X422361Y811220D01*
Y811270D01*
X422354Y811312D01*
Y811361D01*
X422347Y811410D01*
X422319Y811537D01*
X422284Y811685D01*
X422228Y811832D01*
X422150Y811987D01*
X422108Y812065D01*
X422052Y812135D01*
X422045Y812142D01*
X422038Y812149D01*
X422017Y812170D01*
X421996Y812198D01*
X421960Y812226D01*
X421918Y812262D01*
X421876Y812304D01*
X421820Y812339D01*
X421756Y812381D01*
X421686Y812430D01*
X421615Y812473D01*
X421531Y812515D01*
X421440Y812550D01*
X421341Y812585D01*
X421236Y812620D01*
X421123Y812648D01*
X421285Y813296D01*
X421292D01*
X421320Y813289D01*
D02*
G37*
G36*
X329852Y779545D02*
X329908Y779538D01*
X329972Y779531D01*
X330049Y779517D01*
X330126Y779503D01*
X330309Y779460D01*
X330499Y779390D01*
X330598Y779348D01*
X330689Y779292D01*
X330788Y779235D01*
X330879Y779165D01*
X330886Y779158D01*
X330907Y779144D01*
X330935Y779116D01*
X330971Y779080D01*
X331013Y779031D01*
X331069Y778975D01*
X331118Y778904D01*
X331175Y778827D01*
X331231Y778743D01*
X331280Y778644D01*
X331329Y778539D01*
X331379Y778426D01*
X331414Y778307D01*
X331442Y778173D01*
X331463Y778032D01*
X331470Y777884D01*
Y777821D01*
X331463Y777772D01*
X331456Y777716D01*
X331449Y777652D01*
X331442Y777575D01*
X331421Y777497D01*
X331379Y777321D01*
X331315Y777146D01*
X331273Y777054D01*
X331224Y776963D01*
X331168Y776878D01*
X331104Y776794D01*
X331097Y776787D01*
X331090Y776773D01*
X331062Y776759D01*
X331034Y776730D01*
X330999Y776695D01*
X330956Y776660D01*
X330900Y776618D01*
X330837Y776583D01*
X330774Y776541D01*
X330696Y776498D01*
X330527Y776421D01*
X330330Y776358D01*
X330225Y776336D01*
X330112Y776322D01*
X330063Y776949D01*
X330070D01*
X330084D01*
X330105Y776956D01*
X330140Y776963D01*
X330218Y776984D01*
X330323Y777012D01*
X330429Y777054D01*
X330548Y777110D01*
X330654Y777181D01*
X330752Y777265D01*
X330760Y777279D01*
X330788Y777307D01*
X330823Y777364D01*
X330865Y777441D01*
X330907Y777525D01*
X330942Y777631D01*
X330971Y777751D01*
X330978Y777884D01*
Y777926D01*
X330971Y777955D01*
X330964Y778039D01*
X330935Y778138D01*
X330900Y778257D01*
X330844Y778377D01*
X330760Y778503D01*
X330710Y778560D01*
X330654Y778616D01*
X330647Y778623D01*
X330640Y778630D01*
X330619Y778644D01*
X330598Y778665D01*
X330520Y778715D01*
X330422Y778771D01*
X330302Y778820D01*
X330154Y778869D01*
X329978Y778904D01*
X329887Y778919D01*
X329789D01*
X329781D01*
X329767D01*
X329739D01*
X329704Y778912D01*
X329662D01*
X329613Y778904D01*
X329500Y778883D01*
X329366Y778848D01*
X329233Y778799D01*
X329106Y778729D01*
X328987Y778630D01*
X328979D01*
X328972Y778616D01*
X328937Y778581D01*
X328888Y778518D01*
X328832Y778433D01*
X328783Y778320D01*
X328733Y778194D01*
X328698Y778046D01*
X328684Y777962D01*
Y777828D01*
X328691Y777772D01*
X328698Y777701D01*
X328719Y777617D01*
X328740Y777533D01*
X328775Y777441D01*
X328818Y777350D01*
X328825Y777343D01*
X328839Y777314D01*
X328874Y777272D01*
X328909Y777216D01*
X328958Y777160D01*
X329022Y777103D01*
X329085Y777040D01*
X329162Y776991D01*
X329085Y776428D01*
X326580Y776899D01*
Y779320D01*
X327150D01*
Y777371D01*
X328466Y777110D01*
X328459Y777117D01*
X328452Y777132D01*
X328438Y777153D01*
X328417Y777188D01*
X328396Y777230D01*
X328367Y777279D01*
X328311Y777392D01*
X328255Y777533D01*
X328205Y777687D01*
X328170Y777856D01*
X328156Y777941D01*
Y778095D01*
X328163Y778138D01*
X328170Y778194D01*
X328177Y778257D01*
X328191Y778328D01*
X328213Y778405D01*
X328262Y778574D01*
X328297Y778665D01*
X328346Y778757D01*
X328396Y778848D01*
X328452Y778940D01*
X328522Y779024D01*
X328600Y779109D01*
X328607Y779116D01*
X328621Y779130D01*
X328642Y779151D01*
X328677Y779179D01*
X328726Y779214D01*
X328775Y779249D01*
X328839Y779292D01*
X328909Y779334D01*
X328987Y779369D01*
X329071Y779411D01*
X329169Y779446D01*
X329268Y779481D01*
X329374Y779510D01*
X329493Y779531D01*
X329613Y779545D01*
X329739Y779552D01*
X329746D01*
X329767D01*
X329803D01*
X329852Y779545D01*
D02*
G37*
G36*
X331386Y774191D02*
X327579D01*
X327586Y774184D01*
X327615Y774148D01*
X327657Y774106D01*
X327706Y774036D01*
X327769Y773958D01*
X327840Y773860D01*
X327917Y773747D01*
X327994Y773621D01*
Y773614D01*
X328002Y773607D01*
X328030Y773564D01*
X328065Y773494D01*
X328107Y773410D01*
X328156Y773311D01*
X328205Y773205D01*
X328255Y773100D01*
X328297Y772994D01*
X327720D01*
Y773001D01*
X327706Y773016D01*
X327699Y773044D01*
X327678Y773079D01*
X327657Y773121D01*
X327629Y773170D01*
X327558Y773290D01*
X327481Y773431D01*
X327382Y773571D01*
X327270Y773719D01*
X327150Y773867D01*
X327143Y773874D01*
X327136Y773881D01*
X327115Y773902D01*
X327094Y773930D01*
X327024Y773994D01*
X326939Y774078D01*
X326841Y774162D01*
X326728Y774254D01*
X326615Y774331D01*
X326496Y774402D01*
Y774789D01*
X331386D01*
Y774191D01*
D02*
G37*
G36*
X329880Y771981D02*
X329922Y771967D01*
X329978Y771946D01*
X330042Y771925D01*
X330119Y771897D01*
X330204Y771862D01*
X330295Y771820D01*
X330492Y771721D01*
X330689Y771594D01*
X330788Y771517D01*
X330886Y771440D01*
X330971Y771355D01*
X331055Y771257D01*
X331062Y771250D01*
X331076Y771236D01*
X331090Y771200D01*
X331118Y771165D01*
X331153Y771109D01*
X331189Y771053D01*
X331224Y770975D01*
X331259Y770898D01*
X331301Y770806D01*
X331336Y770708D01*
X331372Y770602D01*
X331407Y770490D01*
X331435Y770370D01*
X331449Y770243D01*
X331463Y770110D01*
X331470Y769969D01*
Y769892D01*
X331463Y769835D01*
Y769772D01*
X331456Y769695D01*
X331442Y769610D01*
X331428Y769512D01*
X331393Y769308D01*
X331336Y769097D01*
X331259Y768885D01*
X331210Y768787D01*
X331153Y768689D01*
X331147Y768681D01*
X331139Y768667D01*
X331118Y768639D01*
X331090Y768611D01*
X331062Y768569D01*
X331020Y768520D01*
X330971Y768463D01*
X330914Y768407D01*
X330851Y768351D01*
X330788Y768288D01*
X330626Y768161D01*
X330436Y768041D01*
X330225Y767936D01*
X330218D01*
X330197Y767922D01*
X330162Y767915D01*
X330119Y767894D01*
X330063Y767879D01*
X329993Y767858D01*
X329915Y767830D01*
X329831Y767809D01*
X329739Y767788D01*
X329634Y767760D01*
X329416Y767725D01*
X329169Y767697D01*
X328916Y767682D01*
X328909D01*
X328881D01*
X328839D01*
X328789Y767689D01*
X328719D01*
X328649Y767697D01*
X328557Y767703D01*
X328466Y767718D01*
X328262Y767753D01*
X328037Y767802D01*
X327812Y767872D01*
X327593Y767971D01*
X327586Y767978D01*
X327565Y767985D01*
X327537Y767999D01*
X327502Y768027D01*
X327453Y768055D01*
X327396Y768091D01*
X327270Y768182D01*
X327129Y768302D01*
X326988Y768442D01*
X326848Y768604D01*
X326728Y768794D01*
X326721Y768801D01*
X326714Y768822D01*
X326700Y768850D01*
X326679Y768885D01*
X326658Y768942D01*
X326637Y768998D01*
X326608Y769069D01*
X326580Y769146D01*
X326552Y769230D01*
X326524Y769322D01*
X326482Y769519D01*
X326447Y769744D01*
X326432Y769976D01*
Y770046D01*
X326440Y770096D01*
X326447Y770159D01*
X326454Y770236D01*
X326461Y770314D01*
X326482Y770405D01*
X326524Y770595D01*
X326587Y770806D01*
X326629Y770912D01*
X326679Y771010D01*
X326742Y771109D01*
X326805Y771207D01*
X326812Y771214D01*
X326819Y771228D01*
X326841Y771257D01*
X326876Y771292D01*
X326911Y771327D01*
X326960Y771376D01*
X327016Y771425D01*
X327073Y771482D01*
X327143Y771538D01*
X327228Y771594D01*
X327312Y771658D01*
X327403Y771714D01*
X327509Y771763D01*
X327615Y771820D01*
X327727Y771862D01*
X327854Y771904D01*
X328002Y771271D01*
X327994D01*
X327980Y771264D01*
X327952Y771250D01*
X327917Y771236D01*
X327875Y771221D01*
X327818Y771200D01*
X327706Y771144D01*
X327579Y771074D01*
X327453Y770989D01*
X327333Y770884D01*
X327228Y770771D01*
X327214Y770757D01*
X327185Y770715D01*
X327150Y770645D01*
X327101Y770553D01*
X327059Y770433D01*
X327016Y770300D01*
X326988Y770138D01*
X326981Y769962D01*
Y769906D01*
X326988Y769871D01*
Y769821D01*
X326995Y769765D01*
X327016Y769631D01*
X327045Y769484D01*
X327094Y769329D01*
X327164Y769167D01*
X327256Y769019D01*
Y769012D01*
X327270Y769005D01*
X327305Y768956D01*
X327361Y768893D01*
X327446Y768815D01*
X327551Y768724D01*
X327671Y768639D01*
X327818Y768562D01*
X327980Y768492D01*
X327987D01*
X328002Y768484D01*
X328023Y768477D01*
X328058Y768470D01*
X328100Y768456D01*
X328149Y768442D01*
X328269Y768421D01*
X328410Y768393D01*
X328564Y768365D01*
X328733Y768351D01*
X328916Y768344D01*
X328923D01*
X328944D01*
X328979D01*
X329022D01*
X329071Y768351D01*
X329134D01*
X329205Y768358D01*
X329282Y768365D01*
X329451Y768386D01*
X329634Y768421D01*
X329817Y768463D01*
X330000Y768520D01*
X330007D01*
X330021Y768527D01*
X330042Y768541D01*
X330077Y768555D01*
X330162Y768597D01*
X330260Y768660D01*
X330373Y768738D01*
X330492Y768836D01*
X330598Y768949D01*
X330696Y769082D01*
Y769090D01*
X330703Y769104D01*
X330717Y769125D01*
X330731Y769153D01*
X330745Y769188D01*
X330766Y769230D01*
X330809Y769329D01*
X330851Y769455D01*
X330886Y769596D01*
X330914Y769751D01*
X330921Y769913D01*
Y769962D01*
X330914Y770004D01*
Y770053D01*
X330907Y770103D01*
X330879Y770229D01*
X330844Y770377D01*
X330788Y770525D01*
X330710Y770680D01*
X330668Y770757D01*
X330612Y770827D01*
X330605Y770835D01*
X330598Y770842D01*
X330577Y770863D01*
X330555Y770891D01*
X330520Y770919D01*
X330478Y770954D01*
X330436Y770996D01*
X330380Y771031D01*
X330316Y771074D01*
X330246Y771123D01*
X330176Y771165D01*
X330091Y771207D01*
X330000Y771243D01*
X329901Y771278D01*
X329796Y771313D01*
X329683Y771341D01*
X329845Y771988D01*
X329852D01*
X329880Y771981D01*
D02*
G37*
G36*
X332881Y739133D02*
X332951D01*
X333021Y739126D01*
X333113Y739119D01*
X333204Y739105D01*
X333408Y739070D01*
X333633Y739020D01*
X333858Y738950D01*
X334077Y738852D01*
X334084Y738845D01*
X334105Y738838D01*
X334133Y738823D01*
X334168Y738795D01*
X334217Y738767D01*
X334274Y738732D01*
X334400Y738641D01*
X334541Y738521D01*
X334682Y738380D01*
X334822Y738218D01*
X334942Y738028D01*
X334949Y738021D01*
X334956Y738000D01*
X334970Y737972D01*
X334991Y737937D01*
X335012Y737881D01*
X335033Y737824D01*
X335062Y737754D01*
X335090Y737677D01*
X335118Y737592D01*
X335146Y737501D01*
X335188Y737304D01*
X335223Y737079D01*
X335238Y736846D01*
Y736776D01*
X335230Y736727D01*
X335223Y736664D01*
X335216Y736586D01*
X335209Y736509D01*
X335188Y736417D01*
X335146Y736227D01*
X335083Y736016D01*
X335041Y735911D01*
X334991Y735812D01*
X334928Y735714D01*
X334865Y735615D01*
X334858Y735608D01*
X334851Y735594D01*
X334829Y735566D01*
X334794Y735531D01*
X334759Y735496D01*
X334710Y735446D01*
X334654Y735397D01*
X334597Y735341D01*
X334527Y735285D01*
X334442Y735228D01*
X334358Y735165D01*
X334267Y735109D01*
X334161Y735059D01*
X334055Y735003D01*
X333943Y734961D01*
X333816Y734919D01*
X333669Y735552D01*
X333676D01*
X333690Y735559D01*
X333718Y735573D01*
X333753Y735587D01*
X333795Y735601D01*
X333852Y735622D01*
X333964Y735678D01*
X334091Y735749D01*
X334217Y735833D01*
X334337Y735939D01*
X334442Y736051D01*
X334456Y736066D01*
X334485Y736108D01*
X334520Y736178D01*
X334569Y736270D01*
X334611Y736389D01*
X334654Y736523D01*
X334682Y736685D01*
X334689Y736861D01*
Y736917D01*
X334682Y736952D01*
Y737001D01*
X334675Y737057D01*
X334654Y737191D01*
X334625Y737339D01*
X334576Y737494D01*
X334506Y737656D01*
X334414Y737803D01*
Y737810D01*
X334400Y737817D01*
X334365Y737867D01*
X334309Y737930D01*
X334224Y738007D01*
X334119Y738099D01*
X333999Y738183D01*
X333852Y738261D01*
X333690Y738331D01*
X333683D01*
X333669Y738338D01*
X333647Y738345D01*
X333612Y738352D01*
X333570Y738366D01*
X333521Y738380D01*
X333401Y738401D01*
X333260Y738429D01*
X333106Y738458D01*
X332937Y738472D01*
X332754Y738479D01*
X332747D01*
X332726D01*
X332691D01*
X332648D01*
X332599Y738472D01*
X332536D01*
X332465Y738465D01*
X332388Y738458D01*
X332219Y738437D01*
X332036Y738401D01*
X331853Y738359D01*
X331670Y738303D01*
X331663D01*
X331649Y738296D01*
X331628Y738282D01*
X331593Y738268D01*
X331508Y738225D01*
X331410Y738162D01*
X331297Y738085D01*
X331178Y737986D01*
X331072Y737874D01*
X330974Y737740D01*
Y737733D01*
X330967Y737719D01*
X330953Y737698D01*
X330939Y737670D01*
X330925Y737635D01*
X330904Y737592D01*
X330861Y737494D01*
X330819Y737367D01*
X330784Y737226D01*
X330756Y737072D01*
X330749Y736910D01*
Y736861D01*
X330756Y736818D01*
Y736769D01*
X330763Y736720D01*
X330791Y736593D01*
X330826Y736445D01*
X330882Y736298D01*
X330960Y736143D01*
X331002Y736066D01*
X331058Y735995D01*
X331065Y735988D01*
X331072Y735981D01*
X331093Y735960D01*
X331115Y735932D01*
X331150Y735904D01*
X331192Y735869D01*
X331234Y735826D01*
X331290Y735791D01*
X331354Y735749D01*
X331424Y735700D01*
X331494Y735657D01*
X331579Y735615D01*
X331670Y735580D01*
X331769Y735545D01*
X331874Y735510D01*
X331987Y735481D01*
X331825Y734834D01*
X331818D01*
X331790Y734841D01*
X331748Y734855D01*
X331692Y734876D01*
X331628Y734898D01*
X331551Y734926D01*
X331466Y734961D01*
X331375Y735003D01*
X331178Y735102D01*
X330981Y735228D01*
X330882Y735306D01*
X330784Y735383D01*
X330699Y735467D01*
X330615Y735566D01*
X330608Y735573D01*
X330594Y735587D01*
X330580Y735622D01*
X330552Y735657D01*
X330517Y735714D01*
X330481Y735770D01*
X330446Y735847D01*
X330411Y735925D01*
X330369Y736016D01*
X330334Y736115D01*
X330298Y736220D01*
X330263Y736333D01*
X330235Y736452D01*
X330221Y736579D01*
X330207Y736713D01*
X330200Y736853D01*
Y736931D01*
X330207Y736987D01*
Y737050D01*
X330214Y737128D01*
X330228Y737212D01*
X330242Y737311D01*
X330277Y737515D01*
X330334Y737726D01*
X330411Y737937D01*
X330460Y738036D01*
X330517Y738134D01*
X330523Y738141D01*
X330531Y738155D01*
X330552Y738183D01*
X330580Y738211D01*
X330608Y738254D01*
X330650Y738303D01*
X330699Y738359D01*
X330756Y738415D01*
X330819Y738472D01*
X330882Y738535D01*
X331044Y738662D01*
X331234Y738781D01*
X331445Y738887D01*
X331452D01*
X331473Y738901D01*
X331508Y738908D01*
X331551Y738929D01*
X331607Y738943D01*
X331677Y738964D01*
X331755Y738992D01*
X331839Y739014D01*
X331931Y739035D01*
X332036Y739063D01*
X332254Y739098D01*
X332501Y739126D01*
X332754Y739140D01*
X332761D01*
X332789D01*
X332831D01*
X332881Y739133D01*
D02*
G37*
G36*
X333950Y733821D02*
X333964Y733807D01*
X333971Y733779D01*
X333992Y733744D01*
X334013Y733701D01*
X334041Y733652D01*
X334112Y733533D01*
X334189Y733392D01*
X334288Y733251D01*
X334400Y733103D01*
X334520Y732956D01*
X334527Y732949D01*
X334534Y732942D01*
X334555Y732921D01*
X334576Y732892D01*
X334646Y732829D01*
X334731Y732745D01*
X334829Y732660D01*
X334942Y732569D01*
X335055Y732491D01*
X335174Y732421D01*
Y732034D01*
X330284D01*
Y732632D01*
X334091D01*
X334084Y732639D01*
X334055Y732674D01*
X334013Y732716D01*
X333964Y732787D01*
X333901Y732864D01*
X333830Y732963D01*
X333753Y733075D01*
X333676Y733202D01*
Y733209D01*
X333669Y733216D01*
X333640Y733258D01*
X333605Y733329D01*
X333563Y733413D01*
X333514Y733512D01*
X333465Y733617D01*
X333415Y733723D01*
X333373Y733828D01*
X333950D01*
Y733821D01*
D02*
G37*
G36*
X335153Y728474D02*
Y727988D01*
X332001D01*
Y727327D01*
X331452D01*
Y727988D01*
X330284D01*
Y728586D01*
X331452D01*
Y730704D01*
X332001D01*
X335153Y728474D01*
D02*
G37*
G36*
X752659Y665927D02*
X753321D01*
Y665378D01*
X752659D01*
Y664210D01*
X752061D01*
Y665378D01*
X749943D01*
Y665927D01*
X752174Y669079D01*
X752659D01*
Y665927D01*
D02*
G37*
G36*
X747805Y669072D02*
X747868D01*
X748016Y669065D01*
X748170Y669044D01*
X748339Y669022D01*
X748494Y668987D01*
X748572Y668966D01*
X748635Y668945D01*
X748642D01*
X748649Y668938D01*
X748691Y668917D01*
X748755Y668889D01*
X748832Y668839D01*
X748916Y668776D01*
X749008Y668692D01*
X749092Y668593D01*
X749177Y668481D01*
Y668474D01*
X749184Y668466D01*
X749212Y668424D01*
X749240Y668354D01*
X749282Y668262D01*
X749317Y668157D01*
X749352Y668030D01*
X749374Y667897D01*
X749381Y667749D01*
Y667742D01*
Y667728D01*
Y667700D01*
X749374Y667664D01*
Y667615D01*
X749367Y667566D01*
X749339Y667446D01*
X749296Y667306D01*
X749240Y667158D01*
X749156Y667010D01*
X749099Y666940D01*
X749043Y666869D01*
X749036Y666862D01*
X749029Y666855D01*
X749008Y666834D01*
X748980Y666813D01*
X748944Y666785D01*
X748902Y666757D01*
X748846Y666722D01*
X748790Y666679D01*
X748719Y666644D01*
X748642Y666609D01*
X748558Y666567D01*
X748466Y666532D01*
X748361Y666504D01*
X748255Y666468D01*
X748135Y666447D01*
X748009Y666426D01*
X748023Y666419D01*
X748051Y666405D01*
X748093Y666377D01*
X748149Y666349D01*
X748276Y666271D01*
X748339Y666222D01*
X748396Y666180D01*
X748410Y666166D01*
X748445Y666131D01*
X748501Y666074D01*
X748572Y666004D01*
X748649Y665906D01*
X748740Y665800D01*
X748832Y665673D01*
X748930Y665533D01*
X749768Y664210D01*
X748966D01*
X748325Y665223D01*
Y665230D01*
X748311Y665244D01*
X748297Y665265D01*
X748276Y665293D01*
X748227Y665371D01*
X748164Y665469D01*
X748086Y665575D01*
X748009Y665687D01*
X747931Y665793D01*
X747861Y665891D01*
X747854Y665899D01*
X747833Y665927D01*
X747798Y665969D01*
X747748Y666018D01*
X747643Y666124D01*
X747587Y666173D01*
X747530Y666215D01*
X747523Y666222D01*
X747509Y666229D01*
X747481Y666243D01*
X747439Y666264D01*
X747397Y666285D01*
X747347Y666307D01*
X747235Y666342D01*
X747228D01*
X747214Y666349D01*
X747186D01*
X747150Y666356D01*
X747101Y666363D01*
X747045D01*
X746967Y666370D01*
X746137D01*
Y664210D01*
X745490D01*
Y669079D01*
X747748D01*
X747805Y669072D01*
D02*
G37*
G36*
X596592Y797868D02*
X594995Y796271D01*
X594951Y796236D01*
X594906Y796191D01*
X594796Y796092D01*
X594672Y795997D01*
X594538Y795893D01*
X594403Y795808D01*
X594334Y795768D01*
X594274Y795738D01*
X594269Y795733D01*
X594259D01*
X594214Y795719D01*
X594150Y795694D01*
X594060Y795674D01*
X593956Y795659D01*
X593831Y795654D01*
X593702Y795664D01*
X593563Y795684D01*
X593558Y795689D01*
X593548D01*
X593498Y795699D01*
X593428Y795729D01*
X593334Y795763D01*
X593234Y795813D01*
X593120Y795878D01*
X593010Y795957D01*
X592901Y796057D01*
X592896Y796062D01*
X592886Y796072D01*
X592866Y796092D01*
X592846Y796122D01*
X592811Y796156D01*
X592781Y796196D01*
X592717Y796301D01*
X592647Y796430D01*
X592583Y796574D01*
X592538Y796738D01*
X592528Y796828D01*
X592518Y796917D01*
Y796927D01*
Y796937D01*
Y796967D01*
X592523Y797002D01*
X592528Y797047D01*
X592538Y797097D01*
X592553Y797161D01*
X592563Y797231D01*
X592588Y797306D01*
X592617Y797385D01*
X592647Y797475D01*
X592687Y797564D01*
X592742Y797659D01*
X592791Y797758D01*
X592861Y797858D01*
X592936Y797962D01*
X592921Y797957D01*
X592891Y797947D01*
X592841Y797937D01*
X592781Y797917D01*
X592637Y797883D01*
X592558Y797873D01*
X592488Y797863D01*
X592468D01*
X592418D01*
X592339D01*
X592239D01*
X592115Y797878D01*
X591976Y797888D01*
X591821Y797913D01*
X591652Y797942D01*
X590125Y798286D01*
X590692Y798853D01*
X591861Y798589D01*
X591866Y798584D01*
X591886D01*
X591911Y798579D01*
X591946Y798574D01*
X592035Y798554D01*
X592150Y798529D01*
X592279Y798510D01*
X592413Y798485D01*
X592543Y798465D01*
X592662Y798445D01*
X592672D01*
X592707Y798440D01*
X592762Y798435D01*
X592831D01*
X592980D01*
X593055Y798440D01*
X593125Y798450D01*
X593135D01*
X593150Y798455D01*
X593180Y798465D01*
X593224Y798480D01*
X593269Y798495D01*
X593319Y798514D01*
X593423Y798569D01*
X593428Y798574D01*
X593443Y798579D01*
X593463Y798599D01*
X593493Y798619D01*
X593533Y798649D01*
X593573Y798689D01*
X593632Y798738D01*
X594219Y799325D01*
X592692Y800853D01*
X593150Y801311D01*
X596592Y797868D01*
D02*
G37*
G36*
X589662Y797485D02*
X589672D01*
X589702D01*
X589732D01*
X589777Y797480D01*
X589831Y797475D01*
X589951Y797455D01*
X590090Y797415D01*
X590249Y797355D01*
X590413Y797271D01*
X590588Y797156D01*
X590214Y796713D01*
X590209Y796719D01*
X590195Y796723D01*
X590185Y796733D01*
X590160Y796748D01*
X590090Y796788D01*
X590010Y796828D01*
X589916Y796873D01*
X589811Y796908D01*
X589707Y796932D01*
X589603Y796937D01*
X589593D01*
X589558Y796932D01*
X589503Y796917D01*
X589443Y796898D01*
X589364Y796868D01*
X589279Y796823D01*
X589190Y796763D01*
X589105Y796689D01*
X589070Y796654D01*
X589040Y796614D01*
X589001Y796564D01*
X588956Y796500D01*
X588916Y796430D01*
X588876Y796350D01*
X588851Y796266D01*
Y796256D01*
X588841Y796226D01*
X588831Y796176D01*
Y796116D01*
X588826Y796042D01*
Y795962D01*
X588831Y795878D01*
X588846Y795783D01*
Y795773D01*
X588861Y795738D01*
X588876Y795684D01*
X588901Y795619D01*
X588936Y795535D01*
X588981Y795440D01*
X589035Y795335D01*
X589100Y795221D01*
X589105Y795216D01*
Y795206D01*
X589120Y795191D01*
X589135Y795166D01*
X589175Y795107D01*
X589224Y795027D01*
X589294Y794937D01*
X589369Y794843D01*
X589458Y794743D01*
X589553Y794639D01*
X589558Y794634D01*
X589573Y794619D01*
X589598Y794594D01*
X589637Y794554D01*
X589632Y794569D01*
X589627Y794614D01*
X589622Y794679D01*
X589608Y794763D01*
Y794863D01*
X589612Y794977D01*
X589627Y795102D01*
X589657Y795231D01*
X589662Y795246D01*
X589677Y795291D01*
X589702Y795355D01*
X589737Y795430D01*
X589787Y795529D01*
X589846Y795629D01*
X589921Y795733D01*
X590010Y795833D01*
X590050Y795873D01*
X590085Y795898D01*
X590130Y795932D01*
X590175Y795967D01*
X590234Y796007D01*
X590299Y796042D01*
X590448Y796122D01*
X590533Y796156D01*
X590622Y796186D01*
X590722Y796216D01*
X590826Y796231D01*
X590931Y796246D01*
X591040D01*
X591050D01*
X591070D01*
X591095Y796241D01*
X591140Y796236D01*
X591199Y796226D01*
X591259Y796216D01*
X591329Y796196D01*
X591403Y796171D01*
X591488Y796146D01*
X591573Y796112D01*
X591667Y796067D01*
X591762Y796022D01*
X591861Y795962D01*
X591956Y795888D01*
X592050Y795813D01*
X592150Y795723D01*
X592155Y795719D01*
X592175Y795699D01*
X592200Y795674D01*
X592229Y795634D01*
X592269Y795584D01*
X592319Y795525D01*
X592364Y795460D01*
X592413Y795380D01*
X592508Y795216D01*
X592553Y795122D01*
X592598Y795017D01*
X592632Y794913D01*
X592652Y794803D01*
X592677Y794689D01*
X592682Y794574D01*
Y794564D01*
Y794544D01*
Y794515D01*
X592677Y794470D01*
X592672Y794415D01*
X592662Y794345D01*
X592647Y794281D01*
X592632Y794196D01*
X592612Y794117D01*
X592578Y794032D01*
X592498Y793843D01*
X592448Y793753D01*
X592383Y793659D01*
X592314Y793569D01*
X592234Y793480D01*
X592200Y793445D01*
X592170Y793425D01*
X592145Y793400D01*
X592105Y793370D01*
X592005Y793301D01*
X591891Y793226D01*
X591752Y793156D01*
X591602Y793097D01*
X591438Y793052D01*
X591433Y793047D01*
X591418Y793052D01*
X591394Y793047D01*
X591359Y793042D01*
X591269Y793032D01*
X591150Y793022D01*
X591010Y793032D01*
X590846Y793047D01*
X590677Y793087D01*
X590498Y793146D01*
X590493Y793151D01*
X590478Y793156D01*
X590448Y793166D01*
X590413Y793181D01*
X590369Y793206D01*
X590309Y793236D01*
X590249Y793276D01*
X590180Y793316D01*
X590100Y793365D01*
X590010Y793425D01*
X589921Y793495D01*
X589826Y793569D01*
X589722Y793654D01*
X589612Y793743D01*
X589498Y793848D01*
X589384Y793962D01*
X589379Y793967D01*
X589354Y793992D01*
X589319Y794027D01*
X589274Y794072D01*
X589224Y794131D01*
X589160Y794196D01*
X589090Y794276D01*
X589025Y794360D01*
X588871Y794544D01*
X588717Y794748D01*
X588583Y794952D01*
X588523Y795062D01*
X588473Y795161D01*
X588468Y795166D01*
X588463Y795181D01*
X588453Y795211D01*
X588433Y795251D01*
X588418Y795296D01*
X588399Y795355D01*
X588364Y795490D01*
X588329Y795644D01*
X588299Y795813D01*
X588294Y795997D01*
X588309Y796181D01*
X588314Y796186D01*
Y796206D01*
X588319Y796231D01*
X588329Y796261D01*
X588344Y796306D01*
X588354Y796355D01*
X588374Y796415D01*
X588399Y796470D01*
X588453Y796604D01*
X588533Y796753D01*
X588637Y796898D01*
X588767Y797047D01*
X588806Y797087D01*
X588836Y797107D01*
X588871Y797141D01*
X588916Y797176D01*
X589030Y797251D01*
X589160Y797330D01*
X589309Y797400D01*
X589473Y797455D01*
X589563Y797475D01*
X589652Y797485D01*
X589662D01*
D02*
G37*
G36*
X600710Y826897D02*
X598452D01*
X598395Y826904D01*
X598332D01*
X598184Y826911D01*
X598030Y826932D01*
X597861Y826953D01*
X597706Y826988D01*
X597628Y827010D01*
X597565Y827031D01*
X597558D01*
X597551Y827038D01*
X597509Y827059D01*
X597445Y827087D01*
X597368Y827136D01*
X597284Y827199D01*
X597192Y827284D01*
X597108Y827382D01*
X597023Y827495D01*
Y827502D01*
X597016Y827509D01*
X596988Y827551D01*
X596960Y827622D01*
X596918Y827713D01*
X596883Y827819D01*
X596847Y827945D01*
X596826Y828079D01*
X596819Y828227D01*
Y828234D01*
Y828248D01*
Y828276D01*
X596826Y828311D01*
Y828360D01*
X596833Y828410D01*
X596861Y828529D01*
X596904Y828670D01*
X596960Y828818D01*
X597044Y828965D01*
X597101Y829036D01*
X597157Y829106D01*
X597164Y829113D01*
X597171Y829120D01*
X597192Y829141D01*
X597220Y829163D01*
X597256Y829191D01*
X597298Y829219D01*
X597354Y829254D01*
X597410Y829296D01*
X597481Y829331D01*
X597558Y829367D01*
X597643Y829409D01*
X597734Y829444D01*
X597840Y829472D01*
X597945Y829507D01*
X598065Y829528D01*
X598191Y829549D01*
X598177Y829557D01*
X598149Y829570D01*
X598107Y829599D01*
X598051Y829627D01*
X597924Y829704D01*
X597861Y829753D01*
X597804Y829796D01*
X597790Y829810D01*
X597755Y829845D01*
X597699Y829901D01*
X597628Y829972D01*
X597551Y830070D01*
X597460Y830176D01*
X597368Y830302D01*
X597270Y830443D01*
X596432Y831766D01*
X597234D01*
X597875Y830752D01*
Y830745D01*
X597889Y830731D01*
X597903Y830710D01*
X597924Y830682D01*
X597973Y830605D01*
X598036Y830506D01*
X598114Y830401D01*
X598191Y830288D01*
X598269Y830183D01*
X598339Y830084D01*
X598346Y830077D01*
X598367Y830049D01*
X598402Y830007D01*
X598452Y829958D01*
X598557Y829852D01*
X598614Y829803D01*
X598670Y829761D01*
X598677Y829753D01*
X598691Y829746D01*
X598719Y829732D01*
X598761Y829711D01*
X598803Y829690D01*
X598853Y829669D01*
X598965Y829634D01*
X598972D01*
X598986Y829627D01*
X599015D01*
X599050Y829620D01*
X599099Y829613D01*
X599155D01*
X599233Y829606D01*
X600063D01*
Y831766D01*
X600710D01*
Y826897D01*
D02*
G37*
G36*
X594575Y831843D02*
X594638Y831836D01*
X594709Y831829D01*
X594786Y831815D01*
X594870Y831794D01*
X595060Y831745D01*
X595159Y831709D01*
X595250Y831674D01*
X595349Y831625D01*
X595447Y831569D01*
X595539Y831505D01*
X595623Y831428D01*
X595630Y831421D01*
X595644Y831407D01*
X595666Y831386D01*
X595694Y831351D01*
X595722Y831308D01*
X595764Y831259D01*
X595799Y831203D01*
X595841Y831133D01*
X595884Y831062D01*
X595919Y830978D01*
X595989Y830802D01*
X596017Y830696D01*
X596038Y830591D01*
X596052Y830478D01*
X596059Y830366D01*
Y830359D01*
Y830344D01*
Y830316D01*
X596052Y830288D01*
Y830246D01*
X596045Y830197D01*
X596031Y830084D01*
X596003Y829958D01*
X595961Y829831D01*
X595898Y829697D01*
X595820Y829570D01*
Y829564D01*
X595806Y829557D01*
X595778Y829521D01*
X595722Y829465D01*
X595644Y829395D01*
X595546Y829324D01*
X595426Y829247D01*
X595293Y829184D01*
X595131Y829134D01*
X595138D01*
X595145Y829127D01*
X595166Y829120D01*
X595194Y829106D01*
X595257Y829078D01*
X595342Y829036D01*
X595433Y828979D01*
X595525Y828909D01*
X595609Y828832D01*
X595687Y828747D01*
X595694Y828733D01*
X595715Y828705D01*
X595743Y828649D01*
X595771Y828578D01*
X595806Y828487D01*
X595834Y828382D01*
X595855Y828262D01*
X595863Y828135D01*
Y828128D01*
Y828114D01*
Y828086D01*
X595855Y828044D01*
X595848Y828001D01*
X595841Y827945D01*
X595813Y827826D01*
X595771Y827685D01*
X595701Y827537D01*
X595658Y827460D01*
X595609Y827382D01*
X595546Y827312D01*
X595482Y827242D01*
X595476Y827235D01*
X595461Y827228D01*
X595440Y827206D01*
X595412Y827185D01*
X595377Y827157D01*
X595328Y827129D01*
X595271Y827094D01*
X595215Y827059D01*
X595145Y827024D01*
X595067Y826988D01*
X594983Y826960D01*
X594892Y826932D01*
X594695Y826890D01*
X594582Y826883D01*
X594469Y826876D01*
X594406D01*
X594364Y826883D01*
X594308Y826890D01*
X594244Y826897D01*
X594174Y826904D01*
X594104Y826925D01*
X593935Y826967D01*
X593766Y827031D01*
X593681Y827073D01*
X593597Y827122D01*
X593520Y827185D01*
X593442Y827249D01*
X593435Y827256D01*
X593428Y827263D01*
X593407Y827284D01*
X593379Y827312D01*
X593351Y827354D01*
X593316Y827396D01*
X593245Y827502D01*
X593175Y827636D01*
X593111Y827791D01*
X593062Y827966D01*
X593055Y828058D01*
X593048Y828156D01*
Y828163D01*
Y828170D01*
Y828213D01*
X593055Y828276D01*
X593069Y828353D01*
X593090Y828452D01*
X593125Y828550D01*
X593168Y828649D01*
X593231Y828747D01*
X593238Y828761D01*
X593266Y828790D01*
X593308Y828832D01*
X593365Y828888D01*
X593442Y828951D01*
X593534Y829015D01*
X593639Y829078D01*
X593766Y829134D01*
X593759D01*
X593745Y829141D01*
X593724Y829148D01*
X593695Y829163D01*
X593611Y829198D01*
X593512Y829247D01*
X593407Y829317D01*
X593294Y829395D01*
X593189Y829493D01*
X593090Y829606D01*
Y829613D01*
X593083Y829620D01*
X593055Y829662D01*
X593013Y829732D01*
X592971Y829824D01*
X592929Y829936D01*
X592886Y830070D01*
X592858Y830218D01*
X592851Y830380D01*
Y830387D01*
Y830408D01*
Y830443D01*
X592858Y830485D01*
X592865Y830534D01*
X592872Y830598D01*
X592886Y830668D01*
X592907Y830745D01*
X592957Y830907D01*
X592992Y830999D01*
X593041Y831083D01*
X593090Y831175D01*
X593147Y831259D01*
X593217Y831344D01*
X593294Y831428D01*
X593301Y831435D01*
X593316Y831449D01*
X593337Y831470D01*
X593372Y831491D01*
X593421Y831526D01*
X593470Y831562D01*
X593534Y831597D01*
X593604Y831639D01*
X593681Y831681D01*
X593773Y831716D01*
X593871Y831752D01*
X593970Y831787D01*
X594082Y831808D01*
X594202Y831829D01*
X594322Y831843D01*
X594455Y831850D01*
X594526D01*
X594575Y831843D01*
D02*
G37*
G36*
X389075Y893883D02*
X389132Y893876D01*
X389202Y893869D01*
X389280Y893855D01*
X389357Y893840D01*
X389540Y893791D01*
X389723Y893721D01*
X389814Y893679D01*
X389906Y893629D01*
X389990Y893566D01*
X390067Y893496D01*
X390075Y893489D01*
X390089Y893482D01*
X390103Y893454D01*
X390131Y893425D01*
X390166Y893390D01*
X390201Y893341D01*
X390236Y893292D01*
X390279Y893228D01*
X390349Y893095D01*
X390419Y892926D01*
X390447Y892841D01*
X390462Y892743D01*
X390476Y892644D01*
X390483Y892539D01*
Y892525D01*
Y892490D01*
X390476Y892433D01*
X390468Y892356D01*
X390454Y892271D01*
X390426Y892173D01*
X390398Y892067D01*
X390356Y891962D01*
X390349Y891948D01*
X390335Y891913D01*
X390307Y891856D01*
X390265Y891779D01*
X390208Y891695D01*
X390138Y891589D01*
X390053Y891484D01*
X389955Y891364D01*
X389941Y891350D01*
X389906Y891308D01*
X389870Y891272D01*
X389835Y891237D01*
X389793Y891195D01*
X389737Y891139D01*
X389680Y891083D01*
X389610Y891019D01*
X389540Y890949D01*
X389455Y890871D01*
X389364Y890794D01*
X389265Y890703D01*
X389153Y890611D01*
X389040Y890513D01*
X389033Y890506D01*
X389019Y890491D01*
X388991Y890470D01*
X388956Y890442D01*
X388914Y890400D01*
X388864Y890358D01*
X388752Y890266D01*
X388632Y890161D01*
X388520Y890055D01*
X388421Y889964D01*
X388379Y889929D01*
X388344Y889893D01*
X388337Y889886D01*
X388316Y889865D01*
X388287Y889837D01*
X388252Y889795D01*
X388217Y889746D01*
X388175Y889696D01*
X388090Y889577D01*
X390490D01*
Y889000D01*
X387260D01*
Y889007D01*
Y889035D01*
Y889077D01*
X387267Y889134D01*
X387274Y889197D01*
X387288Y889267D01*
X387302Y889338D01*
X387331Y889415D01*
Y889422D01*
X387338Y889429D01*
X387352Y889471D01*
X387380Y889535D01*
X387422Y889619D01*
X387478Y889717D01*
X387549Y889830D01*
X387626Y889943D01*
X387725Y890062D01*
Y890069D01*
X387739Y890076D01*
X387774Y890119D01*
X387837Y890182D01*
X387929Y890273D01*
X388034Y890379D01*
X388168Y890506D01*
X388330Y890646D01*
X388506Y890794D01*
X388513Y890801D01*
X388541Y890822D01*
X388583Y890857D01*
X388632Y890900D01*
X388695Y890956D01*
X388773Y891019D01*
X388850Y891089D01*
X388942Y891167D01*
X389118Y891336D01*
X389294Y891505D01*
X389378Y891589D01*
X389455Y891674D01*
X389526Y891751D01*
X389582Y891828D01*
Y891835D01*
X389596Y891842D01*
X389610Y891863D01*
X389624Y891892D01*
X389674Y891969D01*
X389730Y892060D01*
X389779Y892173D01*
X389828Y892293D01*
X389856Y892426D01*
X389870Y892553D01*
Y892560D01*
Y892567D01*
X389864Y892609D01*
X389856Y892680D01*
X389835Y892757D01*
X389807Y892856D01*
X389758Y892954D01*
X389695Y893053D01*
X389610Y893151D01*
X389596Y893165D01*
X389561Y893193D01*
X389512Y893228D01*
X389434Y893278D01*
X389336Y893320D01*
X389223Y893362D01*
X389090Y893390D01*
X388942Y893397D01*
X388900D01*
X388871Y893390D01*
X388787Y893383D01*
X388689Y893362D01*
X388583Y893334D01*
X388463Y893285D01*
X388351Y893221D01*
X388245Y893137D01*
X388231Y893123D01*
X388203Y893088D01*
X388161Y893031D01*
X388119Y892947D01*
X388069Y892849D01*
X388027Y892722D01*
X387999Y892581D01*
X387985Y892419D01*
X387373Y892483D01*
Y892490D01*
X387380Y892511D01*
Y892546D01*
X387387Y892595D01*
X387401Y892652D01*
X387415Y892715D01*
X387436Y892792D01*
X387457Y892870D01*
X387514Y893038D01*
X387598Y893207D01*
X387647Y893292D01*
X387710Y893376D01*
X387774Y893454D01*
X387844Y893524D01*
X387851Y893531D01*
X387865Y893538D01*
X387886Y893559D01*
X387922Y893580D01*
X387964Y893608D01*
X388013Y893636D01*
X388069Y893672D01*
X388140Y893707D01*
X388217Y893742D01*
X388302Y893777D01*
X388393Y893805D01*
X388492Y893833D01*
X388597Y893855D01*
X388710Y893876D01*
X388829Y893883D01*
X388956Y893890D01*
X389026D01*
X389075Y893883D01*
D02*
G37*
G36*
X385002Y893862D02*
X385065D01*
X385213Y893855D01*
X385368Y893833D01*
X385536Y893812D01*
X385691Y893777D01*
X385769Y893756D01*
X385832Y893735D01*
X385839D01*
X385846Y893728D01*
X385888Y893707D01*
X385952Y893679D01*
X386029Y893629D01*
X386113Y893566D01*
X386205Y893482D01*
X386289Y893383D01*
X386374Y893271D01*
Y893264D01*
X386381Y893257D01*
X386409Y893214D01*
X386437Y893144D01*
X386479Y893053D01*
X386514Y892947D01*
X386550Y892820D01*
X386571Y892687D01*
X386578Y892539D01*
Y892532D01*
Y892518D01*
Y892490D01*
X386571Y892455D01*
Y892405D01*
X386564Y892356D01*
X386535Y892236D01*
X386493Y892096D01*
X386437Y891948D01*
X386353Y891800D01*
X386296Y891730D01*
X386240Y891659D01*
X386233Y891652D01*
X386226Y891645D01*
X386205Y891624D01*
X386177Y891603D01*
X386142Y891575D01*
X386099Y891547D01*
X386043Y891512D01*
X385987Y891469D01*
X385916Y891434D01*
X385839Y891399D01*
X385755Y891357D01*
X385663Y891322D01*
X385558Y891293D01*
X385452Y891258D01*
X385332Y891237D01*
X385206Y891216D01*
X385220Y891209D01*
X385248Y891195D01*
X385290Y891167D01*
X385346Y891139D01*
X385473Y891061D01*
X385536Y891012D01*
X385593Y890970D01*
X385607Y890956D01*
X385642Y890921D01*
X385698Y890864D01*
X385769Y890794D01*
X385846Y890695D01*
X385938Y890590D01*
X386029Y890463D01*
X386127Y890323D01*
X386965Y889000D01*
X386163D01*
X385522Y890013D01*
Y890020D01*
X385508Y890034D01*
X385494Y890055D01*
X385473Y890083D01*
X385424Y890161D01*
X385360Y890259D01*
X385283Y890365D01*
X385206Y890477D01*
X385128Y890583D01*
X385058Y890681D01*
X385051Y890688D01*
X385030Y890717D01*
X384995Y890759D01*
X384945Y890808D01*
X384840Y890914D01*
X384784Y890963D01*
X384727Y891005D01*
X384720Y891012D01*
X384706Y891019D01*
X384678Y891033D01*
X384636Y891054D01*
X384594Y891075D01*
X384544Y891096D01*
X384432Y891132D01*
X384425D01*
X384411Y891139D01*
X384383D01*
X384347Y891146D01*
X384298Y891153D01*
X384242D01*
X384165Y891160D01*
X383334D01*
Y889000D01*
X382687D01*
Y893869D01*
X384945D01*
X385002Y893862D01*
D02*
G37*
G36*
X382270Y864471D02*
X380398D01*
X380272Y864478D01*
X380131Y864485D01*
X379990Y864499D01*
X379850Y864520D01*
X379730Y864541D01*
X379723D01*
X379709Y864548D01*
X379688D01*
X379660Y864563D01*
X379582Y864584D01*
X379484Y864619D01*
X379371Y864668D01*
X379252Y864731D01*
X379132Y864802D01*
X379020Y864893D01*
X379012Y864900D01*
X379005Y864907D01*
X378984Y864928D01*
X378956Y864950D01*
X378886Y865020D01*
X378801Y865118D01*
X378710Y865238D01*
X378611Y865379D01*
X378520Y865541D01*
X378442Y865723D01*
Y865731D01*
X378436Y865745D01*
X378421Y865773D01*
X378414Y865815D01*
X378393Y865864D01*
X378379Y865920D01*
X378365Y865984D01*
X378344Y866061D01*
X378323Y866139D01*
X378309Y866230D01*
X378274Y866427D01*
X378253Y866645D01*
X378246Y866884D01*
Y866891D01*
Y866906D01*
Y866941D01*
Y866976D01*
X378253Y867025D01*
Y867081D01*
X378260Y867215D01*
X378281Y867370D01*
X378302Y867532D01*
X378337Y867701D01*
X378379Y867869D01*
Y867876D01*
X378386Y867890D01*
X378393Y867912D01*
X378400Y867940D01*
X378428Y868017D01*
X378471Y868116D01*
X378513Y868228D01*
X378569Y868341D01*
X378639Y868460D01*
X378710Y868573D01*
X378717Y868587D01*
X378745Y868622D01*
X378787Y868671D01*
X378844Y868735D01*
X378907Y868805D01*
X378984Y868876D01*
X379062Y868953D01*
X379153Y869016D01*
X379167Y869023D01*
X379195Y869044D01*
X379245Y869072D01*
X379315Y869108D01*
X379399Y869150D01*
X379498Y869185D01*
X379610Y869227D01*
X379737Y869262D01*
X379751D01*
X379772Y869269D01*
X379793Y869277D01*
X379864Y869284D01*
X379962Y869298D01*
X380075Y869312D01*
X380209Y869326D01*
X380356Y869333D01*
X380518Y869340D01*
X382270D01*
Y864471D01*
D02*
G37*
G36*
X375952Y865534D02*
X375959Y865541D01*
X375994Y865569D01*
X376036Y865611D01*
X376107Y865660D01*
X376184Y865723D01*
X376283Y865794D01*
X376395Y865871D01*
X376522Y865949D01*
X376529D01*
X376536Y865956D01*
X376578Y865984D01*
X376648Y866019D01*
X376733Y866061D01*
X376831Y866111D01*
X376937Y866160D01*
X377042Y866209D01*
X377148Y866251D01*
Y865674D01*
X377141D01*
X377127Y865660D01*
X377099Y865653D01*
X377063Y865632D01*
X377021Y865611D01*
X376972Y865583D01*
X376852Y865512D01*
X376712Y865435D01*
X376571Y865337D01*
X376423Y865224D01*
X376275Y865104D01*
X376269Y865097D01*
X376261Y865090D01*
X376240Y865069D01*
X376212Y865048D01*
X376149Y864978D01*
X376064Y864893D01*
X375980Y864795D01*
X375888Y864682D01*
X375811Y864570D01*
X375741Y864450D01*
X375354D01*
Y869340D01*
X375952D01*
Y865534D01*
D02*
G37*
G36*
X884203Y928581D02*
X881945D01*
X881889Y928588D01*
X881825D01*
X881678Y928595D01*
X881523Y928616D01*
X881354Y928638D01*
X881199Y928673D01*
X881122Y928694D01*
X881059Y928715D01*
X881051D01*
X881044Y928722D01*
X881002Y928743D01*
X880939Y928771D01*
X880862Y928820D01*
X880777Y928884D01*
X880686Y928968D01*
X880601Y929067D01*
X880517Y929179D01*
Y929186D01*
X880510Y929193D01*
X880482Y929236D01*
X880453Y929306D01*
X880411Y929398D01*
X880376Y929503D01*
X880341Y929630D01*
X880320Y929763D01*
X880313Y929911D01*
Y929918D01*
Y929932D01*
Y929960D01*
X880320Y929995D01*
Y930045D01*
X880327Y930094D01*
X880355Y930214D01*
X880397Y930354D01*
X880453Y930502D01*
X880538Y930650D01*
X880594Y930720D01*
X880650Y930790D01*
X880658Y930798D01*
X880665Y930805D01*
X880686Y930826D01*
X880714Y930847D01*
X880749Y930875D01*
X880791Y930903D01*
X880847Y930938D01*
X880904Y930981D01*
X880974Y931016D01*
X881051Y931051D01*
X881136Y931093D01*
X881227Y931128D01*
X881333Y931156D01*
X881439Y931192D01*
X881558Y931213D01*
X881685Y931234D01*
X881671Y931241D01*
X881643Y931255D01*
X881600Y931283D01*
X881544Y931311D01*
X881417Y931389D01*
X881354Y931438D01*
X881298Y931480D01*
X881284Y931494D01*
X881248Y931529D01*
X881192Y931586D01*
X881122Y931656D01*
X881044Y931754D01*
X880953Y931860D01*
X880862Y931987D01*
X880763Y932127D01*
X879926Y933450D01*
X880728D01*
X881368Y932437D01*
Y932430D01*
X881382Y932416D01*
X881396Y932395D01*
X881417Y932367D01*
X881467Y932289D01*
X881530Y932191D01*
X881607Y932085D01*
X881685Y931973D01*
X881762Y931867D01*
X881833Y931768D01*
X881840Y931761D01*
X881861Y931733D01*
X881896Y931691D01*
X881945Y931642D01*
X882051Y931536D01*
X882107Y931487D01*
X882163Y931445D01*
X882170Y931438D01*
X882184Y931431D01*
X882212Y931417D01*
X882255Y931396D01*
X882297Y931375D01*
X882346Y931353D01*
X882459Y931318D01*
X882466D01*
X882480Y931311D01*
X882508D01*
X882543Y931304D01*
X882592Y931297D01*
X882649D01*
X882726Y931290D01*
X883556D01*
Y933450D01*
X884203D01*
Y928581D01*
D02*
G37*
G36*
X878821Y933443D02*
Y933422D01*
Y933394D01*
X878814Y933352D01*
Y933295D01*
X878807Y933225D01*
X878800Y933148D01*
X878793Y933063D01*
X878779Y932965D01*
X878765Y932866D01*
X878744Y932747D01*
X878723Y932627D01*
X878701Y932500D01*
X878673Y932359D01*
X878603Y932071D01*
Y932064D01*
X878596Y932036D01*
X878582Y931994D01*
X878561Y931930D01*
X878540Y931860D01*
X878512Y931776D01*
X878483Y931677D01*
X878441Y931572D01*
X878399Y931452D01*
X878357Y931332D01*
X878251Y931065D01*
X878125Y930783D01*
X877984Y930502D01*
X877977Y930495D01*
X877963Y930467D01*
X877942Y930432D01*
X877914Y930375D01*
X877878Y930312D01*
X877829Y930235D01*
X877780Y930150D01*
X877724Y930059D01*
X877590Y929855D01*
X877449Y929644D01*
X877287Y929426D01*
X877119Y929222D01*
X879504D01*
Y928645D01*
X876352D01*
Y929116D01*
X876359Y929123D01*
X876373Y929137D01*
X876401Y929165D01*
X876429Y929208D01*
X876471Y929257D01*
X876527Y929313D01*
X876584Y929383D01*
X876647Y929468D01*
X876710Y929552D01*
X876788Y929651D01*
X876865Y929763D01*
X876943Y929876D01*
X877027Y930003D01*
X877112Y930136D01*
X877196Y930284D01*
X877280Y930432D01*
X877287Y930439D01*
X877301Y930467D01*
X877322Y930509D01*
X877358Y930572D01*
X877393Y930650D01*
X877435Y930734D01*
X877484Y930833D01*
X877534Y930945D01*
X877590Y931072D01*
X877653Y931199D01*
X877710Y931339D01*
X877766Y931487D01*
X877878Y931790D01*
X877984Y932113D01*
Y932120D01*
X877991Y932141D01*
X877998Y932177D01*
X878012Y932219D01*
X878026Y932275D01*
X878040Y932346D01*
X878061Y932423D01*
X878075Y932507D01*
X878096Y932606D01*
X878118Y932711D01*
X878153Y932936D01*
X878188Y933183D01*
X878209Y933450D01*
X878821D01*
Y933443D01*
D02*
G37*
G36*
X352519Y814467D02*
X352533Y814453D01*
X352561Y814425D01*
X352603Y814397D01*
X352653Y814354D01*
X352709Y814298D01*
X352779Y814242D01*
X352864Y814179D01*
X352948Y814115D01*
X353046Y814038D01*
X353159Y813960D01*
X353272Y813883D01*
X353398Y813799D01*
X353532Y813714D01*
X353680Y813630D01*
X353828Y813545D01*
X353834Y813538D01*
X353863Y813524D01*
X353905Y813503D01*
X353968Y813468D01*
X354046Y813433D01*
X354130Y813391D01*
X354229Y813341D01*
X354341Y813292D01*
X354468Y813236D01*
X354594Y813173D01*
X354735Y813116D01*
X354883Y813060D01*
X355185Y812947D01*
X355509Y812842D01*
X355516D01*
X355537Y812835D01*
X355572Y812828D01*
X355615Y812814D01*
X355671Y812800D01*
X355741Y812785D01*
X355819Y812764D01*
X355903Y812750D01*
X356002Y812729D01*
X356107Y812708D01*
X356332Y812673D01*
X356578Y812638D01*
X356846Y812617D01*
Y812004D01*
X356839D01*
X356818D01*
X356790D01*
X356747Y812012D01*
X356691D01*
X356621Y812019D01*
X356543Y812026D01*
X356459Y812033D01*
X356360Y812047D01*
X356262Y812061D01*
X356142Y812082D01*
X356023Y812103D01*
X355896Y812124D01*
X355755Y812152D01*
X355467Y812223D01*
X355460D01*
X355432Y812230D01*
X355389Y812244D01*
X355326Y812265D01*
X355256Y812286D01*
X355171Y812314D01*
X355073Y812342D01*
X354967Y812384D01*
X354848Y812427D01*
X354728Y812469D01*
X354461Y812574D01*
X354179Y812701D01*
X353898Y812842D01*
X353891Y812849D01*
X353863Y812863D01*
X353828Y812884D01*
X353771Y812912D01*
X353708Y812947D01*
X353630Y812997D01*
X353546Y813046D01*
X353455Y813102D01*
X353251Y813236D01*
X353040Y813376D01*
X352821Y813538D01*
X352617Y813707D01*
Y811322D01*
X352040D01*
Y814474D01*
X352512D01*
X352519Y814467D01*
D02*
G37*
G36*
X356846Y809148D02*
X353040D01*
X353046Y809141D01*
X353075Y809106D01*
X353117Y809064D01*
X353166Y808993D01*
X353229Y808916D01*
X353300Y808817D01*
X353377Y808705D01*
X353455Y808578D01*
Y808571D01*
X353462Y808564D01*
X353490Y808522D01*
X353525Y808452D01*
X353567Y808367D01*
X353616Y808269D01*
X353666Y808163D01*
X353715Y808057D01*
X353757Y807952D01*
X353180D01*
Y807959D01*
X353166Y807973D01*
X353159Y808001D01*
X353138Y808036D01*
X353117Y808079D01*
X353089Y808128D01*
X353018Y808247D01*
X352941Y808388D01*
X352842Y808529D01*
X352730Y808677D01*
X352610Y808824D01*
X352603Y808831D01*
X352596Y808838D01*
X352575Y808859D01*
X352554Y808888D01*
X352484Y808951D01*
X352399Y809035D01*
X352301Y809120D01*
X352188Y809211D01*
X352076Y809289D01*
X351956Y809359D01*
Y809746D01*
X356846D01*
Y809148D01*
D02*
G37*
G36*
X355340Y806939D02*
X355382Y806925D01*
X355439Y806904D01*
X355502Y806882D01*
X355579Y806854D01*
X355664Y806819D01*
X355755Y806777D01*
X355952Y806678D01*
X356149Y806552D01*
X356248Y806474D01*
X356346Y806397D01*
X356431Y806313D01*
X356515Y806214D01*
X356522Y806207D01*
X356536Y806193D01*
X356550Y806158D01*
X356578Y806123D01*
X356614Y806066D01*
X356649Y806010D01*
X356684Y805933D01*
X356719Y805855D01*
X356761Y805764D01*
X356797Y805665D01*
X356832Y805560D01*
X356867Y805447D01*
X356895Y805328D01*
X356909Y805201D01*
X356923Y805067D01*
X356930Y804927D01*
Y804849D01*
X356923Y804793D01*
Y804730D01*
X356916Y804652D01*
X356902Y804568D01*
X356888Y804469D01*
X356853Y804265D01*
X356797Y804054D01*
X356719Y803843D01*
X356670Y803745D01*
X356614Y803646D01*
X356607Y803639D01*
X356600Y803625D01*
X356578Y803597D01*
X356550Y803569D01*
X356522Y803526D01*
X356480Y803477D01*
X356431Y803421D01*
X356374Y803365D01*
X356311Y803308D01*
X356248Y803245D01*
X356086Y803118D01*
X355896Y802999D01*
X355685Y802893D01*
X355678D01*
X355657Y802879D01*
X355622Y802872D01*
X355579Y802851D01*
X355523Y802837D01*
X355453Y802816D01*
X355375Y802788D01*
X355291Y802766D01*
X355200Y802745D01*
X355094Y802717D01*
X354876Y802682D01*
X354630Y802654D01*
X354376Y802640D01*
X354369D01*
X354341D01*
X354299D01*
X354250Y802647D01*
X354179D01*
X354109Y802654D01*
X354017Y802661D01*
X353926Y802675D01*
X353722Y802710D01*
X353497Y802759D01*
X353272Y802830D01*
X353054Y802928D01*
X353046Y802935D01*
X353025Y802942D01*
X352997Y802956D01*
X352962Y802985D01*
X352913Y803013D01*
X352856Y803048D01*
X352730Y803139D01*
X352589Y803259D01*
X352449Y803400D01*
X352308Y803562D01*
X352188Y803752D01*
X352181Y803759D01*
X352174Y803780D01*
X352160Y803808D01*
X352139Y803843D01*
X352118Y803899D01*
X352097Y803956D01*
X352068Y804026D01*
X352040Y804103D01*
X352012Y804188D01*
X351984Y804279D01*
X351942Y804476D01*
X351907Y804701D01*
X351893Y804934D01*
Y805004D01*
X351900Y805053D01*
X351907Y805117D01*
X351914Y805194D01*
X351921Y805271D01*
X351942Y805363D01*
X351984Y805553D01*
X352047Y805764D01*
X352090Y805869D01*
X352139Y805968D01*
X352202Y806066D01*
X352266Y806165D01*
X352273Y806172D01*
X352280Y806186D01*
X352301Y806214D01*
X352336Y806249D01*
X352371Y806284D01*
X352420Y806334D01*
X352477Y806383D01*
X352533Y806439D01*
X352603Y806496D01*
X352688Y806552D01*
X352772Y806615D01*
X352864Y806671D01*
X352969Y806721D01*
X353075Y806777D01*
X353187Y806819D01*
X353314Y806861D01*
X353462Y806228D01*
X353455D01*
X353441Y806221D01*
X353412Y806207D01*
X353377Y806193D01*
X353335Y806179D01*
X353279Y806158D01*
X353166Y806102D01*
X353040Y806031D01*
X352913Y805947D01*
X352793Y805841D01*
X352688Y805729D01*
X352674Y805714D01*
X352645Y805672D01*
X352610Y805602D01*
X352561Y805510D01*
X352519Y805391D01*
X352477Y805257D01*
X352449Y805095D01*
X352441Y804920D01*
Y804863D01*
X352449Y804828D01*
Y804779D01*
X352455Y804723D01*
X352477Y804589D01*
X352505Y804441D01*
X352554Y804286D01*
X352624Y804125D01*
X352716Y803977D01*
Y803970D01*
X352730Y803963D01*
X352765Y803913D01*
X352821Y803850D01*
X352906Y803773D01*
X353011Y803681D01*
X353131Y803597D01*
X353279Y803519D01*
X353441Y803449D01*
X353448D01*
X353462Y803442D01*
X353483Y803435D01*
X353518Y803428D01*
X353560Y803414D01*
X353609Y803400D01*
X353729Y803379D01*
X353870Y803351D01*
X354025Y803322D01*
X354193Y803308D01*
X354376Y803301D01*
X354383D01*
X354404D01*
X354440D01*
X354482D01*
X354531Y803308D01*
X354594D01*
X354665Y803315D01*
X354742Y803322D01*
X354911Y803344D01*
X355094Y803379D01*
X355277Y803421D01*
X355460Y803477D01*
X355467D01*
X355481Y803484D01*
X355502Y803498D01*
X355537Y803512D01*
X355622Y803555D01*
X355720Y803618D01*
X355833Y803695D01*
X355952Y803794D01*
X356058Y803906D01*
X356156Y804040D01*
Y804047D01*
X356163Y804061D01*
X356177Y804082D01*
X356191Y804110D01*
X356206Y804146D01*
X356227Y804188D01*
X356269Y804286D01*
X356311Y804413D01*
X356346Y804554D01*
X356374Y804708D01*
X356381Y804870D01*
Y804920D01*
X356374Y804962D01*
Y805011D01*
X356367Y805060D01*
X356339Y805187D01*
X356304Y805335D01*
X356248Y805482D01*
X356170Y805637D01*
X356128Y805714D01*
X356072Y805785D01*
X356065Y805792D01*
X356058Y805799D01*
X356037Y805820D01*
X356016Y805848D01*
X355980Y805876D01*
X355938Y805911D01*
X355896Y805954D01*
X355840Y805989D01*
X355776Y806031D01*
X355706Y806080D01*
X355636Y806123D01*
X355551Y806165D01*
X355460Y806200D01*
X355361Y806235D01*
X355256Y806270D01*
X355143Y806299D01*
X355305Y806946D01*
X355312D01*
X355340Y806939D01*
D02*
G37*
G36*
X333203Y813800D02*
X333245D01*
X333358Y813779D01*
X333492Y813757D01*
X333632Y813722D01*
X333787Y813673D01*
X333935Y813603D01*
X333942D01*
X333949Y813596D01*
X333970Y813581D01*
X333998Y813567D01*
X334068Y813525D01*
X334160Y813462D01*
X334258Y813384D01*
X334357Y813293D01*
X334455Y813180D01*
X334540Y813061D01*
Y813054D01*
X334547Y813047D01*
X334561Y813026D01*
X334568Y812998D01*
X334603Y812927D01*
X334638Y812836D01*
X334681Y812716D01*
X334709Y812582D01*
X334737Y812435D01*
X334744Y812273D01*
Y812238D01*
X334737Y812203D01*
Y812146D01*
X334730Y812083D01*
X334716Y812012D01*
X334695Y811928D01*
X334674Y811844D01*
X334645Y811745D01*
X334610Y811647D01*
X334568Y811548D01*
X334512Y811443D01*
X334448Y811344D01*
X334378Y811246D01*
X334294Y811147D01*
X334195Y811056D01*
X334188Y811049D01*
X334167Y811034D01*
X334139Y811013D01*
X334090Y810985D01*
X334026Y810943D01*
X333956Y810908D01*
X333864Y810866D01*
X333766Y810823D01*
X333646Y810774D01*
X333513Y810732D01*
X333365Y810697D01*
X333203Y810662D01*
X333020Y810626D01*
X332823Y810605D01*
X332612Y810591D01*
X332387Y810584D01*
X332380D01*
X332373D01*
X332352D01*
X332324D01*
X332253Y810591D01*
X332155D01*
X332042Y810598D01*
X331908Y810612D01*
X331761Y810626D01*
X331599Y810648D01*
X331437Y810676D01*
X331261Y810711D01*
X331092Y810753D01*
X330923Y810802D01*
X330762Y810866D01*
X330607Y810936D01*
X330459Y811013D01*
X330332Y811105D01*
X330325Y811112D01*
X330311Y811126D01*
X330283Y811154D01*
X330241Y811189D01*
X330199Y811232D01*
X330157Y811288D01*
X330100Y811358D01*
X330051Y811429D01*
X330002Y811513D01*
X329945Y811604D01*
X329903Y811710D01*
X329854Y811815D01*
X329819Y811935D01*
X329791Y812062D01*
X329777Y812195D01*
X329770Y812336D01*
Y812392D01*
X329777Y812435D01*
Y812484D01*
X329784Y812540D01*
X329812Y812674D01*
X329847Y812822D01*
X329903Y812976D01*
X329988Y813131D01*
X330037Y813209D01*
X330093Y813279D01*
X330100Y813286D01*
X330107Y813293D01*
X330128Y813314D01*
X330149Y813335D01*
X330185Y813370D01*
X330227Y813399D01*
X330325Y813476D01*
X330452Y813553D01*
X330607Y813624D01*
X330783Y813687D01*
X330980Y813729D01*
X331029Y813131D01*
X331022D01*
X331015Y813124D01*
X330973Y813117D01*
X330909Y813096D01*
X330832Y813068D01*
X330747Y813040D01*
X330663Y812998D01*
X330586Y812948D01*
X330522Y812899D01*
X330508Y812885D01*
X330480Y812857D01*
X330438Y812807D01*
X330389Y812737D01*
X330346Y812646D01*
X330304Y812547D01*
X330276Y812428D01*
X330262Y812301D01*
Y812252D01*
X330269Y812195D01*
X330283Y812132D01*
X330304Y812048D01*
X330332Y811963D01*
X330368Y811879D01*
X330424Y811794D01*
X330431Y811780D01*
X330459Y811745D01*
X330508Y811696D01*
X330579Y811633D01*
X330663Y811562D01*
X330762Y811485D01*
X330888Y811414D01*
X331029Y811344D01*
X331036D01*
X331050Y811337D01*
X331071Y811330D01*
X331099Y811316D01*
X331142Y811309D01*
X331191Y811295D01*
X331247Y811281D01*
X331317Y811267D01*
X331395Y811246D01*
X331479Y811232D01*
X331571Y811217D01*
X331669Y811210D01*
X331782Y811196D01*
X331894Y811189D01*
X332021Y811182D01*
X332148D01*
X332141Y811189D01*
X332098Y811217D01*
X332042Y811267D01*
X331972Y811330D01*
X331887Y811400D01*
X331810Y811492D01*
X331733Y811590D01*
X331662Y811703D01*
Y811710D01*
X331655Y811717D01*
X331634Y811759D01*
X331613Y811823D01*
X331578Y811907D01*
X331550Y812005D01*
X331529Y812118D01*
X331507Y812238D01*
X331500Y812364D01*
Y812421D01*
X331507Y812463D01*
X331515Y812519D01*
X331521Y812575D01*
X331536Y812646D01*
X331557Y812716D01*
X331606Y812878D01*
X331641Y812962D01*
X331690Y813047D01*
X331740Y813131D01*
X331796Y813223D01*
X331866Y813307D01*
X331944Y813384D01*
X331951Y813391D01*
X331965Y813406D01*
X331986Y813427D01*
X332021Y813448D01*
X332070Y813483D01*
X332119Y813518D01*
X332183Y813553D01*
X332253Y813596D01*
X332331Y813638D01*
X332415Y813673D01*
X332514Y813708D01*
X332612Y813743D01*
X332718Y813764D01*
X332837Y813785D01*
X332957Y813800D01*
X333083Y813807D01*
X333091D01*
X333105D01*
X333126D01*
X333161D01*
X333203Y813800D01*
D02*
G37*
G36*
X334660Y808481D02*
X330853D01*
X330860Y808474D01*
X330888Y808438D01*
X330930Y808396D01*
X330980Y808326D01*
X331043Y808248D01*
X331113Y808150D01*
X331191Y808037D01*
X331268Y807911D01*
Y807904D01*
X331275Y807897D01*
X331303Y807854D01*
X331339Y807784D01*
X331381Y807700D01*
X331430Y807601D01*
X331479Y807495D01*
X331529Y807390D01*
X331571Y807284D01*
X330994D01*
Y807291D01*
X330980Y807306D01*
X330973Y807334D01*
X330952Y807369D01*
X330930Y807411D01*
X330902Y807460D01*
X330832Y807580D01*
X330755Y807721D01*
X330656Y807861D01*
X330544Y808009D01*
X330424Y808157D01*
X330417Y808164D01*
X330410Y808171D01*
X330389Y808192D01*
X330368Y808220D01*
X330297Y808283D01*
X330213Y808368D01*
X330114Y808452D01*
X330002Y808544D01*
X329889Y808621D01*
X329770Y808692D01*
Y809079D01*
X334660D01*
Y808481D01*
D02*
G37*
G36*
X333154Y806271D02*
X333196Y806257D01*
X333252Y806236D01*
X333316Y806215D01*
X333393Y806187D01*
X333477Y806152D01*
X333569Y806109D01*
X333766Y806011D01*
X333963Y805884D01*
X334061Y805807D01*
X334160Y805730D01*
X334244Y805645D01*
X334329Y805547D01*
X334336Y805540D01*
X334350Y805526D01*
X334364Y805490D01*
X334392Y805455D01*
X334427Y805399D01*
X334463Y805343D01*
X334498Y805265D01*
X334533Y805188D01*
X334575Y805096D01*
X334610Y804998D01*
X334645Y804892D01*
X334681Y804780D01*
X334709Y804660D01*
X334723Y804533D01*
X334737Y804400D01*
X334744Y804259D01*
Y804182D01*
X334737Y804125D01*
Y804062D01*
X334730Y803985D01*
X334716Y803900D01*
X334702Y803802D01*
X334666Y803598D01*
X334610Y803387D01*
X334533Y803176D01*
X334484Y803077D01*
X334427Y802979D01*
X334420Y802971D01*
X334413Y802957D01*
X334392Y802929D01*
X334364Y802901D01*
X334336Y802859D01*
X334294Y802810D01*
X334244Y802753D01*
X334188Y802697D01*
X334125Y802641D01*
X334061Y802578D01*
X333900Y802451D01*
X333710Y802331D01*
X333498Y802226D01*
X333492D01*
X333470Y802212D01*
X333435Y802205D01*
X333393Y802184D01*
X333337Y802169D01*
X333266Y802148D01*
X333189Y802120D01*
X333105Y802099D01*
X333013Y802078D01*
X332907Y802050D01*
X332689Y802015D01*
X332443Y801986D01*
X332190Y801972D01*
X332183D01*
X332155D01*
X332113D01*
X332063Y801979D01*
X331993D01*
X331922Y801986D01*
X331831Y801993D01*
X331740Y802008D01*
X331536Y802043D01*
X331310Y802092D01*
X331085Y802162D01*
X330867Y802261D01*
X330860Y802268D01*
X330839Y802275D01*
X330811Y802289D01*
X330776Y802317D01*
X330726Y802345D01*
X330670Y802381D01*
X330544Y802472D01*
X330403Y802592D01*
X330262Y802732D01*
X330121Y802894D01*
X330002Y803084D01*
X329995Y803091D01*
X329988Y803112D01*
X329974Y803140D01*
X329953Y803176D01*
X329931Y803232D01*
X329910Y803288D01*
X329882Y803359D01*
X329854Y803436D01*
X329826Y803520D01*
X329798Y803612D01*
X329756Y803809D01*
X329720Y804034D01*
X329706Y804266D01*
Y804336D01*
X329713Y804386D01*
X329720Y804449D01*
X329727Y804526D01*
X329734Y804604D01*
X329756Y804695D01*
X329798Y804885D01*
X329861Y805096D01*
X329903Y805202D01*
X329953Y805300D01*
X330016Y805399D01*
X330079Y805497D01*
X330086Y805504D01*
X330093Y805518D01*
X330114Y805547D01*
X330149Y805582D01*
X330185Y805617D01*
X330234Y805666D01*
X330290Y805715D01*
X330346Y805772D01*
X330417Y805828D01*
X330501Y805884D01*
X330586Y805948D01*
X330677Y806004D01*
X330783Y806053D01*
X330888Y806109D01*
X331001Y806152D01*
X331128Y806194D01*
X331275Y805561D01*
X331268D01*
X331254Y805554D01*
X331226Y805540D01*
X331191Y805526D01*
X331149Y805511D01*
X331092Y805490D01*
X330980Y805434D01*
X330853Y805364D01*
X330726Y805279D01*
X330607Y805174D01*
X330501Y805061D01*
X330487Y805047D01*
X330459Y805005D01*
X330424Y804934D01*
X330375Y804843D01*
X330332Y804723D01*
X330290Y804590D01*
X330262Y804428D01*
X330255Y804252D01*
Y804196D01*
X330262Y804161D01*
Y804111D01*
X330269Y804055D01*
X330290Y803921D01*
X330318Y803774D01*
X330368Y803619D01*
X330438Y803457D01*
X330529Y803309D01*
Y803302D01*
X330544Y803295D01*
X330579Y803246D01*
X330635Y803183D01*
X330719Y803105D01*
X330825Y803014D01*
X330945Y802929D01*
X331092Y802852D01*
X331254Y802782D01*
X331261D01*
X331275Y802775D01*
X331296Y802767D01*
X331331Y802760D01*
X331374Y802746D01*
X331423Y802732D01*
X331543Y802711D01*
X331683Y802683D01*
X331838Y802655D01*
X332007Y802641D01*
X332190Y802634D01*
X332197D01*
X332218D01*
X332253D01*
X332295D01*
X332345Y802641D01*
X332408D01*
X332478Y802648D01*
X332556Y802655D01*
X332725Y802676D01*
X332907Y802711D01*
X333091Y802753D01*
X333273Y802810D01*
X333280D01*
X333294Y802817D01*
X333316Y802831D01*
X333351Y802845D01*
X333435Y802887D01*
X333534Y802950D01*
X333646Y803028D01*
X333766Y803126D01*
X333871Y803239D01*
X333970Y803372D01*
Y803380D01*
X333977Y803394D01*
X333991Y803415D01*
X334005Y803443D01*
X334019Y803478D01*
X334040Y803520D01*
X334082Y803619D01*
X334125Y803745D01*
X334160Y803886D01*
X334188Y804041D01*
X334195Y804203D01*
Y804252D01*
X334188Y804294D01*
Y804343D01*
X334181Y804393D01*
X334153Y804519D01*
X334118Y804667D01*
X334061Y804815D01*
X333984Y804970D01*
X333942Y805047D01*
X333885Y805117D01*
X333879Y805125D01*
X333871Y805132D01*
X333850Y805153D01*
X333829Y805181D01*
X333794Y805209D01*
X333752Y805244D01*
X333710Y805286D01*
X333653Y805322D01*
X333590Y805364D01*
X333520Y805413D01*
X333449Y805455D01*
X333365Y805497D01*
X333273Y805533D01*
X333175Y805568D01*
X333069Y805603D01*
X332957Y805631D01*
X333119Y806278D01*
X333126D01*
X333154Y806271D01*
D02*
G37*
G36*
X400563Y812800D02*
X399965D01*
Y816606D01*
X399958Y816599D01*
X399923Y816571D01*
X399881Y816529D01*
X399810Y816480D01*
X399733Y816416D01*
X399635Y816346D01*
X399522Y816268D01*
X399395Y816191D01*
X399388D01*
X399381Y816184D01*
X399339Y816156D01*
X399269Y816121D01*
X399184Y816079D01*
X399086Y816029D01*
X398980Y815980D01*
X398875Y815931D01*
X398769Y815889D01*
Y816466D01*
X398776D01*
X398790Y816480D01*
X398818Y816487D01*
X398853Y816508D01*
X398896Y816529D01*
X398945Y816557D01*
X399065Y816627D01*
X399205Y816705D01*
X399346Y816803D01*
X399494Y816916D01*
X399641Y817035D01*
X399649Y817042D01*
X399656Y817049D01*
X399677Y817071D01*
X399705Y817092D01*
X399768Y817162D01*
X399853Y817246D01*
X399937Y817345D01*
X400028Y817458D01*
X400106Y817570D01*
X400176Y817690D01*
X400563D01*
Y812800D01*
D02*
G37*
G36*
X395955Y817662D02*
X396011D01*
X396138Y817647D01*
X396278Y817634D01*
X396426Y817605D01*
X396574Y817570D01*
X396708Y817521D01*
X396715D01*
X396722Y817514D01*
X396764Y817493D01*
X396827Y817458D01*
X396898Y817408D01*
X396982Y817345D01*
X397073Y817268D01*
X397158Y817169D01*
X397235Y817064D01*
X397242Y817049D01*
X397263Y817007D01*
X397299Y816951D01*
X397334Y816867D01*
X397369Y816768D01*
X397404Y816663D01*
X397425Y816543D01*
X397432Y816423D01*
Y816409D01*
Y816374D01*
X397425Y816311D01*
X397411Y816233D01*
X397390Y816142D01*
X397355Y816043D01*
X397313Y815945D01*
X397256Y815839D01*
X397249Y815825D01*
X397228Y815797D01*
X397186Y815741D01*
X397130Y815685D01*
X397059Y815614D01*
X396975Y815537D01*
X396869Y815466D01*
X396750Y815396D01*
X396757D01*
X396771Y815389D01*
X396792Y815382D01*
X396820Y815368D01*
X396905Y815340D01*
X397003Y815291D01*
X397109Y815227D01*
X397228Y815150D01*
X397334Y815058D01*
X397432Y814946D01*
X397439Y814932D01*
X397467Y814890D01*
X397510Y814826D01*
X397552Y814742D01*
X397594Y814629D01*
X397636Y814510D01*
X397664Y814369D01*
X397672Y814214D01*
Y814207D01*
Y814200D01*
Y814158D01*
X397664Y814087D01*
X397650Y814003D01*
X397636Y813904D01*
X397608Y813799D01*
X397573Y813686D01*
X397524Y813574D01*
X397517Y813560D01*
X397496Y813525D01*
X397467Y813475D01*
X397425Y813405D01*
X397369Y813335D01*
X397313Y813257D01*
X397242Y813180D01*
X397165Y813117D01*
X397158Y813109D01*
X397130Y813088D01*
X397080Y813060D01*
X397017Y813032D01*
X396940Y812990D01*
X396848Y812948D01*
X396750Y812912D01*
X396630Y812877D01*
X396616D01*
X396574Y812863D01*
X396503Y812856D01*
X396412Y812842D01*
X396300Y812828D01*
X396166Y812814D01*
X396018Y812807D01*
X395849Y812800D01*
X393992D01*
Y817669D01*
X395905D01*
X395955Y817662D01*
D02*
G37*
G36*
X393183Y817092D02*
X390537D01*
Y815586D01*
X392824D01*
Y815009D01*
X390537D01*
Y812800D01*
X389890D01*
Y817669D01*
X393183D01*
Y817092D01*
D02*
G37*
G36*
X688213Y902921D02*
X688277Y902913D01*
X688354Y902906D01*
X688431Y902899D01*
X688523Y902878D01*
X688713Y902836D01*
X688924Y902773D01*
X689029Y902730D01*
X689128Y902681D01*
X689226Y902618D01*
X689325Y902555D01*
X689332Y902548D01*
X689346Y902541D01*
X689374Y902519D01*
X689409Y902484D01*
X689444Y902449D01*
X689494Y902400D01*
X689543Y902344D01*
X689599Y902287D01*
X689656Y902217D01*
X689712Y902132D01*
X689775Y902048D01*
X689831Y901957D01*
X689881Y901851D01*
X689937Y901746D01*
X689979Y901633D01*
X690021Y901506D01*
X689388Y901358D01*
Y901366D01*
X689381Y901380D01*
X689367Y901408D01*
X689353Y901443D01*
X689339Y901485D01*
X689318Y901542D01*
X689261Y901654D01*
X689191Y901781D01*
X689107Y901907D01*
X689001Y902027D01*
X688889Y902132D01*
X688875Y902147D01*
X688832Y902175D01*
X688762Y902210D01*
X688671Y902259D01*
X688551Y902301D01*
X688417Y902344D01*
X688255Y902372D01*
X688080Y902379D01*
X688023D01*
X687988Y902372D01*
X687939D01*
X687883Y902365D01*
X687749Y902344D01*
X687601Y902315D01*
X687446Y902266D01*
X687284Y902196D01*
X687137Y902104D01*
X687130D01*
X687123Y902090D01*
X687073Y902055D01*
X687010Y901999D01*
X686933Y901914D01*
X686841Y901809D01*
X686757Y901689D01*
X686679Y901542D01*
X686609Y901380D01*
Y901373D01*
X686602Y901358D01*
X686595Y901337D01*
X686588Y901302D01*
X686574Y901260D01*
X686560Y901211D01*
X686539Y901091D01*
X686510Y900950D01*
X686482Y900796D01*
X686468Y900627D01*
X686461Y900444D01*
Y900437D01*
Y900416D01*
Y900380D01*
Y900338D01*
X686468Y900289D01*
Y900226D01*
X686475Y900155D01*
X686482Y900078D01*
X686504Y899909D01*
X686539Y899726D01*
X686581Y899543D01*
X686637Y899360D01*
Y899353D01*
X686644Y899339D01*
X686658Y899318D01*
X686672Y899283D01*
X686714Y899199D01*
X686778Y899100D01*
X686855Y898988D01*
X686954Y898868D01*
X687066Y898762D01*
X687200Y898664D01*
X687207D01*
X687221Y898657D01*
X687242Y898643D01*
X687270Y898629D01*
X687306Y898615D01*
X687348Y898594D01*
X687446Y898551D01*
X687573Y898509D01*
X687714Y898474D01*
X687868Y898446D01*
X688030Y898439D01*
X688080D01*
X688122Y898446D01*
X688171D01*
X688220Y898453D01*
X688347Y898481D01*
X688495Y898516D01*
X688642Y898572D01*
X688797Y898650D01*
X688875Y898692D01*
X688945Y898748D01*
X688952Y898755D01*
X688959Y898762D01*
X688980Y898783D01*
X689008Y898804D01*
X689036Y898840D01*
X689072Y898882D01*
X689114Y898924D01*
X689149Y898980D01*
X689191Y899044D01*
X689240Y899114D01*
X689283Y899184D01*
X689325Y899269D01*
X689360Y899360D01*
X689395Y899459D01*
X689430Y899564D01*
X689458Y899677D01*
X690106Y899515D01*
Y899508D01*
X690099Y899480D01*
X690085Y899438D01*
X690064Y899381D01*
X690042Y899318D01*
X690014Y899241D01*
X689979Y899156D01*
X689937Y899065D01*
X689838Y898868D01*
X689712Y898671D01*
X689634Y898572D01*
X689557Y898474D01*
X689473Y898389D01*
X689374Y898305D01*
X689367Y898298D01*
X689353Y898284D01*
X689318Y898270D01*
X689283Y898242D01*
X689226Y898206D01*
X689170Y898171D01*
X689093Y898136D01*
X689015Y898101D01*
X688924Y898059D01*
X688825Y898024D01*
X688720Y897988D01*
X688607Y897953D01*
X688487Y897925D01*
X688361Y897911D01*
X688227Y897897D01*
X688086Y897890D01*
X688009D01*
X687953Y897897D01*
X687889D01*
X687812Y897904D01*
X687728Y897918D01*
X687629Y897932D01*
X687425Y897967D01*
X687214Y898024D01*
X687003Y898101D01*
X686905Y898150D01*
X686806Y898206D01*
X686799Y898214D01*
X686785Y898221D01*
X686757Y898242D01*
X686729Y898270D01*
X686686Y898298D01*
X686637Y898340D01*
X686581Y898389D01*
X686525Y898446D01*
X686468Y898509D01*
X686405Y898572D01*
X686278Y898734D01*
X686159Y898924D01*
X686053Y899135D01*
Y899142D01*
X686039Y899163D01*
X686032Y899199D01*
X686011Y899241D01*
X685997Y899297D01*
X685976Y899367D01*
X685948Y899445D01*
X685927Y899529D01*
X685905Y899621D01*
X685877Y899726D01*
X685842Y899944D01*
X685814Y900191D01*
X685800Y900444D01*
Y900451D01*
Y900479D01*
Y900521D01*
X685807Y900571D01*
Y900641D01*
X685814Y900711D01*
X685821Y900803D01*
X685835Y900894D01*
X685870Y901098D01*
X685919Y901323D01*
X685990Y901548D01*
X686088Y901767D01*
X686095Y901774D01*
X686102Y901795D01*
X686116Y901823D01*
X686145Y901858D01*
X686173Y901907D01*
X686208Y901964D01*
X686299Y902090D01*
X686419Y902231D01*
X686560Y902372D01*
X686722Y902512D01*
X686911Y902632D01*
X686919Y902639D01*
X686940Y902646D01*
X686968Y902660D01*
X687003Y902681D01*
X687059Y902702D01*
X687116Y902723D01*
X687186Y902752D01*
X687263Y902780D01*
X687348Y902808D01*
X687439Y902836D01*
X687636Y902878D01*
X687861Y902913D01*
X688093Y902927D01*
X688164D01*
X688213Y902921D01*
D02*
G37*
G36*
X692906Y897974D02*
X692308D01*
Y901781D01*
X692301Y901774D01*
X692266Y901746D01*
X692224Y901703D01*
X692153Y901654D01*
X692076Y901591D01*
X691977Y901520D01*
X691865Y901443D01*
X691738Y901366D01*
X691731D01*
X691724Y901358D01*
X691682Y901330D01*
X691611Y901295D01*
X691527Y901253D01*
X691429Y901204D01*
X691323Y901154D01*
X691217Y901105D01*
X691112Y901063D01*
Y901640D01*
X691119D01*
X691133Y901654D01*
X691161Y901661D01*
X691196Y901682D01*
X691238Y901703D01*
X691288Y901731D01*
X691407Y901802D01*
X691548Y901879D01*
X691689Y901978D01*
X691837Y902090D01*
X691984Y902210D01*
X691991Y902217D01*
X691998Y902224D01*
X692020Y902245D01*
X692048Y902266D01*
X692111Y902337D01*
X692195Y902421D01*
X692280Y902519D01*
X692371Y902632D01*
X692449Y902745D01*
X692519Y902864D01*
X692906D01*
Y897974D01*
D02*
G37*
G36*
X706090Y649421D02*
X707258D01*
Y648823D01*
X706090D01*
Y646706D01*
X705542D01*
X702390Y648936D01*
Y649421D01*
X705542D01*
Y650083D01*
X706090D01*
Y649421D01*
D02*
G37*
G36*
X705387Y646072D02*
X705457D01*
X705542Y646065D01*
X705626Y646058D01*
X705816Y646037D01*
X706013Y646009D01*
X706203Y645967D01*
X706294Y645939D01*
X706379Y645910D01*
X706386D01*
X706400Y645903D01*
X706421Y645889D01*
X706449Y645875D01*
X706527Y645833D01*
X706625Y645770D01*
X706738Y645685D01*
X706850Y645587D01*
X706970Y645460D01*
X707075Y645305D01*
Y645298D01*
X707089Y645284D01*
X707097Y645263D01*
X707118Y645228D01*
X707139Y645186D01*
X707160Y645129D01*
X707181Y645073D01*
X707209Y645003D01*
X707237Y644926D01*
X707258Y644841D01*
X707280Y644750D01*
X707301Y644644D01*
X707315Y644538D01*
X707329Y644426D01*
X707343Y644173D01*
Y644109D01*
X707336Y644060D01*
Y644004D01*
X707329Y643933D01*
X707322Y643856D01*
X707315Y643779D01*
X707287Y643603D01*
X707244Y643413D01*
X707188Y643230D01*
X707111Y643054D01*
Y643047D01*
X707097Y643033D01*
X707083Y643012D01*
X707068Y642984D01*
X707012Y642906D01*
X706935Y642815D01*
X706836Y642709D01*
X706724Y642611D01*
X706583Y642512D01*
X706428Y642435D01*
X706421D01*
X706407Y642428D01*
X706379Y642421D01*
X706344Y642407D01*
X706301Y642393D01*
X706245Y642378D01*
X706182Y642357D01*
X706105Y642343D01*
X706020Y642329D01*
X705929Y642308D01*
X705830Y642294D01*
X705725Y642280D01*
X705605Y642266D01*
X705478Y642259D01*
X705345Y642252D01*
X705204D01*
X702390D01*
Y642899D01*
X705204D01*
X705211D01*
X705232D01*
X705267D01*
X705310D01*
X705359Y642906D01*
X705422D01*
X705556Y642913D01*
X705711Y642927D01*
X705865Y642948D01*
X706013Y642977D01*
X706076Y642991D01*
X706140Y643012D01*
X706154Y643019D01*
X706189Y643033D01*
X706238Y643068D01*
X706309Y643110D01*
X706379Y643159D01*
X706456Y643230D01*
X706534Y643314D01*
X706597Y643413D01*
X706604Y643427D01*
X706625Y643462D01*
X706646Y643525D01*
X706674Y643610D01*
X706710Y643708D01*
X706731Y643835D01*
X706752Y643969D01*
X706759Y644116D01*
Y644187D01*
X706752Y644229D01*
Y644292D01*
X706745Y644356D01*
X706717Y644510D01*
X706681Y644679D01*
X706625Y644841D01*
X706548Y644996D01*
X706498Y645066D01*
X706442Y645129D01*
X706435Y645137D01*
X706428Y645144D01*
X706407Y645158D01*
X706379Y645179D01*
X706337Y645200D01*
X706294Y645228D01*
X706231Y645256D01*
X706168Y645284D01*
X706090Y645312D01*
X705999Y645334D01*
X705893Y645362D01*
X705781Y645383D01*
X705654Y645404D01*
X705520Y645418D01*
X705366Y645432D01*
X705204D01*
X702390D01*
Y646079D01*
X705204D01*
X705211D01*
X705239D01*
X705274D01*
X705323D01*
X705387Y646072D01*
D02*
G37*
%LPC*%
G36*
X859677Y803312D02*
X859621D01*
X859557Y803298D01*
X859473Y803283D01*
X859381Y803255D01*
X859283Y803220D01*
X859192Y803164D01*
X859100Y803086D01*
X859093Y803080D01*
X859065Y803051D01*
X859030Y803002D01*
X858995Y802939D01*
X858952Y802861D01*
X858917Y802770D01*
X858889Y802671D01*
X858882Y802559D01*
Y802552D01*
Y802545D01*
X858889Y802503D01*
X858896Y802439D01*
X858910Y802362D01*
X858938Y802270D01*
X858973Y802179D01*
X859030Y802080D01*
X859100Y801996D01*
X859107Y801989D01*
X859142Y801961D01*
X859192Y801926D01*
X859255Y801890D01*
X859339Y801848D01*
X859438Y801813D01*
X859550Y801785D01*
X859677Y801778D01*
X859691D01*
X859733Y801785D01*
X859797Y801792D01*
X859881Y801806D01*
X859972Y801834D01*
X860064Y801869D01*
X860162Y801926D01*
X860247Y801996D01*
X860254Y802003D01*
X860282Y802038D01*
X860317Y802080D01*
X860359Y802144D01*
X860402Y802221D01*
X860437Y802313D01*
X860465Y802418D01*
X860472Y802531D01*
Y802538D01*
Y802545D01*
Y802587D01*
X860458Y802650D01*
X860444Y802728D01*
X860416Y802812D01*
X860374Y802904D01*
X860317Y802995D01*
X860240Y803086D01*
X860233Y803094D01*
X860198Y803122D01*
X860148Y803157D01*
X860085Y803199D01*
X860001Y803241D01*
X859909Y803277D01*
X859797Y803305D01*
X859677Y803312D01*
D02*
G37*
G36*
X859656Y801292D02*
X859614D01*
X859585Y801285D01*
X859508Y801278D01*
X859410Y801257D01*
X859297Y801222D01*
X859184Y801173D01*
X859065Y801102D01*
X858959Y801011D01*
X858945Y800997D01*
X858917Y800962D01*
X858875Y800898D01*
X858826Y800821D01*
X858769Y800715D01*
X858727Y800596D01*
X858699Y800462D01*
X858685Y800314D01*
Y800300D01*
Y800272D01*
X858692Y800223D01*
X858699Y800160D01*
X858713Y800082D01*
X858734Y799998D01*
X858762Y799913D01*
X858798Y799822D01*
X858804Y799815D01*
X858819Y799780D01*
X858847Y799737D01*
X858889Y799688D01*
X858938Y799625D01*
X859001Y799562D01*
X859072Y799505D01*
X859156Y799449D01*
X859170Y799442D01*
X859199Y799428D01*
X859248Y799407D01*
X859311Y799386D01*
X859389Y799365D01*
X859480Y799343D01*
X859578Y799329D01*
X859677Y799322D01*
X859719D01*
X859747Y799329D01*
X859832Y799336D01*
X859930Y799358D01*
X860043Y799393D01*
X860162Y799435D01*
X860275Y799505D01*
X860388Y799597D01*
X860402Y799611D01*
X860430Y799646D01*
X860479Y799709D01*
X860528Y799787D01*
X860577Y799885D01*
X860627Y800005D01*
X860655Y800146D01*
X860669Y800293D01*
Y800300D01*
Y800314D01*
Y800335D01*
X860662Y800364D01*
X860655Y800441D01*
X860634Y800547D01*
X860599Y800652D01*
X860549Y800772D01*
X860479Y800891D01*
X860380Y801004D01*
X860367Y801018D01*
X860331Y801046D01*
X860268Y801095D01*
X860183Y801152D01*
X860078Y801201D01*
X859951Y801250D01*
X859811Y801278D01*
X859656Y801292D01*
D02*
G37*
G36*
X882046Y900302D02*
X880597D01*
X880512Y900295D01*
X880414Y900288D01*
X880301Y900281D01*
X880189Y900267D01*
X880076Y900246D01*
X879977Y900217D01*
X879963Y900210D01*
X879935Y900196D01*
X879893Y900175D01*
X879837Y900147D01*
X879773Y900105D01*
X879710Y900055D01*
X879647Y899992D01*
X879598Y899922D01*
X879591Y899915D01*
X879576Y899887D01*
X879555Y899844D01*
X879527Y899788D01*
X879506Y899725D01*
X879485Y899654D01*
X879471Y899570D01*
X879464Y899486D01*
Y899479D01*
Y899472D01*
X879471Y899429D01*
X879478Y899366D01*
X879492Y899282D01*
X879527Y899197D01*
X879569Y899099D01*
X879633Y899007D01*
X879717Y898916D01*
X879731Y898909D01*
X879766Y898880D01*
X879823Y898845D01*
X879914Y898803D01*
X880020Y898761D01*
X880160Y898726D01*
X880322Y898698D01*
X880512Y898691D01*
X882046D01*
Y900302D01*
D02*
G37*
G36*
X855436Y905379D02*
X854310D01*
Y901665D01*
X855464D01*
X855513Y901672D01*
X855619Y901679D01*
X855738Y901686D01*
X855865Y901700D01*
X855991Y901721D01*
X856097Y901749D01*
X856111Y901756D01*
X856146Y901763D01*
X856195Y901784D01*
X856259Y901812D01*
X856329Y901854D01*
X856400Y901897D01*
X856470Y901946D01*
X856540Y902002D01*
X856547Y902016D01*
X856575Y902044D01*
X856618Y902094D01*
X856667Y902164D01*
X856723Y902255D01*
X856786Y902361D01*
X856843Y902481D01*
X856892Y902614D01*
Y902621D01*
X856899Y902635D01*
X856906Y902656D01*
X856913Y902685D01*
X856920Y902720D01*
X856934Y902769D01*
X856948Y902818D01*
X856962Y902875D01*
X856983Y903015D01*
X857005Y903177D01*
X857019Y903360D01*
X857026Y903557D01*
Y903564D01*
Y903592D01*
Y903627D01*
X857019Y903684D01*
Y903747D01*
X857012Y903817D01*
X857005Y903902D01*
X856998Y903986D01*
X856962Y904176D01*
X856920Y904373D01*
X856857Y904556D01*
X856815Y904648D01*
X856772Y904725D01*
Y904732D01*
X856758Y904746D01*
X856744Y904767D01*
X856730Y904795D01*
X856674Y904866D01*
X856603Y904950D01*
X856512Y905042D01*
X856406Y905133D01*
X856287Y905210D01*
X856160Y905274D01*
X856146Y905281D01*
X856111Y905288D01*
X856048Y905309D01*
X855956Y905330D01*
X855844Y905344D01*
X855703Y905365D01*
X855619Y905372D01*
X855527D01*
X855436Y905379D01*
D02*
G37*
G36*
X857873Y935944D02*
X856748D01*
Y932229D01*
X857901D01*
X857951Y932236D01*
X858056Y932243D01*
X858176Y932250D01*
X858302Y932264D01*
X858429Y932285D01*
X858535Y932313D01*
X858549Y932320D01*
X858584Y932327D01*
X858633Y932348D01*
X858697Y932377D01*
X858767Y932419D01*
X858837Y932461D01*
X858907Y932510D01*
X858978Y932567D01*
X858985Y932581D01*
X859013Y932609D01*
X859055Y932658D01*
X859105Y932729D01*
X859161Y932820D01*
X859224Y932925D01*
X859280Y933045D01*
X859330Y933179D01*
Y933186D01*
X859337Y933200D01*
X859344Y933221D01*
X859351Y933249D01*
X859358Y933284D01*
X859372Y933334D01*
X859386Y933383D01*
X859400Y933439D01*
X859421Y933580D01*
X859442Y933742D01*
X859456Y933924D01*
X859463Y934122D01*
Y934129D01*
Y934157D01*
Y934192D01*
X859456Y934248D01*
Y934312D01*
X859449Y934382D01*
X859442Y934466D01*
X859435Y934551D01*
X859400Y934741D01*
X859358Y934938D01*
X859295Y935121D01*
X859252Y935212D01*
X859210Y935290D01*
Y935296D01*
X859196Y935311D01*
X859182Y935332D01*
X859168Y935360D01*
X859112Y935430D01*
X859041Y935515D01*
X858950Y935606D01*
X858844Y935698D01*
X858725Y935775D01*
X858598Y935838D01*
X858584Y935845D01*
X858549Y935852D01*
X858485Y935873D01*
X858394Y935895D01*
X858281Y935909D01*
X858141Y935930D01*
X858056Y935937D01*
X857965D01*
X857873Y935944D01*
D02*
G37*
G36*
X524634Y944206D02*
X523100D01*
Y942595D01*
X524550D01*
X524634Y942602D01*
X524733Y942609D01*
X524845Y942616D01*
X524958Y942630D01*
X525070Y942651D01*
X525169Y942680D01*
X525183Y942687D01*
X525211Y942701D01*
X525253Y942722D01*
X525310Y942750D01*
X525373Y942792D01*
X525436Y942841D01*
X525500Y942905D01*
X525549Y942975D01*
X525556Y942982D01*
X525570Y943010D01*
X525591Y943052D01*
X525619Y943109D01*
X525640Y943172D01*
X525661Y943242D01*
X525676Y943327D01*
X525682Y943411D01*
Y943418D01*
Y943425D01*
X525676Y943467D01*
X525668Y943531D01*
X525654Y943615D01*
X525619Y943700D01*
X525577Y943798D01*
X525514Y943890D01*
X525429Y943981D01*
X525415Y943988D01*
X525380Y944016D01*
X525324Y944052D01*
X525232Y944094D01*
X525127Y944136D01*
X524986Y944171D01*
X524824Y944199D01*
X524634Y944206D01*
D02*
G37*
G36*
X532479Y944277D02*
X532437D01*
X532409Y944270D01*
X532331Y944256D01*
X532240Y944234D01*
X532134Y944192D01*
X532022Y944129D01*
X531965Y944087D01*
X531909Y944044D01*
X531860Y943988D01*
X531811Y943925D01*
Y943918D01*
X531797Y943904D01*
X531782Y943876D01*
X531761Y943840D01*
X531740Y943784D01*
X531712Y943721D01*
X531691Y943643D01*
X531663Y943552D01*
X531635Y943446D01*
X531607Y943327D01*
X531578Y943193D01*
X531557Y943045D01*
X531536Y942877D01*
X531522Y942694D01*
X531515Y942497D01*
X531508Y942279D01*
Y942264D01*
Y942229D01*
Y942166D01*
X531515Y942082D01*
Y941990D01*
X531522Y941877D01*
X531529Y941758D01*
X531543Y941631D01*
X531578Y941357D01*
X531600Y941223D01*
X531628Y941096D01*
X531656Y940977D01*
X531698Y940864D01*
X531740Y940766D01*
X531790Y940681D01*
Y940674D01*
X531804Y940667D01*
X531839Y940618D01*
X531902Y940555D01*
X531979Y940484D01*
X532085Y940414D01*
X532205Y940351D01*
X532338Y940301D01*
X532409Y940294D01*
X532486Y940287D01*
X532528D01*
X532556Y940294D01*
X532627Y940309D01*
X532725Y940337D01*
X532831Y940386D01*
X532951Y940456D01*
X533007Y940498D01*
X533063Y940555D01*
X533119Y940611D01*
X533176Y940681D01*
Y940688D01*
X533190Y940703D01*
X533204Y940724D01*
X533218Y940759D01*
X533246Y940808D01*
X533267Y940871D01*
X533295Y940942D01*
X533323Y941026D01*
X533344Y941132D01*
X533373Y941244D01*
X533401Y941378D01*
X533422Y941519D01*
X533436Y941687D01*
X533450Y941863D01*
X533464Y942060D01*
Y942279D01*
Y942286D01*
Y942293D01*
Y942328D01*
Y942391D01*
X533457Y942476D01*
Y942567D01*
X533450Y942680D01*
X533443Y942799D01*
X533429Y942933D01*
X533394Y943200D01*
X533373Y943334D01*
X533344Y943460D01*
X533316Y943580D01*
X533274Y943693D01*
X533232Y943791D01*
X533183Y943876D01*
Y943883D01*
X533169Y943890D01*
X533154Y943911D01*
X533133Y943939D01*
X533070Y944002D01*
X532993Y944080D01*
X532887Y944150D01*
X532767Y944213D01*
X532704Y944241D01*
X532634Y944263D01*
X532556Y944270D01*
X532479Y944277D01*
D02*
G37*
G36*
X368240Y763446D02*
X368198D01*
X368170Y763439D01*
X368099Y763432D01*
X368001Y763410D01*
X367895Y763375D01*
X367775Y763319D01*
X367663Y763249D01*
X367550Y763150D01*
X367536Y763136D01*
X367508Y763101D01*
X367459Y763038D01*
X367410Y762946D01*
X367360Y762841D01*
X367311Y762707D01*
X367283Y762559D01*
X367269Y762390D01*
Y762376D01*
Y762341D01*
X367276Y762278D01*
X367283Y762200D01*
X367297Y762109D01*
X367325Y762010D01*
X367353Y761905D01*
X367396Y761799D01*
X367403Y761785D01*
X367424Y761750D01*
X367452Y761701D01*
X367494Y761637D01*
X367543Y761574D01*
X367607Y761497D01*
X367677Y761433D01*
X367761Y761370D01*
X367775Y761363D01*
X367804Y761349D01*
X367853Y761321D01*
X367916Y761300D01*
X367987Y761272D01*
X368071Y761244D01*
X368162Y761229D01*
X368261Y761222D01*
X368296D01*
X368324Y761229D01*
X368395Y761236D01*
X368486Y761258D01*
X368585Y761300D01*
X368697Y761349D01*
X368810Y761426D01*
X368866Y761469D01*
X368915Y761525D01*
Y761532D01*
X368929Y761539D01*
X368957Y761581D01*
X369000Y761652D01*
X369056Y761743D01*
X369105Y761863D01*
X369147Y762003D01*
X369176Y762165D01*
X369190Y762355D01*
Y762362D01*
Y762376D01*
Y762404D01*
X369183Y762440D01*
Y762482D01*
X369176Y762531D01*
X369155Y762644D01*
X369126Y762770D01*
X369077Y762904D01*
X369007Y763031D01*
X368915Y763150D01*
X368901Y763164D01*
X368866Y763199D01*
X368810Y763242D01*
X368732Y763298D01*
X368634Y763354D01*
X368521Y763396D01*
X368388Y763432D01*
X368240Y763446D01*
D02*
G37*
G36*
X364131Y765141D02*
X362597D01*
Y763530D01*
X364047D01*
X364131Y763537D01*
X364230Y763544D01*
X364342Y763551D01*
X364455Y763565D01*
X364567Y763586D01*
X364666Y763615D01*
X364680Y763622D01*
X364708Y763636D01*
X364750Y763657D01*
X364806Y763685D01*
X364870Y763727D01*
X364933Y763776D01*
X364996Y763840D01*
X365046Y763910D01*
X365053Y763917D01*
X365067Y763945D01*
X365088Y763987D01*
X365116Y764044D01*
X365137Y764107D01*
X365158Y764177D01*
X365172Y764262D01*
X365179Y764346D01*
Y764353D01*
Y764360D01*
X365172Y764403D01*
X365165Y764466D01*
X365151Y764550D01*
X365116Y764635D01*
X365074Y764733D01*
X365010Y764825D01*
X364926Y764916D01*
X364912Y764923D01*
X364877Y764951D01*
X364821Y764986D01*
X364729Y765029D01*
X364623Y765071D01*
X364483Y765106D01*
X364321Y765134D01*
X364131Y765141D01*
D02*
G37*
G36*
Y741011D02*
X362597D01*
Y739400D01*
X364047D01*
X364131Y739407D01*
X364230Y739414D01*
X364342Y739421D01*
X364455Y739435D01*
X364567Y739456D01*
X364666Y739485D01*
X364680Y739492D01*
X364708Y739506D01*
X364750Y739527D01*
X364806Y739555D01*
X364870Y739597D01*
X364933Y739646D01*
X364996Y739710D01*
X365046Y739780D01*
X365053Y739787D01*
X365067Y739815D01*
X365088Y739857D01*
X365116Y739914D01*
X365137Y739977D01*
X365158Y740047D01*
X365172Y740132D01*
X365179Y740216D01*
Y740223D01*
Y740230D01*
X365172Y740273D01*
X365165Y740336D01*
X365151Y740420D01*
X365116Y740505D01*
X365074Y740603D01*
X365010Y740695D01*
X364926Y740786D01*
X364912Y740793D01*
X364877Y740821D01*
X364821Y740856D01*
X364729Y740899D01*
X364623Y740941D01*
X364483Y740976D01*
X364321Y741004D01*
X364131Y741011D01*
D02*
G37*
G36*
X419554Y820170D02*
X419547D01*
X419533D01*
X419505D01*
X419470Y820163D01*
X419420D01*
X419371Y820156D01*
X419258Y820135D01*
X419125Y820106D01*
X418984Y820057D01*
X418851Y819987D01*
X418731Y819895D01*
X418724D01*
X418717Y819881D01*
X418682Y819846D01*
X418632Y819790D01*
X418576Y819712D01*
X418527Y819614D01*
X418478Y819501D01*
X418442Y819375D01*
X418428Y819304D01*
Y819192D01*
X418435Y819164D01*
X418442Y819086D01*
X418470Y818995D01*
X418506Y818882D01*
X418569Y818763D01*
X418646Y818643D01*
X418703Y818587D01*
X418759Y818530D01*
X418766D01*
X418773Y818516D01*
X418794Y818502D01*
X418815Y818488D01*
X418886Y818439D01*
X418984Y818390D01*
X419104Y818333D01*
X419252Y818284D01*
X419420Y818256D01*
X419603Y818242D01*
X419610D01*
X419624D01*
X419646D01*
X419681Y818249D01*
X419723D01*
X419765Y818256D01*
X419871Y818277D01*
X419990Y818312D01*
X420117Y818354D01*
X420244Y818425D01*
X420356Y818516D01*
X420370Y818530D01*
X420398Y818566D01*
X420448Y818629D01*
X420497Y818706D01*
X420553Y818812D01*
X420602Y818932D01*
X420630Y819065D01*
X420645Y819213D01*
Y819255D01*
X420638Y819283D01*
X420630Y819361D01*
X420609Y819452D01*
X420574Y819565D01*
X420525Y819677D01*
X420455Y819790D01*
X420356Y819895D01*
X420342Y819909D01*
X420300Y819938D01*
X420237Y819980D01*
X420145Y820036D01*
X420033Y820085D01*
X419899Y820127D01*
X419737Y820156D01*
X419554Y820170D01*
D02*
G37*
G36*
X332001Y730120D02*
Y728586D01*
X334182D01*
X332001Y730120D01*
D02*
G37*
G36*
X752061Y668108D02*
X750527Y665927D01*
X752061D01*
Y668108D01*
D02*
G37*
G36*
X747671Y668537D02*
X746137D01*
Y666926D01*
X747587D01*
X747671Y666933D01*
X747769Y666940D01*
X747882Y666947D01*
X747995Y666961D01*
X748107Y666982D01*
X748206Y667010D01*
X748220Y667017D01*
X748248Y667031D01*
X748290Y667052D01*
X748346Y667081D01*
X748410Y667123D01*
X748473Y667172D01*
X748536Y667235D01*
X748586Y667306D01*
X748593Y667313D01*
X748607Y667341D01*
X748628Y667383D01*
X748656Y667439D01*
X748677Y667503D01*
X748698Y667573D01*
X748712Y667657D01*
X748719Y667742D01*
Y667749D01*
Y667756D01*
X748712Y667798D01*
X748705Y667861D01*
X748691Y667946D01*
X748656Y668030D01*
X748614Y668129D01*
X748550Y668220D01*
X748466Y668312D01*
X748452Y668319D01*
X748417Y668347D01*
X748361Y668382D01*
X748269Y668424D01*
X748164Y668466D01*
X748023Y668502D01*
X747861Y668530D01*
X747671Y668537D01*
D02*
G37*
G36*
X594612Y798932D02*
X593587Y797907D01*
X593533Y797843D01*
X593468Y797768D01*
X593394Y797684D01*
X593324Y797594D01*
X593259Y797500D01*
X593209Y797410D01*
X593204Y797395D01*
X593195Y797365D01*
X593180Y797320D01*
X593160Y797261D01*
X593145Y797186D01*
X593135Y797107D01*
Y797017D01*
X593150Y796932D01*
Y796923D01*
X593160Y796893D01*
X593175Y796848D01*
X593195Y796788D01*
X593224Y796729D01*
X593259Y796664D01*
X593309Y796594D01*
X593364Y796529D01*
X593369Y796525D01*
X593374Y796519D01*
X593408Y796495D01*
X593458Y796455D01*
X593528Y796405D01*
X593612Y796370D01*
X593712Y796330D01*
X593821Y796311D01*
X593946Y796306D01*
X593961Y796311D01*
X594005Y796316D01*
X594070Y796330D01*
X594165Y796365D01*
X594269Y796410D01*
X594394Y796485D01*
X594528Y796579D01*
X594667Y796709D01*
X595752Y797793D01*
X594612Y798932D01*
D02*
G37*
G36*
X590956Y795644D02*
X590911Y795639D01*
X590831Y795629D01*
X590742Y795609D01*
X590627Y795574D01*
X590508Y795525D01*
X590393Y795450D01*
X590279Y795355D01*
X590249Y795325D01*
X590234Y795301D01*
X590185Y795241D01*
X590135Y795161D01*
X590080Y795057D01*
X590035Y794942D01*
X590005Y794813D01*
X590000Y794669D01*
Y794649D01*
X590010Y794599D01*
X590025Y794525D01*
X590050Y794420D01*
X590095Y794306D01*
X590160Y794181D01*
X590254Y794047D01*
X590374Y793908D01*
X590379Y793903D01*
X590388Y793893D01*
X590408Y793873D01*
X590438Y793853D01*
X590473Y793818D01*
X590513Y793788D01*
X590607Y793724D01*
X590722Y793649D01*
X590856Y793584D01*
X591001Y793539D01*
X591150Y793520D01*
X591155Y793515D01*
X591170Y793520D01*
X591219D01*
X591294Y793524D01*
X591389Y793539D01*
X591493Y793574D01*
X591607Y793619D01*
X591722Y793684D01*
X591782Y793724D01*
X591861Y793803D01*
X591876Y793828D01*
X591926Y793888D01*
X591971Y793972D01*
X592025Y794077D01*
X592065Y794206D01*
X592095Y794345D01*
Y794425D01*
Y794505D01*
X592090Y794510D01*
X592095Y794525D01*
X592090Y794549D01*
X592085Y794574D01*
X592070Y794659D01*
X592035Y794763D01*
X591991Y794888D01*
X591921Y795027D01*
X591821Y795166D01*
X591702Y795306D01*
X591697Y795311D01*
X591687Y795321D01*
X591672Y795335D01*
X591642Y795355D01*
X591612Y795385D01*
X591578Y795410D01*
X591488Y795470D01*
X591379Y795529D01*
X591259Y795589D01*
X591120Y795629D01*
X590976Y795644D01*
X590956D01*
D02*
G37*
G36*
X600063Y829050D02*
X598614D01*
X598529Y829043D01*
X598430Y829036D01*
X598318Y829029D01*
X598205Y829015D01*
X598093Y828994D01*
X597994Y828965D01*
X597980Y828958D01*
X597952Y828944D01*
X597910Y828923D01*
X597854Y828895D01*
X597790Y828853D01*
X597727Y828804D01*
X597664Y828740D01*
X597614Y828670D01*
X597607Y828663D01*
X597593Y828635D01*
X597572Y828593D01*
X597544Y828536D01*
X597523Y828473D01*
X597502Y828403D01*
X597488Y828318D01*
X597481Y828234D01*
Y828227D01*
Y828220D01*
X597488Y828177D01*
X597495Y828114D01*
X597509Y828030D01*
X597544Y827945D01*
X597586Y827847D01*
X597650Y827755D01*
X597734Y827664D01*
X597748Y827657D01*
X597783Y827629D01*
X597840Y827594D01*
X597931Y827551D01*
X598036Y827509D01*
X598177Y827474D01*
X598339Y827446D01*
X598529Y827439D01*
X600063D01*
Y829050D01*
D02*
G37*
G36*
X594455Y831358D02*
X594413D01*
X594385Y831351D01*
X594300Y831344D01*
X594202Y831322D01*
X594089Y831287D01*
X593970Y831245D01*
X593857Y831175D01*
X593745Y831083D01*
X593731Y831069D01*
X593703Y831034D01*
X593653Y830971D01*
X593604Y830893D01*
X593555Y830795D01*
X593506Y830675D01*
X593477Y830534D01*
X593463Y830387D01*
Y830380D01*
Y830366D01*
Y830344D01*
X593470Y830316D01*
X593477Y830239D01*
X593498Y830133D01*
X593534Y830028D01*
X593583Y829908D01*
X593653Y829789D01*
X593752Y829676D01*
X593766Y829662D01*
X593801Y829634D01*
X593864Y829585D01*
X593949Y829528D01*
X594054Y829479D01*
X594181Y829430D01*
X594322Y829402D01*
X594476Y829388D01*
X594519D01*
X594547Y829395D01*
X594624Y829402D01*
X594723Y829423D01*
X594835Y829458D01*
X594948Y829507D01*
X595067Y829578D01*
X595173Y829669D01*
X595187Y829683D01*
X595215Y829718D01*
X595257Y829782D01*
X595307Y829859D01*
X595363Y829965D01*
X595405Y830084D01*
X595433Y830218D01*
X595447Y830366D01*
Y830380D01*
Y830408D01*
X595440Y830457D01*
X595433Y830520D01*
X595419Y830598D01*
X595398Y830682D01*
X595370Y830767D01*
X595335Y830858D01*
X595328Y830865D01*
X595314Y830900D01*
X595285Y830943D01*
X595243Y830992D01*
X595194Y831055D01*
X595131Y831118D01*
X595060Y831175D01*
X594976Y831231D01*
X594962Y831238D01*
X594934Y831252D01*
X594884Y831273D01*
X594821Y831294D01*
X594744Y831315D01*
X594652Y831337D01*
X594554Y831351D01*
X594455Y831358D01*
D02*
G37*
G36*
Y828902D02*
X594441D01*
X594399Y828895D01*
X594336Y828888D01*
X594251Y828874D01*
X594160Y828846D01*
X594068Y828811D01*
X593970Y828754D01*
X593885Y828684D01*
X593878Y828677D01*
X593850Y828642D01*
X593815Y828600D01*
X593773Y828536D01*
X593731Y828459D01*
X593695Y828367D01*
X593667Y828262D01*
X593660Y828149D01*
Y828142D01*
Y828135D01*
Y828093D01*
X593674Y828030D01*
X593688Y827952D01*
X593717Y827868D01*
X593759Y827776D01*
X593815Y827685D01*
X593892Y827594D01*
X593899Y827586D01*
X593935Y827558D01*
X593984Y827523D01*
X594047Y827481D01*
X594132Y827439D01*
X594223Y827403D01*
X594336Y827375D01*
X594455Y827368D01*
X594512D01*
X594575Y827382D01*
X594659Y827396D01*
X594751Y827425D01*
X594849Y827460D01*
X594941Y827516D01*
X595032Y827594D01*
X595039Y827600D01*
X595067Y827629D01*
X595103Y827678D01*
X595138Y827741D01*
X595180Y827819D01*
X595215Y827910D01*
X595243Y828009D01*
X595250Y828121D01*
Y828128D01*
Y828135D01*
X595243Y828177D01*
X595236Y828241D01*
X595222Y828318D01*
X595194Y828410D01*
X595159Y828501D01*
X595103Y828600D01*
X595032Y828684D01*
X595025Y828691D01*
X594990Y828719D01*
X594941Y828754D01*
X594877Y828790D01*
X594793Y828832D01*
X594695Y828867D01*
X594582Y828895D01*
X594455Y828902D01*
D02*
G37*
G36*
X384868Y893327D02*
X383334D01*
Y891716D01*
X384784D01*
X384868Y891723D01*
X384967Y891730D01*
X385079Y891737D01*
X385192Y891751D01*
X385304Y891772D01*
X385403Y891800D01*
X385417Y891807D01*
X385445Y891821D01*
X385487Y891842D01*
X385544Y891870D01*
X385607Y891913D01*
X385670Y891962D01*
X385733Y892025D01*
X385783Y892096D01*
X385790Y892103D01*
X385804Y892131D01*
X385825Y892173D01*
X385853Y892229D01*
X385874Y892293D01*
X385895Y892363D01*
X385909Y892447D01*
X385916Y892532D01*
Y892539D01*
Y892546D01*
X385909Y892588D01*
X385902Y892652D01*
X385888Y892736D01*
X385853Y892820D01*
X385811Y892919D01*
X385747Y893010D01*
X385663Y893102D01*
X385649Y893109D01*
X385614Y893137D01*
X385558Y893172D01*
X385466Y893214D01*
X385360Y893257D01*
X385220Y893292D01*
X385058Y893320D01*
X384868Y893327D01*
D02*
G37*
G36*
X381623Y868763D02*
X380469D01*
X380420Y868756D01*
X380314Y868749D01*
X380194Y868742D01*
X380068Y868728D01*
X379941Y868707D01*
X379836Y868679D01*
X379822Y868671D01*
X379786Y868664D01*
X379737Y868643D01*
X379674Y868615D01*
X379603Y868573D01*
X379533Y868531D01*
X379463Y868482D01*
X379392Y868425D01*
X379385Y868411D01*
X379357Y868383D01*
X379315Y868334D01*
X379266Y868263D01*
X379209Y868172D01*
X379146Y868066D01*
X379090Y867947D01*
X379041Y867813D01*
Y867806D01*
X379034Y867792D01*
X379026Y867771D01*
X379020Y867743D01*
X379012Y867708D01*
X378998Y867658D01*
X378984Y867609D01*
X378970Y867553D01*
X378949Y867412D01*
X378928Y867250D01*
X378914Y867067D01*
X378907Y866870D01*
Y866863D01*
Y866835D01*
Y866800D01*
X378914Y866744D01*
Y866680D01*
X378921Y866610D01*
X378928Y866526D01*
X378935Y866441D01*
X378970Y866251D01*
X379012Y866054D01*
X379076Y865871D01*
X379118Y865780D01*
X379160Y865702D01*
Y865695D01*
X379174Y865681D01*
X379188Y865660D01*
X379202Y865632D01*
X379259Y865562D01*
X379329Y865477D01*
X379421Y865386D01*
X379526Y865294D01*
X379646Y865217D01*
X379772Y865154D01*
X379786Y865147D01*
X379822Y865139D01*
X379885Y865118D01*
X379976Y865097D01*
X380089Y865083D01*
X380230Y865062D01*
X380314Y865055D01*
X380406D01*
X380497Y865048D01*
X381623D01*
Y868763D01*
D02*
G37*
G36*
X883556Y930734D02*
X882107D01*
X882022Y930727D01*
X881924Y930720D01*
X881811Y930713D01*
X881699Y930699D01*
X881586Y930678D01*
X881488Y930650D01*
X881474Y930643D01*
X881445Y930629D01*
X881403Y930608D01*
X881347Y930580D01*
X881284Y930537D01*
X881220Y930488D01*
X881157Y930425D01*
X881108Y930354D01*
X881101Y930347D01*
X881087Y930319D01*
X881066Y930277D01*
X881037Y930221D01*
X881016Y930157D01*
X880995Y930087D01*
X880981Y930003D01*
X880974Y929918D01*
Y929911D01*
Y929904D01*
X880981Y929862D01*
X880988Y929799D01*
X881002Y929714D01*
X881037Y929630D01*
X881080Y929531D01*
X881143Y929440D01*
X881227Y929348D01*
X881242Y929341D01*
X881277Y929313D01*
X881333Y929278D01*
X881424Y929236D01*
X881530Y929193D01*
X881671Y929158D01*
X881833Y929130D01*
X882022Y929123D01*
X883556D01*
Y930734D01*
D02*
G37*
G36*
X333119Y813195D02*
X333112D01*
X333097D01*
X333069D01*
X333034Y813187D01*
X332992D01*
X332943Y813180D01*
X332830Y813159D01*
X332704Y813131D01*
X332570Y813082D01*
X332443Y813012D01*
X332324Y812920D01*
X332309Y812906D01*
X332274Y812871D01*
X332232Y812815D01*
X332176Y812737D01*
X332119Y812639D01*
X332077Y812526D01*
X332042Y812392D01*
X332028Y812245D01*
Y812203D01*
X332035Y812174D01*
X332042Y812104D01*
X332063Y812005D01*
X332098Y811900D01*
X332155Y811780D01*
X332225Y811668D01*
X332324Y811555D01*
X332338Y811541D01*
X332373Y811513D01*
X332436Y811464D01*
X332528Y811414D01*
X332633Y811365D01*
X332767Y811316D01*
X332915Y811288D01*
X333083Y811274D01*
X333097D01*
X333133D01*
X333196Y811281D01*
X333273Y811288D01*
X333365Y811302D01*
X333463Y811330D01*
X333569Y811358D01*
X333674Y811400D01*
X333689Y811407D01*
X333724Y811429D01*
X333773Y811457D01*
X333836Y811499D01*
X333900Y811548D01*
X333977Y811611D01*
X334040Y811682D01*
X334104Y811766D01*
X334111Y811780D01*
X334125Y811808D01*
X334153Y811858D01*
X334174Y811921D01*
X334202Y811991D01*
X334230Y812076D01*
X334244Y812167D01*
X334251Y812266D01*
Y812301D01*
X334244Y812329D01*
X334237Y812400D01*
X334216Y812491D01*
X334174Y812589D01*
X334125Y812702D01*
X334047Y812815D01*
X334005Y812871D01*
X333949Y812920D01*
X333942D01*
X333935Y812934D01*
X333893Y812962D01*
X333822Y813005D01*
X333731Y813061D01*
X333611Y813110D01*
X333470Y813152D01*
X333309Y813180D01*
X333119Y813195D01*
D02*
G37*
G36*
X395793Y817092D02*
X394639D01*
Y815628D01*
X395835D01*
X395927Y815635D01*
X396025Y815642D01*
X396124Y815649D01*
X396222Y815663D01*
X396300Y815677D01*
X396314Y815685D01*
X396342Y815692D01*
X396384Y815713D01*
X396440Y815741D01*
X396497Y815769D01*
X396560Y815811D01*
X396623Y815867D01*
X396672Y815924D01*
X396679Y815931D01*
X396693Y815952D01*
X396715Y815994D01*
X396736Y816043D01*
X396757Y816100D01*
X396778Y816170D01*
X396792Y816255D01*
X396799Y816346D01*
Y816360D01*
Y816388D01*
X396792Y816430D01*
X396785Y816487D01*
X396771Y816557D01*
X396750Y816627D01*
X396722Y816698D01*
X396679Y816768D01*
X396672Y816775D01*
X396658Y816796D01*
X396630Y816831D01*
X396595Y816867D01*
X396546Y816909D01*
X396489Y816951D01*
X396419Y816993D01*
X396342Y817021D01*
X396335D01*
X396300Y817035D01*
X396250Y817042D01*
X396173Y817057D01*
X396067Y817071D01*
X395948Y817078D01*
X395793Y817092D01*
D02*
G37*
G36*
X395920Y815051D02*
X394639D01*
Y813377D01*
X396025D01*
X396173Y813384D01*
X396236Y813391D01*
X396292Y813398D01*
X396300D01*
X396328Y813405D01*
X396370Y813412D01*
X396419Y813426D01*
X396539Y813468D01*
X396658Y813525D01*
X396665Y813532D01*
X396687Y813546D01*
X396715Y813567D01*
X396750Y813595D01*
X396785Y813637D01*
X396834Y813679D01*
X396869Y813736D01*
X396912Y813799D01*
X396919Y813806D01*
X396926Y813827D01*
X396940Y813869D01*
X396961Y813919D01*
X396982Y813975D01*
X396996Y814045D01*
X397003Y814130D01*
X397010Y814214D01*
Y814228D01*
Y814256D01*
X397003Y814313D01*
X396989Y814376D01*
X396975Y814446D01*
X396947Y814524D01*
X396912Y814601D01*
X396862Y814678D01*
X396855Y814686D01*
X396834Y814714D01*
X396806Y814749D01*
X396764Y814791D01*
X396708Y814840D01*
X396637Y814890D01*
X396560Y814932D01*
X396468Y814967D01*
X396454Y814974D01*
X396426Y814981D01*
X396363Y814995D01*
X396285Y815009D01*
X396187Y815023D01*
X396067Y815037D01*
X395920Y815051D01*
D02*
G37*
G36*
X705542Y648823D02*
X703361D01*
X705542Y647290D01*
Y648823D01*
D02*
G37*
%LPD*%
D10*
X814112Y590030D02*
Y652030D01*
Y590030D02*
X911112D01*
Y652030D01*
X814112D02*
X911112D01*
X470650Y672070D02*
X532650D01*
X470650Y575070D02*
Y672070D01*
Y575070D02*
X532650D01*
Y672070D01*
X834164Y808890D02*
X872286D01*
Y788770D02*
Y808890D01*
X834164Y788770D02*
X872286D01*
X834164D02*
Y808890D01*
X1107710Y898160D02*
Y925560D01*
Y898160D02*
X1185910D01*
Y925560D01*
X1107710D02*
X1185910D01*
X422640Y623840D02*
Y651240D01*
X344440D02*
X422640D01*
X344440Y623840D02*
Y651240D01*
Y623840D02*
X422640D01*
X844295Y753227D02*
Y784227D01*
X869294D01*
Y753227D02*
Y784227D01*
X844295Y753227D02*
X869294D01*
X849619Y741581D02*
X887741D01*
Y721459D02*
Y741581D01*
X849619Y721459D02*
X887741D01*
X849619D02*
Y741581D01*
X871633Y897518D02*
X893754D01*
X871633D02*
Y908517D01*
X893754D01*
Y897518D02*
Y908517D01*
X841163Y908470D02*
X866162D01*
Y897470D02*
Y908470D01*
X841163Y897470D02*
X866162D01*
X841163D02*
Y908470D01*
X843600Y927950D02*
Y938950D01*
Y927950D02*
X868600D01*
Y938950D01*
X843600D02*
X868600D01*
X511392Y934295D02*
Y945295D01*
Y934295D02*
X533514D01*
Y945295D01*
X511392D02*
X533514D01*
X500850Y925315D02*
Y956815D01*
X469350D02*
X500850D01*
X469350Y925315D02*
Y956815D01*
Y925315D02*
X500850D01*
X394430Y712538D02*
Y784537D01*
X449467D01*
Y712538D02*
Y784537D01*
X394430Y712538D02*
X449467D01*
X563102Y721685D02*
Y799628D01*
X496052Y721685D02*
X563102D01*
X496052D02*
Y799628D01*
X563102D01*
X347621Y768041D02*
X376279D01*
Y753419D02*
Y768041D01*
X347621Y753419D02*
X376279D01*
X347621D02*
Y768041D01*
Y743911D02*
X376279D01*
Y729289D02*
Y743911D01*
X347621Y729289D02*
X376279D01*
X347621D02*
Y743911D01*
X416910Y796990D02*
Y820990D01*
X428910D01*
Y796990D02*
Y820990D01*
X416910Y796990D02*
X428910D01*
X325470Y755683D02*
Y779682D01*
X337470D01*
Y755683D02*
Y779682D01*
X325470Y755683D02*
X337470D01*
X336200Y727140D02*
Y751140D01*
X324200Y727140D02*
X336200D01*
X324200D02*
Y751140D01*
X336200D01*
X734429Y669710D02*
X756551D01*
Y658710D02*
Y669710D01*
X734429Y658710D02*
X756551D01*
X734429D02*
Y669710D01*
X597022Y813080D02*
X604800Y805302D01*
X581380Y797438D02*
X597022Y813080D01*
X581380Y797438D02*
X589158Y789660D01*
X604800Y805302D01*
X611771Y826350D02*
Y837350D01*
X589649D02*
X611771D01*
X589649Y826350D02*
Y837350D01*
Y826350D02*
X611771D01*
X371626Y894500D02*
X393748D01*
Y883500D02*
Y894500D01*
X371626Y883500D02*
X393748D01*
X371626D02*
Y894500D01*
X369770Y861958D02*
X394770D01*
X369770D02*
Y872957D01*
X394770D01*
Y861958D02*
Y872957D01*
X895264Y927950D02*
Y938950D01*
X873143D02*
X895264D01*
X873143Y927950D02*
Y938950D01*
Y927950D02*
X895264D01*
X350930Y790640D02*
Y814640D01*
X362930D01*
Y790640D02*
Y814640D01*
X350930Y790640D02*
X362930D01*
X328744Y789973D02*
Y813972D01*
X340744D01*
Y789973D02*
Y813972D01*
X328744Y789973D02*
X340744D01*
X370599Y823091D02*
X409181D01*
Y802509D02*
Y823091D01*
X370599Y802509D02*
X409181D01*
X370599D02*
Y823091D01*
X673800Y903890D02*
X697800D01*
Y891890D02*
Y903890D01*
X673800Y891890D02*
X697800D01*
X673800D02*
Y903890D01*
X689343Y626752D02*
X725343D01*
Y657752D01*
X689343D02*
X725343D01*
X689343Y626752D02*
Y657752D01*
M02*
