G04*
G04 #@! TF.GenerationSoftware,Altium Limited,Altium Designer,23.5.1 (21)*
G04*
G04 Layer_Physical_Order=1*
G04 Layer_Color=255*
%FSLAX44Y44*%
%MOMM*%
G71*
G04*
G04 #@! TF.SameCoordinates,9F5EF0EC-7799-46C5-AC4F-AA06264B0910*
G04*
G04*
G04 #@! TF.FilePolarity,Positive*
G04*
G01*
G75*
%ADD12C,0.2540*%
%ADD15R,2.7900X0.7400*%
%ADD17C,1.5700*%
%ADD18R,1.5700X1.5700*%
%ADD21C,1.6000*%
%ADD22R,1.6000X1.6000*%
%ADD23C,0.7620*%
%ADD24C,1.2700*%
G36*
X1555750Y414020D02*
X1211580D01*
Y744220D01*
X1555750D01*
Y414020D01*
D02*
G37*
%LPC*%
G36*
X1480820Y668324D02*
Y659130D01*
X1490014D01*
X1489819Y660611D01*
X1488757Y663176D01*
X1487067Y665377D01*
X1484866Y667067D01*
X1482301Y668129D01*
X1480820Y668324D01*
D02*
G37*
G36*
X1478280D02*
X1476799Y668129D01*
X1474234Y667067D01*
X1472033Y665377D01*
X1470343Y663176D01*
X1469281Y660611D01*
X1469086Y659130D01*
X1478280D01*
Y668324D01*
D02*
G37*
G36*
X1490014Y656590D02*
X1480820D01*
Y647396D01*
X1482301Y647591D01*
X1484866Y648653D01*
X1487067Y650343D01*
X1488757Y652544D01*
X1489819Y655108D01*
X1490014Y656590D01*
D02*
G37*
G36*
X1478280D02*
X1469086D01*
X1469281Y655108D01*
X1470343Y652544D01*
X1472033Y650343D01*
X1474234Y648653D01*
X1476799Y647591D01*
X1478280Y647396D01*
Y656590D01*
D02*
G37*
G36*
X1454150Y668491D02*
X1451398Y668129D01*
X1448835Y667067D01*
X1446633Y665377D01*
X1444943Y663176D01*
X1444351Y661745D01*
X1318320D01*
X1316833Y661449D01*
X1315573Y660607D01*
X1280966Y626000D01*
X1253480D01*
Y624915D01*
X1247140D01*
X1245653Y624619D01*
X1244393Y623777D01*
X1236773Y616157D01*
X1235931Y614897D01*
X1235635Y613410D01*
Y483870D01*
X1235931Y482383D01*
X1236773Y481123D01*
X1290113Y427783D01*
X1291373Y426941D01*
X1292860Y426645D01*
X1343660D01*
X1345147Y426941D01*
X1346407Y427783D01*
X1364993Y446369D01*
X1366348Y445807D01*
X1369060Y445450D01*
X1371772Y445807D01*
X1374300Y446854D01*
X1376470Y448520D01*
X1378136Y450690D01*
X1379183Y453218D01*
X1379540Y455930D01*
X1379183Y458642D01*
X1378136Y461170D01*
X1376470Y463340D01*
X1374300Y465006D01*
X1371772Y466053D01*
X1369060Y466410D01*
X1366348Y466053D01*
X1363820Y465006D01*
X1361650Y463340D01*
X1359984Y461170D01*
X1358937Y458642D01*
X1358580Y455930D01*
X1358937Y453218D01*
X1359499Y451862D01*
X1342051Y434415D01*
X1294469D01*
X1284517Y444367D01*
X1285003Y445540D01*
X1303250D01*
Y447297D01*
X1304423Y447783D01*
X1310683Y441523D01*
X1311944Y440681D01*
X1313430Y440385D01*
X1332000D01*
X1333487Y440681D01*
X1334747Y441523D01*
X1339592Y446369D01*
X1340948Y445807D01*
X1343660Y445450D01*
X1346372Y445807D01*
X1348900Y446854D01*
X1351070Y448520D01*
X1352736Y450690D01*
X1353783Y453218D01*
X1354140Y455930D01*
X1353783Y458642D01*
X1353221Y459999D01*
X1354651Y461429D01*
X1355493Y462689D01*
X1355789Y464176D01*
Y466375D01*
X1359239Y469825D01*
X1461334D01*
X1462821Y470121D01*
X1464081Y470963D01*
X1494107Y500989D01*
X1494949Y502249D01*
X1495245Y503736D01*
Y565838D01*
X1494949Y567325D01*
X1494107Y568585D01*
X1490095Y572597D01*
X1488835Y573439D01*
X1488221Y573561D01*
X1487695Y574961D01*
X1488757Y576344D01*
X1489819Y578909D01*
X1490014Y580390D01*
X1479550D01*
X1469086D01*
X1469281Y578909D01*
X1470343Y576344D01*
X1471080Y575385D01*
X1470454Y574115D01*
X1467189D01*
X1463826Y577478D01*
X1464419Y578909D01*
X1464781Y581660D01*
X1464419Y584412D01*
X1463357Y586976D01*
X1461667Y589177D01*
X1459465Y590867D01*
X1456902Y591929D01*
X1454150Y592291D01*
X1451398Y591929D01*
X1448835Y590867D01*
X1446633Y589177D01*
X1444943Y586976D01*
X1443881Y584412D01*
X1443519Y581660D01*
X1443881Y578909D01*
X1444943Y576344D01*
X1446633Y574143D01*
X1447829Y573225D01*
X1447398Y571955D01*
X1328058D01*
X1327160Y572853D01*
X1327160Y575200D01*
X1327160Y576470D01*
Y580390D01*
X1310670D01*
X1294180D01*
Y576470D01*
X1294180Y575420D01*
X1294180Y574150D01*
Y562720D01*
X1327160D01*
Y564185D01*
X1445345D01*
X1445972Y562915D01*
X1444943Y561576D01*
X1444351Y560145D01*
X1276689D01*
X1275287Y561547D01*
X1275773Y562720D01*
X1286460D01*
Y575200D01*
X1286460D01*
Y575420D01*
X1286460D01*
Y586850D01*
X1286460Y587900D01*
X1286460Y589170D01*
Y599550D01*
X1286460Y600600D01*
X1286460Y601870D01*
Y612250D01*
X1286460Y613300D01*
X1286460Y614570D01*
Y620506D01*
X1319929Y653975D01*
X1444351D01*
X1444943Y652544D01*
X1446633Y650343D01*
X1448835Y648653D01*
X1451398Y647591D01*
X1454150Y647229D01*
X1456902Y647591D01*
X1459465Y648653D01*
X1461667Y650343D01*
X1463357Y652544D01*
X1464419Y655108D01*
X1464781Y657860D01*
X1464419Y660611D01*
X1463357Y663176D01*
X1461667Y665377D01*
X1459465Y667067D01*
X1456902Y668129D01*
X1454150Y668491D01*
D02*
G37*
G36*
X1479550Y643091D02*
X1476799Y642729D01*
X1474234Y641667D01*
X1472033Y639977D01*
X1470343Y637775D01*
X1469281Y635211D01*
X1468919Y632460D01*
X1469281Y629709D01*
X1470343Y627145D01*
X1472033Y624943D01*
X1474234Y623253D01*
X1476799Y622191D01*
X1479550Y621829D01*
X1482301Y622191D01*
X1484866Y623253D01*
X1487067Y624943D01*
X1488757Y627145D01*
X1489819Y629709D01*
X1490181Y632460D01*
X1489819Y635211D01*
X1488757Y637775D01*
X1487067Y639977D01*
X1484866Y641667D01*
X1482301Y642729D01*
X1479550Y643091D01*
D02*
G37*
G36*
X1454150D02*
X1451398Y642729D01*
X1448835Y641667D01*
X1446633Y639977D01*
X1444943Y637775D01*
X1443881Y635211D01*
X1443519Y632460D01*
X1443881Y629709D01*
X1444943Y627145D01*
X1446633Y624943D01*
X1448835Y623253D01*
X1451398Y622191D01*
X1454150Y621829D01*
X1456902Y622191D01*
X1459465Y623253D01*
X1461667Y624943D01*
X1463357Y627145D01*
X1464419Y629709D01*
X1464781Y632460D01*
X1464419Y635211D01*
X1463357Y637775D01*
X1461667Y639977D01*
X1459465Y641667D01*
X1456902Y642729D01*
X1454150Y643091D01*
D02*
G37*
G36*
X1327160Y626000D02*
X1311940D01*
Y621030D01*
X1327160D01*
Y626000D01*
D02*
G37*
G36*
X1309400D02*
X1294180D01*
Y621030D01*
X1309400D01*
Y626000D01*
D02*
G37*
G36*
X1480820Y617524D02*
Y608330D01*
X1490014D01*
X1489819Y609812D01*
X1488757Y612375D01*
X1487067Y614577D01*
X1484866Y616267D01*
X1482301Y617329D01*
X1480820Y617524D01*
D02*
G37*
G36*
X1478280D02*
X1476799Y617329D01*
X1474234Y616267D01*
X1472033Y614577D01*
X1470343Y612375D01*
X1469281Y609812D01*
X1469086Y608330D01*
X1478280D01*
Y617524D01*
D02*
G37*
G36*
X1490014Y605790D02*
X1480820D01*
Y596596D01*
X1482301Y596791D01*
X1484866Y597853D01*
X1487067Y599543D01*
X1488757Y601744D01*
X1489819Y604309D01*
X1490014Y605790D01*
D02*
G37*
G36*
X1478280D02*
X1469086D01*
X1469281Y604309D01*
X1470343Y601744D01*
X1472033Y599543D01*
X1474234Y597853D01*
X1476799Y596791D01*
X1478280Y596596D01*
Y605790D01*
D02*
G37*
G36*
X1454150Y617691D02*
X1451398Y617329D01*
X1448835Y616267D01*
X1446633Y614577D01*
X1444943Y612375D01*
X1443881Y609812D01*
X1443519Y607060D01*
X1443881Y604309D01*
X1444943Y601744D01*
X1446633Y599543D01*
X1448835Y597853D01*
X1451398Y596791D01*
X1454150Y596429D01*
X1456902Y596791D01*
X1459465Y597853D01*
X1461667Y599543D01*
X1463357Y601744D01*
X1464419Y604309D01*
X1464781Y607060D01*
X1464419Y609812D01*
X1463357Y612375D01*
X1461667Y614577D01*
X1459465Y616267D01*
X1456902Y617329D01*
X1454150Y617691D01*
D02*
G37*
G36*
X1327160Y618490D02*
X1310670D01*
X1294180D01*
Y614570D01*
X1294180Y613520D01*
X1294180Y612250D01*
Y601870D01*
X1294180Y600820D01*
X1294180Y599550D01*
Y595630D01*
X1310670D01*
X1327160D01*
Y599550D01*
X1327160Y600600D01*
X1327160Y601870D01*
Y612250D01*
X1327160Y613300D01*
X1327160Y614570D01*
Y618490D01*
D02*
G37*
G36*
Y593090D02*
X1310670D01*
X1294180D01*
Y589170D01*
X1294180Y588120D01*
X1294180Y586850D01*
Y582930D01*
X1310670D01*
X1327160D01*
Y586850D01*
X1327160Y587900D01*
X1327160Y589170D01*
Y593090D01*
D02*
G37*
G36*
X1480820Y592124D02*
Y582930D01*
X1490014D01*
X1489819Y584412D01*
X1488757Y586976D01*
X1487067Y589177D01*
X1484866Y590867D01*
X1482301Y591929D01*
X1480820Y592124D01*
D02*
G37*
G36*
X1478280D02*
X1476799Y591929D01*
X1474234Y590867D01*
X1472033Y589177D01*
X1470343Y586976D01*
X1469281Y584412D01*
X1469086Y582930D01*
X1478280D01*
Y592124D01*
D02*
G37*
G36*
X1395730Y466242D02*
Y457200D01*
X1404772D01*
X1404583Y458642D01*
X1403536Y461170D01*
X1401870Y463340D01*
X1399700Y465006D01*
X1397172Y466053D01*
X1395730Y466242D01*
D02*
G37*
G36*
X1393190D02*
X1391748Y466053D01*
X1389220Y465006D01*
X1387050Y463340D01*
X1385384Y461170D01*
X1384337Y458642D01*
X1384147Y457200D01*
X1393190D01*
Y466242D01*
D02*
G37*
G36*
X1404772Y454660D02*
X1395730D01*
Y445617D01*
X1397172Y445807D01*
X1399700Y446854D01*
X1401870Y448520D01*
X1403536Y450690D01*
X1404583Y453218D01*
X1404772Y454660D01*
D02*
G37*
G36*
X1393190D02*
X1384147D01*
X1384337Y453218D01*
X1385384Y450690D01*
X1387050Y448520D01*
X1389220Y446854D01*
X1391748Y445807D01*
X1393190Y445617D01*
Y454660D01*
D02*
G37*
%LPD*%
G36*
X1469010Y551214D02*
X1408091Y490295D01*
X1338973D01*
X1338725Y490893D01*
X1337300Y492750D01*
X1335443Y494175D01*
X1333281Y495071D01*
X1330960Y495377D01*
X1328639Y495071D01*
X1326477Y494175D01*
X1324620Y492750D01*
X1323415Y491180D01*
X1322145Y491508D01*
Y552375D01*
X1444351D01*
X1444943Y550945D01*
X1446633Y548743D01*
X1448835Y547053D01*
X1451398Y545991D01*
X1454150Y545629D01*
X1456902Y545991D01*
X1459465Y547053D01*
X1461667Y548743D01*
X1463357Y550945D01*
X1464419Y553508D01*
X1464781Y556260D01*
X1464419Y559011D01*
X1463922Y560209D01*
X1464628Y561265D01*
X1469010D01*
Y551214D01*
D02*
G37*
G36*
X1487475Y505345D02*
X1459725Y477595D01*
X1357630D01*
X1356143Y477299D01*
X1354883Y476457D01*
X1349157Y470731D01*
X1348315Y469471D01*
X1348019Y467984D01*
Y466745D01*
X1346749Y465896D01*
X1346372Y466053D01*
X1343660Y466410D01*
X1340948Y466053D01*
X1338420Y465006D01*
X1336250Y463340D01*
X1334584Y461170D01*
X1333537Y458642D01*
X1333180Y455930D01*
X1333537Y453218D01*
X1334099Y451862D01*
X1330391Y448155D01*
X1326991D01*
X1326365Y449425D01*
X1327336Y450690D01*
X1328383Y453218D01*
X1328740Y455930D01*
X1328383Y458642D01*
X1327336Y461170D01*
X1325670Y463340D01*
X1323500Y465006D01*
X1322145Y465567D01*
Y481312D01*
X1323415Y481640D01*
X1324620Y480070D01*
X1326477Y478645D01*
X1328639Y477749D01*
X1330960Y477443D01*
X1333281Y477749D01*
X1335443Y478645D01*
X1337300Y480070D01*
X1338725Y481927D01*
X1338973Y482525D01*
X1409700D01*
X1411187Y482821D01*
X1412447Y483663D01*
X1474504Y545720D01*
X1487475D01*
Y505345D01*
D02*
G37*
G36*
X1266085Y561370D02*
X1266381Y559883D01*
X1267223Y558623D01*
X1272333Y553513D01*
X1273593Y552671D01*
X1275080Y552375D01*
X1314375D01*
Y465567D01*
X1313020Y465006D01*
X1310850Y463340D01*
X1309675Y461809D01*
X1308405Y462240D01*
Y490000D01*
X1308109Y491487D01*
X1307267Y492747D01*
X1254835Y545179D01*
Y562720D01*
X1266085D01*
Y561370D01*
D02*
G37*
G36*
X1253480Y616247D02*
X1253480Y613520D01*
X1253480Y612250D01*
Y601870D01*
X1253480Y600820D01*
X1253480Y599550D01*
Y589170D01*
X1253480Y588120D01*
X1253480Y586850D01*
Y585545D01*
X1252438D01*
X1250951Y585249D01*
X1249691Y584407D01*
X1248203Y582919D01*
X1247361Y581659D01*
X1247065Y580172D01*
Y543570D01*
X1247361Y542084D01*
X1248203Y540823D01*
X1300635Y488391D01*
Y466320D01*
X1282470D01*
Y448073D01*
X1281297Y447587D01*
X1243405Y485479D01*
Y611801D01*
X1248749Y617145D01*
X1252582D01*
X1253480Y616247D01*
D02*
G37*
D12*
X1409700Y486410D02*
X1479550Y556260D01*
X1330960Y486410D02*
X1409700D01*
X1269970Y619760D02*
X1280220D01*
X1318320Y657860D01*
X1454150D01*
X1292860Y430530D02*
X1343660D01*
X1239520Y483870D02*
Y613410D01*
Y483870D02*
X1292860Y430530D01*
Y453390D02*
X1295400D01*
X1357630Y473710D02*
X1461334D01*
X1351904Y467984D02*
X1357630Y473710D01*
X1461334D02*
X1491360Y503736D01*
X1343660Y430530D02*
X1369060Y455930D01*
X1343660D02*
Y455932D01*
X1351904Y464176D01*
Y467984D01*
X1487348Y569850D02*
X1491360Y565838D01*
X1474278Y570230D02*
X1474658Y569850D01*
X1465580Y570230D02*
X1474278D01*
X1474658Y569850D02*
X1487348D01*
X1454150Y581660D02*
X1465580Y570230D01*
X1491360Y503736D02*
Y565838D01*
X1268700Y621030D02*
X1269970Y619760D01*
X1247140Y621030D02*
X1268700D01*
X1239520Y613410D02*
X1247140Y621030D01*
X1250950Y543570D02*
Y580172D01*
X1252438Y581660D02*
X1269970D01*
X1250950Y580172D02*
X1252438Y581660D01*
X1304520Y453180D02*
Y490000D01*
X1250950Y543570D02*
X1304520Y490000D01*
Y453180D02*
X1313430Y444270D01*
X1332000D02*
X1343660Y455930D01*
X1313430Y444270D02*
X1332000D01*
X1316990Y556260D02*
X1454150D01*
X1275080D02*
X1316990D01*
X1318260Y455930D02*
Y554990D01*
X1316990Y556260D02*
X1318260Y554990D01*
X1292860Y453390D02*
Y455930D01*
X1461962Y565150D02*
X1470660D01*
X1459042Y568070D02*
X1461962Y565150D01*
X1470660D02*
X1479550Y556260D01*
X1269970Y561370D02*
Y568960D01*
Y561370D02*
X1275080Y556260D01*
X1312800Y568070D02*
X1459042D01*
D15*
X1269970Y568960D02*
D03*
Y581660D02*
D03*
Y594360D02*
D03*
Y607060D02*
D03*
Y619760D02*
D03*
X1310670D02*
D03*
Y607060D02*
D03*
Y594360D02*
D03*
Y581660D02*
D03*
Y568960D02*
D03*
D17*
X1394460Y455930D02*
D03*
X1369060D02*
D03*
X1343660D02*
D03*
X1318260D02*
D03*
D18*
X1292860D02*
D03*
D21*
X1454150Y657860D02*
D03*
Y632460D02*
D03*
X1479550Y657860D02*
D03*
Y632460D02*
D03*
X1454150Y607060D02*
D03*
X1479550D02*
D03*
X1454150Y581660D02*
D03*
X1479550D02*
D03*
X1454150Y556260D02*
D03*
D22*
X1479550D02*
D03*
D23*
X1524000Y723900D02*
D03*
X1543050Y685800D02*
D03*
X1524000Y647700D02*
D03*
X1543050Y609600D02*
D03*
X1524000Y571500D02*
D03*
X1543050Y533400D02*
D03*
X1524000Y495300D02*
D03*
X1543050Y457200D02*
D03*
X1524000Y419100D02*
D03*
X1485900Y723900D02*
D03*
X1504950Y685800D02*
D03*
Y609600D02*
D03*
Y533400D02*
D03*
Y457200D02*
D03*
X1485900Y419100D02*
D03*
X1447800Y723900D02*
D03*
X1466850Y685800D02*
D03*
X1447800Y495300D02*
D03*
X1466850Y457200D02*
D03*
X1447800Y419100D02*
D03*
X1409700Y723900D02*
D03*
X1428750Y685800D02*
D03*
X1409700Y647700D02*
D03*
X1428750Y609600D02*
D03*
Y533400D02*
D03*
Y457200D02*
D03*
X1409700Y419100D02*
D03*
X1371600Y723900D02*
D03*
X1390650Y685800D02*
D03*
X1371600Y647700D02*
D03*
X1390650Y609600D02*
D03*
Y533400D02*
D03*
X1371600Y495300D02*
D03*
Y419100D02*
D03*
X1333500Y723900D02*
D03*
X1352550Y685800D02*
D03*
X1333500Y647700D02*
D03*
X1352550Y609600D02*
D03*
Y533400D02*
D03*
X1333500Y419100D02*
D03*
X1295400Y723900D02*
D03*
X1314450Y685800D02*
D03*
X1295400Y647700D02*
D03*
Y419100D02*
D03*
X1257300Y723900D02*
D03*
X1276350Y685800D02*
D03*
X1257300Y647700D02*
D03*
X1276350Y533400D02*
D03*
X1257300Y495300D02*
D03*
Y419100D02*
D03*
X1219200Y723900D02*
D03*
X1238250Y685800D02*
D03*
X1219200Y647700D02*
D03*
Y571500D02*
D03*
Y495300D02*
D03*
X1238250Y457200D02*
D03*
X1219200Y419100D02*
D03*
D24*
X1330960Y486410D02*
D03*
M02*
