G04*
G04 #@! TF.GenerationSoftware,Altium Limited,Altium Designer,23.5.1 (21)*
G04*
G04 Layer_Color=65535*
%FSLAX44Y44*%
%MOMM*%
G71*
G04*
G04 #@! TF.SameCoordinates,9F5EF0EC-7799-46C5-AC4F-AA06264B0910*
G04*
G04*
G04 #@! TF.FilePolarity,Positive*
G04*
G01*
G75*
%ADD10C,0.2500*%
%ADD11C,0.2000*%
%ADD12C,0.2540*%
%ADD13C,0.1524*%
%ADD14R,0.8000X4.5000*%
D10*
X1274160Y455930D02*
G03*
X1274160Y455930I-1250J0D01*
G01*
X1331370Y568960D02*
G03*
X1331370Y568960I-1250J0D01*
G01*
D11*
X1278910Y442230D02*
Y469630D01*
Y442230D02*
X1408410D01*
Y469630D01*
X1278910D02*
X1408410D01*
X1421850Y504260D02*
X1511850D01*
Y709860D01*
X1421850Y504260D02*
Y709860D01*
X1511850D01*
X1286913Y562610D02*
X1293727D01*
X1286913Y626110D02*
X1293727D01*
D12*
X1393192Y483868D02*
X1391922Y482599D01*
Y480060D01*
X1393192Y478790D01*
X1398270D01*
X1399540Y480060D01*
Y482599D01*
X1398270Y483868D01*
X1395731D01*
Y481329D01*
X1399540Y486408D02*
X1391922D01*
X1399540Y491486D01*
X1391922D01*
Y494025D02*
X1399540D01*
Y497834D01*
X1398270Y499103D01*
X1393192D01*
X1391922Y497834D01*
Y494025D01*
X1372870Y478790D02*
X1367792D01*
Y482599D01*
X1369061Y483868D01*
X1372870D01*
Y486408D02*
X1365253D01*
Y490216D01*
X1366522Y491486D01*
X1369061D01*
X1370331Y490216D01*
Y486408D01*
Y488947D02*
X1372870Y491486D01*
X1366522Y499103D02*
X1365253Y497834D01*
Y495295D01*
X1366522Y494025D01*
X1367792D01*
X1369061Y495295D01*
Y497834D01*
X1370331Y499103D01*
X1371600D01*
X1372870Y497834D01*
Y495295D01*
X1371600Y494025D01*
X1365253Y501643D02*
Y506721D01*
Y504182D01*
X1372870D01*
X1342392Y481328D02*
X1341122Y480059D01*
Y477520D01*
X1342392Y476250D01*
X1343662D01*
X1344931Y477520D01*
Y480059D01*
X1346201Y481328D01*
X1347470D01*
X1348740Y480059D01*
Y477520D01*
X1347470Y476250D01*
X1341122Y483867D02*
X1348740D01*
X1346201Y486407D01*
X1348740Y488946D01*
X1341122D01*
X1342392Y496563D02*
X1341122Y495294D01*
Y492755D01*
X1342392Y491485D01*
X1347470D01*
X1348740Y492755D01*
Y495294D01*
X1347470Y496563D01*
X1341122Y499103D02*
X1348740D01*
Y504181D01*
X1341122Y506720D02*
X1348740D01*
X1346201D01*
X1341122Y511799D01*
X1344931Y507990D01*
X1348740Y511799D01*
X1315722Y482598D02*
X1314453Y481329D01*
Y478790D01*
X1315722Y477520D01*
X1316992D01*
X1318261Y478790D01*
Y481329D01*
X1319531Y482598D01*
X1320800D01*
X1322070Y481329D01*
Y478790D01*
X1320800Y477520D01*
X1314453Y485137D02*
X1322070D01*
X1319531Y487677D01*
X1322070Y490216D01*
X1314453D01*
Y492755D02*
X1322070D01*
Y496564D01*
X1320800Y497833D01*
X1315722D01*
X1314453Y496564D01*
Y492755D01*
Y500373D02*
Y502912D01*
Y501642D01*
X1322070D01*
Y500373D01*
Y502912D01*
X1314453Y510529D02*
Y507990D01*
X1315722Y506721D01*
X1320800D01*
X1322070Y507990D01*
Y510529D01*
X1320800Y511799D01*
X1315722D01*
X1314453Y510529D01*
X1287782Y478790D02*
X1286512Y480060D01*
Y482599D01*
X1287782Y483868D01*
X1289052D01*
X1290321Y482599D01*
Y481329D01*
Y482599D01*
X1291591Y483868D01*
X1292860D01*
X1294130Y482599D01*
Y480060D01*
X1292860Y478790D01*
X1289052Y486408D02*
X1294130Y488947D01*
X1289052Y491486D01*
X1287782Y494025D02*
X1286512Y495295D01*
Y497834D01*
X1287782Y499103D01*
X1289052D01*
X1290321Y497834D01*
Y496564D01*
Y497834D01*
X1291591Y499103D01*
X1292860D01*
X1294130Y497834D01*
Y495295D01*
X1292860Y494025D01*
X1433830Y461007D02*
X1428752D01*
X1431291D01*
Y448312D01*
X1428752Y445773D01*
X1426212D01*
X1423673Y448312D01*
X1438908Y445773D02*
X1443987D01*
X1441448D01*
Y461007D01*
X1438908Y458468D01*
X1420622Y719836D02*
Y735071D01*
X1428239D01*
X1430779Y732532D01*
Y727454D01*
X1428239Y724914D01*
X1420622D01*
X1446014Y719836D02*
X1435857D01*
X1446014Y729993D01*
Y732532D01*
X1443475Y735071D01*
X1438396D01*
X1435857Y732532D01*
X1257300Y635000D02*
Y650235D01*
X1264918D01*
X1267457Y647696D01*
Y642617D01*
X1264918Y640078D01*
X1257300D01*
X1272535Y635000D02*
X1277613D01*
X1275074D01*
Y650235D01*
X1272535Y647696D01*
D13*
X1482557Y670460D02*
X1484250Y672153D01*
Y675538D01*
X1482557Y677231D01*
X1475786D01*
X1474093Y675538D01*
Y672153D01*
X1475786Y670460D01*
X1477479D01*
X1479172Y672153D01*
Y677231D01*
X1458850Y670460D02*
Y673846D01*
Y672153D01*
X1448693D01*
X1450386Y670460D01*
Y678924D02*
X1448693Y680617D01*
Y684002D01*
X1450386Y685695D01*
X1457157D01*
X1458850Y684002D01*
Y680617D01*
X1457157Y678924D01*
X1450386D01*
X1459450Y544431D02*
Y537660D01*
X1452679Y544431D01*
X1450986D01*
X1449293Y542738D01*
Y539353D01*
X1450986Y537660D01*
X1484850Y540660D02*
Y544046D01*
Y542353D01*
X1474693D01*
X1476386Y540660D01*
D14*
X1507850Y607060D02*
D03*
M02*
