G04*
G04 #@! TF.GenerationSoftware,Altium Limited,Altium Designer,23.5.1 (21)*
G04*
G04 Layer_Color=16711935*
%FSLAX44Y44*%
%MOMM*%
G71*
G04*
G04 #@! TF.SameCoordinates,9F5EF0EC-7799-46C5-AC4F-AA06264B0910*
G04*
G04*
G04 #@! TF.FilePolarity,Positive*
G04*
G01*
G75*
%ADD11C,0.2000*%
G36*
X1347182Y458075D02*
Y458066D01*
Y458038D01*
Y458001D01*
Y457945D01*
X1347173Y457871D01*
Y457798D01*
X1347155Y457622D01*
X1347136Y457418D01*
X1347099Y457206D01*
X1347044Y457012D01*
X1346979Y456827D01*
Y456818D01*
X1346970Y456808D01*
X1346942Y456753D01*
X1346896Y456679D01*
X1346831Y456577D01*
X1346739Y456475D01*
X1346637Y456364D01*
X1346508Y456254D01*
X1346360Y456161D01*
X1346341Y456152D01*
X1346286Y456124D01*
X1346202Y456087D01*
X1346082Y456050D01*
X1345934Y456004D01*
X1345768Y455967D01*
X1345583Y455939D01*
X1345380Y455930D01*
X1345296D01*
X1345241Y455939D01*
X1345167Y455948D01*
X1345093Y455958D01*
X1344899Y455995D01*
X1344695Y456050D01*
X1344483Y456133D01*
X1344372Y456189D01*
X1344270Y456254D01*
X1344178Y456327D01*
X1344085Y456411D01*
X1344076Y456420D01*
X1344067Y456429D01*
X1344048Y456466D01*
X1344021Y456503D01*
X1343983Y456549D01*
X1343947Y456614D01*
X1343909Y456688D01*
X1343863Y456771D01*
X1343826Y456864D01*
X1343789Y456975D01*
X1343752Y457086D01*
X1343715Y457215D01*
X1343697Y457354D01*
X1343669Y457511D01*
X1343660Y457668D01*
Y457844D01*
X1344427Y457955D01*
Y457945D01*
Y457927D01*
Y457890D01*
X1344436Y457835D01*
X1344446Y457779D01*
Y457714D01*
X1344474Y457557D01*
X1344501Y457391D01*
X1344557Y457224D01*
X1344612Y457076D01*
X1344649Y457012D01*
X1344695Y456956D01*
X1344705Y456947D01*
X1344742Y456919D01*
X1344797Y456873D01*
X1344871Y456827D01*
X1344973Y456771D01*
X1345084Y456734D01*
X1345222Y456697D01*
X1345370Y456688D01*
X1345426D01*
X1345481Y456697D01*
X1345565Y456707D01*
X1345648Y456725D01*
X1345740Y456744D01*
X1345833Y456781D01*
X1345925Y456827D01*
X1345934Y456836D01*
X1345962Y456854D01*
X1345999Y456891D01*
X1346055Y456928D01*
X1346101Y456993D01*
X1346156Y457058D01*
X1346202Y457132D01*
X1346239Y457224D01*
Y457234D01*
X1346258Y457271D01*
X1346267Y457335D01*
X1346286Y457418D01*
X1346304Y457529D01*
X1346313Y457668D01*
X1346332Y457835D01*
Y458029D01*
Y462439D01*
X1347182D01*
Y458075D01*
D02*
G37*
G36*
X1351204Y456041D02*
X1350418D01*
Y461043D01*
X1350409Y461033D01*
X1350363Y460997D01*
X1350307Y460941D01*
X1350215Y460876D01*
X1350113Y460793D01*
X1349984Y460701D01*
X1349836Y460599D01*
X1349669Y460497D01*
X1349660D01*
X1349651Y460488D01*
X1349595Y460451D01*
X1349503Y460405D01*
X1349392Y460349D01*
X1349263Y460285D01*
X1349124Y460220D01*
X1348985Y460155D01*
X1348847Y460100D01*
Y460858D01*
X1348856D01*
X1348874Y460876D01*
X1348911Y460886D01*
X1348958Y460913D01*
X1349013Y460941D01*
X1349078Y460978D01*
X1349235Y461070D01*
X1349420Y461172D01*
X1349605Y461302D01*
X1349799Y461450D01*
X1349993Y461607D01*
X1350002Y461616D01*
X1350012Y461625D01*
X1350039Y461653D01*
X1350076Y461681D01*
X1350159Y461773D01*
X1350271Y461884D01*
X1350381Y462014D01*
X1350502Y462161D01*
X1350603Y462309D01*
X1350696Y462467D01*
X1351204D01*
Y456041D01*
D02*
G37*
D11*
X1277910Y441230D02*
Y470630D01*
Y441230D02*
X1409410Y441230D01*
Y470630D01*
X1277910Y470630D02*
X1409410Y470630D01*
M02*
