G04*
G04 #@! TF.GenerationSoftware,Altium Limited,Altium Designer,23.5.1 (21)*
G04*
G04 Layer_Color=128*
%FSLAX44Y44*%
%MOMM*%
G71*
G04*
G04 #@! TF.SameCoordinates,9C90234E-4C54-4D27-9D2C-81E7689CD50F*
G04*
G04*
G04 #@! TF.FilePolarity,Positive*
G04*
G01*
G75*
%ADD13C,0.1270*%
D13*
X291021Y729620D02*
X296021D01*
X293521Y727120D02*
Y732120D01*
X291021Y769620D02*
X296021D01*
X293521Y767120D02*
Y772120D01*
X568540Y534670D02*
X579540D01*
X574040Y529170D02*
Y540170D01*
X593940Y534670D02*
X604940D01*
X599440Y529170D02*
Y540170D01*
X644740Y534670D02*
X655740D01*
X650240Y529170D02*
Y540170D01*
X695540Y534670D02*
X706540D01*
X701040Y529170D02*
Y540170D01*
X746340Y534670D02*
X757340D01*
X751840Y529170D02*
Y540170D01*
X720940Y534670D02*
X731940D01*
X726440Y529170D02*
Y540170D01*
X670140Y534670D02*
X681140D01*
X675640Y529170D02*
Y540170D01*
X619340Y534670D02*
X630340D01*
X624840Y529170D02*
Y540170D01*
X1167210Y911860D02*
X1177210D01*
X1172210Y906860D02*
Y916860D01*
X1141810Y911860D02*
X1151810D01*
X1146810Y906860D02*
Y916860D01*
X1116410Y911860D02*
X1126410D01*
X1121410Y906860D02*
Y916860D01*
X353140Y637540D02*
X363140D01*
X358140Y632540D02*
Y642540D01*
X378540Y637540D02*
X388540D01*
X383540Y632540D02*
Y642540D01*
X403940Y637540D02*
X413940D01*
X408940Y632540D02*
Y642540D01*
X1235710Y952500D02*
X1240790D01*
X1238250Y949960D02*
Y955040D01*
X1216660Y838200D02*
X1221740D01*
X1219200Y835660D02*
Y840740D01*
X1216660Y762000D02*
X1221740D01*
X1219200Y759460D02*
Y764540D01*
X1235710Y723900D02*
X1240790D01*
X1238250Y721360D02*
Y726440D01*
X1235710Y647700D02*
X1240790D01*
X1238250Y645160D02*
Y650240D01*
X1216660Y609600D02*
X1221740D01*
X1219200Y607060D02*
Y612140D01*
X1235710Y571500D02*
X1240790D01*
X1238250Y568960D02*
Y574040D01*
X1216660Y533400D02*
X1221740D01*
X1219200Y530860D02*
Y535940D01*
X1197610Y876300D02*
X1202690D01*
X1200150Y873760D02*
Y878840D01*
X1178560Y838200D02*
X1183640D01*
X1181100Y835660D02*
Y840740D01*
X1197610Y800100D02*
X1202690D01*
X1200150Y797560D02*
Y802640D01*
X1178560Y762000D02*
X1183640D01*
X1181100Y759460D02*
Y764540D01*
X1178560Y609600D02*
X1183640D01*
X1181100Y607060D02*
Y612140D01*
X1197610Y571500D02*
X1202690D01*
X1200150Y568960D02*
Y574040D01*
X1178560Y533400D02*
X1183640D01*
X1181100Y530860D02*
Y535940D01*
X1159510Y876300D02*
X1164590D01*
X1162050Y873760D02*
Y878840D01*
X1140460Y838200D02*
X1145540D01*
X1143000Y835660D02*
Y840740D01*
X1159510Y800100D02*
X1164590D01*
X1162050Y797560D02*
Y802640D01*
X1140460Y762000D02*
X1145540D01*
X1143000Y759460D02*
Y764540D01*
X1159510Y723900D02*
X1164590D01*
X1162050Y721360D02*
Y726440D01*
X1140460Y685800D02*
X1145540D01*
X1143000Y683260D02*
Y688340D01*
X1159510Y647700D02*
X1164590D01*
X1162050Y645160D02*
Y650240D01*
X1140460Y609600D02*
X1145540D01*
X1143000Y607060D02*
Y612140D01*
X1159510Y571500D02*
X1164590D01*
X1162050Y568960D02*
Y574040D01*
X1140460Y533400D02*
X1145540D01*
X1143000Y530860D02*
Y535940D01*
X1121410Y952500D02*
X1126490D01*
X1123950Y949960D02*
Y955040D01*
X1121410Y876300D02*
X1126490D01*
X1123950Y873760D02*
Y878840D01*
X1102360Y838200D02*
X1107440D01*
X1104900Y835660D02*
Y840740D01*
X1102360Y762000D02*
X1107440D01*
X1104900Y759460D02*
Y764540D01*
X1121410Y723900D02*
X1126490D01*
X1123950Y721360D02*
Y726440D01*
X1121410Y647700D02*
X1126490D01*
X1123950Y645160D02*
Y650240D01*
X1102360Y609600D02*
X1107440D01*
X1104900Y607060D02*
Y612140D01*
X1102360Y533400D02*
X1107440D01*
X1104900Y530860D02*
Y535940D01*
X1083310Y952500D02*
X1088390D01*
X1085850Y949960D02*
Y955040D01*
X1083310Y876300D02*
X1088390D01*
X1085850Y873760D02*
Y878840D01*
X1064260Y762000D02*
X1069340D01*
X1066800Y759460D02*
Y764540D01*
X1064260Y685800D02*
X1069340D01*
X1066800Y683260D02*
Y688340D01*
X1083310Y647700D02*
X1088390D01*
X1085850Y645160D02*
Y650240D01*
X1064260Y609600D02*
X1069340D01*
X1066800Y607060D02*
Y612140D01*
X1064260Y533400D02*
X1069340D01*
X1066800Y530860D02*
Y535940D01*
X1045210Y952500D02*
X1050290D01*
X1047750Y949960D02*
Y955040D01*
X1026160Y914400D02*
X1031240D01*
X1028700Y911860D02*
Y916940D01*
X1045210Y876300D02*
X1050290D01*
X1047750Y873760D02*
Y878840D01*
X1045210Y723900D02*
X1050290D01*
X1047750Y721360D02*
Y726440D01*
X1026160Y685800D02*
X1031240D01*
X1028700Y683260D02*
Y688340D01*
X1045210Y647700D02*
X1050290D01*
X1047750Y645160D02*
Y650240D01*
X1026160Y609600D02*
X1031240D01*
X1028700Y607060D02*
Y612140D01*
X1026160Y533400D02*
X1031240D01*
X1028700Y530860D02*
Y535940D01*
X1007110Y952500D02*
X1012190D01*
X1009650Y949960D02*
Y955040D01*
X988060Y914400D02*
X993140D01*
X990600Y911860D02*
Y916940D01*
X1007110Y876300D02*
X1012190D01*
X1009650Y873760D02*
Y878840D01*
X988060Y762000D02*
X993140D01*
X990600Y759460D02*
Y764540D01*
X1007110Y723900D02*
X1012190D01*
X1009650Y721360D02*
Y726440D01*
X988060Y685800D02*
X993140D01*
X990600Y683260D02*
Y688340D01*
X1007110Y647700D02*
X1012190D01*
X1009650Y645160D02*
Y650240D01*
X988060Y609600D02*
X993140D01*
X990600Y607060D02*
Y612140D01*
X1007110Y571500D02*
X1012190D01*
X1009650Y568960D02*
Y574040D01*
X988060Y533400D02*
X993140D01*
X990600Y530860D02*
Y535940D01*
X969010Y952500D02*
X974090D01*
X971550Y949960D02*
Y955040D01*
X949960Y914400D02*
X955040D01*
X952500Y911860D02*
Y916940D01*
X969010Y876300D02*
X974090D01*
X971550Y873760D02*
Y878840D01*
X949960Y609600D02*
X955040D01*
X952500Y607060D02*
Y612140D01*
X969010Y571500D02*
X974090D01*
X971550Y568960D02*
Y574040D01*
X949960Y533400D02*
X955040D01*
X952500Y530860D02*
Y535940D01*
X930910Y952500D02*
X935990D01*
X933450Y949960D02*
Y955040D01*
X911860Y914400D02*
X916940D01*
X914400Y911860D02*
Y916940D01*
X930910Y876300D02*
X935990D01*
X933450Y873760D02*
Y878840D01*
X911860Y762000D02*
X916940D01*
X914400Y759460D02*
Y764540D01*
X930910Y647700D02*
X935990D01*
X933450Y645160D02*
Y650240D01*
X911860Y609600D02*
X916940D01*
X914400Y607060D02*
Y612140D01*
X930910Y571500D02*
X935990D01*
X933450Y568960D02*
Y574040D01*
X911860Y533400D02*
X916940D01*
X914400Y530860D02*
Y535940D01*
X892810Y952500D02*
X897890D01*
X895350Y949960D02*
Y955040D01*
X873760Y914400D02*
X878840D01*
X876300Y911860D02*
Y916940D01*
X892810Y876300D02*
X897890D01*
X895350Y873760D02*
Y878840D01*
X873760Y762000D02*
X878840D01*
X876300Y759460D02*
Y764540D01*
X873760Y685800D02*
X878840D01*
X876300Y683260D02*
Y688340D01*
X873760Y609600D02*
X878840D01*
X876300Y607060D02*
Y612140D01*
X892810Y571500D02*
X897890D01*
X895350Y568960D02*
Y574040D01*
X873760Y533400D02*
X878840D01*
X876300Y530860D02*
Y535940D01*
X854710Y952500D02*
X859790D01*
X857250Y949960D02*
Y955040D01*
X835660Y914400D02*
X840740D01*
X838200Y911860D02*
Y916940D01*
X854710Y876300D02*
X859790D01*
X857250Y873760D02*
Y878840D01*
X835660Y685800D02*
X840740D01*
X838200Y683260D02*
Y688340D01*
X835660Y609600D02*
X840740D01*
X838200Y607060D02*
Y612140D01*
X854710Y571500D02*
X859790D01*
X857250Y568960D02*
Y574040D01*
X835660Y533400D02*
X840740D01*
X838200Y530860D02*
Y535940D01*
X816610Y952500D02*
X821690D01*
X819150Y949960D02*
Y955040D01*
X797560Y914400D02*
X802640D01*
X800100Y911860D02*
Y916940D01*
X797560Y685800D02*
X802640D01*
X800100Y683260D02*
Y688340D01*
X797560Y609600D02*
X802640D01*
X800100Y607060D02*
Y612140D01*
X816610Y571500D02*
X821690D01*
X819150Y568960D02*
Y574040D01*
X797560Y533400D02*
X802640D01*
X800100Y530860D02*
Y535940D01*
X778510Y952500D02*
X783590D01*
X781050Y949960D02*
Y955040D01*
X778510Y571500D02*
X783590D01*
X781050Y568960D02*
Y574040D01*
X740410Y952500D02*
X745490D01*
X742950Y949960D02*
Y955040D01*
X721360Y914400D02*
X726440D01*
X723900Y911860D02*
Y916940D01*
X740410Y800100D02*
X745490D01*
X742950Y797560D02*
Y802640D01*
X721360Y762000D02*
X726440D01*
X723900Y759460D02*
Y764540D01*
X702310Y952500D02*
X707390D01*
X704850Y949960D02*
Y955040D01*
X702310Y800100D02*
X707390D01*
X704850Y797560D02*
Y802640D01*
X683260Y762000D02*
X688340D01*
X685800Y759460D02*
Y764540D01*
X702310Y571500D02*
X707390D01*
X704850Y568960D02*
Y574040D01*
X664210Y952500D02*
X669290D01*
X666750Y949960D02*
Y955040D01*
X664210Y876300D02*
X669290D01*
X666750Y873760D02*
Y878840D01*
X664210Y723900D02*
X669290D01*
X666750Y721360D02*
Y726440D01*
X664210Y571500D02*
X669290D01*
X666750Y568960D02*
Y574040D01*
X626110Y952500D02*
X631190D01*
X628650Y949960D02*
Y955040D01*
X607060Y609600D02*
X612140D01*
X609600Y607060D02*
Y612140D01*
X626110Y571500D02*
X631190D01*
X628650Y568960D02*
Y574040D01*
X568960Y838200D02*
X574040D01*
X571500Y835660D02*
Y840740D01*
X588010Y723900D02*
X593090D01*
X590550Y721360D02*
Y726440D01*
X588010Y571500D02*
X593090D01*
X590550Y568960D02*
Y574040D01*
X549910Y952500D02*
X554990D01*
X552450Y949960D02*
Y955040D01*
X530860Y914400D02*
X535940D01*
X533400Y911860D02*
Y916940D01*
X549910Y723900D02*
X554990D01*
X552450Y721360D02*
Y726440D01*
X530860Y685800D02*
X535940D01*
X533400Y683260D02*
Y688340D01*
X549910Y647700D02*
X554990D01*
X552450Y645160D02*
Y650240D01*
X530860Y609600D02*
X535940D01*
X533400Y607060D02*
Y612140D01*
X549910Y571500D02*
X554990D01*
X552450Y568960D02*
Y574040D01*
X530860Y533400D02*
X535940D01*
X533400Y530860D02*
Y535940D01*
X511810Y876300D02*
X516890D01*
X514350Y873760D02*
Y878840D01*
X492760Y838200D02*
X497840D01*
X495300Y835660D02*
Y840740D01*
X492760Y762000D02*
X497840D01*
X495300Y759460D02*
Y764540D01*
X492760Y685800D02*
X497840D01*
X495300Y683260D02*
Y688340D01*
X511810Y647700D02*
X516890D01*
X514350Y645160D02*
Y650240D01*
X492760Y609600D02*
X497840D01*
X495300Y607060D02*
Y612140D01*
X492760Y533400D02*
X497840D01*
X495300Y530860D02*
Y535940D01*
X454660Y914400D02*
X459740D01*
X457200Y911860D02*
Y916940D01*
X473710Y876300D02*
X478790D01*
X476250Y873760D02*
Y878840D01*
X454660Y838200D02*
X459740D01*
X457200Y835660D02*
Y840740D01*
X473710Y800100D02*
X478790D01*
X476250Y797560D02*
Y802640D01*
X454660Y762000D02*
X459740D01*
X457200Y759460D02*
Y764540D01*
X473710Y647700D02*
X478790D01*
X476250Y645160D02*
Y650240D01*
X454660Y609600D02*
X459740D01*
X457200Y607060D02*
Y612140D01*
X454660Y533400D02*
X459740D01*
X457200Y530860D02*
Y535940D01*
X416560Y914400D02*
X421640D01*
X419100Y911860D02*
Y916940D01*
X435610Y876300D02*
X440690D01*
X438150Y873760D02*
Y878840D01*
X416560Y838200D02*
X421640D01*
X419100Y835660D02*
Y840740D01*
X435610Y647700D02*
X440690D01*
X438150Y645160D02*
Y650240D01*
X416560Y609600D02*
X421640D01*
X419100Y607060D02*
Y612140D01*
X435610Y571500D02*
X440690D01*
X438150Y568960D02*
Y574040D01*
X416560Y533400D02*
X421640D01*
X419100Y530860D02*
Y535940D01*
X397510Y952500D02*
X402590D01*
X400050Y949960D02*
Y955040D01*
X378460Y914400D02*
X383540D01*
X381000Y911860D02*
Y916940D01*
X397510Y876300D02*
X402590D01*
X400050Y873760D02*
Y878840D01*
X378460Y838200D02*
X383540D01*
X381000Y835660D02*
Y840740D01*
X397510Y800100D02*
X402590D01*
X400050Y797560D02*
Y802640D01*
X378460Y685800D02*
X383540D01*
X381000Y683260D02*
Y688340D01*
X378460Y609600D02*
X383540D01*
X381000Y607060D02*
Y612140D01*
X397510Y571500D02*
X402590D01*
X400050Y568960D02*
Y574040D01*
X378460Y533400D02*
X383540D01*
X381000Y530860D02*
Y535940D01*
X359410Y952500D02*
X364490D01*
X361950Y949960D02*
Y955040D01*
X340360Y914400D02*
X345440D01*
X342900Y911860D02*
Y916940D01*
X359410Y876300D02*
X364490D01*
X361950Y873760D02*
Y878840D01*
X340360Y838200D02*
X345440D01*
X342900Y835660D02*
Y840740D01*
X359410Y723900D02*
X364490D01*
X361950Y721360D02*
Y726440D01*
X340360Y685800D02*
X345440D01*
X342900Y683260D02*
Y688340D01*
X340360Y609600D02*
X345440D01*
X342900Y607060D02*
Y612140D01*
X359410Y571500D02*
X364490D01*
X361950Y568960D02*
Y574040D01*
X340360Y533400D02*
X345440D01*
X342900Y530860D02*
Y535940D01*
X321310Y952500D02*
X326390D01*
X323850Y949960D02*
Y955040D01*
X302260Y914400D02*
X307340D01*
X304800Y911860D02*
Y916940D01*
X321310Y876300D02*
X326390D01*
X323850Y873760D02*
Y878840D01*
X302260Y838200D02*
X307340D01*
X304800Y835660D02*
Y840740D01*
X321310Y723900D02*
X326390D01*
X323850Y721360D02*
Y726440D01*
X302260Y685800D02*
X307340D01*
X304800Y683260D02*
Y688340D01*
X321310Y647700D02*
X326390D01*
X323850Y645160D02*
Y650240D01*
X302260Y609600D02*
X307340D01*
X304800Y607060D02*
Y612140D01*
X321310Y571500D02*
X326390D01*
X323850Y568960D02*
Y574040D01*
X302260Y533400D02*
X307340D01*
X304800Y530860D02*
Y535940D01*
X283210Y952500D02*
X288290D01*
X285750Y949960D02*
Y955040D01*
X264160Y914400D02*
X269240D01*
X266700Y911860D02*
Y916940D01*
X283210Y876300D02*
X288290D01*
X285750Y873760D02*
Y878840D01*
X264160Y838200D02*
X269240D01*
X266700Y835660D02*
Y840740D01*
X283210Y800100D02*
X288290D01*
X285750Y797560D02*
Y802640D01*
X264160Y762000D02*
X269240D01*
X266700Y759460D02*
Y764540D01*
X264160Y685800D02*
X269240D01*
X266700Y683260D02*
Y688340D01*
X283210Y647700D02*
X288290D01*
X285750Y645160D02*
Y650240D01*
X264160Y609600D02*
X269240D01*
X266700Y607060D02*
Y612140D01*
X283210Y571500D02*
X288290D01*
X285750Y568960D02*
Y574040D01*
X264160Y533400D02*
X269240D01*
X266700Y530860D02*
Y535940D01*
X721709Y702310D02*
X724249D01*
X722979Y701040D02*
Y703580D01*
X511810Y839470D02*
X514350D01*
X513080Y838200D02*
Y840740D01*
X755650Y796290D02*
X758190D01*
X756920Y795020D02*
Y797560D01*
X818236Y721716D02*
X820776D01*
X819506Y720446D02*
Y722986D01*
X821690Y709930D02*
X824230D01*
X822960Y708660D02*
Y711200D01*
X730250Y596900D02*
X732790D01*
X731520Y595630D02*
Y598170D01*
X412002Y951647D02*
X414542D01*
X413272Y950377D02*
Y952917D01*
X414020Y933450D02*
X416560D01*
X415290Y932180D02*
Y934720D01*
X401154Y888934D02*
X403694D01*
X402424Y887664D02*
Y890204D01*
X541020Y839470D02*
X543560D01*
X542290Y838200D02*
Y840740D01*
X523240Y842010D02*
X525780D01*
X524510Y840740D02*
Y843280D01*
X618490Y731520D02*
X621030D01*
X619760Y730250D02*
Y732790D01*
X942340Y734060D02*
X944880D01*
X943610Y732790D02*
Y735330D01*
X763270Y662940D02*
X765810D01*
X764540Y661670D02*
Y664210D01*
X765810Y678180D02*
X768350D01*
X767080Y676910D02*
Y679450D01*
X748030D02*
X750570D01*
X749300Y678180D02*
Y680720D01*
X411480Y697230D02*
X414020D01*
X412750Y695960D02*
Y698500D01*
X822960Y800100D02*
X825500D01*
X824230Y798830D02*
Y801370D01*
X697230Y883920D02*
X699770D01*
X698500Y882650D02*
Y885190D01*
X679450Y883920D02*
X681990D01*
X680720Y882650D02*
Y885190D01*
X900714Y933450D02*
X903253D01*
X901983Y932180D02*
Y934720D01*
X899160Y902970D02*
X901700D01*
X900430Y901700D02*
Y904240D01*
X880110Y810260D02*
X882650D01*
X881380Y808990D02*
Y811530D01*
X892810Y810260D02*
X895350D01*
X894080Y808990D02*
Y811530D01*
X731520Y858520D02*
X734060D01*
X732790Y857250D02*
Y859790D01*
X754380Y885571D02*
X756920D01*
X755650Y884301D02*
Y886841D01*
X685800Y670560D02*
X688340D01*
X687070Y669290D02*
Y671830D01*
X708991Y677849D02*
X711531D01*
X710261Y676579D02*
Y679119D01*
X654919Y651832D02*
X657459D01*
X656189Y650562D02*
Y653102D01*
X655692Y634978D02*
X658232D01*
X656962Y633708D02*
Y636248D01*
X710230Y597056D02*
X712770D01*
X711500Y595786D02*
Y598326D01*
X528320Y925830D02*
X530860D01*
X529590Y924560D02*
Y927100D01*
X463550Y735330D02*
X466090D01*
X464820Y734060D02*
Y736600D01*
X441328Y697868D02*
X443868D01*
X442598Y696598D02*
Y699138D01*
X430530Y706120D02*
X433070D01*
X431800Y704850D02*
Y707390D01*
X552450Y822960D02*
X554990D01*
X553720Y821690D02*
Y824230D01*
X567544Y793470D02*
X570084D01*
X568814Y792200D02*
Y794740D01*
X821690Y786130D02*
X824230D01*
X822960Y784860D02*
Y787400D01*
X834390Y760730D02*
X836930D01*
X835660Y759460D02*
Y762000D01*
X1071880Y548640D02*
X1074420D01*
X1073150Y547370D02*
Y549910D01*
X1097280D02*
X1099820D01*
X1098550Y548640D02*
Y551180D01*
X647050Y928865D02*
X649590D01*
X648320Y927595D02*
Y930135D01*
X690880Y913130D02*
X693420D01*
X692150Y911860D02*
Y914400D01*
X679450Y913130D02*
X681990D01*
X680720Y911860D02*
Y914400D01*
X646430Y910590D02*
X648970D01*
X647700Y909320D02*
Y911860D01*
X549268Y698499D02*
X551808D01*
X550538Y697229D02*
Y699769D01*
X589280Y847090D02*
X591820D01*
X590550Y845820D02*
Y848360D01*
X595031Y866042D02*
X597571D01*
X596301Y864772D02*
Y867312D01*
X641350Y579120D02*
X643890D01*
X642620Y577850D02*
Y580390D01*
X641350Y598170D02*
X643890D01*
X642620Y596900D02*
Y599440D01*
X515623Y770902D02*
X518163D01*
X516893Y769632D02*
Y772172D01*
X538480Y754380D02*
X541020D01*
X539750Y753110D02*
Y755650D01*
X422910Y673100D02*
X425450D01*
X424180Y671830D02*
Y674370D01*
X406400Y791210D02*
X408940D01*
X407670Y789940D02*
Y792480D01*
X878515Y776980D02*
X881055D01*
X879785Y775710D02*
Y778250D01*
X321310Y784860D02*
X323850D01*
X322580Y783590D02*
Y786130D01*
X317423Y808125D02*
X319963D01*
X318693Y806855D02*
Y809395D01*
X543560Y919480D02*
X546100D01*
X544830Y918210D02*
Y920750D01*
X543560Y944880D02*
X546100D01*
X544830Y943610D02*
Y946150D01*
X855980Y824312D02*
X858520D01*
X857250Y823042D02*
Y825582D01*
X572770Y880110D02*
X575310D01*
X574040Y878840D02*
Y881380D01*
X604520Y880110D02*
X607060D01*
X605790Y878840D02*
Y881380D01*
X571500Y867410D02*
X574040D01*
X572770Y866140D02*
Y868680D01*
X716280Y668020D02*
X718820D01*
X717550Y666750D02*
Y669290D01*
X598360Y939800D02*
X601660D01*
X600010Y938150D02*
Y941450D01*
X598360Y927800D02*
X601660D01*
X600010Y926150D02*
Y929450D01*
X586360Y939800D02*
X589660D01*
X588010Y938150D02*
Y941450D01*
X586360Y927800D02*
X589660D01*
X588010Y926150D02*
Y929450D01*
X574360Y939800D02*
X577660D01*
X576010Y938150D02*
Y941450D01*
X574360Y927800D02*
X577660D01*
X576010Y926150D02*
Y929450D01*
M02*
