G04*
G04 #@! TF.GenerationSoftware,Altium Limited,Altium Designer,23.5.1 (21)*
G04*
G04 Layer_Physical_Order=2*
G04 Layer_Color=36540*
%FSLAX44Y44*%
%MOMM*%
G71*
G04*
G04 #@! TF.SameCoordinates,9C90234E-4C54-4D27-9D2C-81E7689CD50F*
G04*
G04*
G04 #@! TF.FilePolarity,Positive*
G04*
G01*
G75*
%ADD73C,1.5500*%
%ADD74R,1.5500X1.5500*%
%ADD81C,0.5000*%
%ADD82C,1.6000*%
%ADD83R,1.6000X1.6000*%
%ADD84C,0.7620*%
%ADD85C,0.6350*%
%ADD86C,0.6600*%
G36*
X1256030Y500380D02*
X254000D01*
Y1009650D01*
X1256030D01*
Y500380D01*
D02*
G37*
%LPC*%
G36*
X552450Y958974D02*
X549972Y958482D01*
X547872Y957078D01*
X546468Y954978D01*
X545976Y952500D01*
X546171Y951517D01*
X545273Y950619D01*
X544830Y950707D01*
X542600Y950263D01*
X540710Y949000D01*
X539447Y947110D01*
X539003Y944880D01*
X539447Y942650D01*
X540710Y940760D01*
X542600Y939497D01*
X544830Y939053D01*
X547060Y939497D01*
X548950Y940760D01*
X550213Y942650D01*
X550657Y944880D01*
X550569Y945323D01*
X551467Y946221D01*
X552450Y946026D01*
X554928Y946518D01*
X557028Y947922D01*
X558432Y950022D01*
X558924Y952500D01*
X558432Y954978D01*
X557028Y957078D01*
X554928Y958482D01*
X552450Y958974D01*
D02*
G37*
G36*
X1238250D02*
X1235772Y958482D01*
X1233672Y957078D01*
X1232268Y954978D01*
X1231776Y952500D01*
X1232268Y950022D01*
X1233672Y947922D01*
X1235772Y946518D01*
X1238250Y946026D01*
X1240728Y946518D01*
X1242828Y947922D01*
X1244232Y950022D01*
X1244724Y952500D01*
X1244232Y954978D01*
X1242828Y957078D01*
X1240728Y958482D01*
X1238250Y958974D01*
D02*
G37*
G36*
X1123950D02*
X1121472Y958482D01*
X1119372Y957078D01*
X1117968Y954978D01*
X1117476Y952500D01*
X1117968Y950022D01*
X1119372Y947922D01*
X1121472Y946518D01*
X1123950Y946026D01*
X1126428Y946518D01*
X1128528Y947922D01*
X1129932Y950022D01*
X1130424Y952500D01*
X1129932Y954978D01*
X1128528Y957078D01*
X1126428Y958482D01*
X1123950Y958974D01*
D02*
G37*
G36*
X1085850D02*
X1083372Y958482D01*
X1081272Y957078D01*
X1079868Y954978D01*
X1079376Y952500D01*
X1079868Y950022D01*
X1081272Y947922D01*
X1083372Y946518D01*
X1085850Y946026D01*
X1088328Y946518D01*
X1090428Y947922D01*
X1091832Y950022D01*
X1092324Y952500D01*
X1091832Y954978D01*
X1090428Y957078D01*
X1088328Y958482D01*
X1085850Y958974D01*
D02*
G37*
G36*
X1047750D02*
X1045272Y958482D01*
X1043172Y957078D01*
X1041768Y954978D01*
X1041276Y952500D01*
X1041768Y950022D01*
X1043172Y947922D01*
X1045272Y946518D01*
X1047750Y946026D01*
X1050228Y946518D01*
X1052328Y947922D01*
X1053732Y950022D01*
X1054224Y952500D01*
X1053732Y954978D01*
X1052328Y957078D01*
X1050228Y958482D01*
X1047750Y958974D01*
D02*
G37*
G36*
X1009650D02*
X1007172Y958482D01*
X1005072Y957078D01*
X1003668Y954978D01*
X1003176Y952500D01*
X1003668Y950022D01*
X1005072Y947922D01*
X1007172Y946518D01*
X1009650Y946026D01*
X1012128Y946518D01*
X1014228Y947922D01*
X1015632Y950022D01*
X1016124Y952500D01*
X1015632Y954978D01*
X1014228Y957078D01*
X1012128Y958482D01*
X1009650Y958974D01*
D02*
G37*
G36*
X971550D02*
X969072Y958482D01*
X966972Y957078D01*
X965568Y954978D01*
X965076Y952500D01*
X965568Y950022D01*
X966972Y947922D01*
X969072Y946518D01*
X971550Y946026D01*
X974028Y946518D01*
X976128Y947922D01*
X977532Y950022D01*
X978024Y952500D01*
X977532Y954978D01*
X976128Y957078D01*
X974028Y958482D01*
X971550Y958974D01*
D02*
G37*
G36*
X933450D02*
X930972Y958482D01*
X928872Y957078D01*
X927468Y954978D01*
X926976Y952500D01*
X927468Y950022D01*
X928872Y947922D01*
X930972Y946518D01*
X933450Y946026D01*
X935928Y946518D01*
X938028Y947922D01*
X939432Y950022D01*
X939924Y952500D01*
X939432Y954978D01*
X938028Y957078D01*
X935928Y958482D01*
X933450Y958974D01*
D02*
G37*
G36*
X895350D02*
X892872Y958482D01*
X890772Y957078D01*
X889368Y954978D01*
X888876Y952500D01*
X889368Y950022D01*
X890772Y947922D01*
X892872Y946518D01*
X895350Y946026D01*
X897828Y946518D01*
X899928Y947922D01*
X901332Y950022D01*
X901824Y952500D01*
X901332Y954978D01*
X899928Y957078D01*
X897828Y958482D01*
X895350Y958974D01*
D02*
G37*
G36*
X857250D02*
X854772Y958482D01*
X852672Y957078D01*
X851268Y954978D01*
X850776Y952500D01*
X851268Y950022D01*
X852672Y947922D01*
X854772Y946518D01*
X857250Y946026D01*
X859728Y946518D01*
X861828Y947922D01*
X863232Y950022D01*
X863724Y952500D01*
X863232Y954978D01*
X861828Y957078D01*
X859728Y958482D01*
X857250Y958974D01*
D02*
G37*
G36*
X819150D02*
X816672Y958482D01*
X814572Y957078D01*
X813168Y954978D01*
X812676Y952500D01*
X813168Y950022D01*
X814572Y947922D01*
X816672Y946518D01*
X819150Y946026D01*
X821628Y946518D01*
X823728Y947922D01*
X825132Y950022D01*
X825624Y952500D01*
X825132Y954978D01*
X823728Y957078D01*
X821628Y958482D01*
X819150Y958974D01*
D02*
G37*
G36*
X781050D02*
X778572Y958482D01*
X776472Y957078D01*
X775068Y954978D01*
X774576Y952500D01*
X775068Y950022D01*
X776472Y947922D01*
X778572Y946518D01*
X781050Y946026D01*
X783528Y946518D01*
X785628Y947922D01*
X787032Y950022D01*
X787524Y952500D01*
X787032Y954978D01*
X785628Y957078D01*
X783528Y958482D01*
X781050Y958974D01*
D02*
G37*
G36*
X742950D02*
X740472Y958482D01*
X738372Y957078D01*
X736968Y954978D01*
X736476Y952500D01*
X736968Y950022D01*
X738372Y947922D01*
X740472Y946518D01*
X742950Y946026D01*
X745428Y946518D01*
X747528Y947922D01*
X748932Y950022D01*
X749424Y952500D01*
X748932Y954978D01*
X747528Y957078D01*
X745428Y958482D01*
X742950Y958974D01*
D02*
G37*
G36*
X704850D02*
X702372Y958482D01*
X700272Y957078D01*
X698868Y954978D01*
X698376Y952500D01*
X698868Y950022D01*
X700272Y947922D01*
X702372Y946518D01*
X704850Y946026D01*
X707328Y946518D01*
X709428Y947922D01*
X710832Y950022D01*
X711324Y952500D01*
X710832Y954978D01*
X709428Y957078D01*
X707328Y958482D01*
X704850Y958974D01*
D02*
G37*
G36*
X666750D02*
X664272Y958482D01*
X662172Y957078D01*
X660768Y954978D01*
X660276Y952500D01*
X660768Y950022D01*
X662172Y947922D01*
X664272Y946518D01*
X666750Y946026D01*
X669228Y946518D01*
X671328Y947922D01*
X672732Y950022D01*
X673224Y952500D01*
X672732Y954978D01*
X671328Y957078D01*
X669228Y958482D01*
X666750Y958974D01*
D02*
G37*
G36*
X628650D02*
X626172Y958482D01*
X624072Y957078D01*
X622668Y954978D01*
X622176Y952500D01*
X622668Y950022D01*
X624072Y947922D01*
X626172Y946518D01*
X628650Y946026D01*
X631128Y946518D01*
X633228Y947922D01*
X634632Y950022D01*
X635124Y952500D01*
X634632Y954978D01*
X633228Y957078D01*
X631128Y958482D01*
X628650Y958974D01*
D02*
G37*
G36*
X361950D02*
X359472Y958482D01*
X357372Y957078D01*
X355968Y954978D01*
X355476Y952500D01*
X355968Y950022D01*
X357372Y947922D01*
X359472Y946518D01*
X361950Y946026D01*
X364428Y946518D01*
X366528Y947922D01*
X367932Y950022D01*
X368424Y952500D01*
X367932Y954978D01*
X366528Y957078D01*
X364428Y958482D01*
X361950Y958974D01*
D02*
G37*
G36*
X323850D02*
X321372Y958482D01*
X319272Y957078D01*
X317868Y954978D01*
X317376Y952500D01*
X317868Y950022D01*
X319272Y947922D01*
X321372Y946518D01*
X323850Y946026D01*
X326328Y946518D01*
X328428Y947922D01*
X329832Y950022D01*
X330324Y952500D01*
X329832Y954978D01*
X328428Y957078D01*
X326328Y958482D01*
X323850Y958974D01*
D02*
G37*
G36*
X285750D02*
X283272Y958482D01*
X281172Y957078D01*
X279768Y954978D01*
X279276Y952500D01*
X279768Y950022D01*
X281172Y947922D01*
X283272Y946518D01*
X285750Y946026D01*
X288228Y946518D01*
X290328Y947922D01*
X291732Y950022D01*
X292224Y952500D01*
X291732Y954978D01*
X290328Y957078D01*
X288228Y958482D01*
X285750Y958974D01*
D02*
G37*
G36*
X400050D02*
X397572Y958482D01*
X395472Y957078D01*
X394068Y954978D01*
X393576Y952500D01*
X394068Y950022D01*
X395472Y947922D01*
X397572Y946518D01*
X400050Y946026D01*
X402528Y946518D01*
X404628Y947922D01*
X406032Y950022D01*
X406252Y951132D01*
X407547D01*
X407888Y949417D01*
X409152Y947526D01*
X411042Y946263D01*
X413272Y945820D01*
X415502Y946263D01*
X417392Y947526D01*
X418655Y949417D01*
X419099Y951647D01*
X418655Y953876D01*
X417392Y955767D01*
X415502Y957030D01*
X413272Y957474D01*
X411042Y957030D01*
X409152Y955767D01*
X407888Y953876D01*
X407717Y953014D01*
X406422D01*
X406032Y954978D01*
X404628Y957078D01*
X402528Y958482D01*
X400050Y958974D01*
D02*
G37*
G36*
X600010Y945754D02*
X597731Y945301D01*
X595800Y944010D01*
X594716Y942388D01*
X594403Y942308D01*
X593617D01*
X593304Y942388D01*
X592220Y944010D01*
X590289Y945301D01*
X588010Y945754D01*
X585731Y945301D01*
X583800Y944010D01*
X582716Y942388D01*
X582403Y942308D01*
X581617D01*
X581304Y942388D01*
X580220Y944010D01*
X578289Y945301D01*
X576010Y945754D01*
X573731Y945301D01*
X571800Y944010D01*
X570509Y942079D01*
X570056Y939800D01*
X570509Y937521D01*
X571800Y935590D01*
X573422Y934506D01*
X573502Y934193D01*
Y933407D01*
X573422Y933094D01*
X571800Y932010D01*
X570509Y930079D01*
X570056Y927800D01*
X570509Y925521D01*
X571800Y923590D01*
X573731Y922299D01*
X576010Y921846D01*
X578289Y922299D01*
X580220Y923590D01*
X581304Y925212D01*
X581617Y925292D01*
X582403D01*
X582716Y925212D01*
X583800Y923590D01*
X585731Y922299D01*
X588010Y921846D01*
X590289Y922299D01*
X592220Y923590D01*
X593304Y925212D01*
X593617Y925292D01*
X594403D01*
X594716Y925212D01*
X595800Y923590D01*
X597731Y922299D01*
X600010Y921846D01*
X602289Y922299D01*
X604220Y923590D01*
X605511Y925521D01*
X605964Y927800D01*
X605511Y930079D01*
X604220Y932010D01*
X602598Y933094D01*
X602518Y933407D01*
Y934193D01*
X602598Y934506D01*
X604220Y935590D01*
X605511Y937521D01*
X605964Y939800D01*
X605511Y942079D01*
X604220Y944010D01*
X602289Y945301D01*
X600010Y945754D01*
D02*
G37*
G36*
X648320Y934692D02*
X646090Y934248D01*
X644200Y932985D01*
X642937Y931095D01*
X642493Y928865D01*
X642937Y926635D01*
X644200Y924744D01*
X646090Y923481D01*
X648320Y923038D01*
X650550Y923481D01*
X652440Y924744D01*
X653703Y926635D01*
X654147Y928865D01*
X653703Y931095D01*
X652440Y932985D01*
X650550Y934248D01*
X648320Y934692D01*
D02*
G37*
G36*
X544830Y925307D02*
X542600Y924863D01*
X540710Y923600D01*
X539447Y921710D01*
X539041Y919673D01*
X538523Y919334D01*
X537782Y919109D01*
X535878Y920382D01*
X533400Y920874D01*
X530922Y920382D01*
X528822Y918978D01*
X527418Y916878D01*
X526926Y914400D01*
X527418Y911922D01*
X528822Y909822D01*
X530922Y908418D01*
X533400Y907926D01*
X535878Y908418D01*
X537978Y909822D01*
X539382Y911922D01*
X539874Y914400D01*
X539850Y914523D01*
X539890Y914562D01*
X541020Y915153D01*
X542600Y914097D01*
X544830Y913653D01*
X547060Y914097D01*
X548950Y915360D01*
X550213Y917250D01*
X550657Y919480D01*
X550213Y921710D01*
X548950Y923600D01*
X547060Y924863D01*
X544830Y925307D01*
D02*
G37*
G36*
X1028700Y920874D02*
X1026222Y920382D01*
X1024122Y918978D01*
X1022718Y916878D01*
X1022226Y914400D01*
X1022718Y911922D01*
X1024122Y909822D01*
X1026222Y908418D01*
X1028700Y907926D01*
X1031178Y908418D01*
X1033278Y909822D01*
X1034682Y911922D01*
X1035174Y914400D01*
X1034682Y916878D01*
X1033278Y918978D01*
X1031178Y920382D01*
X1028700Y920874D01*
D02*
G37*
G36*
X990600D02*
X988122Y920382D01*
X986022Y918978D01*
X984618Y916878D01*
X984126Y914400D01*
X984618Y911922D01*
X986022Y909822D01*
X988122Y908418D01*
X990600Y907926D01*
X993078Y908418D01*
X995178Y909822D01*
X996582Y911922D01*
X997074Y914400D01*
X996582Y916878D01*
X995178Y918978D01*
X993078Y920382D01*
X990600Y920874D01*
D02*
G37*
G36*
X952500D02*
X950022Y920382D01*
X947922Y918978D01*
X946518Y916878D01*
X946026Y914400D01*
X946518Y911922D01*
X947922Y909822D01*
X950022Y908418D01*
X952500Y907926D01*
X954978Y908418D01*
X957078Y909822D01*
X958482Y911922D01*
X958974Y914400D01*
X958482Y916878D01*
X957078Y918978D01*
X954978Y920382D01*
X952500Y920874D01*
D02*
G37*
G36*
X914400D02*
X911922Y920382D01*
X909822Y918978D01*
X908418Y916878D01*
X907926Y914400D01*
X908418Y911922D01*
X909822Y909822D01*
X911922Y908418D01*
X914400Y907926D01*
X916878Y908418D01*
X918978Y909822D01*
X920382Y911922D01*
X920874Y914400D01*
X920382Y916878D01*
X918978Y918978D01*
X916878Y920382D01*
X914400Y920874D01*
D02*
G37*
G36*
X876300D02*
X873822Y920382D01*
X871722Y918978D01*
X870318Y916878D01*
X869826Y914400D01*
X870318Y911922D01*
X871722Y909822D01*
X873822Y908418D01*
X876300Y907926D01*
X878778Y908418D01*
X880878Y909822D01*
X882282Y911922D01*
X882774Y914400D01*
X882282Y916878D01*
X880878Y918978D01*
X878778Y920382D01*
X876300Y920874D01*
D02*
G37*
G36*
X838200D02*
X835722Y920382D01*
X833622Y918978D01*
X832218Y916878D01*
X831726Y914400D01*
X832218Y911922D01*
X833622Y909822D01*
X835722Y908418D01*
X838200Y907926D01*
X840678Y908418D01*
X842778Y909822D01*
X844182Y911922D01*
X844674Y914400D01*
X844182Y916878D01*
X842778Y918978D01*
X840678Y920382D01*
X838200Y920874D01*
D02*
G37*
G36*
X800100D02*
X797622Y920382D01*
X795522Y918978D01*
X794118Y916878D01*
X793626Y914400D01*
X794118Y911922D01*
X795522Y909822D01*
X797622Y908418D01*
X800100Y907926D01*
X802578Y908418D01*
X804678Y909822D01*
X806082Y911922D01*
X806574Y914400D01*
X806082Y916878D01*
X804678Y918978D01*
X802578Y920382D01*
X800100Y920874D01*
D02*
G37*
G36*
X723900D02*
X721422Y920382D01*
X719322Y918978D01*
X717918Y916878D01*
X717426Y914400D01*
X717918Y911922D01*
X719322Y909822D01*
X721422Y908418D01*
X723900Y907926D01*
X726378Y908418D01*
X728478Y909822D01*
X729882Y911922D01*
X730374Y914400D01*
X729882Y916878D01*
X728478Y918978D01*
X726378Y920382D01*
X723900Y920874D01*
D02*
G37*
G36*
X457200D02*
X454722Y920382D01*
X452622Y918978D01*
X451218Y916878D01*
X450726Y914400D01*
X451218Y911922D01*
X452622Y909822D01*
X454722Y908418D01*
X457200Y907926D01*
X459678Y908418D01*
X461778Y909822D01*
X463182Y911922D01*
X463674Y914400D01*
X463182Y916878D01*
X461778Y918978D01*
X459678Y920382D01*
X457200Y920874D01*
D02*
G37*
G36*
X419100D02*
X416622Y920382D01*
X414522Y918978D01*
X413118Y916878D01*
X412626Y914400D01*
X413118Y911922D01*
X414522Y909822D01*
X416622Y908418D01*
X419100Y907926D01*
X421578Y908418D01*
X423678Y909822D01*
X425082Y911922D01*
X425574Y914400D01*
X425082Y916878D01*
X423678Y918978D01*
X421578Y920382D01*
X419100Y920874D01*
D02*
G37*
G36*
X381000D02*
X378522Y920382D01*
X376422Y918978D01*
X375018Y916878D01*
X374526Y914400D01*
X375018Y911922D01*
X376422Y909822D01*
X378522Y908418D01*
X381000Y907926D01*
X383478Y908418D01*
X385578Y909822D01*
X386982Y911922D01*
X387474Y914400D01*
X386982Y916878D01*
X385578Y918978D01*
X383478Y920382D01*
X381000Y920874D01*
D02*
G37*
G36*
X342900D02*
X340422Y920382D01*
X338322Y918978D01*
X336918Y916878D01*
X336426Y914400D01*
X336918Y911922D01*
X338322Y909822D01*
X340422Y908418D01*
X342900Y907926D01*
X345378Y908418D01*
X347478Y909822D01*
X348882Y911922D01*
X349374Y914400D01*
X348882Y916878D01*
X347478Y918978D01*
X345378Y920382D01*
X342900Y920874D01*
D02*
G37*
G36*
X304800D02*
X302322Y920382D01*
X300222Y918978D01*
X298818Y916878D01*
X298326Y914400D01*
X298818Y911922D01*
X300222Y909822D01*
X302322Y908418D01*
X304800Y907926D01*
X307278Y908418D01*
X309378Y909822D01*
X310782Y911922D01*
X311274Y914400D01*
X310782Y916878D01*
X309378Y918978D01*
X307278Y920382D01*
X304800Y920874D01*
D02*
G37*
G36*
X266700D02*
X264222Y920382D01*
X262122Y918978D01*
X260718Y916878D01*
X260226Y914400D01*
X260718Y911922D01*
X262122Y909822D01*
X264222Y908418D01*
X266700Y907926D01*
X269178Y908418D01*
X271278Y909822D01*
X272682Y911922D01*
X273174Y914400D01*
X272682Y916878D01*
X271278Y918978D01*
X269178Y920382D01*
X266700Y920874D01*
D02*
G37*
G36*
X692150Y918957D02*
X689920Y918513D01*
X688030Y917250D01*
X686767Y915360D01*
X686323Y913130D01*
X686767Y910900D01*
X688030Y909010D01*
X689920Y907747D01*
X692150Y907303D01*
X694380Y907747D01*
X696270Y909010D01*
X697533Y910900D01*
X697977Y913130D01*
X697533Y915360D01*
X696270Y917250D01*
X694380Y918513D01*
X692150Y918957D01*
D02*
G37*
G36*
X1131700Y922150D02*
X1111120D01*
Y901570D01*
X1131700D01*
Y922150D01*
D02*
G37*
G36*
X1172210Y922239D02*
X1169524Y921885D01*
X1167021Y920848D01*
X1164871Y919199D01*
X1163222Y917049D01*
X1162185Y914546D01*
X1161831Y911860D01*
X1162185Y909174D01*
X1163222Y906671D01*
X1164871Y904521D01*
X1167021Y902872D01*
X1169524Y901835D01*
X1172210Y901481D01*
X1174896Y901835D01*
X1177399Y902872D01*
X1179549Y904521D01*
X1181198Y906671D01*
X1182235Y909174D01*
X1182589Y911860D01*
X1182235Y914546D01*
X1181198Y917049D01*
X1179549Y919199D01*
X1177399Y920848D01*
X1174896Y921885D01*
X1172210Y922239D01*
D02*
G37*
G36*
X1146810D02*
X1144124Y921885D01*
X1141621Y920848D01*
X1139471Y919199D01*
X1137822Y917049D01*
X1136785Y914546D01*
X1136431Y911860D01*
X1136785Y909174D01*
X1137822Y906671D01*
X1139471Y904521D01*
X1141621Y902872D01*
X1144124Y901835D01*
X1146810Y901481D01*
X1149496Y901835D01*
X1151999Y902872D01*
X1154149Y904521D01*
X1155798Y906671D01*
X1156835Y909174D01*
X1157189Y911860D01*
X1156835Y914546D01*
X1155798Y917049D01*
X1154149Y919199D01*
X1151999Y920848D01*
X1149496Y921885D01*
X1146810Y922239D01*
D02*
G37*
G36*
X698500Y889747D02*
X696270Y889303D01*
X694380Y888040D01*
X693117Y886150D01*
X692673Y883920D01*
X693117Y881690D01*
X694380Y879800D01*
X696270Y878537D01*
X698500Y878093D01*
X700730Y878537D01*
X702620Y879800D01*
X703883Y881690D01*
X704327Y883920D01*
X703883Y886150D01*
X702620Y888040D01*
X700730Y889303D01*
X698500Y889747D01*
D02*
G37*
G36*
X605790Y885937D02*
X603560Y885493D01*
X601670Y884230D01*
X600407Y882340D01*
X599963Y880110D01*
X600407Y877880D01*
X601670Y875990D01*
X603560Y874727D01*
X605790Y874283D01*
X608020Y874727D01*
X609910Y875990D01*
X611173Y877880D01*
X611617Y880110D01*
X611173Y882340D01*
X609910Y884230D01*
X608020Y885493D01*
X605790Y885937D01*
D02*
G37*
G36*
X574040D02*
X571810Y885493D01*
X569920Y884230D01*
X568657Y882340D01*
X568213Y880110D01*
X568657Y877880D01*
X569920Y875990D01*
X571810Y874727D01*
X574040Y874283D01*
X576270Y874727D01*
X578160Y875990D01*
X579423Y877880D01*
X579867Y880110D01*
X579423Y882340D01*
X578160Y884230D01*
X576270Y885493D01*
X574040Y885937D01*
D02*
G37*
G36*
X1200150Y882774D02*
X1197672Y882282D01*
X1195572Y880878D01*
X1194168Y878778D01*
X1193676Y876300D01*
X1194168Y873822D01*
X1195572Y871722D01*
X1197672Y870318D01*
X1200150Y869826D01*
X1202628Y870318D01*
X1204728Y871722D01*
X1206132Y873822D01*
X1206624Y876300D01*
X1206132Y878778D01*
X1204728Y880878D01*
X1202628Y882282D01*
X1200150Y882774D01*
D02*
G37*
G36*
X1162050D02*
X1159572Y882282D01*
X1157472Y880878D01*
X1156068Y878778D01*
X1155576Y876300D01*
X1156068Y873822D01*
X1157472Y871722D01*
X1159572Y870318D01*
X1162050Y869826D01*
X1164528Y870318D01*
X1166628Y871722D01*
X1168032Y873822D01*
X1168524Y876300D01*
X1168032Y878778D01*
X1166628Y880878D01*
X1164528Y882282D01*
X1162050Y882774D01*
D02*
G37*
G36*
X1123950D02*
X1121472Y882282D01*
X1119372Y880878D01*
X1117968Y878778D01*
X1117476Y876300D01*
X1117968Y873822D01*
X1119372Y871722D01*
X1121472Y870318D01*
X1123950Y869826D01*
X1126428Y870318D01*
X1128528Y871722D01*
X1129932Y873822D01*
X1130424Y876300D01*
X1129932Y878778D01*
X1128528Y880878D01*
X1126428Y882282D01*
X1123950Y882774D01*
D02*
G37*
G36*
X1085850D02*
X1083372Y882282D01*
X1081272Y880878D01*
X1079868Y878778D01*
X1079376Y876300D01*
X1079868Y873822D01*
X1081272Y871722D01*
X1083372Y870318D01*
X1085850Y869826D01*
X1088328Y870318D01*
X1090428Y871722D01*
X1091832Y873822D01*
X1092324Y876300D01*
X1091832Y878778D01*
X1090428Y880878D01*
X1088328Y882282D01*
X1085850Y882774D01*
D02*
G37*
G36*
X1047750D02*
X1045272Y882282D01*
X1043172Y880878D01*
X1041768Y878778D01*
X1041276Y876300D01*
X1041768Y873822D01*
X1043172Y871722D01*
X1045272Y870318D01*
X1047750Y869826D01*
X1050228Y870318D01*
X1052328Y871722D01*
X1053732Y873822D01*
X1054224Y876300D01*
X1053732Y878778D01*
X1052328Y880878D01*
X1050228Y882282D01*
X1047750Y882774D01*
D02*
G37*
G36*
X1009650D02*
X1007172Y882282D01*
X1005072Y880878D01*
X1003668Y878778D01*
X1003176Y876300D01*
X1003668Y873822D01*
X1005072Y871722D01*
X1007172Y870318D01*
X1009650Y869826D01*
X1012128Y870318D01*
X1014228Y871722D01*
X1015632Y873822D01*
X1016124Y876300D01*
X1015632Y878778D01*
X1014228Y880878D01*
X1012128Y882282D01*
X1009650Y882774D01*
D02*
G37*
G36*
X971550D02*
X969072Y882282D01*
X966972Y880878D01*
X965568Y878778D01*
X965076Y876300D01*
X965568Y873822D01*
X966972Y871722D01*
X969072Y870318D01*
X971550Y869826D01*
X974028Y870318D01*
X976128Y871722D01*
X977532Y873822D01*
X978024Y876300D01*
X977532Y878778D01*
X976128Y880878D01*
X974028Y882282D01*
X971550Y882774D01*
D02*
G37*
G36*
X933450D02*
X930972Y882282D01*
X928872Y880878D01*
X927468Y878778D01*
X926976Y876300D01*
X927468Y873822D01*
X928872Y871722D01*
X930972Y870318D01*
X933450Y869826D01*
X935928Y870318D01*
X938028Y871722D01*
X939432Y873822D01*
X939924Y876300D01*
X939432Y878778D01*
X938028Y880878D01*
X935928Y882282D01*
X933450Y882774D01*
D02*
G37*
G36*
X895350D02*
X892872Y882282D01*
X890772Y880878D01*
X889368Y878778D01*
X888876Y876300D01*
X889368Y873822D01*
X890772Y871722D01*
X892872Y870318D01*
X895350Y869826D01*
X897828Y870318D01*
X899928Y871722D01*
X901332Y873822D01*
X901824Y876300D01*
X901332Y878778D01*
X899928Y880878D01*
X897828Y882282D01*
X895350Y882774D01*
D02*
G37*
G36*
X857250D02*
X854772Y882282D01*
X852672Y880878D01*
X851268Y878778D01*
X850776Y876300D01*
X851268Y873822D01*
X852672Y871722D01*
X854772Y870318D01*
X857250Y869826D01*
X859728Y870318D01*
X861828Y871722D01*
X863232Y873822D01*
X863724Y876300D01*
X863232Y878778D01*
X861828Y880878D01*
X859728Y882282D01*
X857250Y882774D01*
D02*
G37*
G36*
X666750D02*
X664272Y882282D01*
X662172Y880878D01*
X660768Y878778D01*
X660276Y876300D01*
X660768Y873822D01*
X662172Y871722D01*
X664272Y870318D01*
X666750Y869826D01*
X669228Y870318D01*
X671328Y871722D01*
X672732Y873822D01*
X673224Y876300D01*
X672732Y878778D01*
X671328Y880878D01*
X669228Y882282D01*
X666750Y882774D01*
D02*
G37*
G36*
X514350D02*
X511872Y882282D01*
X509772Y880878D01*
X508368Y878778D01*
X507876Y876300D01*
X508368Y873822D01*
X509772Y871722D01*
X511872Y870318D01*
X514350Y869826D01*
X516828Y870318D01*
X518928Y871722D01*
X520332Y873822D01*
X520824Y876300D01*
X520332Y878778D01*
X518928Y880878D01*
X516828Y882282D01*
X514350Y882774D01*
D02*
G37*
G36*
X476250D02*
X473772Y882282D01*
X471672Y880878D01*
X470268Y878778D01*
X469776Y876300D01*
X470268Y873822D01*
X471672Y871722D01*
X473772Y870318D01*
X476250Y869826D01*
X478728Y870318D01*
X480828Y871722D01*
X482232Y873822D01*
X482724Y876300D01*
X482232Y878778D01*
X480828Y880878D01*
X478728Y882282D01*
X476250Y882774D01*
D02*
G37*
G36*
X438150D02*
X435672Y882282D01*
X433572Y880878D01*
X432168Y878778D01*
X431676Y876300D01*
X432168Y873822D01*
X433572Y871722D01*
X435672Y870318D01*
X438150Y869826D01*
X440628Y870318D01*
X442728Y871722D01*
X444132Y873822D01*
X444624Y876300D01*
X444132Y878778D01*
X442728Y880878D01*
X440628Y882282D01*
X438150Y882774D01*
D02*
G37*
G36*
X400050D02*
X397572Y882282D01*
X395472Y880878D01*
X394068Y878778D01*
X393576Y876300D01*
X394068Y873822D01*
X395472Y871722D01*
X397572Y870318D01*
X400050Y869826D01*
X402528Y870318D01*
X404628Y871722D01*
X406032Y873822D01*
X406524Y876300D01*
X406032Y878778D01*
X404628Y880878D01*
X402528Y882282D01*
X400050Y882774D01*
D02*
G37*
G36*
X361950D02*
X359472Y882282D01*
X357372Y880878D01*
X355968Y878778D01*
X355476Y876300D01*
X355968Y873822D01*
X357372Y871722D01*
X359472Y870318D01*
X361950Y869826D01*
X364428Y870318D01*
X366528Y871722D01*
X367932Y873822D01*
X368424Y876300D01*
X367932Y878778D01*
X366528Y880878D01*
X364428Y882282D01*
X361950Y882774D01*
D02*
G37*
G36*
X323850D02*
X321372Y882282D01*
X319272Y880878D01*
X317868Y878778D01*
X317376Y876300D01*
X317868Y873822D01*
X319272Y871722D01*
X321372Y870318D01*
X323850Y869826D01*
X326328Y870318D01*
X328428Y871722D01*
X329832Y873822D01*
X330324Y876300D01*
X329832Y878778D01*
X328428Y880878D01*
X326328Y882282D01*
X323850Y882774D01*
D02*
G37*
G36*
X285750D02*
X283272Y882282D01*
X281172Y880878D01*
X279768Y878778D01*
X279276Y876300D01*
X279768Y873822D01*
X281172Y871722D01*
X283272Y870318D01*
X285750Y869826D01*
X288228Y870318D01*
X290328Y871722D01*
X291732Y873822D01*
X292224Y876300D01*
X291732Y878778D01*
X290328Y880878D01*
X288228Y882282D01*
X285750Y882774D01*
D02*
G37*
G36*
X572770Y873237D02*
X570540Y872793D01*
X568650Y871530D01*
X567387Y869640D01*
X566943Y867410D01*
X567387Y865180D01*
X568650Y863290D01*
X570540Y862027D01*
X572770Y861583D01*
X575000Y862027D01*
X576890Y863290D01*
X578153Y865180D01*
X578597Y867410D01*
X578153Y869640D01*
X576890Y871530D01*
X575000Y872793D01*
X572770Y873237D01*
D02*
G37*
G36*
X596301Y871869D02*
X594071Y871425D01*
X592181Y870162D01*
X590918Y868271D01*
X590474Y866042D01*
X590918Y863812D01*
X592181Y861921D01*
X594071Y860658D01*
X596301Y860215D01*
X598531Y860658D01*
X600421Y861921D01*
X601684Y863812D01*
X602128Y866042D01*
X601684Y868271D01*
X600421Y870162D01*
X598531Y871425D01*
X596301Y871869D01*
D02*
G37*
G36*
X732790Y864347D02*
X730560Y863903D01*
X728670Y862640D01*
X727407Y860750D01*
X726963Y858520D01*
X727407Y856290D01*
X728670Y854400D01*
X730560Y853137D01*
X732790Y852693D01*
X735020Y853137D01*
X736910Y854400D01*
X738173Y856290D01*
X738617Y858520D01*
X738173Y860750D01*
X736910Y862640D01*
X735020Y863903D01*
X732790Y864347D01*
D02*
G37*
G36*
X542290Y845297D02*
X540060Y844853D01*
X538170Y843590D01*
X536907Y841700D01*
X536463Y839470D01*
X536907Y837240D01*
X538170Y835350D01*
X540060Y834087D01*
X542290Y833643D01*
X544520Y834087D01*
X546410Y835350D01*
X547673Y837240D01*
X548117Y839470D01*
X547673Y841700D01*
X546410Y843590D01*
X544520Y844853D01*
X542290Y845297D01*
D02*
G37*
G36*
X1219200Y844674D02*
X1216722Y844182D01*
X1214622Y842778D01*
X1213218Y840678D01*
X1212726Y838200D01*
X1213218Y835722D01*
X1214622Y833622D01*
X1216722Y832218D01*
X1219200Y831726D01*
X1221678Y832218D01*
X1223778Y833622D01*
X1225182Y835722D01*
X1225674Y838200D01*
X1225182Y840678D01*
X1223778Y842778D01*
X1221678Y844182D01*
X1219200Y844674D01*
D02*
G37*
G36*
X1181100D02*
X1178622Y844182D01*
X1176522Y842778D01*
X1175118Y840678D01*
X1174626Y838200D01*
X1175118Y835722D01*
X1176522Y833622D01*
X1178622Y832218D01*
X1181100Y831726D01*
X1183578Y832218D01*
X1185678Y833622D01*
X1187082Y835722D01*
X1187574Y838200D01*
X1187082Y840678D01*
X1185678Y842778D01*
X1183578Y844182D01*
X1181100Y844674D01*
D02*
G37*
G36*
X1143000D02*
X1140522Y844182D01*
X1138422Y842778D01*
X1137018Y840678D01*
X1136526Y838200D01*
X1137018Y835722D01*
X1138422Y833622D01*
X1140522Y832218D01*
X1143000Y831726D01*
X1145478Y832218D01*
X1147578Y833622D01*
X1148982Y835722D01*
X1149474Y838200D01*
X1148982Y840678D01*
X1147578Y842778D01*
X1145478Y844182D01*
X1143000Y844674D01*
D02*
G37*
G36*
X1104900D02*
X1102422Y844182D01*
X1100322Y842778D01*
X1098918Y840678D01*
X1098426Y838200D01*
X1098918Y835722D01*
X1100322Y833622D01*
X1102422Y832218D01*
X1104900Y831726D01*
X1107378Y832218D01*
X1109478Y833622D01*
X1110882Y835722D01*
X1111374Y838200D01*
X1110882Y840678D01*
X1109478Y842778D01*
X1107378Y844182D01*
X1104900Y844674D01*
D02*
G37*
G36*
X571500D02*
X569022Y844182D01*
X566922Y842778D01*
X565518Y840678D01*
X565026Y838200D01*
X565518Y835722D01*
X566922Y833622D01*
X569022Y832218D01*
X571500Y831726D01*
X573978Y832218D01*
X576078Y833622D01*
X577482Y835722D01*
X577974Y838200D01*
X577482Y840678D01*
X576078Y842778D01*
X573978Y844182D01*
X571500Y844674D01*
D02*
G37*
G36*
X495300D02*
X492822Y844182D01*
X490722Y842778D01*
X489318Y840678D01*
X488826Y838200D01*
X489318Y835722D01*
X490722Y833622D01*
X492822Y832218D01*
X495300Y831726D01*
X497778Y832218D01*
X499878Y833622D01*
X501282Y835722D01*
X501774Y838200D01*
X501282Y840678D01*
X499878Y842778D01*
X497778Y844182D01*
X495300Y844674D01*
D02*
G37*
G36*
X457200D02*
X454722Y844182D01*
X452622Y842778D01*
X451218Y840678D01*
X450726Y838200D01*
X451218Y835722D01*
X452622Y833622D01*
X454722Y832218D01*
X457200Y831726D01*
X459678Y832218D01*
X461778Y833622D01*
X463182Y835722D01*
X463674Y838200D01*
X463182Y840678D01*
X461778Y842778D01*
X459678Y844182D01*
X457200Y844674D01*
D02*
G37*
G36*
X419100D02*
X416622Y844182D01*
X414522Y842778D01*
X413118Y840678D01*
X412626Y838200D01*
X413118Y835722D01*
X414522Y833622D01*
X416622Y832218D01*
X419100Y831726D01*
X421578Y832218D01*
X423678Y833622D01*
X425082Y835722D01*
X425574Y838200D01*
X425082Y840678D01*
X423678Y842778D01*
X421578Y844182D01*
X419100Y844674D01*
D02*
G37*
G36*
X381000D02*
X378522Y844182D01*
X376422Y842778D01*
X375018Y840678D01*
X374526Y838200D01*
X375018Y835722D01*
X376422Y833622D01*
X378522Y832218D01*
X381000Y831726D01*
X383478Y832218D01*
X385578Y833622D01*
X386982Y835722D01*
X387474Y838200D01*
X386982Y840678D01*
X385578Y842778D01*
X383478Y844182D01*
X381000Y844674D01*
D02*
G37*
G36*
X342900D02*
X340422Y844182D01*
X338322Y842778D01*
X336918Y840678D01*
X336426Y838200D01*
X336918Y835722D01*
X338322Y833622D01*
X340422Y832218D01*
X342900Y831726D01*
X345378Y832218D01*
X347478Y833622D01*
X348882Y835722D01*
X349374Y838200D01*
X348882Y840678D01*
X347478Y842778D01*
X345378Y844182D01*
X342900Y844674D01*
D02*
G37*
G36*
X304800D02*
X302322Y844182D01*
X300222Y842778D01*
X298818Y840678D01*
X298326Y838200D01*
X298818Y835722D01*
X300222Y833622D01*
X302322Y832218D01*
X304800Y831726D01*
X307278Y832218D01*
X309378Y833622D01*
X310782Y835722D01*
X311274Y838200D01*
X310782Y840678D01*
X309378Y842778D01*
X307278Y844182D01*
X304800Y844674D01*
D02*
G37*
G36*
X266700D02*
X264222Y844182D01*
X262122Y842778D01*
X260718Y840678D01*
X260226Y838200D01*
X260718Y835722D01*
X262122Y833622D01*
X264222Y832218D01*
X266700Y831726D01*
X269178Y832218D01*
X271278Y833622D01*
X272682Y835722D01*
X273174Y838200D01*
X272682Y840678D01*
X271278Y842778D01*
X269178Y844182D01*
X266700Y844674D01*
D02*
G37*
G36*
X857250Y830139D02*
X855020Y829696D01*
X853130Y828433D01*
X851867Y826542D01*
X851423Y824312D01*
X851867Y822082D01*
X853130Y820192D01*
X855020Y818929D01*
X857250Y818485D01*
X859480Y818929D01*
X861370Y820192D01*
X862633Y822082D01*
X863077Y824312D01*
X862633Y826542D01*
X861370Y828433D01*
X859480Y829696D01*
X857250Y830139D01*
D02*
G37*
G36*
X553720Y828787D02*
X551490Y828343D01*
X549600Y827080D01*
X548337Y825190D01*
X547893Y822960D01*
X548337Y820730D01*
X549600Y818840D01*
X551490Y817577D01*
X553720Y817133D01*
X555950Y817577D01*
X557840Y818840D01*
X559103Y820730D01*
X559547Y822960D01*
X559103Y825190D01*
X557840Y827080D01*
X555950Y828343D01*
X553720Y828787D01*
D02*
G37*
G36*
X894080Y816087D02*
X891850Y815643D01*
X889960Y814380D01*
X888697Y812490D01*
X888377Y810885D01*
X887083D01*
X886763Y812490D01*
X885500Y814380D01*
X883610Y815643D01*
X881380Y816087D01*
X879150Y815643D01*
X877260Y814380D01*
X875997Y812490D01*
X875553Y810260D01*
X875997Y808030D01*
X877260Y806140D01*
X879150Y804877D01*
X881380Y804433D01*
X883610Y804877D01*
X885500Y806140D01*
X886763Y808030D01*
X887083Y809634D01*
X888377D01*
X888697Y808030D01*
X889960Y806140D01*
X891850Y804877D01*
X894080Y804433D01*
X896310Y804877D01*
X898200Y806140D01*
X899463Y808030D01*
X899907Y810260D01*
X899463Y812490D01*
X898200Y814380D01*
X896310Y815643D01*
X894080Y816087D01*
D02*
G37*
G36*
X318693Y813952D02*
X316463Y813508D01*
X314573Y812245D01*
X313309Y810355D01*
X312866Y808125D01*
X313309Y805895D01*
X314573Y804005D01*
X316463Y802741D01*
X318693Y802298D01*
X320923Y802741D01*
X322813Y804005D01*
X324076Y805895D01*
X324520Y808125D01*
X324076Y810355D01*
X322813Y812245D01*
X320923Y813508D01*
X318693Y813952D01*
D02*
G37*
G36*
X1200150Y806574D02*
X1197672Y806082D01*
X1195572Y804678D01*
X1194168Y802578D01*
X1193676Y800100D01*
X1194168Y797622D01*
X1195572Y795522D01*
X1197672Y794118D01*
X1200150Y793626D01*
X1202628Y794118D01*
X1204728Y795522D01*
X1206132Y797622D01*
X1206624Y800100D01*
X1206132Y802578D01*
X1204728Y804678D01*
X1202628Y806082D01*
X1200150Y806574D01*
D02*
G37*
G36*
X1162050D02*
X1159572Y806082D01*
X1157472Y804678D01*
X1156068Y802578D01*
X1155576Y800100D01*
X1156068Y797622D01*
X1157472Y795522D01*
X1159572Y794118D01*
X1162050Y793626D01*
X1164528Y794118D01*
X1166628Y795522D01*
X1168032Y797622D01*
X1168524Y800100D01*
X1168032Y802578D01*
X1166628Y804678D01*
X1164528Y806082D01*
X1162050Y806574D01*
D02*
G37*
G36*
X742950D02*
X740472Y806082D01*
X738372Y804678D01*
X736968Y802578D01*
X736476Y800100D01*
X736968Y797622D01*
X738372Y795522D01*
X740472Y794118D01*
X742950Y793626D01*
X745428Y794118D01*
X747528Y795522D01*
X748932Y797622D01*
X749424Y800100D01*
X748932Y802578D01*
X747528Y804678D01*
X745428Y806082D01*
X742950Y806574D01*
D02*
G37*
G36*
X704850D02*
X702372Y806082D01*
X700272Y804678D01*
X698868Y802578D01*
X698376Y800100D01*
X698868Y797622D01*
X700272Y795522D01*
X702372Y794118D01*
X704850Y793626D01*
X707328Y794118D01*
X709428Y795522D01*
X710832Y797622D01*
X711324Y800100D01*
X710832Y802578D01*
X709428Y804678D01*
X707328Y806082D01*
X704850Y806574D01*
D02*
G37*
G36*
X476250D02*
X473772Y806082D01*
X471672Y804678D01*
X470268Y802578D01*
X469776Y800100D01*
X470268Y797622D01*
X471672Y795522D01*
X473772Y794118D01*
X476250Y793626D01*
X478728Y794118D01*
X480828Y795522D01*
X482232Y797622D01*
X482724Y800100D01*
X482232Y802578D01*
X480828Y804678D01*
X478728Y806082D01*
X476250Y806574D01*
D02*
G37*
G36*
X285750D02*
X283272Y806082D01*
X281172Y804678D01*
X279768Y802578D01*
X279276Y800100D01*
X279768Y797622D01*
X281172Y795522D01*
X283272Y794118D01*
X285750Y793626D01*
X288228Y794118D01*
X290328Y795522D01*
X291732Y797622D01*
X292224Y800100D01*
X291732Y802578D01*
X290328Y804678D01*
X288228Y806082D01*
X285750Y806574D01*
D02*
G37*
G36*
X756920Y802117D02*
X754690Y801673D01*
X752800Y800410D01*
X751537Y798520D01*
X751093Y796290D01*
X751537Y794060D01*
X752800Y792170D01*
X754690Y790907D01*
X756920Y790463D01*
X759150Y790907D01*
X761040Y792170D01*
X762303Y794060D01*
X762747Y796290D01*
X762303Y798520D01*
X761040Y800410D01*
X759150Y801673D01*
X756920Y802117D01*
D02*
G37*
G36*
X568814Y799297D02*
X566584Y798854D01*
X564694Y797590D01*
X563431Y795700D01*
X562987Y793470D01*
X563431Y791240D01*
X564694Y789350D01*
X566584Y788087D01*
X568814Y787643D01*
X571044Y788087D01*
X572934Y789350D01*
X574198Y791240D01*
X574641Y793470D01*
X574198Y795700D01*
X572934Y797590D01*
X571044Y798854D01*
X568814Y799297D01*
D02*
G37*
G36*
X400050Y806574D02*
X397572Y806082D01*
X395472Y804678D01*
X394068Y802578D01*
X393576Y800100D01*
X394068Y797622D01*
X395472Y795522D01*
X397572Y794118D01*
X400050Y793626D01*
X401145Y793843D01*
X402149Y792748D01*
X401843Y791210D01*
X402287Y788980D01*
X403550Y787090D01*
X405440Y785827D01*
X407670Y785383D01*
X409900Y785827D01*
X411790Y787090D01*
X413053Y788980D01*
X413497Y791210D01*
X413053Y793440D01*
X411790Y795330D01*
X409900Y796593D01*
X407670Y797037D01*
X407088Y796921D01*
X406787Y797121D01*
X406111Y798022D01*
X406524Y800100D01*
X406032Y802578D01*
X404628Y804678D01*
X402528Y806082D01*
X400050Y806574D01*
D02*
G37*
G36*
X822960Y791957D02*
X820730Y791513D01*
X818840Y790250D01*
X817577Y788360D01*
X817133Y786130D01*
X817577Y783900D01*
X818840Y782010D01*
X820730Y780747D01*
X822960Y780303D01*
X825190Y780747D01*
X827080Y782010D01*
X828343Y783900D01*
X828787Y786130D01*
X828343Y788360D01*
X827080Y790250D01*
X825190Y791513D01*
X822960Y791957D01*
D02*
G37*
G36*
X322580Y790687D02*
X320350Y790243D01*
X318460Y788980D01*
X317197Y787090D01*
X316753Y784860D01*
X317197Y782630D01*
X318460Y780740D01*
X320350Y779477D01*
X322580Y779033D01*
X324810Y779477D01*
X326700Y780740D01*
X327963Y782630D01*
X328407Y784860D01*
X327963Y787090D01*
X326700Y788980D01*
X324810Y790243D01*
X322580Y790687D01*
D02*
G37*
G36*
X879785Y782807D02*
X877555Y782364D01*
X875665Y781101D01*
X874402Y779210D01*
X873958Y776980D01*
X874402Y774751D01*
X875665Y772860D01*
X877555Y771597D01*
X879785Y771153D01*
X882015Y771597D01*
X883906Y772860D01*
X885169Y774751D01*
X885612Y776980D01*
X885169Y779210D01*
X883906Y781101D01*
X882015Y782364D01*
X879785Y782807D01*
D02*
G37*
G36*
X293521Y774759D02*
X291555Y774368D01*
X289888Y773254D01*
X288774Y771587D01*
X288383Y769620D01*
X288774Y767654D01*
X289888Y765986D01*
X291555Y764872D01*
X293521Y764481D01*
X295488Y764872D01*
X297155Y765986D01*
X298269Y767654D01*
X298660Y769620D01*
X298269Y771587D01*
X297155Y773254D01*
X295488Y774368D01*
X293521Y774759D01*
D02*
G37*
G36*
X1219200Y768474D02*
X1216722Y767982D01*
X1214622Y766578D01*
X1213218Y764478D01*
X1212726Y762000D01*
X1213218Y759522D01*
X1214622Y757422D01*
X1216722Y756018D01*
X1219200Y755526D01*
X1221678Y756018D01*
X1223778Y757422D01*
X1225182Y759522D01*
X1225674Y762000D01*
X1225182Y764478D01*
X1223778Y766578D01*
X1221678Y767982D01*
X1219200Y768474D01*
D02*
G37*
G36*
X1181100D02*
X1178622Y767982D01*
X1176522Y766578D01*
X1175118Y764478D01*
X1174626Y762000D01*
X1175118Y759522D01*
X1176522Y757422D01*
X1178622Y756018D01*
X1181100Y755526D01*
X1183578Y756018D01*
X1185678Y757422D01*
X1187082Y759522D01*
X1187574Y762000D01*
X1187082Y764478D01*
X1185678Y766578D01*
X1183578Y767982D01*
X1181100Y768474D01*
D02*
G37*
G36*
X1143000D02*
X1140522Y767982D01*
X1138422Y766578D01*
X1137018Y764478D01*
X1136526Y762000D01*
X1137018Y759522D01*
X1138422Y757422D01*
X1140522Y756018D01*
X1143000Y755526D01*
X1145478Y756018D01*
X1147578Y757422D01*
X1148982Y759522D01*
X1149474Y762000D01*
X1148982Y764478D01*
X1147578Y766578D01*
X1145478Y767982D01*
X1143000Y768474D01*
D02*
G37*
G36*
X1104900D02*
X1102422Y767982D01*
X1100322Y766578D01*
X1098918Y764478D01*
X1098426Y762000D01*
X1098918Y759522D01*
X1100322Y757422D01*
X1102422Y756018D01*
X1104900Y755526D01*
X1107378Y756018D01*
X1109478Y757422D01*
X1110882Y759522D01*
X1111374Y762000D01*
X1110882Y764478D01*
X1109478Y766578D01*
X1107378Y767982D01*
X1104900Y768474D01*
D02*
G37*
G36*
X1066800D02*
X1064322Y767982D01*
X1062222Y766578D01*
X1060818Y764478D01*
X1060326Y762000D01*
X1060818Y759522D01*
X1062222Y757422D01*
X1064322Y756018D01*
X1066800Y755526D01*
X1069278Y756018D01*
X1071378Y757422D01*
X1072782Y759522D01*
X1073274Y762000D01*
X1072782Y764478D01*
X1071378Y766578D01*
X1069278Y767982D01*
X1066800Y768474D01*
D02*
G37*
G36*
X990600D02*
X988122Y767982D01*
X986022Y766578D01*
X984618Y764478D01*
X984126Y762000D01*
X984618Y759522D01*
X986022Y757422D01*
X988122Y756018D01*
X990600Y755526D01*
X993078Y756018D01*
X995178Y757422D01*
X996582Y759522D01*
X997074Y762000D01*
X996582Y764478D01*
X995178Y766578D01*
X993078Y767982D01*
X990600Y768474D01*
D02*
G37*
G36*
X914400D02*
X911922Y767982D01*
X909822Y766578D01*
X908418Y764478D01*
X907926Y762000D01*
X908418Y759522D01*
X909822Y757422D01*
X911922Y756018D01*
X914400Y755526D01*
X916878Y756018D01*
X918978Y757422D01*
X920382Y759522D01*
X920874Y762000D01*
X920382Y764478D01*
X918978Y766578D01*
X916878Y767982D01*
X914400Y768474D01*
D02*
G37*
G36*
X876300D02*
X873822Y767982D01*
X871722Y766578D01*
X870318Y764478D01*
X869826Y762000D01*
X870318Y759522D01*
X871722Y757422D01*
X873822Y756018D01*
X876300Y755526D01*
X878778Y756018D01*
X880878Y757422D01*
X882282Y759522D01*
X882774Y762000D01*
X882282Y764478D01*
X880878Y766578D01*
X878778Y767982D01*
X876300Y768474D01*
D02*
G37*
G36*
X723900D02*
X721422Y767982D01*
X719322Y766578D01*
X717918Y764478D01*
X717426Y762000D01*
X717918Y759522D01*
X719322Y757422D01*
X721422Y756018D01*
X723900Y755526D01*
X726378Y756018D01*
X728478Y757422D01*
X729882Y759522D01*
X730374Y762000D01*
X729882Y764478D01*
X728478Y766578D01*
X726378Y767982D01*
X723900Y768474D01*
D02*
G37*
G36*
X685800D02*
X683322Y767982D01*
X681222Y766578D01*
X679818Y764478D01*
X679326Y762000D01*
X679818Y759522D01*
X681222Y757422D01*
X683322Y756018D01*
X685800Y755526D01*
X688278Y756018D01*
X690378Y757422D01*
X691782Y759522D01*
X692274Y762000D01*
X691782Y764478D01*
X690378Y766578D01*
X688278Y767982D01*
X685800Y768474D01*
D02*
G37*
G36*
X495300D02*
X492822Y767982D01*
X490722Y766578D01*
X489318Y764478D01*
X488826Y762000D01*
X489318Y759522D01*
X490722Y757422D01*
X492822Y756018D01*
X495300Y755526D01*
X497778Y756018D01*
X499878Y757422D01*
X501282Y759522D01*
X501774Y762000D01*
X501282Y764478D01*
X499878Y766578D01*
X497778Y767982D01*
X495300Y768474D01*
D02*
G37*
G36*
X457200D02*
X454722Y767982D01*
X452622Y766578D01*
X451218Y764478D01*
X450726Y762000D01*
X451218Y759522D01*
X452622Y757422D01*
X454722Y756018D01*
X457200Y755526D01*
X459678Y756018D01*
X461778Y757422D01*
X463182Y759522D01*
X463674Y762000D01*
X463182Y764478D01*
X461778Y766578D01*
X459678Y767982D01*
X457200Y768474D01*
D02*
G37*
G36*
X266700D02*
X264222Y767982D01*
X262122Y766578D01*
X260718Y764478D01*
X260226Y762000D01*
X260718Y759522D01*
X262122Y757422D01*
X264222Y756018D01*
X266700Y755526D01*
X269178Y756018D01*
X271278Y757422D01*
X272682Y759522D01*
X273174Y762000D01*
X272682Y764478D01*
X271278Y766578D01*
X269178Y767982D01*
X266700Y768474D01*
D02*
G37*
G36*
X835660Y766557D02*
X833430Y766113D01*
X831540Y764850D01*
X830277Y762960D01*
X829833Y760730D01*
X830277Y758500D01*
X831540Y756610D01*
X833430Y755347D01*
X835660Y754903D01*
X837890Y755347D01*
X839780Y756610D01*
X841043Y758500D01*
X841487Y760730D01*
X841043Y762960D01*
X839780Y764850D01*
X837890Y766113D01*
X835660Y766557D01*
D02*
G37*
G36*
X464820Y741157D02*
X462590Y740713D01*
X460700Y739450D01*
X459437Y737560D01*
X458993Y735330D01*
X459437Y733100D01*
X460700Y731210D01*
X462590Y729947D01*
X464820Y729503D01*
X467050Y729947D01*
X468940Y731210D01*
X470203Y733100D01*
X470647Y735330D01*
X470203Y737560D01*
X468940Y739450D01*
X467050Y740713D01*
X464820Y741157D01*
D02*
G37*
G36*
X293521Y734759D02*
X291555Y734368D01*
X289888Y733254D01*
X288774Y731587D01*
X288383Y729620D01*
X288774Y727654D01*
X289888Y725986D01*
X291555Y724873D01*
X293521Y724481D01*
X295488Y724873D01*
X297155Y725986D01*
X298269Y727654D01*
X298660Y729620D01*
X298269Y731587D01*
X297155Y733254D01*
X295488Y734368D01*
X293521Y734759D01*
D02*
G37*
G36*
X1238250Y730374D02*
X1235772Y729882D01*
X1233672Y728478D01*
X1232268Y726378D01*
X1231776Y723900D01*
X1232268Y721422D01*
X1233672Y719322D01*
X1235772Y717918D01*
X1238250Y717426D01*
X1240728Y717918D01*
X1242828Y719322D01*
X1244232Y721422D01*
X1244724Y723900D01*
X1244232Y726378D01*
X1242828Y728478D01*
X1240728Y729882D01*
X1238250Y730374D01*
D02*
G37*
G36*
X1162050D02*
X1159572Y729882D01*
X1157472Y728478D01*
X1156068Y726378D01*
X1155576Y723900D01*
X1156068Y721422D01*
X1157472Y719322D01*
X1159572Y717918D01*
X1162050Y717426D01*
X1164528Y717918D01*
X1166628Y719322D01*
X1168032Y721422D01*
X1168524Y723900D01*
X1168032Y726378D01*
X1166628Y728478D01*
X1164528Y729882D01*
X1162050Y730374D01*
D02*
G37*
G36*
X1123950D02*
X1121472Y729882D01*
X1119372Y728478D01*
X1117968Y726378D01*
X1117476Y723900D01*
X1117968Y721422D01*
X1119372Y719322D01*
X1121472Y717918D01*
X1123950Y717426D01*
X1126428Y717918D01*
X1128528Y719322D01*
X1129932Y721422D01*
X1130424Y723900D01*
X1129932Y726378D01*
X1128528Y728478D01*
X1126428Y729882D01*
X1123950Y730374D01*
D02*
G37*
G36*
X1047750D02*
X1045272Y729882D01*
X1043172Y728478D01*
X1041768Y726378D01*
X1041276Y723900D01*
X1041768Y721422D01*
X1043172Y719322D01*
X1045272Y717918D01*
X1047750Y717426D01*
X1050228Y717918D01*
X1052328Y719322D01*
X1053732Y721422D01*
X1054224Y723900D01*
X1053732Y726378D01*
X1052328Y728478D01*
X1050228Y729882D01*
X1047750Y730374D01*
D02*
G37*
G36*
X1009650D02*
X1007172Y729882D01*
X1005072Y728478D01*
X1003668Y726378D01*
X1003176Y723900D01*
X1003668Y721422D01*
X1005072Y719322D01*
X1007172Y717918D01*
X1009650Y717426D01*
X1012128Y717918D01*
X1014228Y719322D01*
X1015632Y721422D01*
X1016124Y723900D01*
X1015632Y726378D01*
X1014228Y728478D01*
X1012128Y729882D01*
X1009650Y730374D01*
D02*
G37*
G36*
X666750D02*
X664272Y729882D01*
X662172Y728478D01*
X660768Y726378D01*
X660276Y723900D01*
X660768Y721422D01*
X662172Y719322D01*
X664272Y717918D01*
X666750Y717426D01*
X669228Y717918D01*
X671328Y719322D01*
X672732Y721422D01*
X673224Y723900D01*
X672732Y726378D01*
X671328Y728478D01*
X669228Y729882D01*
X666750Y730374D01*
D02*
G37*
G36*
X590550D02*
X588072Y729882D01*
X585972Y728478D01*
X584568Y726378D01*
X584076Y723900D01*
X584568Y721422D01*
X585972Y719322D01*
X588072Y717918D01*
X590550Y717426D01*
X593028Y717918D01*
X595128Y719322D01*
X596532Y721422D01*
X597024Y723900D01*
X596532Y726378D01*
X595128Y728478D01*
X593028Y729882D01*
X590550Y730374D01*
D02*
G37*
G36*
X552450D02*
X549972Y729882D01*
X547872Y728478D01*
X546468Y726378D01*
X545976Y723900D01*
X546468Y721422D01*
X547872Y719322D01*
X549972Y717918D01*
X552450Y717426D01*
X554928Y717918D01*
X557028Y719322D01*
X558432Y721422D01*
X558924Y723900D01*
X558432Y726378D01*
X557028Y728478D01*
X554928Y729882D01*
X552450Y730374D01*
D02*
G37*
G36*
X361950D02*
X359472Y729882D01*
X357372Y728478D01*
X355968Y726378D01*
X355476Y723900D01*
X355968Y721422D01*
X357372Y719322D01*
X359472Y717918D01*
X361950Y717426D01*
X364428Y717918D01*
X366528Y719322D01*
X367932Y721422D01*
X368424Y723900D01*
X367932Y726378D01*
X366528Y728478D01*
X364428Y729882D01*
X361950Y730374D01*
D02*
G37*
G36*
X323850D02*
X321372Y729882D01*
X319272Y728478D01*
X317868Y726378D01*
X317376Y723900D01*
X317868Y721422D01*
X319272Y719322D01*
X321372Y717918D01*
X323850Y717426D01*
X326328Y717918D01*
X328428Y719322D01*
X329832Y721422D01*
X330324Y723900D01*
X329832Y726378D01*
X328428Y728478D01*
X326328Y729882D01*
X323850Y730374D01*
D02*
G37*
G36*
X822960Y715757D02*
X820730Y715313D01*
X818840Y714050D01*
X817577Y712160D01*
X817133Y709930D01*
X817577Y707700D01*
X818840Y705810D01*
X820730Y704547D01*
X822960Y704103D01*
X825190Y704547D01*
X827080Y705810D01*
X828343Y707700D01*
X828787Y709930D01*
X828343Y712160D01*
X827080Y714050D01*
X825190Y715313D01*
X822960Y715757D01*
D02*
G37*
G36*
X431800Y711947D02*
X429570Y711503D01*
X427680Y710240D01*
X426417Y708350D01*
X425973Y706120D01*
X426417Y703890D01*
X427680Y702000D01*
X429570Y700737D01*
X431800Y700293D01*
X434030Y700737D01*
X435920Y702000D01*
X437183Y703890D01*
X437627Y706120D01*
X437183Y708350D01*
X435920Y710240D01*
X434030Y711503D01*
X431800Y711947D01*
D02*
G37*
G36*
X722979Y708137D02*
X720749Y707693D01*
X718858Y706430D01*
X717595Y704540D01*
X717151Y702310D01*
X717595Y700080D01*
X718858Y698190D01*
X720749Y696927D01*
X722979Y696483D01*
X725208Y696927D01*
X727099Y698190D01*
X728362Y700080D01*
X728805Y702310D01*
X728362Y704540D01*
X727099Y706430D01*
X725208Y707693D01*
X722979Y708137D01*
D02*
G37*
G36*
X442598Y703695D02*
X440368Y703251D01*
X438478Y701988D01*
X437215Y700098D01*
X436771Y697868D01*
X437215Y695638D01*
X438478Y693748D01*
X440368Y692485D01*
X442598Y692041D01*
X444828Y692485D01*
X446718Y693748D01*
X447981Y695638D01*
X448425Y697868D01*
X447981Y700098D01*
X446718Y701988D01*
X444828Y703251D01*
X442598Y703695D01*
D02*
G37*
G36*
X412750Y703057D02*
X410520Y702613D01*
X408630Y701350D01*
X407367Y699460D01*
X406923Y697230D01*
X407367Y695000D01*
X408630Y693110D01*
X410520Y691847D01*
X412750Y691403D01*
X414980Y691847D01*
X416870Y693110D01*
X418133Y695000D01*
X418577Y697230D01*
X418133Y699460D01*
X416870Y701350D01*
X414980Y702613D01*
X412750Y703057D01*
D02*
G37*
G36*
X1143000Y692274D02*
X1140522Y691782D01*
X1138422Y690378D01*
X1137018Y688278D01*
X1136526Y685800D01*
X1137018Y683322D01*
X1138422Y681222D01*
X1140522Y679818D01*
X1143000Y679326D01*
X1145478Y679818D01*
X1147578Y681222D01*
X1148982Y683322D01*
X1149474Y685800D01*
X1148982Y688278D01*
X1147578Y690378D01*
X1145478Y691782D01*
X1143000Y692274D01*
D02*
G37*
G36*
X1066800D02*
X1064322Y691782D01*
X1062222Y690378D01*
X1060818Y688278D01*
X1060326Y685800D01*
X1060818Y683322D01*
X1062222Y681222D01*
X1064322Y679818D01*
X1066800Y679326D01*
X1069278Y679818D01*
X1071378Y681222D01*
X1072782Y683322D01*
X1073274Y685800D01*
X1072782Y688278D01*
X1071378Y690378D01*
X1069278Y691782D01*
X1066800Y692274D01*
D02*
G37*
G36*
X1028700D02*
X1026222Y691782D01*
X1024122Y690378D01*
X1022718Y688278D01*
X1022226Y685800D01*
X1022718Y683322D01*
X1024122Y681222D01*
X1026222Y679818D01*
X1028700Y679326D01*
X1031178Y679818D01*
X1033278Y681222D01*
X1034682Y683322D01*
X1035174Y685800D01*
X1034682Y688278D01*
X1033278Y690378D01*
X1031178Y691782D01*
X1028700Y692274D01*
D02*
G37*
G36*
X990600D02*
X988122Y691782D01*
X986022Y690378D01*
X984618Y688278D01*
X984126Y685800D01*
X984618Y683322D01*
X986022Y681222D01*
X988122Y679818D01*
X990600Y679326D01*
X993078Y679818D01*
X995178Y681222D01*
X996582Y683322D01*
X997074Y685800D01*
X996582Y688278D01*
X995178Y690378D01*
X993078Y691782D01*
X990600Y692274D01*
D02*
G37*
G36*
X876300D02*
X873822Y691782D01*
X871722Y690378D01*
X870318Y688278D01*
X869826Y685800D01*
X870318Y683322D01*
X871722Y681222D01*
X873822Y679818D01*
X876300Y679326D01*
X878778Y679818D01*
X880878Y681222D01*
X882282Y683322D01*
X882774Y685800D01*
X882282Y688278D01*
X880878Y690378D01*
X878778Y691782D01*
X876300Y692274D01*
D02*
G37*
G36*
X838200D02*
X835722Y691782D01*
X833622Y690378D01*
X832218Y688278D01*
X831726Y685800D01*
X832218Y683322D01*
X833622Y681222D01*
X835722Y679818D01*
X838200Y679326D01*
X840678Y679818D01*
X842778Y681222D01*
X844182Y683322D01*
X844674Y685800D01*
X844182Y688278D01*
X842778Y690378D01*
X840678Y691782D01*
X838200Y692274D01*
D02*
G37*
G36*
X800100D02*
X797622Y691782D01*
X795522Y690378D01*
X794118Y688278D01*
X793626Y685800D01*
X794118Y683322D01*
X795522Y681222D01*
X797622Y679818D01*
X800100Y679326D01*
X802578Y679818D01*
X804678Y681222D01*
X806082Y683322D01*
X806574Y685800D01*
X806082Y688278D01*
X804678Y690378D01*
X802578Y691782D01*
X800100Y692274D01*
D02*
G37*
G36*
X533400D02*
X530922Y691782D01*
X528822Y690378D01*
X527418Y688278D01*
X526926Y685800D01*
X527418Y683322D01*
X528822Y681222D01*
X530922Y679818D01*
X533400Y679326D01*
X535878Y679818D01*
X537978Y681222D01*
X539382Y683322D01*
X539874Y685800D01*
X539382Y688278D01*
X537978Y690378D01*
X535878Y691782D01*
X533400Y692274D01*
D02*
G37*
G36*
X495300D02*
X492822Y691782D01*
X490722Y690378D01*
X489318Y688278D01*
X488826Y685800D01*
X489318Y683322D01*
X490722Y681222D01*
X492822Y679818D01*
X495300Y679326D01*
X497778Y679818D01*
X499878Y681222D01*
X501282Y683322D01*
X501774Y685800D01*
X501282Y688278D01*
X499878Y690378D01*
X497778Y691782D01*
X495300Y692274D01*
D02*
G37*
G36*
X381000D02*
X378522Y691782D01*
X376422Y690378D01*
X375018Y688278D01*
X374526Y685800D01*
X375018Y683322D01*
X376422Y681222D01*
X378522Y679818D01*
X381000Y679326D01*
X383478Y679818D01*
X385578Y681222D01*
X386982Y683322D01*
X387474Y685800D01*
X386982Y688278D01*
X385578Y690378D01*
X383478Y691782D01*
X381000Y692274D01*
D02*
G37*
G36*
X342900D02*
X340422Y691782D01*
X338322Y690378D01*
X336918Y688278D01*
X336426Y685800D01*
X336918Y683322D01*
X338322Y681222D01*
X340422Y679818D01*
X342900Y679326D01*
X345378Y679818D01*
X347478Y681222D01*
X348882Y683322D01*
X349374Y685800D01*
X348882Y688278D01*
X347478Y690378D01*
X345378Y691782D01*
X342900Y692274D01*
D02*
G37*
G36*
X304800D02*
X302322Y691782D01*
X300222Y690378D01*
X298818Y688278D01*
X298326Y685800D01*
X298818Y683322D01*
X300222Y681222D01*
X302322Y679818D01*
X304800Y679326D01*
X307278Y679818D01*
X309378Y681222D01*
X310782Y683322D01*
X311274Y685800D01*
X310782Y688278D01*
X309378Y690378D01*
X307278Y691782D01*
X304800Y692274D01*
D02*
G37*
G36*
X266700D02*
X264222Y691782D01*
X262122Y690378D01*
X260718Y688278D01*
X260226Y685800D01*
X260718Y683322D01*
X262122Y681222D01*
X264222Y679818D01*
X266700Y679326D01*
X269178Y679818D01*
X271278Y681222D01*
X272682Y683322D01*
X273174Y685800D01*
X272682Y688278D01*
X271278Y690378D01*
X269178Y691782D01*
X266700Y692274D01*
D02*
G37*
G36*
X749300Y685277D02*
X747070Y684833D01*
X745180Y683570D01*
X743917Y681680D01*
X743473Y679450D01*
X743917Y677220D01*
X745180Y675330D01*
X747070Y674067D01*
X749300Y673623D01*
X751530Y674067D01*
X753420Y675330D01*
X754683Y677220D01*
X755127Y679450D01*
X754683Y681680D01*
X753420Y683570D01*
X751530Y684833D01*
X749300Y685277D01*
D02*
G37*
G36*
X424180Y678927D02*
X421950Y678483D01*
X420060Y677220D01*
X418797Y675330D01*
X418353Y673100D01*
X418797Y670870D01*
X420060Y668980D01*
X421950Y667717D01*
X424180Y667273D01*
X426410Y667717D01*
X428300Y668980D01*
X429563Y670870D01*
X430007Y673100D01*
X429563Y675330D01*
X428300Y677220D01*
X426410Y678483D01*
X424180Y678927D01*
D02*
G37*
G36*
X687070Y676387D02*
X684840Y675943D01*
X682950Y674680D01*
X681687Y672790D01*
X681243Y670560D01*
X681687Y668330D01*
X682950Y666440D01*
X684840Y665177D01*
X687070Y664733D01*
X689300Y665177D01*
X691190Y666440D01*
X692453Y668330D01*
X692897Y670560D01*
X692453Y672790D01*
X691190Y674680D01*
X689300Y675943D01*
X687070Y676387D01*
D02*
G37*
G36*
X710261Y683676D02*
X708031Y683232D01*
X706141Y681969D01*
X704878Y680079D01*
X704434Y677849D01*
X704878Y675619D01*
X706141Y673728D01*
X708031Y672465D01*
X710261Y672022D01*
X712063Y672380D01*
X712876Y671311D01*
X712167Y670250D01*
X711723Y668020D01*
X712167Y665790D01*
X713430Y663900D01*
X715320Y662637D01*
X717550Y662193D01*
X719780Y662637D01*
X721670Y663900D01*
X722933Y665790D01*
X723377Y668020D01*
X722933Y670250D01*
X721670Y672140D01*
X719780Y673403D01*
X717550Y673847D01*
X715749Y673489D01*
X714936Y674557D01*
X715645Y675619D01*
X716088Y677849D01*
X715645Y680079D01*
X714381Y681969D01*
X712491Y683232D01*
X710261Y683676D01*
D02*
G37*
G36*
X764540Y668767D02*
X762310Y668323D01*
X760420Y667060D01*
X759157Y665170D01*
X758713Y662940D01*
X759157Y660710D01*
X760420Y658820D01*
X762310Y657557D01*
X764540Y657113D01*
X766770Y657557D01*
X768660Y658820D01*
X769923Y660710D01*
X770367Y662940D01*
X769923Y665170D01*
X768660Y667060D01*
X766770Y668323D01*
X764540Y668767D01*
D02*
G37*
G36*
X656189Y657659D02*
X653959Y657216D01*
X652069Y655953D01*
X650806Y654062D01*
X650362Y651832D01*
X650806Y649602D01*
X652069Y647712D01*
X653959Y646449D01*
X656189Y646005D01*
X658419Y646449D01*
X660309Y647712D01*
X661572Y649602D01*
X662016Y651832D01*
X661572Y654062D01*
X660309Y655953D01*
X658419Y657216D01*
X656189Y657659D01*
D02*
G37*
G36*
X1238250Y654174D02*
X1235772Y653682D01*
X1233672Y652278D01*
X1232268Y650178D01*
X1231776Y647700D01*
X1232268Y645222D01*
X1233672Y643122D01*
X1235772Y641718D01*
X1238250Y641226D01*
X1240728Y641718D01*
X1242828Y643122D01*
X1244232Y645222D01*
X1244724Y647700D01*
X1244232Y650178D01*
X1242828Y652278D01*
X1240728Y653682D01*
X1238250Y654174D01*
D02*
G37*
G36*
X1162050D02*
X1159572Y653682D01*
X1157472Y652278D01*
X1156068Y650178D01*
X1155576Y647700D01*
X1156068Y645222D01*
X1157472Y643122D01*
X1159572Y641718D01*
X1162050Y641226D01*
X1164528Y641718D01*
X1166628Y643122D01*
X1168032Y645222D01*
X1168524Y647700D01*
X1168032Y650178D01*
X1166628Y652278D01*
X1164528Y653682D01*
X1162050Y654174D01*
D02*
G37*
G36*
X1123950D02*
X1121472Y653682D01*
X1119372Y652278D01*
X1117968Y650178D01*
X1117476Y647700D01*
X1117968Y645222D01*
X1119372Y643122D01*
X1121472Y641718D01*
X1123950Y641226D01*
X1126428Y641718D01*
X1128528Y643122D01*
X1129932Y645222D01*
X1130424Y647700D01*
X1129932Y650178D01*
X1128528Y652278D01*
X1126428Y653682D01*
X1123950Y654174D01*
D02*
G37*
G36*
X1085850D02*
X1083372Y653682D01*
X1081272Y652278D01*
X1079868Y650178D01*
X1079376Y647700D01*
X1079868Y645222D01*
X1081272Y643122D01*
X1083372Y641718D01*
X1085850Y641226D01*
X1088328Y641718D01*
X1090428Y643122D01*
X1091832Y645222D01*
X1092324Y647700D01*
X1091832Y650178D01*
X1090428Y652278D01*
X1088328Y653682D01*
X1085850Y654174D01*
D02*
G37*
G36*
X1047750D02*
X1045272Y653682D01*
X1043172Y652278D01*
X1041768Y650178D01*
X1041276Y647700D01*
X1041768Y645222D01*
X1043172Y643122D01*
X1045272Y641718D01*
X1047750Y641226D01*
X1050228Y641718D01*
X1052328Y643122D01*
X1053732Y645222D01*
X1054224Y647700D01*
X1053732Y650178D01*
X1052328Y652278D01*
X1050228Y653682D01*
X1047750Y654174D01*
D02*
G37*
G36*
X1009650D02*
X1007172Y653682D01*
X1005072Y652278D01*
X1003668Y650178D01*
X1003176Y647700D01*
X1003668Y645222D01*
X1005072Y643122D01*
X1007172Y641718D01*
X1009650Y641226D01*
X1012128Y641718D01*
X1014228Y643122D01*
X1015632Y645222D01*
X1016124Y647700D01*
X1015632Y650178D01*
X1014228Y652278D01*
X1012128Y653682D01*
X1009650Y654174D01*
D02*
G37*
G36*
X933450D02*
X930972Y653682D01*
X928872Y652278D01*
X927468Y650178D01*
X926976Y647700D01*
X927468Y645222D01*
X928872Y643122D01*
X930972Y641718D01*
X933450Y641226D01*
X935928Y641718D01*
X938028Y643122D01*
X939432Y645222D01*
X939924Y647700D01*
X939432Y650178D01*
X938028Y652278D01*
X935928Y653682D01*
X933450Y654174D01*
D02*
G37*
G36*
X552450D02*
X549972Y653682D01*
X547872Y652278D01*
X546468Y650178D01*
X545976Y647700D01*
X546468Y645222D01*
X547872Y643122D01*
X549972Y641718D01*
X552450Y641226D01*
X554928Y641718D01*
X557028Y643122D01*
X558432Y645222D01*
X558924Y647700D01*
X558432Y650178D01*
X557028Y652278D01*
X554928Y653682D01*
X552450Y654174D01*
D02*
G37*
G36*
X514350D02*
X511872Y653682D01*
X509772Y652278D01*
X508368Y650178D01*
X507876Y647700D01*
X508368Y645222D01*
X509772Y643122D01*
X511872Y641718D01*
X514350Y641226D01*
X516828Y641718D01*
X518928Y643122D01*
X520332Y645222D01*
X520824Y647700D01*
X520332Y650178D01*
X518928Y652278D01*
X516828Y653682D01*
X514350Y654174D01*
D02*
G37*
G36*
X476250D02*
X473772Y653682D01*
X471672Y652278D01*
X470268Y650178D01*
X469776Y647700D01*
X470268Y645222D01*
X471672Y643122D01*
X473772Y641718D01*
X476250Y641226D01*
X478728Y641718D01*
X480828Y643122D01*
X482232Y645222D01*
X482724Y647700D01*
X482232Y650178D01*
X480828Y652278D01*
X478728Y653682D01*
X476250Y654174D01*
D02*
G37*
G36*
X438150D02*
X435672Y653682D01*
X433572Y652278D01*
X432168Y650178D01*
X431676Y647700D01*
X432168Y645222D01*
X433572Y643122D01*
X435672Y641718D01*
X438150Y641226D01*
X440628Y641718D01*
X442728Y643122D01*
X444132Y645222D01*
X444624Y647700D01*
X444132Y650178D01*
X442728Y652278D01*
X440628Y653682D01*
X438150Y654174D01*
D02*
G37*
G36*
X323850D02*
X321372Y653682D01*
X319272Y652278D01*
X317868Y650178D01*
X317376Y647700D01*
X317868Y645222D01*
X319272Y643122D01*
X321372Y641718D01*
X323850Y641226D01*
X326328Y641718D01*
X328428Y643122D01*
X329832Y645222D01*
X330324Y647700D01*
X329832Y650178D01*
X328428Y652278D01*
X326328Y653682D01*
X323850Y654174D01*
D02*
G37*
G36*
X285750D02*
X283272Y653682D01*
X281172Y652278D01*
X279768Y650178D01*
X279276Y647700D01*
X279768Y645222D01*
X281172Y643122D01*
X283272Y641718D01*
X285750Y641226D01*
X288228Y641718D01*
X290328Y643122D01*
X291732Y645222D01*
X292224Y647700D01*
X291732Y650178D01*
X290328Y652278D01*
X288228Y653682D01*
X285750Y654174D01*
D02*
G37*
G36*
X419230Y647830D02*
X398650D01*
Y627250D01*
X419230D01*
Y647830D01*
D02*
G37*
G36*
X383540Y647919D02*
X380854Y647565D01*
X378351Y646528D01*
X376201Y644879D01*
X374552Y642729D01*
X373515Y640226D01*
X373161Y637540D01*
X373515Y634854D01*
X374552Y632351D01*
X376201Y630201D01*
X378351Y628552D01*
X380854Y627515D01*
X383540Y627161D01*
X386226Y627515D01*
X388729Y628552D01*
X390879Y630201D01*
X392528Y632351D01*
X393565Y634854D01*
X393919Y637540D01*
X393565Y640226D01*
X392528Y642729D01*
X390879Y644879D01*
X388729Y646528D01*
X386226Y647565D01*
X383540Y647919D01*
D02*
G37*
G36*
X358140D02*
X355454Y647565D01*
X352951Y646528D01*
X350801Y644879D01*
X349152Y642729D01*
X348115Y640226D01*
X347761Y637540D01*
X348115Y634854D01*
X349152Y632351D01*
X350801Y630201D01*
X352951Y628552D01*
X355454Y627515D01*
X358140Y627161D01*
X360826Y627515D01*
X363329Y628552D01*
X365479Y630201D01*
X367128Y632351D01*
X368165Y634854D01*
X368519Y637540D01*
X368165Y640226D01*
X367128Y642729D01*
X365479Y644879D01*
X363329Y646528D01*
X360826Y647565D01*
X358140Y647919D01*
D02*
G37*
G36*
X1219200Y616074D02*
X1216722Y615582D01*
X1214622Y614178D01*
X1213218Y612078D01*
X1212726Y609600D01*
X1213218Y607122D01*
X1214622Y605022D01*
X1216722Y603618D01*
X1219200Y603126D01*
X1221678Y603618D01*
X1223778Y605022D01*
X1225182Y607122D01*
X1225674Y609600D01*
X1225182Y612078D01*
X1223778Y614178D01*
X1221678Y615582D01*
X1219200Y616074D01*
D02*
G37*
G36*
X1181100D02*
X1178622Y615582D01*
X1176522Y614178D01*
X1175118Y612078D01*
X1174626Y609600D01*
X1175118Y607122D01*
X1176522Y605022D01*
X1178622Y603618D01*
X1181100Y603126D01*
X1183578Y603618D01*
X1185678Y605022D01*
X1187082Y607122D01*
X1187574Y609600D01*
X1187082Y612078D01*
X1185678Y614178D01*
X1183578Y615582D01*
X1181100Y616074D01*
D02*
G37*
G36*
X1143000D02*
X1140522Y615582D01*
X1138422Y614178D01*
X1137018Y612078D01*
X1136526Y609600D01*
X1137018Y607122D01*
X1138422Y605022D01*
X1140522Y603618D01*
X1143000Y603126D01*
X1145478Y603618D01*
X1147578Y605022D01*
X1148982Y607122D01*
X1149474Y609600D01*
X1148982Y612078D01*
X1147578Y614178D01*
X1145478Y615582D01*
X1143000Y616074D01*
D02*
G37*
G36*
X1104900D02*
X1102422Y615582D01*
X1100322Y614178D01*
X1098918Y612078D01*
X1098426Y609600D01*
X1098918Y607122D01*
X1100322Y605022D01*
X1102422Y603618D01*
X1104900Y603126D01*
X1107378Y603618D01*
X1109478Y605022D01*
X1110882Y607122D01*
X1111374Y609600D01*
X1110882Y612078D01*
X1109478Y614178D01*
X1107378Y615582D01*
X1104900Y616074D01*
D02*
G37*
G36*
X1066800D02*
X1064322Y615582D01*
X1062222Y614178D01*
X1060818Y612078D01*
X1060326Y609600D01*
X1060818Y607122D01*
X1062222Y605022D01*
X1064322Y603618D01*
X1066800Y603126D01*
X1069278Y603618D01*
X1071378Y605022D01*
X1072782Y607122D01*
X1073274Y609600D01*
X1072782Y612078D01*
X1071378Y614178D01*
X1069278Y615582D01*
X1066800Y616074D01*
D02*
G37*
G36*
X1028700D02*
X1026222Y615582D01*
X1024122Y614178D01*
X1022718Y612078D01*
X1022226Y609600D01*
X1022718Y607122D01*
X1024122Y605022D01*
X1026222Y603618D01*
X1028700Y603126D01*
X1031178Y603618D01*
X1033278Y605022D01*
X1034682Y607122D01*
X1035174Y609600D01*
X1034682Y612078D01*
X1033278Y614178D01*
X1031178Y615582D01*
X1028700Y616074D01*
D02*
G37*
G36*
X990600D02*
X988122Y615582D01*
X986022Y614178D01*
X984618Y612078D01*
X984126Y609600D01*
X984618Y607122D01*
X986022Y605022D01*
X988122Y603618D01*
X990600Y603126D01*
X993078Y603618D01*
X995178Y605022D01*
X996582Y607122D01*
X997074Y609600D01*
X996582Y612078D01*
X995178Y614178D01*
X993078Y615582D01*
X990600Y616074D01*
D02*
G37*
G36*
X952500D02*
X950022Y615582D01*
X947922Y614178D01*
X946518Y612078D01*
X946026Y609600D01*
X946518Y607122D01*
X947922Y605022D01*
X950022Y603618D01*
X952500Y603126D01*
X954978Y603618D01*
X957078Y605022D01*
X958482Y607122D01*
X958974Y609600D01*
X958482Y612078D01*
X957078Y614178D01*
X954978Y615582D01*
X952500Y616074D01*
D02*
G37*
G36*
X914400D02*
X911922Y615582D01*
X909822Y614178D01*
X908418Y612078D01*
X907926Y609600D01*
X908418Y607122D01*
X909822Y605022D01*
X911922Y603618D01*
X914400Y603126D01*
X916878Y603618D01*
X918978Y605022D01*
X920382Y607122D01*
X920874Y609600D01*
X920382Y612078D01*
X918978Y614178D01*
X916878Y615582D01*
X914400Y616074D01*
D02*
G37*
G36*
X876300D02*
X873822Y615582D01*
X871722Y614178D01*
X870318Y612078D01*
X869826Y609600D01*
X870318Y607122D01*
X871722Y605022D01*
X873822Y603618D01*
X876300Y603126D01*
X878778Y603618D01*
X880878Y605022D01*
X882282Y607122D01*
X882774Y609600D01*
X882282Y612078D01*
X880878Y614178D01*
X878778Y615582D01*
X876300Y616074D01*
D02*
G37*
G36*
X838200D02*
X835722Y615582D01*
X833622Y614178D01*
X832218Y612078D01*
X831726Y609600D01*
X832218Y607122D01*
X833622Y605022D01*
X835722Y603618D01*
X838200Y603126D01*
X840678Y603618D01*
X842778Y605022D01*
X844182Y607122D01*
X844674Y609600D01*
X844182Y612078D01*
X842778Y614178D01*
X840678Y615582D01*
X838200Y616074D01*
D02*
G37*
G36*
X800100D02*
X797622Y615582D01*
X795522Y614178D01*
X794118Y612078D01*
X793626Y609600D01*
X794118Y607122D01*
X795522Y605022D01*
X797622Y603618D01*
X800100Y603126D01*
X802578Y603618D01*
X804678Y605022D01*
X806082Y607122D01*
X806574Y609600D01*
X806082Y612078D01*
X804678Y614178D01*
X802578Y615582D01*
X800100Y616074D01*
D02*
G37*
G36*
X609600D02*
X607122Y615582D01*
X605022Y614178D01*
X603618Y612078D01*
X603126Y609600D01*
X603618Y607122D01*
X605022Y605022D01*
X607122Y603618D01*
X609600Y603126D01*
X612078Y603618D01*
X614178Y605022D01*
X615582Y607122D01*
X616074Y609600D01*
X615582Y612078D01*
X614178Y614178D01*
X612078Y615582D01*
X609600Y616074D01*
D02*
G37*
G36*
X533400D02*
X530922Y615582D01*
X528822Y614178D01*
X527418Y612078D01*
X526926Y609600D01*
X527418Y607122D01*
X528822Y605022D01*
X530922Y603618D01*
X533400Y603126D01*
X535878Y603618D01*
X537978Y605022D01*
X539382Y607122D01*
X539874Y609600D01*
X539382Y612078D01*
X537978Y614178D01*
X535878Y615582D01*
X533400Y616074D01*
D02*
G37*
G36*
X495300D02*
X492822Y615582D01*
X490722Y614178D01*
X489318Y612078D01*
X488826Y609600D01*
X489318Y607122D01*
X490722Y605022D01*
X492822Y603618D01*
X495300Y603126D01*
X497778Y603618D01*
X499878Y605022D01*
X501282Y607122D01*
X501774Y609600D01*
X501282Y612078D01*
X499878Y614178D01*
X497778Y615582D01*
X495300Y616074D01*
D02*
G37*
G36*
X457200D02*
X454722Y615582D01*
X452622Y614178D01*
X451218Y612078D01*
X450726Y609600D01*
X451218Y607122D01*
X452622Y605022D01*
X454722Y603618D01*
X457200Y603126D01*
X459678Y603618D01*
X461778Y605022D01*
X463182Y607122D01*
X463674Y609600D01*
X463182Y612078D01*
X461778Y614178D01*
X459678Y615582D01*
X457200Y616074D01*
D02*
G37*
G36*
X419100D02*
X416622Y615582D01*
X414522Y614178D01*
X413118Y612078D01*
X412626Y609600D01*
X413118Y607122D01*
X414522Y605022D01*
X416622Y603618D01*
X419100Y603126D01*
X421578Y603618D01*
X423678Y605022D01*
X425082Y607122D01*
X425574Y609600D01*
X425082Y612078D01*
X423678Y614178D01*
X421578Y615582D01*
X419100Y616074D01*
D02*
G37*
G36*
X381000D02*
X378522Y615582D01*
X376422Y614178D01*
X375018Y612078D01*
X374526Y609600D01*
X375018Y607122D01*
X376422Y605022D01*
X378522Y603618D01*
X381000Y603126D01*
X383478Y603618D01*
X385578Y605022D01*
X386982Y607122D01*
X387474Y609600D01*
X386982Y612078D01*
X385578Y614178D01*
X383478Y615582D01*
X381000Y616074D01*
D02*
G37*
G36*
X342900D02*
X340422Y615582D01*
X338322Y614178D01*
X336918Y612078D01*
X336426Y609600D01*
X336918Y607122D01*
X338322Y605022D01*
X340422Y603618D01*
X342900Y603126D01*
X345378Y603618D01*
X347478Y605022D01*
X348882Y607122D01*
X349374Y609600D01*
X348882Y612078D01*
X347478Y614178D01*
X345378Y615582D01*
X342900Y616074D01*
D02*
G37*
G36*
X304800D02*
X302322Y615582D01*
X300222Y614178D01*
X298818Y612078D01*
X298326Y609600D01*
X298818Y607122D01*
X300222Y605022D01*
X302322Y603618D01*
X304800Y603126D01*
X307278Y603618D01*
X309378Y605022D01*
X310782Y607122D01*
X311274Y609600D01*
X310782Y612078D01*
X309378Y614178D01*
X307278Y615582D01*
X304800Y616074D01*
D02*
G37*
G36*
X266700D02*
X264222Y615582D01*
X262122Y614178D01*
X260718Y612078D01*
X260226Y609600D01*
X260718Y607122D01*
X262122Y605022D01*
X264222Y603618D01*
X266700Y603126D01*
X269178Y603618D01*
X271278Y605022D01*
X272682Y607122D01*
X273174Y609600D01*
X272682Y612078D01*
X271278Y614178D01*
X269178Y615582D01*
X266700Y616074D01*
D02*
G37*
G36*
X642620Y603997D02*
X640390Y603553D01*
X638500Y602290D01*
X637237Y600400D01*
X636793Y598170D01*
X637237Y595940D01*
X638500Y594050D01*
X640390Y592787D01*
X642620Y592343D01*
X644850Y592787D01*
X646740Y594050D01*
X648003Y595940D01*
X648447Y598170D01*
X648003Y600400D01*
X646740Y602290D01*
X644850Y603553D01*
X642620Y603997D01*
D02*
G37*
G36*
X731520Y602727D02*
X729290Y602283D01*
X727400Y601020D01*
X726137Y599130D01*
X725693Y596900D01*
X726137Y594670D01*
X727400Y592780D01*
X729290Y591517D01*
X731520Y591073D01*
X733750Y591517D01*
X735640Y592780D01*
X736903Y594670D01*
X737347Y596900D01*
X736903Y599130D01*
X735640Y601020D01*
X733750Y602283D01*
X731520Y602727D01*
D02*
G37*
G36*
X642620Y584947D02*
X640390Y584503D01*
X638500Y583240D01*
X637237Y581350D01*
X636793Y579120D01*
X637237Y576890D01*
X638500Y575000D01*
X640390Y573737D01*
X642620Y573293D01*
X644850Y573737D01*
X646740Y575000D01*
X648003Y576890D01*
X648447Y579120D01*
X648003Y581350D01*
X646740Y583240D01*
X644850Y584503D01*
X642620Y584947D01*
D02*
G37*
G36*
X1238250Y577974D02*
X1235772Y577482D01*
X1233672Y576078D01*
X1232268Y573978D01*
X1231776Y571500D01*
X1232268Y569022D01*
X1233672Y566922D01*
X1235772Y565518D01*
X1238250Y565026D01*
X1240728Y565518D01*
X1242828Y566922D01*
X1244232Y569022D01*
X1244724Y571500D01*
X1244232Y573978D01*
X1242828Y576078D01*
X1240728Y577482D01*
X1238250Y577974D01*
D02*
G37*
G36*
X1200150D02*
X1197672Y577482D01*
X1195572Y576078D01*
X1194168Y573978D01*
X1193676Y571500D01*
X1194168Y569022D01*
X1195572Y566922D01*
X1197672Y565518D01*
X1200150Y565026D01*
X1202628Y565518D01*
X1204728Y566922D01*
X1206132Y569022D01*
X1206624Y571500D01*
X1206132Y573978D01*
X1204728Y576078D01*
X1202628Y577482D01*
X1200150Y577974D01*
D02*
G37*
G36*
X1162050D02*
X1159572Y577482D01*
X1157472Y576078D01*
X1156068Y573978D01*
X1155576Y571500D01*
X1156068Y569022D01*
X1157472Y566922D01*
X1159572Y565518D01*
X1162050Y565026D01*
X1164528Y565518D01*
X1166628Y566922D01*
X1168032Y569022D01*
X1168524Y571500D01*
X1168032Y573978D01*
X1166628Y576078D01*
X1164528Y577482D01*
X1162050Y577974D01*
D02*
G37*
G36*
X1009650D02*
X1007172Y577482D01*
X1005072Y576078D01*
X1003668Y573978D01*
X1003176Y571500D01*
X1003668Y569022D01*
X1005072Y566922D01*
X1007172Y565518D01*
X1009650Y565026D01*
X1012128Y565518D01*
X1014228Y566922D01*
X1015632Y569022D01*
X1016124Y571500D01*
X1015632Y573978D01*
X1014228Y576078D01*
X1012128Y577482D01*
X1009650Y577974D01*
D02*
G37*
G36*
X971550D02*
X969072Y577482D01*
X966972Y576078D01*
X965568Y573978D01*
X965076Y571500D01*
X965568Y569022D01*
X966972Y566922D01*
X969072Y565518D01*
X971550Y565026D01*
X974028Y565518D01*
X976128Y566922D01*
X977532Y569022D01*
X978024Y571500D01*
X977532Y573978D01*
X976128Y576078D01*
X974028Y577482D01*
X971550Y577974D01*
D02*
G37*
G36*
X933450D02*
X930972Y577482D01*
X928872Y576078D01*
X927468Y573978D01*
X926976Y571500D01*
X927468Y569022D01*
X928872Y566922D01*
X930972Y565518D01*
X933450Y565026D01*
X935928Y565518D01*
X938028Y566922D01*
X939432Y569022D01*
X939924Y571500D01*
X939432Y573978D01*
X938028Y576078D01*
X935928Y577482D01*
X933450Y577974D01*
D02*
G37*
G36*
X895350D02*
X892872Y577482D01*
X890772Y576078D01*
X889368Y573978D01*
X888876Y571500D01*
X889368Y569022D01*
X890772Y566922D01*
X892872Y565518D01*
X895350Y565026D01*
X897828Y565518D01*
X899928Y566922D01*
X901332Y569022D01*
X901824Y571500D01*
X901332Y573978D01*
X899928Y576078D01*
X897828Y577482D01*
X895350Y577974D01*
D02*
G37*
G36*
X857250D02*
X854772Y577482D01*
X852672Y576078D01*
X851268Y573978D01*
X850776Y571500D01*
X851268Y569022D01*
X852672Y566922D01*
X854772Y565518D01*
X857250Y565026D01*
X859728Y565518D01*
X861828Y566922D01*
X863232Y569022D01*
X863724Y571500D01*
X863232Y573978D01*
X861828Y576078D01*
X859728Y577482D01*
X857250Y577974D01*
D02*
G37*
G36*
X819150D02*
X816672Y577482D01*
X814572Y576078D01*
X813168Y573978D01*
X812676Y571500D01*
X813168Y569022D01*
X814572Y566922D01*
X816672Y565518D01*
X819150Y565026D01*
X821628Y565518D01*
X823728Y566922D01*
X825132Y569022D01*
X825624Y571500D01*
X825132Y573978D01*
X823728Y576078D01*
X821628Y577482D01*
X819150Y577974D01*
D02*
G37*
G36*
X781050D02*
X778572Y577482D01*
X776472Y576078D01*
X775068Y573978D01*
X774576Y571500D01*
X775068Y569022D01*
X776472Y566922D01*
X778572Y565518D01*
X781050Y565026D01*
X783528Y565518D01*
X785628Y566922D01*
X787032Y569022D01*
X787524Y571500D01*
X787032Y573978D01*
X785628Y576078D01*
X783528Y577482D01*
X781050Y577974D01*
D02*
G37*
G36*
X704850D02*
X702372Y577482D01*
X700272Y576078D01*
X698868Y573978D01*
X698376Y571500D01*
X698868Y569022D01*
X700272Y566922D01*
X702372Y565518D01*
X704850Y565026D01*
X707328Y565518D01*
X709428Y566922D01*
X710832Y569022D01*
X711324Y571500D01*
X710832Y573978D01*
X709428Y576078D01*
X707328Y577482D01*
X704850Y577974D01*
D02*
G37*
G36*
X666750D02*
X664272Y577482D01*
X662172Y576078D01*
X660768Y573978D01*
X660276Y571500D01*
X660768Y569022D01*
X662172Y566922D01*
X664272Y565518D01*
X666750Y565026D01*
X669228Y565518D01*
X671328Y566922D01*
X672732Y569022D01*
X673224Y571500D01*
X672732Y573978D01*
X671328Y576078D01*
X669228Y577482D01*
X666750Y577974D01*
D02*
G37*
G36*
X628650D02*
X626172Y577482D01*
X624072Y576078D01*
X622668Y573978D01*
X622176Y571500D01*
X622668Y569022D01*
X624072Y566922D01*
X626172Y565518D01*
X628650Y565026D01*
X631128Y565518D01*
X633228Y566922D01*
X634632Y569022D01*
X635124Y571500D01*
X634632Y573978D01*
X633228Y576078D01*
X631128Y577482D01*
X628650Y577974D01*
D02*
G37*
G36*
X590550D02*
X588072Y577482D01*
X585972Y576078D01*
X584568Y573978D01*
X584076Y571500D01*
X584568Y569022D01*
X585972Y566922D01*
X588072Y565518D01*
X590550Y565026D01*
X593028Y565518D01*
X595128Y566922D01*
X596532Y569022D01*
X597024Y571500D01*
X596532Y573978D01*
X595128Y576078D01*
X593028Y577482D01*
X590550Y577974D01*
D02*
G37*
G36*
X552450D02*
X549972Y577482D01*
X547872Y576078D01*
X546468Y573978D01*
X545976Y571500D01*
X546468Y569022D01*
X547872Y566922D01*
X549972Y565518D01*
X552450Y565026D01*
X554928Y565518D01*
X557028Y566922D01*
X558432Y569022D01*
X558924Y571500D01*
X558432Y573978D01*
X557028Y576078D01*
X554928Y577482D01*
X552450Y577974D01*
D02*
G37*
G36*
X438150D02*
X435672Y577482D01*
X433572Y576078D01*
X432168Y573978D01*
X431676Y571500D01*
X432168Y569022D01*
X433572Y566922D01*
X435672Y565518D01*
X438150Y565026D01*
X440628Y565518D01*
X442728Y566922D01*
X444132Y569022D01*
X444624Y571500D01*
X444132Y573978D01*
X442728Y576078D01*
X440628Y577482D01*
X438150Y577974D01*
D02*
G37*
G36*
X400050D02*
X397572Y577482D01*
X395472Y576078D01*
X394068Y573978D01*
X393576Y571500D01*
X394068Y569022D01*
X395472Y566922D01*
X397572Y565518D01*
X400050Y565026D01*
X402528Y565518D01*
X404628Y566922D01*
X406032Y569022D01*
X406524Y571500D01*
X406032Y573978D01*
X404628Y576078D01*
X402528Y577482D01*
X400050Y577974D01*
D02*
G37*
G36*
X361950D02*
X359472Y577482D01*
X357372Y576078D01*
X355968Y573978D01*
X355476Y571500D01*
X355968Y569022D01*
X357372Y566922D01*
X359472Y565518D01*
X361950Y565026D01*
X364428Y565518D01*
X366528Y566922D01*
X367932Y569022D01*
X368424Y571500D01*
X367932Y573978D01*
X366528Y576078D01*
X364428Y577482D01*
X361950Y577974D01*
D02*
G37*
G36*
X323850D02*
X321372Y577482D01*
X319272Y576078D01*
X317868Y573978D01*
X317376Y571500D01*
X317868Y569022D01*
X319272Y566922D01*
X321372Y565518D01*
X323850Y565026D01*
X326328Y565518D01*
X328428Y566922D01*
X329832Y569022D01*
X330324Y571500D01*
X329832Y573978D01*
X328428Y576078D01*
X326328Y577482D01*
X323850Y577974D01*
D02*
G37*
G36*
X285750D02*
X283272Y577482D01*
X281172Y576078D01*
X279768Y573978D01*
X279276Y571500D01*
X279768Y569022D01*
X281172Y566922D01*
X283272Y565518D01*
X285750Y565026D01*
X288228Y565518D01*
X290328Y566922D01*
X291732Y569022D01*
X292224Y571500D01*
X291732Y573978D01*
X290328Y576078D01*
X288228Y577482D01*
X285750Y577974D01*
D02*
G37*
G36*
X762380Y545210D02*
X753110D01*
Y535940D01*
X762380D01*
Y545210D01*
D02*
G37*
G36*
X750570D02*
X741300D01*
Y535940D01*
X750570D01*
Y545210D01*
D02*
G37*
G36*
X1219200Y539874D02*
X1216722Y539382D01*
X1214622Y537978D01*
X1213218Y535878D01*
X1212726Y533400D01*
X1213218Y530922D01*
X1214622Y528822D01*
X1216722Y527418D01*
X1219200Y526926D01*
X1221678Y527418D01*
X1223778Y528822D01*
X1225182Y530922D01*
X1225674Y533400D01*
X1225182Y535878D01*
X1223778Y537978D01*
X1221678Y539382D01*
X1219200Y539874D01*
D02*
G37*
G36*
X1181100D02*
X1178622Y539382D01*
X1176522Y537978D01*
X1175118Y535878D01*
X1174626Y533400D01*
X1175118Y530922D01*
X1176522Y528822D01*
X1178622Y527418D01*
X1181100Y526926D01*
X1183578Y527418D01*
X1185678Y528822D01*
X1187082Y530922D01*
X1187574Y533400D01*
X1187082Y535878D01*
X1185678Y537978D01*
X1183578Y539382D01*
X1181100Y539874D01*
D02*
G37*
G36*
X1143000D02*
X1140522Y539382D01*
X1138422Y537978D01*
X1137018Y535878D01*
X1136526Y533400D01*
X1137018Y530922D01*
X1138422Y528822D01*
X1140522Y527418D01*
X1143000Y526926D01*
X1145478Y527418D01*
X1147578Y528822D01*
X1148982Y530922D01*
X1149474Y533400D01*
X1148982Y535878D01*
X1147578Y537978D01*
X1145478Y539382D01*
X1143000Y539874D01*
D02*
G37*
G36*
X1104900D02*
X1102422Y539382D01*
X1100322Y537978D01*
X1098918Y535878D01*
X1098426Y533400D01*
X1098918Y530922D01*
X1100322Y528822D01*
X1102422Y527418D01*
X1104900Y526926D01*
X1107378Y527418D01*
X1109478Y528822D01*
X1110882Y530922D01*
X1111374Y533400D01*
X1110882Y535878D01*
X1109478Y537978D01*
X1107378Y539382D01*
X1104900Y539874D01*
D02*
G37*
G36*
X1066800D02*
X1064322Y539382D01*
X1062222Y537978D01*
X1060818Y535878D01*
X1060326Y533400D01*
X1060818Y530922D01*
X1062222Y528822D01*
X1064322Y527418D01*
X1066800Y526926D01*
X1069278Y527418D01*
X1071378Y528822D01*
X1072782Y530922D01*
X1073274Y533400D01*
X1072782Y535878D01*
X1071378Y537978D01*
X1069278Y539382D01*
X1066800Y539874D01*
D02*
G37*
G36*
X1028700D02*
X1026222Y539382D01*
X1024122Y537978D01*
X1022718Y535878D01*
X1022226Y533400D01*
X1022718Y530922D01*
X1024122Y528822D01*
X1026222Y527418D01*
X1028700Y526926D01*
X1031178Y527418D01*
X1033278Y528822D01*
X1034682Y530922D01*
X1035174Y533400D01*
X1034682Y535878D01*
X1033278Y537978D01*
X1031178Y539382D01*
X1028700Y539874D01*
D02*
G37*
G36*
X990600D02*
X988122Y539382D01*
X986022Y537978D01*
X984618Y535878D01*
X984126Y533400D01*
X984618Y530922D01*
X986022Y528822D01*
X988122Y527418D01*
X990600Y526926D01*
X993078Y527418D01*
X995178Y528822D01*
X996582Y530922D01*
X997074Y533400D01*
X996582Y535878D01*
X995178Y537978D01*
X993078Y539382D01*
X990600Y539874D01*
D02*
G37*
G36*
X952500D02*
X950022Y539382D01*
X947922Y537978D01*
X946518Y535878D01*
X946026Y533400D01*
X946518Y530922D01*
X947922Y528822D01*
X950022Y527418D01*
X952500Y526926D01*
X954978Y527418D01*
X957078Y528822D01*
X958482Y530922D01*
X958974Y533400D01*
X958482Y535878D01*
X957078Y537978D01*
X954978Y539382D01*
X952500Y539874D01*
D02*
G37*
G36*
X914400D02*
X911922Y539382D01*
X909822Y537978D01*
X908418Y535878D01*
X907926Y533400D01*
X908418Y530922D01*
X909822Y528822D01*
X911922Y527418D01*
X914400Y526926D01*
X916878Y527418D01*
X918978Y528822D01*
X920382Y530922D01*
X920874Y533400D01*
X920382Y535878D01*
X918978Y537978D01*
X916878Y539382D01*
X914400Y539874D01*
D02*
G37*
G36*
X876300D02*
X873822Y539382D01*
X871722Y537978D01*
X870318Y535878D01*
X869826Y533400D01*
X870318Y530922D01*
X871722Y528822D01*
X873822Y527418D01*
X876300Y526926D01*
X878778Y527418D01*
X880878Y528822D01*
X882282Y530922D01*
X882774Y533400D01*
X882282Y535878D01*
X880878Y537978D01*
X878778Y539382D01*
X876300Y539874D01*
D02*
G37*
G36*
X838200D02*
X835722Y539382D01*
X833622Y537978D01*
X832218Y535878D01*
X831726Y533400D01*
X832218Y530922D01*
X833622Y528822D01*
X835722Y527418D01*
X838200Y526926D01*
X840678Y527418D01*
X842778Y528822D01*
X844182Y530922D01*
X844674Y533400D01*
X844182Y535878D01*
X842778Y537978D01*
X840678Y539382D01*
X838200Y539874D01*
D02*
G37*
G36*
X800100D02*
X797622Y539382D01*
X795522Y537978D01*
X794118Y535878D01*
X793626Y533400D01*
X794118Y530922D01*
X795522Y528822D01*
X797622Y527418D01*
X800100Y526926D01*
X802578Y527418D01*
X804678Y528822D01*
X806082Y530922D01*
X806574Y533400D01*
X806082Y535878D01*
X804678Y537978D01*
X802578Y539382D01*
X800100Y539874D01*
D02*
G37*
G36*
X533400D02*
X530922Y539382D01*
X528822Y537978D01*
X527418Y535878D01*
X526926Y533400D01*
X527418Y530922D01*
X528822Y528822D01*
X530922Y527418D01*
X533400Y526926D01*
X535878Y527418D01*
X537978Y528822D01*
X539382Y530922D01*
X539874Y533400D01*
X539382Y535878D01*
X537978Y537978D01*
X535878Y539382D01*
X533400Y539874D01*
D02*
G37*
G36*
X495300D02*
X492822Y539382D01*
X490722Y537978D01*
X489318Y535878D01*
X488826Y533400D01*
X489318Y530922D01*
X490722Y528822D01*
X492822Y527418D01*
X495300Y526926D01*
X497778Y527418D01*
X499878Y528822D01*
X501282Y530922D01*
X501774Y533400D01*
X501282Y535878D01*
X499878Y537978D01*
X497778Y539382D01*
X495300Y539874D01*
D02*
G37*
G36*
X457200D02*
X454722Y539382D01*
X452622Y537978D01*
X451218Y535878D01*
X450726Y533400D01*
X451218Y530922D01*
X452622Y528822D01*
X454722Y527418D01*
X457200Y526926D01*
X459678Y527418D01*
X461778Y528822D01*
X463182Y530922D01*
X463674Y533400D01*
X463182Y535878D01*
X461778Y537978D01*
X459678Y539382D01*
X457200Y539874D01*
D02*
G37*
G36*
X419100D02*
X416622Y539382D01*
X414522Y537978D01*
X413118Y535878D01*
X412626Y533400D01*
X413118Y530922D01*
X414522Y528822D01*
X416622Y527418D01*
X419100Y526926D01*
X421578Y527418D01*
X423678Y528822D01*
X425082Y530922D01*
X425574Y533400D01*
X425082Y535878D01*
X423678Y537978D01*
X421578Y539382D01*
X419100Y539874D01*
D02*
G37*
G36*
X381000D02*
X378522Y539382D01*
X376422Y537978D01*
X375018Y535878D01*
X374526Y533400D01*
X375018Y530922D01*
X376422Y528822D01*
X378522Y527418D01*
X381000Y526926D01*
X383478Y527418D01*
X385578Y528822D01*
X386982Y530922D01*
X387474Y533400D01*
X386982Y535878D01*
X385578Y537978D01*
X383478Y539382D01*
X381000Y539874D01*
D02*
G37*
G36*
X342900D02*
X340422Y539382D01*
X338322Y537978D01*
X336918Y535878D01*
X336426Y533400D01*
X336918Y530922D01*
X338322Y528822D01*
X340422Y527418D01*
X342900Y526926D01*
X345378Y527418D01*
X347478Y528822D01*
X348882Y530922D01*
X349374Y533400D01*
X348882Y535878D01*
X347478Y537978D01*
X345378Y539382D01*
X342900Y539874D01*
D02*
G37*
G36*
X304800D02*
X302322Y539382D01*
X300222Y537978D01*
X298818Y535878D01*
X298326Y533400D01*
X298818Y530922D01*
X300222Y528822D01*
X302322Y527418D01*
X304800Y526926D01*
X307278Y527418D01*
X309378Y528822D01*
X310782Y530922D01*
X311274Y533400D01*
X310782Y535878D01*
X309378Y537978D01*
X307278Y539382D01*
X304800Y539874D01*
D02*
G37*
G36*
X266700D02*
X264222Y539382D01*
X262122Y537978D01*
X260718Y535878D01*
X260226Y533400D01*
X260718Y530922D01*
X262122Y528822D01*
X264222Y527418D01*
X266700Y526926D01*
X269178Y527418D01*
X271278Y528822D01*
X272682Y530922D01*
X273174Y533400D01*
X272682Y535878D01*
X271278Y537978D01*
X269178Y539382D01*
X266700Y539874D01*
D02*
G37*
G36*
X762380Y533400D02*
X753110D01*
Y524130D01*
X762380D01*
Y533400D01*
D02*
G37*
G36*
X750570D02*
X741300D01*
Y524130D01*
X750570D01*
Y533400D01*
D02*
G37*
G36*
X726440Y545301D02*
X723689Y544939D01*
X721124Y543877D01*
X718923Y542187D01*
X717233Y539986D01*
X716171Y537421D01*
X715809Y534670D01*
X716171Y531918D01*
X717233Y529355D01*
X718923Y527153D01*
X721124Y525463D01*
X723689Y524401D01*
X726440Y524039D01*
X729192Y524401D01*
X731756Y525463D01*
X733957Y527153D01*
X735647Y529355D01*
X736709Y531918D01*
X737071Y534670D01*
X736709Y537421D01*
X735647Y539986D01*
X733957Y542187D01*
X731756Y543877D01*
X729192Y544939D01*
X726440Y545301D01*
D02*
G37*
G36*
X701040D02*
X698288Y544939D01*
X695724Y543877D01*
X693523Y542187D01*
X691833Y539986D01*
X690771Y537421D01*
X690409Y534670D01*
X690771Y531918D01*
X691833Y529355D01*
X693523Y527153D01*
X695724Y525463D01*
X698288Y524401D01*
X701040Y524039D01*
X703792Y524401D01*
X706356Y525463D01*
X708557Y527153D01*
X710247Y529355D01*
X711309Y531918D01*
X711671Y534670D01*
X711309Y537421D01*
X710247Y539986D01*
X708557Y542187D01*
X706356Y543877D01*
X703792Y544939D01*
X701040Y545301D01*
D02*
G37*
G36*
X675640D02*
X672888Y544939D01*
X670324Y543877D01*
X668123Y542187D01*
X666433Y539986D01*
X665371Y537421D01*
X665009Y534670D01*
X665371Y531918D01*
X666433Y529355D01*
X668123Y527153D01*
X670324Y525463D01*
X672888Y524401D01*
X675640Y524039D01*
X678391Y524401D01*
X680956Y525463D01*
X683157Y527153D01*
X684847Y529355D01*
X685909Y531918D01*
X686271Y534670D01*
X685909Y537421D01*
X684847Y539986D01*
X683157Y542187D01*
X680956Y543877D01*
X678391Y544939D01*
X675640Y545301D01*
D02*
G37*
G36*
X650240D02*
X647488Y544939D01*
X644924Y543877D01*
X642723Y542187D01*
X641033Y539986D01*
X639971Y537421D01*
X639609Y534670D01*
X639971Y531918D01*
X641033Y529355D01*
X642723Y527153D01*
X644924Y525463D01*
X647488Y524401D01*
X650240Y524039D01*
X652991Y524401D01*
X655555Y525463D01*
X657757Y527153D01*
X659447Y529355D01*
X660509Y531918D01*
X660871Y534670D01*
X660509Y537421D01*
X659447Y539986D01*
X657757Y542187D01*
X655555Y543877D01*
X652991Y544939D01*
X650240Y545301D01*
D02*
G37*
G36*
X624840D02*
X622089Y544939D01*
X619524Y543877D01*
X617323Y542187D01*
X615633Y539986D01*
X614571Y537421D01*
X614209Y534670D01*
X614571Y531918D01*
X615633Y529355D01*
X617323Y527153D01*
X619524Y525463D01*
X622089Y524401D01*
X624840Y524039D01*
X627592Y524401D01*
X630155Y525463D01*
X632357Y527153D01*
X634047Y529355D01*
X635109Y531918D01*
X635471Y534670D01*
X635109Y537421D01*
X634047Y539986D01*
X632357Y542187D01*
X630155Y543877D01*
X627592Y544939D01*
X624840Y545301D01*
D02*
G37*
G36*
X599440D02*
X596688Y544939D01*
X594124Y543877D01*
X591923Y542187D01*
X590233Y539986D01*
X589171Y537421D01*
X588809Y534670D01*
X589171Y531918D01*
X590233Y529355D01*
X591923Y527153D01*
X594124Y525463D01*
X596688Y524401D01*
X599440Y524039D01*
X602192Y524401D01*
X604756Y525463D01*
X606957Y527153D01*
X608647Y529355D01*
X609709Y531918D01*
X610071Y534670D01*
X609709Y537421D01*
X608647Y539986D01*
X606957Y542187D01*
X604756Y543877D01*
X602192Y544939D01*
X599440Y545301D01*
D02*
G37*
G36*
X574040D02*
X571288Y544939D01*
X568725Y543877D01*
X566523Y542187D01*
X564833Y539986D01*
X563771Y537421D01*
X563409Y534670D01*
X563771Y531918D01*
X564833Y529355D01*
X566523Y527153D01*
X568725Y525463D01*
X571288Y524401D01*
X574040Y524039D01*
X576791Y524401D01*
X579356Y525463D01*
X581557Y527153D01*
X583247Y529355D01*
X584309Y531918D01*
X584671Y534670D01*
X584309Y537421D01*
X583247Y539986D01*
X581557Y542187D01*
X579356Y543877D01*
X576791Y544939D01*
X574040Y545301D01*
D02*
G37*
%LPD*%
D73*
X1172210Y911860D02*
D03*
X1146810D02*
D03*
X358140Y637540D02*
D03*
X383540D02*
D03*
D74*
X1121410Y911860D02*
D03*
X408940Y637540D02*
D03*
D81*
X293521Y729620D02*
D03*
Y769620D02*
D03*
D82*
X574040Y534670D02*
D03*
X599440D02*
D03*
X650240D02*
D03*
X701040D02*
D03*
X726440D02*
D03*
X675640D02*
D03*
X624840D02*
D03*
D83*
X751840D02*
D03*
D84*
X1238250Y952500D02*
D03*
X1219200Y838200D02*
D03*
Y762000D02*
D03*
X1238250Y723900D02*
D03*
Y647700D02*
D03*
X1219200Y609600D02*
D03*
X1238250Y571500D02*
D03*
X1219200Y533400D02*
D03*
X1200150Y876300D02*
D03*
X1181100Y838200D02*
D03*
X1200150Y800100D02*
D03*
X1181100Y762000D02*
D03*
Y609600D02*
D03*
X1200150Y571500D02*
D03*
X1181100Y533400D02*
D03*
X1162050Y876300D02*
D03*
X1143000Y838200D02*
D03*
X1162050Y800100D02*
D03*
X1143000Y762000D02*
D03*
X1162050Y723900D02*
D03*
X1143000Y685800D02*
D03*
X1162050Y647700D02*
D03*
X1143000Y609600D02*
D03*
X1162050Y571500D02*
D03*
X1143000Y533400D02*
D03*
X1123950Y952500D02*
D03*
Y876300D02*
D03*
X1104900Y838200D02*
D03*
Y762000D02*
D03*
X1123950Y723900D02*
D03*
Y647700D02*
D03*
X1104900Y609600D02*
D03*
Y533400D02*
D03*
X1085850Y952500D02*
D03*
Y876300D02*
D03*
X1066800Y762000D02*
D03*
Y685800D02*
D03*
X1085850Y647700D02*
D03*
X1066800Y609600D02*
D03*
Y533400D02*
D03*
X1047750Y952500D02*
D03*
X1028700Y914400D02*
D03*
X1047750Y876300D02*
D03*
Y723900D02*
D03*
X1028700Y685800D02*
D03*
X1047750Y647700D02*
D03*
X1028700Y609600D02*
D03*
Y533400D02*
D03*
X1009650Y952500D02*
D03*
X990600Y914400D02*
D03*
X1009650Y876300D02*
D03*
X990600Y762000D02*
D03*
X1009650Y723900D02*
D03*
X990600Y685800D02*
D03*
X1009650Y647700D02*
D03*
X990600Y609600D02*
D03*
X1009650Y571500D02*
D03*
X990600Y533400D02*
D03*
X971550Y952500D02*
D03*
X952500Y914400D02*
D03*
X971550Y876300D02*
D03*
X952500Y609600D02*
D03*
X971550Y571500D02*
D03*
X952500Y533400D02*
D03*
X933450Y952500D02*
D03*
X914400Y914400D02*
D03*
X933450Y876300D02*
D03*
X914400Y762000D02*
D03*
X933450Y647700D02*
D03*
X914400Y609600D02*
D03*
X933450Y571500D02*
D03*
X914400Y533400D02*
D03*
X895350Y952500D02*
D03*
X876300Y914400D02*
D03*
X895350Y876300D02*
D03*
X876300Y762000D02*
D03*
Y685800D02*
D03*
Y609600D02*
D03*
X895350Y571500D02*
D03*
X876300Y533400D02*
D03*
X857250Y952500D02*
D03*
X838200Y914400D02*
D03*
X857250Y876300D02*
D03*
X838200Y685800D02*
D03*
Y609600D02*
D03*
X857250Y571500D02*
D03*
X838200Y533400D02*
D03*
X819150Y952500D02*
D03*
X800100Y914400D02*
D03*
Y685800D02*
D03*
Y609600D02*
D03*
X819150Y571500D02*
D03*
X800100Y533400D02*
D03*
X781050Y952500D02*
D03*
Y571500D02*
D03*
X742950Y952500D02*
D03*
X723900Y914400D02*
D03*
X742950Y800100D02*
D03*
X723900Y762000D02*
D03*
X704850Y952500D02*
D03*
Y800100D02*
D03*
X685800Y762000D02*
D03*
X704850Y571500D02*
D03*
X666750Y952500D02*
D03*
Y876300D02*
D03*
Y723900D02*
D03*
Y571500D02*
D03*
X628650Y952500D02*
D03*
X609600Y609600D02*
D03*
X628650Y571500D02*
D03*
X571500Y838200D02*
D03*
X590550Y723900D02*
D03*
Y571500D02*
D03*
X552450Y952500D02*
D03*
X533400Y914400D02*
D03*
X552450Y723900D02*
D03*
X533400Y685800D02*
D03*
X552450Y647700D02*
D03*
X533400Y609600D02*
D03*
X552450Y571500D02*
D03*
X533400Y533400D02*
D03*
X514350Y876300D02*
D03*
X495300Y838200D02*
D03*
Y762000D02*
D03*
Y685800D02*
D03*
X514350Y647700D02*
D03*
X495300Y609600D02*
D03*
Y533400D02*
D03*
X457200Y914400D02*
D03*
X476250Y876300D02*
D03*
X457200Y838200D02*
D03*
X476250Y800100D02*
D03*
X457200Y762000D02*
D03*
X476250Y647700D02*
D03*
X457200Y609600D02*
D03*
Y533400D02*
D03*
X419100Y914400D02*
D03*
X438150Y876300D02*
D03*
X419100Y838200D02*
D03*
X438150Y647700D02*
D03*
X419100Y609600D02*
D03*
X438150Y571500D02*
D03*
X419100Y533400D02*
D03*
X400050Y952500D02*
D03*
X381000Y914400D02*
D03*
X400050Y876300D02*
D03*
X381000Y838200D02*
D03*
X400050Y800100D02*
D03*
X381000Y685800D02*
D03*
Y609600D02*
D03*
X400050Y571500D02*
D03*
X381000Y533400D02*
D03*
X361950Y952500D02*
D03*
X342900Y914400D02*
D03*
X361950Y876300D02*
D03*
X342900Y838200D02*
D03*
X361950Y723900D02*
D03*
X342900Y685800D02*
D03*
Y609600D02*
D03*
X361950Y571500D02*
D03*
X342900Y533400D02*
D03*
X323850Y952500D02*
D03*
X304800Y914400D02*
D03*
X323850Y876300D02*
D03*
X304800Y838200D02*
D03*
X323850Y723900D02*
D03*
X304800Y685800D02*
D03*
X323850Y647700D02*
D03*
X304800Y609600D02*
D03*
X323850Y571500D02*
D03*
X304800Y533400D02*
D03*
X285750Y952500D02*
D03*
X266700Y914400D02*
D03*
X285750Y876300D02*
D03*
X266700Y838200D02*
D03*
X285750Y800100D02*
D03*
X266700Y762000D02*
D03*
Y685800D02*
D03*
X285750Y647700D02*
D03*
X266700Y609600D02*
D03*
X285750Y571500D02*
D03*
X266700Y533400D02*
D03*
D85*
X722979Y702310D02*
D03*
X513080Y839470D02*
D03*
X756920Y796290D02*
D03*
X819506Y721716D02*
D03*
X822960Y709930D02*
D03*
X731520Y596900D02*
D03*
X413272Y951647D02*
D03*
X415290Y933450D02*
D03*
X402424Y888934D02*
D03*
X542290Y839470D02*
D03*
X524510Y842010D02*
D03*
X619760Y731520D02*
D03*
X943610Y734060D02*
D03*
X764540Y662940D02*
D03*
X767080Y678180D02*
D03*
X749300Y679450D02*
D03*
X412750Y697230D02*
D03*
X824230Y800100D02*
D03*
X698500Y883920D02*
D03*
X680720D02*
D03*
X901983Y933450D02*
D03*
X900430Y902970D02*
D03*
X881380Y810260D02*
D03*
X894080D02*
D03*
X732790Y858520D02*
D03*
X755650Y885571D02*
D03*
X687070Y670560D02*
D03*
X710261Y677849D02*
D03*
X656189Y651832D02*
D03*
X656962Y634978D02*
D03*
X711500Y597056D02*
D03*
X529590Y925830D02*
D03*
X464820Y735330D02*
D03*
X442598Y697868D02*
D03*
X431800Y706120D02*
D03*
X553720Y822960D02*
D03*
X568814Y793470D02*
D03*
X822960Y786130D02*
D03*
X835660Y760730D02*
D03*
X1073150Y548640D02*
D03*
X1098550Y549910D02*
D03*
X648320Y928865D02*
D03*
X692150Y913130D02*
D03*
X680720D02*
D03*
X647700Y910590D02*
D03*
X550538Y698499D02*
D03*
X590550Y847090D02*
D03*
X596301Y866042D02*
D03*
X642620Y579120D02*
D03*
Y598170D02*
D03*
X516893Y770902D02*
D03*
X539750Y754380D02*
D03*
X424180Y673100D02*
D03*
X407670Y791210D02*
D03*
X879785Y776980D02*
D03*
X322580Y784860D02*
D03*
X318693Y808125D02*
D03*
X544830Y919480D02*
D03*
Y944880D02*
D03*
X857250Y824312D02*
D03*
X574040Y880110D02*
D03*
X605790D02*
D03*
X572770Y867410D02*
D03*
X717550Y668020D02*
D03*
D86*
X600010Y939800D02*
D03*
Y927800D02*
D03*
X588010Y939800D02*
D03*
Y927800D02*
D03*
X576010Y939800D02*
D03*
Y927800D02*
D03*
M02*
